<svg xmlns="http://www.w3.org/2000/svg" width="27.833" height="27.834" viewBox="0 0 27.833 27.834">
  <g id="instagram" transform="translate(-0.001 -0.001)">
    <path id="Subtraction_6" data-name="Subtraction 6" d="M20.331,27.834H7.491A7.5,7.5,0,0,1,0,20.341V7.5A7.5,7.5,0,0,1,7.491,0h12.84a7.51,7.51,0,0,1,7.5,7.5v12.84A7.507,7.507,0,0,1,20.331,27.834ZM13.789,8.187A5.4,5.4,0,0,0,9.962,17.4a5.383,5.383,0,0,0,6.251,1A5.4,5.4,0,0,0,14.577,8.246,5.49,5.49,0,0,0,13.789,8.187Zm7.322-4a1.217,1.217,0,0,0-.859,2.08,1.2,1.2,0,0,0,.864.358,1.234,1.234,0,0,0,.545-.128A1.216,1.216,0,0,0,21.295,4.2a.377.377,0,0,0-.074-.007A.835.835,0,0,0,21.111,4.182Z" transform="translate(0.001 0.001)"/>
    <line id="Line_53" data-name="Line 53" x2="0.013" transform="translate(21.15 6.223)" fill="none"/>
  </g>
</svg>
