<svg xmlns="http://www.w3.org/2000/svg" width="19.887" height="24.36" viewBox="0 0 19.887 24.36">
  <g id="_0y5OyZ.tif" data-name="0y5OyZ.tif" transform="translate(-1322.79 -3147.935)">
    <g id="Group_148148" data-name="Group 148148" transform="translate(1322.79 3147.935)">
      <path id="Path_163600" data-name="Path 163600" d="M1337.3,3289.448h-.143a3.666,3.666,0,0,1-.533-.082c-.581-.176-1.163-.352-1.733-.559a3.989,3.989,0,0,0-2.368-.268c-1,.257-1.986.6-2.978.909h-.809a4.129,4.129,0,0,1-1.727-1.031,14.517,14.517,0,0,1-2.595-3.673,15,15,0,0,1-1.5-4.827,9.936,9.936,0,0,1,.12-3.823,6.571,6.571,0,0,1,3.161-4.375,4.711,4.711,0,0,1,3.358-.626,17.569,17.569,0,0,1,2.362.765,2.331,2.331,0,0,0,1.817.005c.552-.236,1.123-.429,1.7-.608a5.98,5.98,0,0,1,5.359.826,4.23,4.23,0,0,1,1.228,1.313c-.162.114-.313.215-.458.324a5.462,5.462,0,0,0-1.561,1.736,5.265,5.265,0,0,0-.561,3.061,5.035,5.035,0,0,0,1.367,3.136,6.86,6.86,0,0,0,1.873,1.323v.1c-.057.135-.12.269-.172.406a16.184,16.184,0,0,1-2.658,4.493,3.724,3.724,0,0,1-1.391,1.16A8.623,8.623,0,0,1,1337.3,3289.448Z" transform="translate(-1322.79 -3265.088)"/>
      <path id="Path_163601" data-name="Path 163601" d="M1530.439,3153.514a5.345,5.345,0,0,1,4.866-5.579,4,4,0,0,1-.058,1.408,5.7,5.7,0,0,1-2.583,3.692A3.4,3.4,0,0,1,1530.439,3153.514Z" transform="translate(-1520.515 -3147.935)"/>
    </g>
  </g>
</svg>
