<svg xmlns="http://www.w3.org/2000/svg" width="285.616" height="429.024" viewBox="0 0 285.616 429.024">
  <g id="Group_143253" data-name="Group 143253" transform="translate(-1251.515 -1034.362) rotate(-5)">
    <g id="Group_110" data-name="Group 110" transform="translate(1140.443 1324.2)">
      <path id="Path_154294" data-name="Path 154294" d="M1369.923,1532.266c-.529-.17-.665-.608-.847-1-1.5-3.184-2.957-6.387-4.489-9.556a190.875,190.875,0,0,0-12.925-22.864,111.874,111.874,0,0,0-7.983-10.486,236.1,236.1,0,0,1-17.367-23.76c-3.528-5.368-7.058-10.737-10.683-16.039a147.089,147.089,0,0,0-17.464-20.827,392.771,392.771,0,0,0-38.529-34.23,21.758,21.758,0,0,0-6.695-3.729,7.326,7.326,0,0,0-5.416.166,10.062,10.062,0,0,0-1.872,1.186,18.833,18.833,0,0,0-1.468,1.363,20.291,20.291,0,0,1-12.317,5.6,105.964,105.964,0,0,1-10.773.471c-4.675-.008-9.347.108-14.018.385-8.983.534-17.778,2.239-26.555,4.078-5.433,1.138-10.9,2.1-16.412,2.728a24.324,24.324,0,0,1-5.922.1,7.142,7.142,0,0,1-6.243-4.693,6.162,6.162,0,0,1,2.128-7.421,22.113,22.113,0,0,1,6.845-3.467c1.795-.536,3.617-1,5.45-1.383a5.609,5.609,0,0,0,3.672-2.58,3.4,3.4,0,0,0,.172-.37c-.379-.042-.7-.09-1.015-.11a63.678,63.678,0,0,1-11.2-1.586c-7.581-1.886-12.912-6.536-16.349-13.439a11.838,11.838,0,0,1-.371-9.585,6.022,6.022,0,0,1,2.121-2.872,19.532,19.532,0,0,1,1.846-1.257,6.034,6.034,0,0,0,2.76-3.384,32.9,32.9,0,0,1,2.823-6.406c.627-1.03,1.3-2.032,2-3.018a9.916,9.916,0,0,1,7.409-4.041,34.754,34.754,0,0,1,3.571-.044c.041-.11.141-.339.21-.576a35.091,35.091,0,0,1,2.464-6.06,18.439,18.439,0,0,1,4.057-5.3c1.043-.951,2.163-1.818,3.249-2.723l.481-.4a3.348,3.348,0,0,0-.148-.372,14.335,14.335,0,0,1-.861-11.927,13.206,13.206,0,0,1,6.778-7.826,20.459,20.459,0,0,1,7.733-2.2c1-.087,1.993-.2,2.992-.273a5.645,5.645,0,0,0,2.515-.887c1.345-.8,2.682-1.631,4.088-2.312a23.641,23.641,0,0,1,13.2-2.191c.255.028.508.075.761.117.227.037.453.079.711.124.176-.15.351-.3.521-.448.935-.842,1.882-1.67,2.792-2.539a1.9,1.9,0,0,0,.459-.848c.13-.467.162-.961.257-1.439a5.29,5.29,0,0,1,3.322-4.052,4.042,4.042,0,0,1,4.458.735,9.137,9.137,0,0,1,2.54,3.809,32.224,32.224,0,0,1,1.694,6.792c.668,4.73,1.3,9.466,1.863,14.209.639,5.408,1.162,10.831,2.247,16.175a62.6,62.6,0,0,0,2.665,9.568,30.744,30.744,0,0,0,2.312,4.864c1.8,3.052,3.533,6.146,5.341,9.2.916,1.545,1.917,3.042,2.908,4.542a53.309,53.309,0,0,1,5.559,10.287,26.084,26.084,0,0,1,1.828,7.535,9.3,9.3,0,0,1-.4,3.347,4.56,4.56,0,0,0,.077,3.1,14.886,14.886,0,0,0,1.521,3.01,43.543,43.543,0,0,0,3.35,4.122,51.935,51.935,0,0,0,6.2,5.66,390.437,390.437,0,0,1,37.745,34.184,160.475,160.475,0,0,1,19.188,24.278q5.673,8.68,11.441,17.3a158.75,158.75,0,0,0,11.6,15.476,152.589,152.589,0,0,1,20.217,31.067c1.8,3.552,3.513,7.149,5.228,10.742.5,1.039.875,2.137,1.282,3.218C1370.382,1531.651,1370.471,1532.052,1369.923,1532.266Zm-181.85-189.127.069-.027c2.338,2.086,4.629,4.226,7.019,6.249,6.456,5.464,13.23,10.517,20.157,15.365a100.342,100.342,0,0,0,16.6,9.542,76.139,76.139,0,0,0,15.179,5.428,4.9,4.9,0,0,0,2.285.226,15.384,15.384,0,0,0-.879-1.688,22.026,22.026,0,0,0-5.244-5.6,85.771,85.771,0,0,0-10.735-6.642c-1.529-.785-3.051-1.588-4.574-2.386a101.968,101.968,0,0,1-20.683-14c-1.9-1.688-3.651-3.537-5.465-5.318a5.66,5.66,0,0,1-.453-.573.69.69,0,0,1,.437.242,100.1,100.1,0,0,0,7.648,6.935,107.828,107.828,0,0,0,18.6,12.159,123.752,123.752,0,0,1,12.276,6.907.6.6,0,0,0,.193.047l.071-.087-.333-.289a75.049,75.049,0,0,0-6.466-5.113c-2.278-1.583-4.525-3.215-6.789-4.818a62.893,62.893,0,0,1-12.976-12.333,38.869,38.869,0,0,0-2.938-3.261q-2.531-2.539-5.166-4.972a229.016,229.016,0,0,0-17.961-14.668c-.84-.63-1.714-1.218-2.454-1.742-.96.273-1.789.538-2.633.742-.8.192-1.61.326-2.418.477a11.548,11.548,0,0,0-4.522,1.676c-1.392.96-2.7,2.042-4.042,3.076a1.452,1.452,0,0,0-.205.3c.694.924,1.342,1.883,2.086,2.76,1.564,1.84,3.179,3.635,4.773,5.45.168.191.326.391.488.586l-.169.132a56.7,56.7,0,0,1-7.6-8.66,19.522,19.522,0,0,0-2.915,3.474,123.586,123.586,0,0,0,26.777,23.47,2.534,2.534,0,0,1-.766-.319c-1.692-1.068-3.433-2.069-5.063-3.227a116.13,116.13,0,0,1-20.675-18.865c-.157-.182-.327-.352-.577-.618-1.734,3.373-3.236,6.67-3.623,10.491.189.163.412.336.612.534.938.916,1.863,1.844,2.8,2.757a173.621,173.621,0,0,0,28.3,22.383,132.1,132.1,0,0,0,20.42,10.741,70.689,70.689,0,0,0,19.135,5.278,29.988,29.988,0,0,0,8.506-.194,21.4,21.4,0,0,0,3.608-1.055,2.876,2.876,0,0,0,1.8-2.179c-.692.178-1.246.358-1.813.46a24.936,24.936,0,0,1-7.9-.061,38.606,38.606,0,0,1-8.078-2.158,95.78,95.78,0,0,1-18.311-9.576c-.24-.153-.451-.349-.675-.525,1.46.781,2.874,1.609,4.285,2.438a93.75,93.75,0,0,0,14.642,7.152,35.388,35.388,0,0,0,8.839,2.257,49.518,49.518,0,0,0,6.075.118,5.651,5.651,0,0,0,2.893-.82l-.12-.629a14.781,14.781,0,0,1-1.7-.23c-1.962-.5-3.95-.92-5.861-1.569a102.549,102.549,0,0,1-23.682-11.514c-5.726-3.785-11.2-7.92-16.608-12.136a124.916,124.916,0,0,1-11.973-10.412C1189.091,1344.2,1188.584,1343.668,1188.073,1343.138Zm62.75,36.084a.919.919,0,0,0,.686-.856,11.15,11.15,0,0,0,.205-2.062,21.9,21.9,0,0,0-1.5-6.742,50.142,50.142,0,0,0-5.748-10.876c-1.393-2.1-2.8-4.188-4.175-6.3a63.732,63.732,0,0,1-6.315-11.979,15.53,15.53,0,0,0-1.13-2.271c-2.23-3.813-4.54-7.581-6.714-11.426a74.617,74.617,0,0,1-8.247-20.987,53.1,53.1,0,0,1-1.383-9.416,8.755,8.755,0,0,0-.155-1.037,25.558,25.558,0,0,0-5.793,5.793,110.57,110.57,0,0,0,7.843,19.906c-3.741-6.045-6.134-12.666-8.218-19.425a6.456,6.456,0,0,0-1.755,3.106,26.918,26.918,0,0,0-.649,7.191,34.386,34.386,0,0,0,3.689,14.442,53.156,53.156,0,0,0,4.727,7.4,67.574,67.574,0,0,1,7.006,12.035c1.137,2.5,2.38,4.961,3.758,7.335a46.908,46.908,0,0,0,10.416,12.586q2.364,1.98,4.669,4.03a55.46,55.46,0,0,1,7.315,7.7,3.98,3.98,0,0,0,.41.378,4.861,4.861,0,0,0-.092-.647c-.448-1.417-.838-2.859-1.37-4.244a50.57,50.57,0,0,0-6.117-11.022q-6.878-9.723-13.888-19.35A175.383,175.383,0,0,1,1216.89,1325a61.138,61.138,0,0,1-3.912-8.192c-.12-.319-.189-.659-.281-.99l.15-.05c.356.787.706,1.579,1.068,2.365a111.078,111.078,0,0,0,9.526,16.45c3.409,4.951,6.978,9.793,10.471,14.687,3.209,4.5,6.478,8.953,9.593,13.512,3.337,4.887,6.027,10.1,7.112,16A1.978,1.978,0,0,0,1250.823,1379.222ZM1192.8,1374.2l.052-.181c-.267-.189-.535-.376-.8-.566a36.99,36.99,0,0,1-6.687-5.546,2.687,2.687,0,0,0-1.021-.657c-1.051-.412-2.121-.779-3.188-1.148a34.259,34.259,0,0,1-10.4-5.435,18.834,18.834,0,0,1-5.26-5.866,2.537,2.537,0,0,0-1.43-1.306c-2-.718-4-1.42-6-2.13-.168-.061-.332-.128-.5-.191a2.032,2.032,0,0,1,.944.013,35.738,35.738,0,0,1,5.609,1.854,5.026,5.026,0,0,0,.484.146,22.071,22.071,0,0,1-1.106-11.618,5.747,5.747,0,0,0-.683-.164,11.032,11.032,0,0,0-3.748.25,5.759,5.759,0,0,0-3.79,2.911,14.826,14.826,0,0,0-2,9.466,40.253,40.253,0,0,1,.245,4.071,6.866,6.866,0,0,1-2.713,5.847,33.842,33.842,0,0,0-3.032,2.846,9.843,9.843,0,0,0-1.459,1.881,6.492,6.492,0,0,0-.846,4.587,29.139,29.139,0,0,0,4.275,2.176,83.4,83.4,0,0,0,14.7,4.674,55.586,55.586,0,0,0,9.432,1.309,1.451,1.451,0,0,0,1.123-.361,23.335,23.335,0,0,1,4.956-3.373,3.4,3.4,0,0,0,.417-.29c-3.546-1.076-7.055-2.086-10.526-3.213a60.055,60.055,0,0,1-10.182-4.23.408.408,0,0,1,.266.046,130.731,130.731,0,0,0,20.682,6.865,1.973,1.973,0,0,0,1.345-.114c.938-.417,1.9-.783,2.85-1.171.135-.055.264-.125.561-.264a75.556,75.556,0,0,1-16.143-6.48c.094-.064.122-.1.135-.09.212.085.426.168.633.263a85.214,85.214,0,0,0,15.661,5.877,4.081,4.081,0,0,0,1.436.03c1.17-.149,2.332-.374,3.5-.53C1191.319,1374.287,1192.06,1374.257,1192.8,1374.2Zm51.751,16.038a23.88,23.88,0,0,1-4.6,1.563,45.005,45.005,0,0,1-11.941.816c-1.716-.067-3.432-.251-5.136-.479-2.465-.327-4.931-.671-7.371-1.135a87.168,87.168,0,0,1-10.481-2.729,68.87,68.87,0,0,1-14.078-6.122c-.226-.133-.444-.28-.667-.421a.553.553,0,0,1,.378.079,83.177,83.177,0,0,0,13.438,5.69,91.317,91.317,0,0,0,16.139,3.793c2.133.289,4.275.554,6.423.713a52.548,52.548,0,0,0,7.774.063,32.559,32.559,0,0,0,6.887-1.132,12.735,12.735,0,0,0,3.434-1.534c.264-.176.521-.353.462-.727a.693.693,0,0,0-.629-.6,8.868,8.868,0,0,0-1.827-.12c-1.79.145-3.57.393-5.36.529a45.607,45.607,0,0,1-10.379-.378,75.651,75.651,0,0,1-15.269-3.942,72.817,72.817,0,0,1-15.855-8.174,2.942,2.942,0,0,0-1.873-.579c-1.282.063-2.563.118-3.845.19a4.547,4.547,0,0,0-.647.127l-.028.16a149.691,149.691,0,0,0,19.585,9.839,89.96,89.96,0,0,1-10.474-4.353,96.6,96.6,0,0,1-9.993-5.509c-4.567.984-9.343,5.78-10.7,9.245.3.127.59.275.9.38,3.71,1.269,7.409,2.568,11.135,3.785,4.14,1.352,8.307,2.63,12.563,3.57q3.938.87,7.914,1.563a58.363,58.363,0,0,0,6.171.83c2.843.185,5.7.177,8.55.234,1,.019,2.005.027,3-.033,2.1-.129,4.2-.244,6.285-.485a45.361,45.361,0,0,0,4.913-.87A9.284,9.284,0,0,0,1244.549,1390.234Zm-60.765-75.245-.118.123a6.638,6.638,0,0,1-.7-.676q-2.294-2.95-4.564-5.917c-.15-.2-.293-.4-.481-.652a13,13,0,0,0-4.258,8.3,13.521,13.521,0,0,0,1.449,8.393c.894-.4,1.672-.8,2.485-1.1s1.638-.506,2.527-.772a11.046,11.046,0,0,1-2.318-3.014c.984.984,1.967,1.969,2.982,2.985,1-.22,1.948-.434,2.9-.634a2.087,2.087,0,0,0,1.377-1.019c.7-1.106,1.417-2.207,2.19-3.263a13.029,13.029,0,0,1,7.747-4.973,6.79,6.79,0,0,1,1.679-.167,10.4,10.4,0,0,1,5.614,1.9c.243.16.486.317.74.482.293-1.287.578-2.457.81-3.636a1.42,1.42,0,0,0-.153-.8c-.9-1.931-1.819-3.852-2.729-5.777-.067-.141-.109-.293-.163-.44a29.493,29.493,0,0,1,3.342,6.051c1.83-4.351,3.763-8.441,6.94-11.945a9.763,9.763,0,0,0-.985-.19,23.838,23.838,0,0,0-6.22.244,25.274,25.274,0,0,0-9.682,4.023,7.375,7.375,0,0,1-3.813,1.3c-.539.031-1.076.08-1.614.126a20.533,20.533,0,0,0-7.235,1.7c-.249.119-.491.25-.838.427l3.055,4.743a22.48,22.48,0,0,1-3.518-4.556l-1.991,1.323C1180.131,1310.107,1181.957,1312.549,1183.784,1314.989Zm17.049,83.23a2.05,2.05,0,0,0-.336-.094c-2.825-.062-5.65-.173-8.474-.163-2.358.009-4.717.144-7.073.259-1.483.072-2.967.192-4.446.328-1.988.182-3.975.4-5.961.6-2.19.227-4.392.375-6.566.7-2.984.452-5.951,1.031-8.921,1.578-.892.164-1.768.4-2.652.609l-.052-.142a2.38,2.38,0,0,1,.417-.241q.654-.222,1.323-.4a74.792,74.792,0,0,1,11.342-1.964c3.891-.444,7.792-.811,11.684-1.241,3.392-.374,6.8-.523,10.208-.579,3.131-.05,6.266.033,9.4.072,2.338.028,4.675.077,7.013.115.205,0,.411-.011.616-.016,4.366-.095,8.732-.25,13.1-.266a97.342,97.342,0,0,0,10.617-.511,18.764,18.764,0,0,0,5.8-1.493c.261-.12.51-.266.762-.4-1.134.066-2.212.291-3.3.39-2.4.218-4.8.406-7.2.539-1.587.089-3.182.077-4.773.08-1.641,0-3.282,0-4.922-.057-1.411-.051-2.819-.2-4.23-.282-4.386-.251-8.775-.482-13.161-.734-6.643-.381-13.284-.81-19.93-1.151-6.006-.308-12.015-.542-18.023-.768a23.823,23.823,0,0,0-3.691.169,10.266,10.266,0,0,0-5.263,2.559,3.917,3.917,0,0,0-1.4,4.067,6.008,6.008,0,0,0,5.058,4.854,19.778,19.778,0,0,0,5.608.008,142.049,142.049,0,0,0,15.208-2.451c5.73-1.214,11.471-2.358,17.26-3.259C1197.473,1398.689,1199.095,1398.47,1200.833,1398.219Zm44.872-12.666-.046-.131c-.143.019-.287.03-.427.062a22.914,22.914,0,0,1-4.955.585,42.947,42.947,0,0,1-7.971-.653,69.9,69.9,0,0,1-8.495-2.123,109.466,109.466,0,0,1-19.841-8.7,164.656,164.656,0,0,1-38.872-29.8c-.186-.192-.384-.372-.655-.635a3.177,3.177,0,0,0-.1.5,19.474,19.474,0,0,0,1.569,8.487,18.342,18.342,0,0,0,5.421,6.514,33.786,33.786,0,0,0,10.409,5.409c1.046.355,2.1.694,3.112,1.129a4.2,4.2,0,0,1,1.437.989,25.119,25.119,0,0,0,3.354,3.061,105.9,105.9,0,0,0,11.725,7.82,72.817,72.817,0,0,0,20.4,7.895,56.135,56.135,0,0,0,11.049,1.521c1.514.033,3.029-.073,4.545-.095a24.273,24.273,0,0,0,7.316-1.368A10.374,10.374,0,0,0,1245.7,1385.554Zm-15.972-63.017a5.228,5.228,0,0,0,0-.584c-.439-3.826-.848-7.657-1.336-11.478q-.75-5.885-1.64-11.75a26.829,26.829,0,0,0-1.616-6.1,7.842,7.842,0,0,0-2.034-2.96,2.934,2.934,0,0,0-3.294-.574,4.174,4.174,0,0,0-2.575,2.97,11.43,11.43,0,0,0-.359,2.742,33.586,33.586,0,0,0,.312,4.365,72.173,72.173,0,0,0,4.787,17.776,136.841,136.841,0,0,0,10.209,18.977,3.318,3.318,0,0,0,.381.4c-.114-.432-.186-.677-.242-.926-.6-2.68-1.2-5.362-1.808-8.041a17.37,17.37,0,0,0-.658-2.6,117.842,117.842,0,0,1-7.155-27.142,1.983,1.983,0,0,1,.037-1.136A124.515,124.515,0,0,0,1229.733,1322.537Zm-22.672-15.126-.147-.033c-.112.248-.23.493-.332.744a27.616,27.616,0,0,0-2.078,11.2,39.88,39.88,0,0,0,3.341,15.411,56.443,56.443,0,0,0,17,21.874c2.018,1.587,4.125,3.064,6.194,4.587.174.13.371.23.558.342a2.071,2.071,0,0,0-.467-.793,49.726,49.726,0,0,1-5.838-8.5c-1.11-2.085-2.181-4.194-3.165-6.342a63.243,63.243,0,0,0-6.337-10.913c-.983-1.351-1.958-2.71-2.875-4.1a34.614,34.614,0,0,1-5.889-22.672C1207.05,1307.947,1207.05,1307.679,1207.061,1307.411Zm-21.382,14.875a198.967,198.967,0,0,1,25.284,20.867c-.322-.693-.707-1.327-1.078-1.968a44.9,44.9,0,0,1-4.953-11.334,6.223,6.223,0,0,0-1.531-2.778,118.309,118.309,0,0,0-8.985-8.554c-.272-.239-.535-.492-.8-.738l.123-.126a92.983,92.983,0,0,1,10.4,9.351,46.653,46.653,0,0,1-.734-10.156,11.868,11.868,0,0,0-4.113-2.57,6.654,6.654,0,0,0-3.7-.43,12.893,12.893,0,0,0-4.722,2C1188.532,1317.505,1187.144,1319.9,1185.679,1322.286Zm-16.691,70.462c.178.015.355.036.534.045q9.7.5,19.4.992c1.642.083,3.286.144,4.928.232q7.044.379,14.088.772c.278.014.557.008.836.012-10.711-2.05-20.945-5.581-31.169-9.317-1.021,1.636-1.89,3.375-3.46,4.583A15.467,15.467,0,0,1,1168.988,1392.748Zm-24.411-19.245c.047-.167.078-.217.072-.263a7.909,7.909,0,0,1,1.568-6.01,21.036,21.036,0,0,1,1.8-2.005c.857-.847,1.76-1.65,2.657-2.456a4.93,4.93,0,0,0,1.729-3.091,18.234,18.234,0,0,0,.15-2.834c-.049-1.511-.26-3.02-.277-4.531a30.876,30.876,0,0,1,.249-3.829,18.927,18.927,0,0,1,.515-2.218,1.459,1.459,0,0,0-.474.5c-.744,1.377-1.525,2.734-2.2,4.147-.526,1.109-.916,2.285-1.352,3.436a6.984,6.984,0,0,1-3.04,3.655c-.639.38-1.254.8-1.855,1.239a5.019,5.019,0,0,0-1.777,2.365,10.554,10.554,0,0,0,.036,8.034,37.343,37.343,0,0,0,1.859,3.45A3.071,3.071,0,0,0,1144.577,1373.5Zm29.293,8.424a73.564,73.564,0,0,1-28.321-8.1,3.439,3.439,0,0,0,.9,2.2,22.73,22.73,0,0,0,11.878,7.182,91.126,91.126,0,0,0,12.649,1.819c.942-.958,1.877-1.909,2.807-2.865C1173.832,1382.12,1173.834,1382.032,1173.87,1381.927Zm-12.822,9.562.046.131c1.147-.1,2.293-.2,3.44-.3a29.028,29.028,0,0,0,5.186-.675,9.558,9.558,0,0,0,5.719-3.912c.386-.575.808-1.132,1.147-1.734a23.664,23.664,0,0,1,5.122-6.5,2.537,2.537,0,0,0,.257-.351c-.328.117-.517.168-.692.249a22.893,22.893,0,0,0-6.2,4.249,34.117,34.117,0,0,0-4.4,4.843,6.3,6.3,0,0,1-4.056,2.57c-1.583.331-3.145.758-4.714,1.151C1161.616,1391.284,1161.334,1391.4,1161.048,1391.489Z" transform="translate(-1140.443 -1287.713)" fill="#b4c0c8"/>
      <path id="Path_154295" data-name="Path 154295" d="M1213.138,1359.08a7.233,7.233,0,0,1-1.031-.323c-1.778-.856-3.563-1.7-5.313-2.611a110.106,110.106,0,0,1-11.719-6.92c-.99-.684-1.933-1.44-2.892-2.169-.2-.15-.371-.335-.561-.51a.642.642,0,0,1,.1-.079c.022-.007.057-.015.072,0,6.663,4.956,13.987,8.782,21.412,12.435Z" transform="translate(-1125.96 -1271.089)" fill="#b4c0c8"/>
    </g>
    <g id="Group_111" data-name="Group 111" transform="translate(1285.533 1199.651)">
      <path id="Path_154296" data-name="Path 154296" d="M1268.368,1258.189c-.172-.4-.275-.654-.394-.906q-4.623-9.707-9.245-19.413a71.9,71.9,0,0,1-4.3-10.716,19.3,19.3,0,0,1-.864-6.693,12.058,12.058,0,0,1,2.606-6.959,9.9,9.9,0,0,1,1.285-1.325c2.164-1.844,4.443-2.263,7.472-.544a13.391,13.391,0,0,1,3.355,2.929c.354.4.7.812,1.107,1.275l.922-.485c0-.444.016-.826,0-1.207a18.345,18.345,0,0,1,2.364-10.069,10.375,10.375,0,0,1,10.775-5.147c.862.14,1.728.247,2.589.394a3.864,3.864,0,0,0,2.652-.567c1.157-.666,2.311-1.35,3.513-1.927a13.3,13.3,0,0,1,7.965-1.084,7.638,7.638,0,0,1,3.276,1.474l.726.529c.265-.2.512-.37.751-.553a33.007,33.007,0,0,1,13.178-6.108,25.266,25.266,0,0,1,7.214-.349,18.114,18.114,0,0,1,5.072.873,17.776,17.776,0,0,1,3.345,1.543,9.281,9.281,0,0,1,4.547,6.234c.326-.064.62-.109.9-.182,3.767-.961,10.279.318,13.481,4.995a15.011,15.011,0,0,1,2.335,6.224c.166,1.037.259,2.083.4,3.21.234-.1.444-.169.64-.268a13.014,13.014,0,0,1,8.921-1.077,10.789,10.789,0,0,1,2.284.893,5.289,5.289,0,0,0,1.511.52,16.691,16.691,0,0,1,2.779.6,6.96,6.96,0,0,1,4.942,6.647,22.017,22.017,0,0,1-1.483,8.448,40.872,40.872,0,0,1-2.991,6.25c-2.936,5.1-5.83,10.223-9.231,15.038a51.8,51.8,0,0,0-4.857,9.1c-1.746,3.947-3.47,7.9-5.26,11.829a46.329,46.329,0,0,1-4.648,8.07,22.882,22.882,0,0,1-16.031,9.371,19.451,19.451,0,0,1-4.921.027,11.264,11.264,0,0,0-11.821,7.15,17.687,17.687,0,0,0-1.079,5.8c-.213,3.925-.467,7.848-.708,11.771-.388,6.307-.938,12.608-.976,18.933a94.633,94.633,0,0,0,.843,11.986c.694,5.71,1.432,11.417,2.009,17.141.557,5.523.68,11.076.83,16.625.305,11.386-.107,22.765-.229,34.148q-.154,14.532-.042,29.064c.045,5.754.34,11.5.853,17.241q.831,9.287,1.606,18.58c.453,5.376.909,10.75,1.312,16.13.415,5.534.713,11.076,1.164,16.606.273,3.353.732,6.688,1.12,10.03.268,2.321.555,4.641.829,6.962a4.968,4.968,0,0,1,.031.692.559.559,0,0,1-.466.617c-.378.062-.568-.178-.664-.5a3.3,3.3,0,0,1-.095-.53c-.5-3.949-1.031-7.894-1.474-11.85-.292-2.6-.472-5.218-.672-7.83-.253-3.3-.476-6.611-.708-9.916-.181-2.564-.34-5.127-.535-7.689-.219-2.869-.465-5.735-.7-8.6q-.335-4.032-.681-8.062c-.285-3.3-.606-6.6-.862-9.9-.358-4.584-.76-9.167-.984-13.758-.676-13.845-.322-27.7-.182-41.546.074-7.45.224-14.9.248-22.354.014-4.393-.105-8.789-.25-13.179-.177-5.368-.526-10.727-1.171-16.061-.54-4.462-1.143-8.917-1.672-13.38a82.827,82.827,0,0,1-.58-14.385q.416-7.386.86-14.773c.19-3.155.486-6.3.584-9.461.07-2.254-.064-4.519-.2-6.774a7.585,7.585,0,0,0-1.5-3.911,5.2,5.2,0,0,0-.9-.946,2.657,2.657,0,0,0-2.49-.611,35.97,35.97,0,0,1-11.255.792,48.41,48.41,0,0,1-10.74-2.363,43.649,43.649,0,0,1-18.976-12.611,23.725,23.725,0,0,1-5.814-11.729,12.506,12.506,0,0,1-.114-4.521,4.95,4.95,0,0,1,4.819-4.189,13.577,13.577,0,0,1,1.686.112C1267.594,1258.048,1267.892,1258.112,1268.368,1258.189Zm44.149,27.953a6.254,6.254,0,0,1-.638.752,19.155,19.155,0,0,1-4.183,2.729,28.4,28.4,0,0,1-8.171,2.629c1.568-.04,3.127-.147,4.687-.244a20.518,20.518,0,0,0,6.542-1.623,4.211,4.211,0,0,0,1.853-1.463,2.367,2.367,0,0,0,.258-2.77h-.36l.205-.382c-.662-2.137-3.591-4.093-5.187-4.308a22.373,22.373,0,0,1-6.25,4,31.791,31.791,0,0,0,5.862-4.209,6.321,6.321,0,0,0-3.349-.527,19.56,19.56,0,0,0-4.047.885,2.472,2.472,0,0,0-1.309.971,18.421,18.421,0,0,1-9.608,7.228,3.252,3.252,0,0,0-.4.181c4.834.726,9.429-.267,13.959-1.773a16.987,16.987,0,0,1-4.26,1.514,37.836,37.836,0,0,1-4.538.777c-1.468.145-2.956.085-4.436.116a21.743,21.743,0,0,0,5.957,1.18,27,27,0,0,0,6.587-.362A26.546,26.546,0,0,0,1312.517,1286.142Zm6.126-93.927c-.117.28-.234.532-.329.794a116.124,116.124,0,0,0-3.862,13.275,186.139,186.139,0,0,0-3.569,20.81c-.317,2.8-.629,5.6-.886,8.411-.2,2.171-.361,4.347-.454,6.525-.145,3.336-.291,6.674-.3,10.011-.007,3.26.12,6.523.259,9.78.1,2.408.252,4.82.512,7.215.263,2.417.639,4.825,1.056,7.222a35.42,35.42,0,0,0,3.327,10.358,2.226,2.226,0,0,0,3.06,1.213c.129-.436.281-.921.416-1.411a59.367,59.367,0,0,0,1.663-13.092c.16-3.54.139-7.089.2-10.633,0-.172.025-.343.038-.513.1,1.183.075,2.365.11,3.542a114.947,114.947,0,0,1-.324,13.312,43.969,43.969,0,0,1-1.379,8.09,3.077,3.077,0,0,0-.055.571,1.552,1.552,0,0,0,1.573-.978c.248-.534.558-1.041.8-1.576a45.556,45.556,0,0,0,3.069-10.293,97.012,97.012,0,0,0,1.219-10.383c.215-2.4.372-4.807.631-7.2.271-2.5.566-4.992.97-7.47.792-4.857,1.873-9.653,3.125-14.416,1.778-6.763,3.849-13.451,5.24-20.314.554-2.736,1.121-5.469,1.623-8.213.29-1.586.457-3.192.686-4.788a6.97,6.97,0,0,0-1.454-5.641,11.62,11.62,0,0,0-6.474-3.918,1.677,1.677,0,0,0-.431.021,188.932,188.932,0,0,0-4.922,20.7c.7-7.108,2.666-13.944,4.482-20.8a9.206,9.206,0,0,0-3.639-.4c-.7,2.97-1.406,5.985-2.116,9a6.639,6.639,0,0,1,.094-1.291c.5-2.43,1.025-4.855,1.533-7.282a3.171,3.171,0,0,0,0-.571A22.361,22.361,0,0,0,1318.643,1192.215Zm-58.574,31.1.147-.047a1.12,1.12,0,0,1,.117.177c.255.616.525,1.225.758,1.85,3.2,8.56,6.789,16.956,10.655,25.232a89.728,89.728,0,0,0,7.948,14.067,18.084,18.084,0,0,0,2.039,2.4c.93.92,1.956,1.742,2.942,2.606a34.17,34.17,0,0,0,5.448,3.9c.236.136.484.253.725.378l.1-.118c-.179-.2-.354-.4-.539-.588a68.723,68.723,0,0,1-9.98-13.177,130.13,130.13,0,0,1-9.589-21.222c-.346-.954-.635-1.928-.983-2.991.153.092.21.108.225.14.119.284.237.566.341.855a168.984,168.984,0,0,0,7.316,17.2,73.024,73.024,0,0,0,14,19.788,5.918,5.918,0,0,0,3.18,1.729c.4.075.8.177,1.208.248a4.973,4.973,0,0,0,.7.005,93.8,93.8,0,0,1-16.584-26.236c.072-.019.1-.009.108.01.259.5.522,1,.775,1.505a124.509,124.509,0,0,0,8.633,15.007,86.889,86.889,0,0,0,7.483,9.4,1.825,1.825,0,0,0,.993.674c1.182.242,2.352.539,3.527.807.155.036.319.038.573.068-.123-.227-.183-.366-.268-.489a79.617,79.617,0,0,1-6.31-11.635c-.514-1.119-1.087-2.211-1.668-3.3-1.783-3.326-3.645-6.613-5.364-9.97-2.751-5.373-5.011-10.966-7.253-16.566-1.591-3.973-3.228-7.93-4.516-12.016-.1-.309-.165-.626-.247-.939a4.394,4.394,0,0,1,.508,1.047q2.575,6.466,5.158,12.93a181.973,181.973,0,0,0,10.493,22.273c.156.276.322.547.483.82a1.349,1.349,0,0,0-.065-.7c-.675-2.371-1.423-4.724-2.008-7.117a47.153,47.153,0,0,1-1.519-9.651,4.63,4.63,0,0,0-.341-1.331c-1.22-3.456-2.454-6.908-3.678-10.363a5.626,5.626,0,0,1-.149-.644,24.007,24.007,0,0,1,1.4,3.11c.791,2.113,1.553,4.238,2.331,6.355.09.242.215.472.39.853a4.135,4.135,0,0,0,.086-.416,37.414,37.414,0,0,1,.753-5.88,2.664,2.664,0,0,0-.069-1.282c-.523-1.692-1.06-3.383-1.67-5.046a25.124,25.124,0,0,0-4.241-7.646,10.4,10.4,0,0,0-4.875-3.373,14.024,14.024,0,0,0-8.7.34,2.266,2.266,0,0,0-.418.253c1.4,4.367,3.233,8.527,5.04,12.7a69.215,69.215,0,0,1-5.472-12.5l-1.366.205c.06.181.1.327.157.466,1.632,3.989,3.214,8,4.918,11.956,1.175,2.733,2.52,5.392,3.782,8.088.123.263.2.548.3.824l-.16.068c-.117-.214-.237-.427-.353-.644a169.9,169.9,0,0,1-9.088-20.539,7.54,7.54,0,0,0-2.143-3.131c-.5-.439-1.023-.859-1.557-1.256a5.7,5.7,0,0,0-2.475-1.015,8.088,8.088,0,0,0-.921-.053c1.232,3.632,2.427,7.156,3.623,10.681l-.172.062c-1.522-3.482-2.575-7.146-3.986-10.695a3.9,3.9,0,0,0-1.819.752,9.257,9.257,0,0,0-3.473,4.688,13.924,13.924,0,0,0-.227,8.049,41.628,41.628,0,0,0,2.955,8.341c3.857,8.235,7.771,16.444,11.657,24.666a1.68,1.68,0,0,0,.788.8,19.49,19.49,0,0,1,1.943,1.1c1.872,1.268,3.719,2.57,5.577,3.857.208.144.417.284.626.425a1.989,1.989,0,0,0-.357-.839,76.519,76.519,0,0,1-4.769-8.183,271.422,271.422,0,0,1-12.468-29.137C1260.76,1225.338,1260.42,1224.327,1260.069,1223.32Zm90.126-2.154c.248-1.407.529-2.808.734-4.221.366-2.507.7-5.019,1.02-7.531.108-.839.109-1.692.241-2.526a2.422,2.422,0,0,0-.43-1.885,10.362,10.362,0,0,0-3.567-3.234,13.312,13.312,0,0,0-10.641-.953c-.051.7-.055,1.422-.163,2.127-.391,2.581-.755,5.17-1.243,7.734-1.242,6.5-2.841,12.908-4.629,19.276a161.957,161.957,0,0,0-4.769,21.051c-.461,3.247-.835,6.509-1.178,9.771-.265,2.525-.431,5.06-.619,7.593a58,58,0,0,1-1.255,8.434,37.235,37.235,0,0,1-3.4,9.937,1.662,1.662,0,0,0-.093.368,2.9,2.9,0,0,0,2.4-1.561,5.475,5.475,0,0,1,.408-.653,45.514,45.514,0,0,0,5.666-11.993,2.736,2.736,0,0,1,.183-.4l.141.05c-.41,1.316-.781,2.644-1.235,3.944a44.907,44.907,0,0,1-4.434,8.778c-.138.222-.266.452-.471.8a3.193,3.193,0,0,0,1.889-1.128,41.725,41.725,0,0,0,5-7.756,78.925,78.925,0,0,0,5.7-15.582c1.156-4.362,2.076-8.774,2.8-13.228.537-3.286,1.1-6.568,1.65-9.851.484-2.9.927-5.816,1.448-8.713.788-4.386,1.946-8.687,3.063-13,.069-.269.176-.529.266-.792-.615,3.1-1.4,6.144-2,9.229-.894,4.648-1.668,9.321-2.462,13.988-.692,4.066-1.315,8.142-2.018,12.205a114.427,114.427,0,0,1-3.889,15.894,56.078,56.078,0,0,1-8.265,16.862,2.217,2.217,0,0,0-.169.424c.291-.142.454-.207.6-.3a20.933,20.933,0,0,0,8.783-9.545,67.482,67.482,0,0,0,2.933-7.616,171.623,171.623,0,0,1,7.617-20.584,94.264,94.264,0,0,0,4.528-12.528c1.742-6.026,3.44-12.057,3.73-18.38a21.914,21.914,0,0,0-.938-7.836c-.082-.253-.2-.494-.3-.741-.43,2.382-.723,4.736-1.059,7.082A37.735,37.735,0,0,1,1350.2,1221.166Zm-40.488,59.53.136-.092c-.078-.235-.158-.468-.235-.7-.435-1.314-.906-2.619-1.294-3.945a82.713,82.713,0,0,1-2.487-11.643c-.374-2.638-.749-5.277-1.031-7.926-.243-2.268-.391-4.55-.512-6.828-.181-3.384-.386-6.769-.423-10.156-.045-4.082.046-8.167.133-12.251.056-2.59.209-5.181.33-7.769.037-.794.1-1.589.168-2.38q.276-3.064.571-6.125c.159-1.632.3-3.266.513-4.891.314-2.411.686-4.814,1.032-7.221.06-.421.108-.843.167-1.3-.161.033-.249.027-.3.067-.437.315-.876.63-1.3.965a17.856,17.856,0,0,0-6.082,8.169,21.986,21.986,0,0,0-1.129,6.737c-.079,2.928-.064,5.857-.094,8.786a27.092,27.092,0,0,0-.033,2.77c.19,2.064.454,4.124.719,6.182a83.657,83.657,0,0,0,1.9,10.261c.041.154.051.317.077.475l-.189.04a44.371,44.371,0,0,1-1.9-8.546c-.438-2.92-.8-5.85-1.214-8.908-.58.524-1.12.954-1.595,1.448a15.426,15.426,0,0,0-3.791,7.2,29.606,29.606,0,0,0-.857,9.471,54.824,54.824,0,0,0,.808,5.714,77.939,77.939,0,0,0,8.745,23.348c1.083,1.952,2.361,3.794,3.536,5.7a2.32,2.32,0,0,0,.988.815c1.408.74,2.8,1.516,4.191,2.281C1309.406,1280.516,1309.557,1280.608,1309.708,1280.7Zm-11.336-83.959a13.094,13.094,0,0,0-5.606,1.139c-1.046.549-2.109,1.078-3.1,1.717a6,6,0,0,1-4.575.816c-1.007-.191-2.03-.321-3.051-.416a4.289,4.289,0,0,0-2.132.259,5.683,5.683,0,0,0,.05.794c.418,2,.85,4,1.273,6.007a5.8,5.8,0,0,1,.063.593,31.288,31.288,0,0,1-1.909-7.313,6.1,6.1,0,0,0-2.341.946,90.181,90.181,0,0,0,2.412,10.329,4.621,4.621,0,0,1-.694-1.342c-.659-2.445-1.285-4.9-1.917-7.356-.105-.405-.184-.819-.286-1.285-.222.132-.361.2-.48.289a8.5,8.5,0,0,0-2.363,2.711,17.773,17.773,0,0,0-2.25,9.4c.009.25.055.5.089.8.3-.035.55-.057.8-.092.838-.123,1.672-.289,2.514-.371a11.526,11.526,0,0,1,10.361,3.955,20.489,20.489,0,0,1,3.6,5.716c.771,1.874,1.425,3.8,2.132,5.7.092.248.189.5.34.893.368-.774.615-1.392.945-1.961a2.62,2.62,0,0,0,.309-1.782c-.331-2.15-.685-4.3-1.026-6.443-.052-.327-.082-.657-.122-.985l.15-.018a67.173,67.173,0,0,1,1.5,7.728l1.281-1.629c-.248-5.7-1.22-11.317-1.947-16.962a103.679,103.679,0,0,1,2.393,16.417,14.155,14.155,0,0,1,1.117-.941,1.786,1.786,0,0,0,.8-1.645c-.018-.951-.013-1.9,0-2.852a84.062,84.062,0,0,1,.31-9.007,18.375,18.375,0,0,1,5.6-11.376c.182-.175.352-.358.574-.586a7.029,7.029,0,0,0-4.281-1.8c-.111,1.147.372,2.166.221,3.2l-.2.018Zm13.672,85.846c-.081-.358-.122-.55-.169-.74-.317-1.267-.664-2.529-.951-3.8a89.344,89.344,0,0,1-1.808-13.629c-.213-3.124-.3-6.259-.33-9.391-.032-2.927.033-5.857.135-8.782q.146-4.269.46-8.532c.2-2.813.472-5.621.771-8.424.276-2.6.552-5.2.97-7.777q.955-5.876,2.118-11.714a105.333,105.333,0,0,1,4.784-16.914,5.234,5.234,0,0,0,.138-.621,33.963,33.963,0,0,0-10.937,4.715c-.267,1.859-.559,3.677-.783,5.505-.3,2.44-.561,4.886-.8,7.332-.268,2.7-.541,5.408-.729,8.119-.207,2.944-.349,5.894-.462,8.844-.092,2.412-.155,4.829-.133,7.244q.05,5.431.246,10.86c.1,2.641.263,5.281.473,7.915.2,2.5.424,5.009.77,7.5.447,3.222.956,6.438,1.56,9.634a58.555,58.555,0,0,0,3.071,10.7A4.224,4.224,0,0,0,1312.043,1282.583Zm14.277,5.213c1.464.2,2.76.449,4.071-.3a30.975,30.975,0,0,0,7.8-6.455,53.285,53.285,0,0,0,7.3-10.836,110.327,110.327,0,0,0,9.521-27.385c.751-3.373,1.36-6.778,1.971-10.181.342-1.914.566-3.851.824-5.78.186-1.4.348-2.8.508-4.2.146-1.273.285-2.545.408-3.821.154-1.58.292-3.163.429-4.745a5.585,5.585,0,0,0-.026-.6,10.359,10.359,0,0,0-3.782,1.7c-.021.287-.031.519-.059.747-.267,2.243-.384,4.517-.833,6.723a117.547,117.547,0,0,1-7.271,23.834,157.811,157.811,0,0,0-7.275,19.395,71.826,71.826,0,0,1-2.98,8.259,22.961,22.961,0,0,1-5.217,7.744,26.333,26.333,0,0,1-5.534,4.024,3.135,3.135,0,0,0-.7.467c-.367.364-.322.7.172,1.145.83-.539,1.711-1.059,2.539-1.656a38.459,38.459,0,0,0,11.388-13.184,105.117,105.117,0,0,0,8.062-19.517c.1-.344.23-.68.346-1.019a.25.25,0,0,1,.082.254c-.031.15-.064.3-.1.449a92.3,92.3,0,0,1-7.7,19.483,38.207,38.207,0,0,1-13.663,15.157A2.51,2.51,0,0,0,1326.321,1287.8Zm40.378-73.271c.04-.042-.04.005-.058.069-.085.3-.16.594-.225.894-.706,3.331-1.275,6.7-2.139,9.988-1.608,6.123-3.358,12.208-5.1,18.292-1.661,5.794-3.415,11.56-5.573,17.192a63.406,63.406,0,0,1-7.417,14.326,34.972,34.972,0,0,1-7.8,8.255,44.121,44.121,0,0,1-6.706,3.926c-.227.109-.443.24-.662.362l.069.155c.656-.1,1.316-.186,1.967-.313a21.622,21.622,0,0,0,13.919-8.651,34.787,34.787,0,0,0,3.441-5.657q2.9-6.214,5.668-12.491a63.933,63.933,0,0,1,5.952-11.3,179.147,179.147,0,0,0,9.537-15.664,30.485,30.485,0,0,0,2.957-7.014,18.339,18.339,0,0,0,.7-6.632,5.2,5.2,0,0,0-2.292-3.843,101.407,101.407,0,0,1-3.818,11.616,16.2,16.2,0,0,1,.492-2q1.372-4.6,2.745-9.2a6.348,6.348,0,0,0,.132-.735,7.514,7.514,0,0,0-3.082-1.1C1368.53,1214.85,1367.656,1214.692,1366.7,1214.525Zm-7.258-1.124c0,.712.043,1.329-.008,1.939q-.258,3.1-.571,6.2c-.2,1.987-.376,3.981-.662,5.957-.452,3.118-.956,6.228-1.494,9.33a137.719,137.719,0,0,1-3.717,15.777,94.881,94.881,0,0,1-7.89,19.345,46.162,46.162,0,0,1-10.292,13.07.965.965,0,0,0-.135.2,3.02,3.02,0,0,0,.808-.358,32.946,32.946,0,0,0,10.174-9.724,62.447,62.447,0,0,0,6.931-13.025c2.069-5.146,3.717-10.436,5.293-15.746,2.916-9.826,5.968-19.618,7.871-29.713.16-.851.362-1.692.561-2.616A11.408,11.408,0,0,0,1359.441,1213.4Zm-87.289,50.571a24.465,24.465,0,0,0-.2,12.324,17.586,17.586,0,0,1-.738-2.9,22.9,22.9,0,0,1,.648-9.879c-.739-.7-1.416-1.4-2.156-2.023a10.8,10.8,0,0,0-3.722-2.126,2.425,2.425,0,0,0-1.659,0,3.4,3.4,0,0,0-2.293,2.5,10.008,10.008,0,0,0-.217,2.518,20.358,20.358,0,0,0,2.734,8.9,30.906,30.906,0,0,0,7.161,8.3,2.315,2.315,0,0,0,.353.184c-4.392-6.119-6.887-12.7-6.516-20.181a7.528,7.528,0,0,1,.147,1.338,32.245,32.245,0,0,0,.729,5.789,32.965,32.965,0,0,0,4.408,10.526,18.191,18.191,0,0,0,6.342,6.388c.182.1.375.186.643.317-3.014-5.205-2.916-10.625-1.781-16.157A44.721,44.721,0,0,0,1272.153,1263.972Zm32.565,15.478.016-.146c-.253-.114-.5-.237-.758-.341a27.382,27.382,0,0,0-6.67-1.814,19.689,19.689,0,0,1-6.2-1.749,35.71,35.71,0,0,1-7.211-4.829c-2.036-1.728-4.008-3.539-6.123-5.166-2.093-1.611-4.32-3.05-6.506-4.536A7.568,7.568,0,0,0,1269,1259.8a.472.472,0,0,0,.185.239,19.089,19.089,0,0,1,5.855,6.034c1,1.527,1.944,3.086,2.9,4.638a21.244,21.244,0,0,0,7.525,7.363,16.3,16.3,0,0,0,10.373,2.479,23.075,23.075,0,0,0,3.007-.647,14.215,14.215,0,0,1,4.957-.46C1304.108,1279.473,1304.413,1279.45,1304.718,1279.45Zm-17.813,10.3c4.934-.849,8.546-3.692,11.472-7.6a8.164,8.164,0,0,0-1.51.173,11.273,11.273,0,0,1-3.977.122,22.675,22.675,0,0,1-6.233-2.149c-.246-.123-.5-.241-.816-.4a31.9,31.9,0,0,1-2.974,8.7l.777.286c.425-.464.835-.915,1.246-1.365l.082.073-.932,1.433c1.972,1.112,3.5.173,5.015-.915A4.869,4.869,0,0,1,1286.9,1289.749Zm-7.425-7.98c.086.576.163,1.155.259,1.729a9.574,9.574,0,0,0,1.457,3.93,1.873,1.873,0,0,0,1.26.925,31.127,31.127,0,0,0,3.078-8.682,32.383,32.383,0,0,1-6.8-5.666,24.331,24.331,0,0,0-.508,3.445,25.834,25.834,0,0,0,.293,5.9,8.323,8.323,0,0,0,1.3,3.341,1.679,1.679,0,0,0,.984.822A10.7,10.7,0,0,1,1279.48,1281.769Zm-.533,4.664c-1.62-4.29-1.349-8.592-.489-12.913-.366-.523-.71-1.034-1.071-1.532a10.5,10.5,0,0,0-1.1-1.61,25.332,25.332,0,0,0-.064,10.433,11.963,11.963,0,0,0,1.828,4.538C1278.317,1285.732,1278.646,1286.074,1278.947,1286.433Z" transform="translate(-1253.53 -1190.637)" fill="#b4c0c8"/>
      <path id="Path_154297" data-name="Path 154297" d="M1302.762,1269.3a2.408,2.408,0,0,1-.088-.418c-.062-1.564-.134-3.128-.17-4.693-.06-2.67-.156-5.34-.127-8.01.032-2.847.164-5.7.307-8.54.108-2.15.258-4.3.465-6.443.251-2.6.586-5.188.88-7.783a82.322,82.322,0,0,1,1.565-9.147c.251-1.1.527-2.186.8-3.278a.693.693,0,0,1,.322-.454c-.051.274-.092.55-.155.822a90.221,90.221,0,0,0-1.786,9.416c-.321,2.59-.659,5.179-.911,7.777-.263,2.728-.441,5.464-.635,8.2q-.481,6.763-.423,13.542c.027,2.7.095,5.392.142,8.088.005.305,0,.61,0,.916Z" transform="translate(-1239.708 -1182.176)" fill="#b4c0c8"/>
      <path id="Path_154298" data-name="Path 154298" d="M1286.888,1224.353c.784,7.461,2.9,14.607,5.233,21.807-.535-.068-.543-.354-.611-.575-.917-2.983-1.913-5.945-2.716-8.959-.677-2.542-1.174-5.133-1.664-7.72-.262-1.378-.343-2.79-.5-4.188a1.377,1.377,0,0,1,.05-.346Z" transform="translate(-1244.162 -1181.096)" fill="#b4c0c8"/>
    </g>
    <g id="Group_112" data-name="Group 112" transform="translate(1174.734 1158.784)">
      <path id="Path_154299" data-name="Path 154299" d="M1169.486,1216.931c-.32-.458-.634-.894-.934-1.341a8.039,8.039,0,0,1-1.364-4.116,12.31,12.31,0,0,1,1.661-6.717,6.227,6.227,0,0,1,3.041-2.625c.228-.1.462-.2.771-.332-.158-.291-.283-.534-.417-.771a14.943,14.943,0,0,1-1.781-4.493,8.079,8.079,0,0,1,2.2-7.456,11.343,11.343,0,0,1,7.866-3.594,19.746,19.746,0,0,1,5.809.557c.343.085.692.145,1.13.236.02-.4.052-.72.054-1.043a22.007,22.007,0,0,1,1.294-7.557,17.149,17.149,0,0,1,6.27-8.2,12.9,12.9,0,0,1,7.122-2.431,10.012,10.012,0,0,1,7.381,2.567c.929.844,1.764,1.793,2.643,2.694a2.253,2.253,0,0,0,.765.575c-.055-.313-.109-.627-.166-.942a5.4,5.4,0,0,1,1.6-4.927,4.885,4.885,0,0,1,2.921-1.256,14.871,14.871,0,0,1,5.061.119c.226.042.454.063.78.106a5.57,5.57,0,0,0,.14-.883,4.823,4.823,0,0,1,2.479-4.333,10.442,10.442,0,0,1,4.185-1.864,10.057,10.057,0,0,1,5.658.684c.186.087.381.157.563.252a5.554,5.554,0,0,0,3.952.467,10.051,10.051,0,0,1,5.687.469,6.341,6.341,0,0,1,3.716,3.17c.067.135.154.261.258.432.209-.046.405-.078.594-.133a8.144,8.144,0,0,1,6.139.561,15.649,15.649,0,0,1,4.118,2.952,89.845,89.845,0,0,0,7.063,6.321c.2.161.386.34.585.5a10.67,10.67,0,0,1,3.884,6.888c.355,2.257.637,4.526.935,6.792.916,6.927,1.842,13.851,2.729,20.781.545,4.255,1.188,8.5,1.486,12.778a82.314,82.314,0,0,1,.033,10.938,25.82,25.82,0,0,1-3.686,11.422,42.419,42.419,0,0,1-5.981,8.015,42.894,42.894,0,0,1-3.434,3.088,13.041,13.041,0,0,0-2.932,3.445,5.884,5.884,0,0,0-.291,5.351,18.881,18.881,0,0,0,3.5,5.41c2.4,2.716,4.88,5.358,7.277,8.075a393.4,393.4,0,0,1,35.9,47.786,414.339,414.339,0,0,1,31.3,58.18,307.113,307.113,0,0,1,15.12,42.267,197.812,197.812,0,0,1,4.682,21.6c.421,2.716.682,5.457,1.122,8.168a93.711,93.711,0,0,1,.761,11.064c.22,5.108.4,10.218.646,15.326a49.342,49.342,0,0,0,1.284,7.98c1.484,6.905,2.986,13.808,4.439,20.72a111.806,111.806,0,0,1,2.206,27.973q-.2,4.544-.411,9.086a7.18,7.18,0,0,1-.151.912c-.69.156-.912.063-1-.435a5.547,5.547,0,0,1-.022-1.074c.145-4.853.337-9.707.431-14.562a87.57,87.57,0,0,0-1.635-18.162c-1.031-5.4-2.235-10.761-3.358-16.143-.825-3.946-1.711-7.882-2.435-11.85a47.978,47.978,0,0,1-.7-6.5c-.276-6.392-.418-12.79-.687-19.184-.083-2-.359-3.989-.624-5.972-.392-2.952-.9-5.889-1.275-8.842a117.185,117.185,0,0,0-2.463-12.384,286.036,286.036,0,0,0-15.124-45.183,415.811,415.811,0,0,0-40.738-73.846,373.769,373.769,0,0,0-32.745-41.279c-.469-.511-.969-1-1.413-1.527a26.651,26.651,0,0,0-5.265-4.486,1.382,1.382,0,0,0-.129-.085,14.881,14.881,0,0,0-8.717-1.969,5.608,5.608,0,0,0-3.333,1.607,28.185,28.185,0,0,1-6.221,4.642,16.806,16.806,0,0,1-6.97,2.027,29.745,29.745,0,0,1-17.188-3.859c-3.283-1.917-6.577-3.825-9.783-5.865-6.854-4.358-13.743-8.649-20.876-12.542a85.16,85.16,0,0,1-9.876-6.706c-1.155-.86-2.3-1.738-3.412-2.647a18.735,18.735,0,0,1-4.539-5.59,9.354,9.354,0,0,1-.448-7.9,4.055,4.055,0,0,1,1.3-1.876,1.129,1.129,0,0,0,.386-1.425,15.389,15.389,0,0,1-.575-6.55C1169.351,1217.948,1169.428,1217.441,1169.486,1216.931Zm4.222-5.317a9.983,9.983,0,0,0-2.81,4.674,17.251,17.251,0,0,0-.266,6.96,4.509,4.509,0,0,0,1.452,2.811c3.379,3,6.629,6.16,10.11,9.041,6.39,5.291,12.906,10.435,19.378,15.627a114.508,114.508,0,0,0,15.355,10.55,63.068,63.068,0,0,0,16.37,6.793,21.628,21.628,0,0,0,7.227.736c3.477-.35,5.767-2.275,7.574-5.123a3.94,3.94,0,0,0-.469.059,24.249,24.249,0,0,1-7.959.486,30.363,30.363,0,0,1-8.138-1.905,70,70,0,0,1-14.008-7.381,145.177,145.177,0,0,1-14.461-11.017c-4.624-3.962-9.28-7.891-13.787-11.983-3.346-3.038-6.474-6.313-9.7-9.487-.041-.04-.046-.115-.067-.173a22.116,22.116,0,0,1,2.237,1.882c4.161,3.977,8.243,8.037,12.671,11.727,4.993,4.162,9.919,8.407,14.98,12.483a95.766,95.766,0,0,0,16.107,10.656c4.679,2.416,9.513,4.342,14.855,4.71a22.808,22.808,0,0,0,7.626-.671,2.738,2.738,0,0,0,2.029-2.559c-.035-.037-.062-.089-.1-.109a4.473,4.473,0,0,0-.422-.182,69.454,69.454,0,0,1-13.51-6.837,153.576,153.576,0,0,1-14.729-11.044c-3.511-2.889-6.931-5.891-10.451-8.769a171.351,171.351,0,0,1-12.952-11.407c-1.193-1.193-2.444-2.328-3.669-3.49a.866.866,0,0,1,.455.213c1.043.915,2.093,1.823,3.119,2.756,2.054,1.865,4.031,3.821,6.152,5.607q9.111,7.669,18.318,15.223a150.842,150.842,0,0,0,12.924,9.734,69.744,69.744,0,0,0,14.108,7.351c.276.1.557.185.89.3a2.294,2.294,0,0,0-.8-2.225c-.5-.408-1.053-.745-1.515-1.187-1.8-1.718-3.612-3.435-5.358-5.212-1.4-1.429-2.723-2.942-4.073-4.422a55.461,55.461,0,0,0-8.565-7.508,35.9,35.9,0,0,0-9.743-4.722,12.7,12.7,0,0,1-4.434-2.561,67.676,67.676,0,0,1-5.931-5.835q-1.967-2.223-3.95-4.432a54.269,54.269,0,0,0-11.33-9.571,27.779,27.779,0,0,0-6.025-2.906,16.331,16.331,0,0,0-9.637-.363c-.282.074-.554.192-.721.251,1.08,1.155,2.122,2.286,3.186,3.4a26.5,26.5,0,0,1,3.145,3.437c-2.418-2.121-4.757-4.323-7.018-6.556a6.287,6.287,0,0,0-3.159,1.9c.1.11.194.23.3.339a122.718,122.718,0,0,0,10.872,10.029c.8.645,1.578,1.316,2.357,1.986a1.626,1.626,0,0,1,.246.376A98.317,98.317,0,0,1,1173.708,1211.614Zm87.839,43.31c.106-.055.219-.1.319-.169a16.911,16.911,0,0,0,6.85-8.757,44.287,44.287,0,0,0,2.116-12.392,60.617,60.617,0,0,0-.624-11.518q-.523-3.922-1.184-7.826c-.672-3.966-1.4-7.922-2.111-11.88-.52-2.874-1.065-5.742-1.592-8.615q-.984-5.366-1.958-10.733-1.114-6.083-2.243-12.165a3.022,3.022,0,0,0-.446-1.427,15.209,15.209,0,0,0-5.226-3.868,7.144,7.144,0,0,0-9.778,6.384,25.966,25.966,0,0,0,.872,6.456c.761,2.768,1.612,5.509,2.393,8.272,2.546,9,4.516,18.151,6.615,27.262,1.092,4.743,2.034,9.521,2.979,14.295.562,2.839,1.071,5.693,1.468,8.559.334,2.411.492,4.846.687,7.273a31.282,31.282,0,0,1-1.12,11.425c-.062.209-.1.426-.154.64l.164.105a8.482,8.482,0,0,0,.774-.788,15.069,15.069,0,0,0,2.344-4.9,45.95,45.95,0,0,0,1.667-11.924,94.419,94.419,0,0,0-.421-12.463c-.222-2.218-.382-4.446-.668-6.656q-.51-3.961-1.194-7.9c-.6-3.428-1.19-6.864-1.961-10.257-1.214-5.341-2.575-10.648-3.874-15.969-.113-.464-.223-.929-.335-1.393a.7.7,0,0,1,.3.421c.542,1.841,1.1,3.677,1.613,5.527,1.524,5.559,2.791,11.18,3.886,16.837.512,2.639.953,5.292,1.379,7.947.305,1.9.561,3.8.785,5.709.208,1.756.362,3.518.509,5.281.161,1.943.38,3.886.414,5.831a82.46,82.46,0,0,1-.28,11.851c-.2,1.6-.41,3.2-.711,4.786A25.616,25.616,0,0,1,1261.547,1254.924Zm-70.709-78.836c.245.263.469.508.7.749,4.176,4.4,8.414,8.731,12.377,13.329,5.505,6.39,10.8,12.938,15.653,19.84,3.842,5.464,7.739,10.889,11.622,16.323a211.656,211.656,0,0,0,16.26,19.843c.133.146.289.272.434.408a5.635,5.635,0,0,0-.623-1.282c-3.355-5.535-6.673-11.092-9.656-16.841-3.078-5.932-5.605-12.109-8.074-18.31-2.752-6.911-5.422-13.857-8.161-20.775a50.321,50.321,0,0,0-11.42-17.929,10.171,10.171,0,0,0-6.973-3.315,9.072,9.072,0,0,0-3.41.5,59.438,59.438,0,0,1,4.887,6.276,2.208,2.208,0,0,1-.733-.594c-1.405-1.638-2.8-3.283-4.207-4.922-.179-.209-.4-.39-.567-.557a3.879,3.879,0,0,0-1.939.938,114.283,114.283,0,0,1,9.3,12.072,3.564,3.564,0,0,1-1.31-1.334c-2.535-3.4-5.165-6.724-7.974-9.9-.182-.205-.377-.4-.549-.583A14.9,14.9,0,0,0,1190.839,1176.088Zm50.162-.339c1.327,5.351,2.82,10.582,3.707,15.96a3.253,3.253,0,0,1-.362-.883q-1.778-7.036-3.551-14.075c-.052-.205-.144-.4-.24-.664a4.419,4.419,0,0,0-1.741,1.828,13.794,13.794,0,0,0-.906,5.438,32.3,32.3,0,0,0,2.653,11.654c.515,1.2,1.029,2.41,1.528,3.622a31.138,31.138,0,0,1,2.474,13.688c-.122,2.257-.38,4.507-.458,6.765a65.707,65.707,0,0,0-.025,7.933,37.656,37.656,0,0,0,4.169,15.038,82.359,82.359,0,0,1,5.187,11,11.491,11.491,0,0,0,.837,1.505,3.4,3.4,0,0,0,.216-.643c.117-1.431.271-2.862.316-4.3a45.221,45.221,0,0,0-.418-6.985,80.606,80.606,0,0,0-1.647-8.827c-.835-3.483-1.724-6.954-2.585-10.431-.073-.291-.119-.589-.178-.883.7,2.034,1.248,4.08,1.8,6.126,1.535,5.665,3.029,11.339,3.342,17.234.108,2.045.049,4.1,0,6.151-.023,1.071-.18,2.141-.277,3.224a3.027,3.027,0,0,0,3.75,1.311c.07-.18.164-.389.237-.6a26.472,26.472,0,0,0,1.36-7.236,51.492,51.492,0,0,0-.318-8.689q-.427-3.549-1.039-7.073c-.652-3.709-1.319-7.418-2.1-11.1-1.039-4.912-2.161-9.81-3.306-14.7-1.351-5.763-2.724-11.521-4.17-17.26-.783-3.106-1.733-6.169-2.62-9.248a44.69,44.69,0,0,1-1.436-7.178Zm-50.406.765a15.377,15.377,0,0,0-1.335,3.738,25.253,25.253,0,0,0,.1,11.456,10.057,10.057,0,0,0,.958,2.823,45.539,45.539,0,0,0,3.195,4.806,92.525,92.525,0,0,0,12.372,13.083q9.247,8.158,18.56,16.242a182.309,182.309,0,0,1,18.643,18.488c2.512,2.915,5.291,5.6,7.953,8.383.206.217.457.392.779.666a4.094,4.094,0,0,0,.372-.9,3.484,3.484,0,0,0-.354-2.39,33.652,33.652,0,0,0-2.076-3.14c-1.265-1.584-2.639-3.082-3.967-4.617-2.788-3.225-5.674-6.373-8.344-9.694-5.344-6.648-10.364-13.546-15.161-20.6a273.4,273.4,0,0,0-23.472-29.637c-2.6-2.875-5.288-5.675-7.938-8.507A2.288,2.288,0,0,0,1190.595,1176.514Zm59.946,72.892.122-.059c-.126-.3-.234-.6-.38-.889-1.564-3.067-3.146-6.124-4.7-9.2a113.652,113.652,0,0,1-6.431-15.754,83.1,83.1,0,0,1-2.838-12.066c-.57-3.342-1.055-6.705-1.794-10.01a124.857,124.857,0,0,0-5.195-17.295,90.974,90.974,0,0,0-4.6-10.823c-.022-.04,0-.1,0-.15a21.6,21.6,0,0,1,1.837,3.207,120.679,120.679,0,0,1,6.646,18.187c.1.366.236.721.355,1.082-.008-1.538-.164-3.045-.253-4.556-.119-2.024-.237-4.051-.255-6.076a27.306,27.306,0,0,0-2.421-11.362c-1.582-3.308-3.919-5.756-7.65-6.585a13.847,13.847,0,0,0-6.112-.11,3.5,3.5,0,0,0-2.271,1.587,4.635,4.635,0,0,0-.5,3.919,28.682,28.682,0,0,0,3.093,7.273,64.045,64.045,0,0,1,4.652,9.372c2.412,6.11,4.783,12.236,7.207,18.34,2.414,6.084,4.824,12.171,7.707,18.053,3.985,8.13,8.722,15.832,13.478,23.521A3.868,3.868,0,0,0,1250.54,1249.406Zm-14.347,20.019.021-.166c-.345-.074-.689-.15-1.034-.223s-.7-.144-1.053-.219a56.255,56.255,0,0,1-12.924-4.664,107.306,107.306,0,0,1-20.1-13.108c-4.7-3.789-9.3-7.706-14.074-11.4a165.739,165.739,0,0,1-15.429-13.482.884.884,0,0,0-.206-.139c-.416.489-.807.921-1.164,1.379a5.191,5.191,0,0,0-.862,1.253,7.942,7.942,0,0,0,.232,6.785,16.892,16.892,0,0,0,4.542,5.578c2.335,1.809,4.7,3.579,7.076,5.34a57.878,57.878,0,0,0,6.7,4.247c6.47,3.545,12.766,7.385,18.964,11.383,3.371,2.175,6.817,4.215,10.287,6.223a29.818,29.818,0,0,0,15.606,4.074,17.228,17.228,0,0,0,9.448-2.855c.185-.119.353-.264.672-.506-1.006.19-1.833.326-2.652.506a20.643,20.643,0,0,1-5.2.42,33.453,33.453,0,0,1-5.391-.8,54.786,54.786,0,0,1-14.153-4.837,145.912,145.912,0,0,1-14.99-8.688c-8.135-5.446-16.018-11.248-23.8-17.179-.481-.366-.943-.753-1.414-1.13a1.105,1.105,0,0,1,.631.248c4.9,3.522,9.823,7.019,14.7,10.576a186.748,186.748,0,0,0,19.684,12.812,87.624,87.624,0,0,0,10.07,4.982,63.579,63.579,0,0,0,12.688,3.354C1234.1,1269.359,1235.153,1269.349,1236.194,1269.424Zm25.333-99.084c.031.332.034.563.076.786q.868,4.567,1.745,9.132c.692,3.625,1.393,7.247,2.067,10.873.72,3.879,1.411,7.762,2.118,11.643.578,3.177,1.217,6.342,1.728,9.529.592,3.694,1.073,7.4,1.6,11.108a51.955,51.955,0,0,1,.538,7.982c-.024,2.1-.241,4.2-.407,6.3a36.547,36.547,0,0,1-1.1,6.356,19.525,19.525,0,0,1-4.506,8.566c-.118.127-.228.263-.343.394a11.873,11.873,0,0,0,1.74-1.527,42.914,42.914,0,0,0,6.112-8.3,24.479,24.479,0,0,0,3.3-10.51,83.435,83.435,0,0,0-.023-10.629c-.267-3.991-.874-7.962-1.382-11.936-.611-4.764-1.286-9.52-1.91-14.282-.589-4.482-1.139-8.968-1.724-13.451a10.172,10.172,0,0,0-3.88-7.11c-.245-.186-.472-.4-.7-.6l-4.765-4.151A2.814,2.814,0,0,0,1261.526,1170.34Zm-91.761,44.932c.125-.082.184-.1.2-.139.089-.184.163-.377.248-.563a11.19,11.19,0,0,1,4.791-5.365,16.56,16.56,0,0,1,9.757-1.892,20.272,20.272,0,0,1,6.211,1.715c.242.105.494.193.741.287a1.153,1.153,0,0,0-.355-.543,10.368,10.368,0,0,1-3.617-7.491,1.267,1.267,0,0,0-.4-.772c-.885-.82-1.808-1.6-2.715-2.4-.221-.194-.432-.4-.649-.594l.131-.155a26.6,26.6,0,0,1,3.6,2.773l.389-2.478-8.039-6.584.118-.148a80.934,80.934,0,0,1,8.1,6.287c.145-.294.222-.484.327-.657a2.8,2.8,0,0,0,.172-2.5,32.534,32.534,0,0,1-.876-3.666c-.172-.849-.254-1.717-.385-2.644-.5-.2-.987-.442-1.5-.6a15.305,15.305,0,0,0-5.031-.56,10.565,10.565,0,0,0-7.167,2.972,7.067,7.067,0,0,0-2.048,7.391,17.573,17.573,0,0,0,1.952,4.258c.552.936.368,1.4-.639,1.738-.195.065-.394.12-.583.2a4.931,4.931,0,0,0-2.546,2.032,10.865,10.865,0,0,0-1.637,6.318A6.506,6.506,0,0,0,1169.765,1215.272Zm20.563-19.821c-.208.512-.363.97-.576,1.4a9.539,9.539,0,0,0-.718,5.645,8.06,8.06,0,0,0,2.108,4.457,16.25,16.25,0,0,0,1.349,1.374c2.454,2.108,4.936,4.186,7.39,6.3,1.479,1.27,2.992,2.513,4.376,3.884,1.642,1.624,3.19,3.346,4.726,5.072a88.646,88.646,0,0,0,6.764,6.959,14.344,14.344,0,0,0,5.246,3.113,37.29,37.29,0,0,1,12.338,6.809,81.352,81.352,0,0,1,8.229,8.1,59.3,59.3,0,0,0,5.8,5.957,19.142,19.142,0,0,0,2.494,1.643,4.229,4.229,0,0,0,1.061.3.573.573,0,0,0-.177-.421c-3.177-2.969-6.06-6.215-8.947-9.458a123.046,123.046,0,0,0-9.485-10.007q-10.925-9.806-21.949-19.5a146.6,146.6,0,0,1-12.741-12.079,54.754,54.754,0,0,1-7-9.169A3.443,3.443,0,0,0,1190.328,1195.451Zm43.7-35.225-.112.162c.326,1.023.675,2.04.973,3.071q.435,1.513.784,3.05c.239,1.047.431,2.106.636,3.16a12.642,12.642,0,0,1,.393,3.092c-1.087-4.252-1.755-8.612-3.465-12.667a8.694,8.694,0,0,0-3.36.02,9.67,9.67,0,0,0-3.517,1.69c-1.65,1.074-2.05,2.059-1.81,4.524a.766.766,0,0,0,.109.107,1.128,1.128,0,0,0,.206.1,12.034,12.034,0,0,1,6.366,5.893,28.012,28.012,0,0,1,3.065,9.135c.075.489.169.972.254,1.459l.156.01q.267-.745.537-1.488a13.239,13.239,0,0,1,3.127-5.16,14.416,14.416,0,0,1,3.338-2.328c.951-.5,1.9-1.01,2.915-1.552-.245-3.372,1.368-5.781,4.108-7.557-.069-.2-.105-.348-.169-.482a5.175,5.175,0,0,0-2.956-2.558,11.432,11.432,0,0,0-7.288-.05c.244,1.038.529,2.047.708,3.074a7.255,7.255,0,0,1,.192,3.133,47.623,47.623,0,0,0-1.425-6.335Zm9.562,71.818.1-.032-.065-.435c-.225-1.549-.539-3.091-.657-4.647a78.093,78.093,0,0,1,.345-12.62,32.088,32.088,0,0,0-.452-9.43,41.81,41.81,0,0,0-2.726-8.007,35.937,35.937,0,0,1-2.507-7.671,23.917,23.917,0,0,1-.387-7.735c.09-.647.227-1.286.342-1.928a8.146,8.146,0,0,0-.979,1.824,25.68,25.68,0,0,0-1.973,10.06c.024,1.181.078,2.362.149,3.541a23.7,23.7,0,0,0,.236,2.529c.294,1.746.667,3.479.973,5.223.648,3.693,1.247,7.392,1.913,11.081a85.843,85.843,0,0,0,5.387,17.648C1243.371,1231.652,1243.486,1231.844,1243.588,1232.044Z" transform="translate(-1167.17 -1158.784)" fill="#b4c0c8"/>
      <path id="Path_154300" data-name="Path 154300" d="M1221.532,1237.672c-.447.277-.664.025-.874-.111-1.124-.72-2.262-1.42-3.347-2.2a172.793,172.793,0,0,1-16.243-12.969c-.378-.346-.734-.719-1.094-1.083-.023-.023,0-.088,0-.266A208.78,208.78,0,0,0,1221.532,1237.672Z" transform="translate(-1157.89 -1141.164)" fill="#b4c0c8"/>
      <path id="Path_154301" data-name="Path 154301" d="M1231.44,1196.709c1.273,2.247,5.93,20.006,5.717,21.585C1235.271,1211.174,1233.376,1204.016,1231.44,1196.709Z" transform="translate(-1148.982 -1148.051)" fill="#b4c0c8"/>
      <path id="Path_154302" data-name="Path 154302" d="M1208.88,1204.789c.045,0,.112-.013.132.012q9.955,12,19.9,24.007a7.086,7.086,0,0,1,.389.605C1227.178,1227.825,1209.659,1206.653,1208.88,1204.789Z" transform="translate(-1155.367 -1145.766)" fill="#b4c0c8"/>
      <path id="Path_154303" data-name="Path 154303" d="M1187.07,1194.67a2.853,2.853,0,0,1,.405.285c5.528,5.5,11.569,10.408,17.513,15.43a10.174,10.174,0,0,1,.761.8l-.118.142a1.049,1.049,0,0,1-.232-.106,211.458,211.458,0,0,1-16.953-14.774c-.523-.517-1.01-1.075-1.513-1.614Z" transform="translate(-1161.578 -1148.628)" fill="#b4c0c8"/>
    </g>
  </g>
</svg>
