<svg xmlns="http://www.w3.org/2000/svg" xmlns:xlink="http://www.w3.org/1999/xlink" width="392.971" height="370.618" viewBox="0 0 392.971 370.618">
  <defs>
    <clipPath id="clip-path">
      <path id="Path_154637" data-name="Path 154637" d="M0,0H325.021L317.56,209.4-2.519,295.928Z" transform="translate(0 1151)" fill="#3e5869" stroke="#707070" stroke-width="1"/>
    </clipPath>
  </defs>
  <g id="Mask_Group_159" data-name="Mask Group 159" transform="matrix(0.966, -0.259, 0.259, 0.966, -295.468, -1027.659)" opacity="0.5" clip-path="url(#clip-path)">
    <g id="Group_143266" data-name="Group 143266" transform="translate(-79.131 1096.964)">
      <g id="Group_143265" data-name="Group 143265" transform="translate(289.668 0) rotate(47)">
        <g id="Group_143260" data-name="Group 143260" transform="translate(0 138.045)">
          <g id="Group_143255" data-name="Group 143255" transform="translate(0 0)">
            <path id="Path_154547" data-name="Path 154547" d="M47.5,98.146a5.239,5.239,0,0,0-.782-.356,63.13,63.13,0,0,1-19.5-8.817,76.871,76.871,0,0,1-8.87-6.215C13.987,78.944,9.17,75.777,4.595,72.271A20.471,20.471,0,0,1,1.7,69.487,6.668,6.668,0,0,1,.015,65.414C-.1,63.5.4,62.433,2.236,61.812a46.533,46.533,0,0,1,5.109-1.119,25.636,25.636,0,0,0,4.78-1.112c5.1-2.207,10.434-2.723,15.887-2.692a49.615,49.615,0,0,1,13.96,2.432c.527.158,1.064.288,1.916.517a12.113,12.113,0,0,0-.731-1.068,36.3,36.3,0,0,1-9-20.473,52.548,52.548,0,0,1,.337-14.64,7.277,7.277,0,0,1,2.457-4.849c1.435-1.146,3.06-1.678,4.753-.849a29.883,29.883,0,0,1,4.726,2.9c3.469,2.6,6.823,5.349,10.277,7.966a29.6,29.6,0,0,1,8.012,8.5c.068-.738.115-1.118.135-1.5.1-2.011.3-4.023.256-6.031-.081-3.968-.3-7.933-.452-11.9-.1-2.724-.508-5.45.167-8.165.582-2.338,2.2-3.915,3.965-5.335a3.617,3.617,0,0,1,3.7-.249,9.834,9.834,0,0,1,2.068,1.038c8.53,5.846,16.346,12.441,21.929,21.312,1.4,2.223,2.6,4.571,3.893,6.86.146.261.306.514.617,1.035.238-1.11.419-1.939.593-2.772a56.77,56.77,0,0,1,3.879-11.561,92.737,92.737,0,0,0,4.4-13.022,17.787,17.787,0,0,1,1.885-4.544c1.873-3.035,4.88-3.3,7.395-.754a25.014,25.014,0,0,1,5.411,8.751,64.827,64.827,0,0,1-1.463,50.241A59.6,59.6,0,0,1,107.5,81.284a45.419,45.419,0,0,1-12.2,7.44A10.415,10.415,0,0,0,88.883,100.6a2.91,2.91,0,0,1,.006.622c-.925.037-1.113-.674-1.424-1.23a9.8,9.8,0,0,0-4.541-4.282,3.345,3.345,0,0,0-4.3.8,42.126,42.126,0,0,0-10.629,20.3,34.474,34.474,0,0,0-.206,12.164c.767,5.3,1.713,10.566,2.484,15.863.72,4.96.625,9.857-1.4,14.587a12.33,12.33,0,0,1-4.06,5.131,3.306,3.306,0,0,1-4.742-.246,12.068,12.068,0,0,1-1.741-2.164,31.692,31.692,0,0,0-7.341-8.1c-4.536-3.524-7.372-8.28-9.392-13.582A62.306,62.306,0,0,1,38,126.729a40.722,40.722,0,0,1,1.306-17.3,20.259,20.259,0,0,1,7.4-10.611C46.942,98.643,47.156,98.441,47.5,98.146ZM65.328,41.352c.154,2.3.318,5.747.646,9.183.169,1.768.642,3.506.961,5.261a57.508,57.508,0,0,0,4.076,14.382c3.223,6.852,7.725,12.89,12.438,18.769a4.226,4.226,0,0,0,4.773,1.28,14.805,14.805,0,0,0,5.834-3.07,31.2,31.2,0,0,0,8.257-11.989c3.245-7.648,3.766-15.678,2.72-23.825a58.634,58.634,0,0,0-5.15-17.248C94.2,21.847,84.875,12.918,73.815,5.588a9.563,9.563,0,0,0-2.258-.981,2.387,2.387,0,0,0-2.357.377c-1.627,1.407-3.285,2.91-3.71,5.1a19.918,19.918,0,0,0-.282,5.372,117.569,117.569,0,0,1,.537,13.595C65.618,32.767,65.492,36.479,65.328,41.352ZM60.646,98.576a36.6,36.6,0,0,0,14.646-2.885,44.134,44.134,0,0,0,6.122-3.275c1.66-1.033,1.793-2.132.786-3.816a11.781,11.781,0,0,0-.973-1.4c-1.338-1.639-2.741-3.228-4.036-4.9-2.625-3.388-5.633-6.327-9.648-7.992a40.557,40.557,0,0,0-6.569-2.231c-3.2-.718-6.48-1.131-9.732-1.632A76.914,76.914,0,0,1,27.493,62.9a39.235,39.235,0,0,0-5.844-2.42,14.008,14.008,0,0,0-8.96-.251,29.5,29.5,0,0,1-6.325,1.332A16.568,16.568,0,0,0,2.2,62.632,2.321,2.321,0,0,0,.734,65.667a11.383,11.383,0,0,0,1.649,3.441,13.958,13.958,0,0,0,2.906,2.756c4.794,3.56,9.643,7.031,14.26,10.842A85.016,85.016,0,0,0,33.267,91.68,54.944,54.944,0,0,0,60.646,98.576Zm13.191-1.142-.151-.239c-.236.067-.475.123-.707.2a39.512,39.512,0,0,1-10.3,1.881,44.075,44.075,0,0,1-11.858-.658A4.544,4.544,0,0,0,46.7,99.712a19.491,19.491,0,0,0-5.817,7.515c-2.4,5.6-2.811,11.5-2.378,17.458a54.983,54.983,0,0,0,3.715,15.424,31.426,31.426,0,0,0,10.371,14.36,26.477,26.477,0,0,1,3.848,3.787c1.01,1.162,1.782,2.529,2.7,3.771A12.355,12.355,0,0,0,60.864,164a2.139,2.139,0,0,0,3.2.14,11.917,11.917,0,0,0,2.7-2.5,13.9,13.9,0,0,0,2.57-10.236,18.989,18.989,0,0,0-3.366-7.683A49.341,49.341,0,0,1,60.64,133.44,27.2,27.2,0,0,1,62.1,110.011c1.847-3.425,4.6-6.042,7.372-8.658C70.9,100.012,72.383,98.739,73.838,97.434Zm22.6-11.267.244.232c.471-.3.955-.585,1.41-.908a33.008,33.008,0,0,0,4.719-4.4,82.322,82.322,0,0,0,18.954-31.214,73.887,73.887,0,0,0,3.779-18.563,64.3,64.3,0,0,0-.952-15.555,27.224,27.224,0,0,0-3.66-10.263,18.459,18.459,0,0,0-2.9-3.582c-1.969-1.779-4.056-1.5-5.505.73a14.945,14.945,0,0,0-1.858,4.211,121.039,121.039,0,0,1-5.4,15.609,74.826,74.826,0,0,0-2.838,8.651,12.857,12.857,0,0,0,.351,8.276,52.368,52.368,0,0,1,2.958,25.97,39.338,39.338,0,0,1-8.793,20.1C96.759,85.676,96.608,85.929,96.44,86.167Zm-22.465-8.6.261-.19c-.355-.6-.739-1.174-1.057-1.788a58.938,58.938,0,0,1-3.6-7.174,118.241,118.241,0,0,1-3.469-11.966A64.111,64.111,0,0,1,64.8,40.914a6.358,6.358,0,0,0-3.168-5.8A20.77,20.77,0,0,0,57.188,33a21.648,21.648,0,0,1-11.757-9.095c-.887-1.391-1.816-2.762-2.817-4.073-1.327-1.735-3.063-1.925-4.868-.662a6.427,6.427,0,0,0-2.406,4.012,19.571,19.571,0,0,0,.146,9.021,37.367,37.367,0,0,0,6.941,14.882C45.71,51.4,49.256,55.506,52.561,59.8A42.845,42.845,0,0,0,63.6,69.857c2.816,1.8,5.452,3.881,8.149,5.863C72.527,76.29,73.236,76.951,73.976,77.57ZM78.44,95.564l-.282-.273a20.139,20.139,0,0,0-2.019,1.357c-2.467,2.113-4.963,4.2-7.322,6.43a29.8,29.8,0,0,0-6.135,7.484,26.094,26.094,0,0,0-2.914,16.583,34.5,34.5,0,0,0,4.24,11.7c1.225,2.193,2.643,4.276,3.9,6.454.655,1.138,1.144,2.372,1.708,3.562a20.921,20.921,0,0,0-.187-4.779c-.8-5.288-1.688-10.561-2.458-15.853a32.793,32.793,0,0,1,.169-10.935A41.779,41.779,0,0,1,77.557,96.579C77.86,96.248,78.146,95.9,78.44,95.564ZM16.6,58.667l.045.27a28.555,28.555,0,0,1,4.541.738,49,49,0,0,1,7.008,2.794A75.263,75.263,0,0,0,52.587,69.9c4.606.607,9.172,1.263,13.491,3.075.181.075.432-.017.907-.046-.7-.445-1.177-.724-1.627-1.046A85.625,85.625,0,0,0,45.926,61.454C38.233,58.5,30.337,56.81,22.042,57.817,20.221,58.039,18.414,58.38,16.6,58.667ZM125.9,16.713l-.323.05c0,.248-.019.5,0,.74.267,2.976.672,5.947.777,8.928a57.352,57.352,0,0,1-1.1,12.917,81.519,81.519,0,0,1-10.846,28.12,89.129,89.129,0,0,1-14.97,18.038,4.479,4.479,0,0,0-.394.589c.552-.267.867-.394,1.158-.562a43.972,43.972,0,0,0,6.033-4.253,58.411,58.411,0,0,0,12.423-13.921A61.578,61.578,0,0,0,128.007,39a59.5,59.5,0,0,0-.6-15.431C126.985,21.271,126.4,19,125.9,16.713ZM34.846,33.5l-.3-.017c.149,1.883.2,3.78.464,5.647a35.4,35.4,0,0,0,7.57,17.852A16.57,16.57,0,0,0,46.9,60.9c2.712,1.567,5.673,2.7,8.534,4.009.069.032.186-.037.321-.069a1.529,1.529,0,0,0-.166-.382Q50.3,58.088,45,51.719a49.877,49.877,0,0,1-7.546-11.481C36.477,38.04,35.708,35.752,34.846,33.5Zm9.285-13.321c2.374,4.066,4.875,7.973,9.132,10.284,2.231,1.211,6.228,2.7,7.466,2.632C55.28,28.431,49.384,24.72,44.131,20.183Z" fill="#3e5869"/>
          </g>
          <g id="Group_143256" data-name="Group 143256" transform="translate(8.265 1.217)">
            <path id="Path_154548" data-name="Path 154548" d="M15.932.034C15.563,3.2,15.387,6.4,14.783,9.517c-1.083,5.6-2.2,11.207-3.712,16.7A61.16,61.16,0,0,1,1.086,47.344c-.258.341-.533.669-.8,1L0,48.167a15.8,15.8,0,0,1,.8-1.408c6.544-9.343,9.993-19.923,12.27-30.947.956-4.627,1.676-9.3,2.482-13.96A16.2,16.2,0,0,0,15.659,0Z" transform="translate(90.919 31.648)" fill="#3e5869"/>
            <path id="Path_154549" data-name="Path 154549" d="M.288,0C.842,3.223,1.319,6.46,1.961,9.665a101.04,101.04,0,0,0,10,28.91c1.031,1.886,2.308,3.637,3.478,5.448a6.024,6.024,0,0,1,.668,1.172,18.639,18.639,0,0,1-4.1-5.1A91.379,91.379,0,0,1,6.067,27.029,106.524,106.524,0,0,1,.757,5.675C.518,3.8.254,1.925,0,.05Z" transform="translate(60.754 42.413)" fill="#3e5869"/>
            <path id="Path_154550" data-name="Path 154550" d="M45.095,21.482c-6.3.708-12.644-1.232-18.85-3.842A77.881,77.881,0,0,1,11.3,8.92C7.572,6.259,3.963,3.435.306.676A.766.766,0,0,1,0,0Q2.3,1.648,4.61,3.3C9.808,7,14.864,10.9,20.443,14.059A59.562,59.562,0,0,0,38.9,20.919,58.018,58.018,0,0,0,45.095,21.482Z" transform="translate(10.173 75.002)" fill="#3e5869"/>
            <path id="Path_154551" data-name="Path 154551" d="M0,42.894c.473-2.038.922-4.082,1.423-6.113A115.258,115.258,0,0,0,4.313,20.389,59.708,59.708,0,0,0,4.447,7.725C4.154,5.172,4.051,2.6,4.01,0a45.617,45.617,0,0,1,.812,5.11c.207,4.22.5,8.462.3,12.675a91.42,91.42,0,0,1-2.8,17.65C1.772,37.627,1.157,39.8.562,41.984a10.1,10.1,0,0,1-.37.964Z" transform="translate(109.554 7.67)" fill="#3e5869"/>
            <path id="Path_154552" data-name="Path 154552" d="M17.221.8a8.564,8.564,0,0,0-1.739.442A24.066,24.066,0,0,0,5.432,10.821,33.267,33.267,0,0,0,.782,23.492a42.686,42.686,0,0,0-.331,7.4c.121,3.288.526,6.566.8,9.848.025.306,0,.617,0,.963a55.08,55.08,0,0,1-1-17.09c.87-9.128,4.729-16.9,12.367-22.418A9.886,9.886,0,0,1,17.741,0V.576Z" transform="translate(41.251 97.33)" fill="#3e5869"/>
            <path id="Path_154553" data-name="Path 154553" d="M0,0C5.334,13.2,7.272,27.178,9.32,41.132c-1.3-6.916-2.526-13.848-3.928-20.745A171.874,171.874,0,0,0,0,0Z" transform="translate(66.596 4.703)" fill="#3e5869"/>
            <path id="Path_154554" data-name="Path 154554" d="M38.487,13.918a14.161,14.161,0,0,1-7.227.977A49.567,49.567,0,0,1,7.7,5.942C5.056,4.09,2.522,2.086,0,0,.261.138.533.256.779.418c1.422.936,2.85,1.862,4.25,2.83,1.855,1.282,3.63,2.691,5.54,3.885a49.75,49.75,0,0,0,18.373,6.939A22.947,22.947,0,0,0,38.487,13.918Z" transform="translate(33.66 77.241)" fill="#3e5869"/>
            <path id="Path_154555" data-name="Path 154555" d="M14.619,2.242l.52-.225L20,0c-.258.972-.913.983-1.35,1.214C16.7,2.249,14.618,3.079,12.779,4.282a26.825,26.825,0,0,0-7.862,8.211A31.743,31.743,0,0,0,.91,23.124C.513,24.978.3,26.871,0,28.808.1,18.166,3.975,9.524,12.829,3.367,13.407,2.966,14.021,2.616,14.619,2.242Z" transform="translate(43.853 95.89)" fill="#3e5869"/>
            <path id="Path_154556" data-name="Path 154556" d="M0,34.828c.448-.612.9-1.218,1.343-1.837,1.736-2.451,2.422-5.338,3.279-8.135a33.242,33.242,0,0,0,1.316-8.989A81.24,81.24,0,0,0,4.781,1.25,2.684,2.684,0,0,1,4.869,0c.218,1.522.442,3.044.652,4.567s.488,3.055.6,4.592c.175,2.414.261,4.836.339,7.256a28.555,28.555,0,0,1-1.794,10.6c-.673,1.882-1.433,3.742-2.281,5.553A5.765,5.765,0,0,1,.236,35.063Z" transform="translate(82.904 52.894)" fill="#3e5869"/>
            <path id="Path_154557" data-name="Path 154557" d="M29.145,21.134c-1.185-.773-2.342-1.592-3.557-2.312A155.831,155.831,0,0,1,1.951,1.923C1.41,1.445.876.956.348.464A3.952,3.952,0,0,1,0,0C4.868,3.716,9.535,7.479,14.413,10.946c4.856,3.453,9.923,6.606,14.9,9.891Z" transform="translate(18.895 61.733)" fill="#3e5869"/>
            <path id="Path_154558" data-name="Path 154558" d="M17.4,27.478C10.086,19.3,3.935,10.37,0,0,.142.2.3.392.419.6a7.2,7.2,0,0,1,.351.688,108.8,108.8,0,0,0,12.61,20.7c1.368,1.791,2.851,3.493,4.281,5.236Z" transform="translate(43.765 41.582)" fill="#3e5869"/>
            <path id="Path_154559" data-name="Path 154559" d="M0,0A205.6,205.6,0,0,0,8.664,37.851C5.928,33.308.506,9.78,0,0Z" transform="translate(67.998 32.285)" fill="#3e5869"/>
            <path id="Path_154560" data-name="Path 154560" d="M0,0C1.091,9.03,1.819,18.124,6.5,26.517a1.779,1.779,0,0,1-1.342-1.2A32,32,0,0,1,2.04,16.956,72.262,72.262,0,0,1,0,1.7C0,1.13,0,.564,0,0Z" transform="translate(35.241 124.603)" fill="#3e5869"/>
            <path id="Path_154561" data-name="Path 154561" d="M3.264,23.822A138.723,138.723,0,0,0,0,.4C-.012.35.107.267.332,0,2.789,7.848,3.333,15.775,3.264,23.822Z" transform="translate(92.163 33.024)" fill="#3e5869"/>
            <path id="Path_154562" data-name="Path 154562" d="M8.987,21.678A170.3,170.3,0,0,0,0,0,10.7,10.7,0,0,1,.639.868a82.328,82.328,0,0,1,5.9,12.388c.866,2.228,2.07,4.34,2.3,6.785Q8.91,20.858,8.987,21.678Z" transform="translate(50.623 38.664)" fill="#3e5869"/>
            <path id="Path_154563" data-name="Path 154563" d="M0,0A7.368,7.368,0,0,1,1.444.72C4.162,2.918,6.811,5.2,9.558,7.362c2.224,1.749,4.55,3.368,6.836,5.038.452.33.929.626,1.529,1.03C15.364,12.726,10.2,8.942,0,0Z" transform="translate(0 59.671)" fill="#3e5869"/>
            <path id="Path_154564" data-name="Path 154564" d="M.5,0A62.493,62.493,0,0,1,6.133,21.836c-.511-2.462-.958-4.938-1.549-7.381S3.34,9.57,2.569,7.173C1.806,4.8.863,2.488,0,.149Z" transform="translate(80.744 16.421)" fill="#3e5869"/>
            <path id="Path_154565" data-name="Path 154565" d="M5.481,0C5.527,4.78,2.689,18.337,0,23.287a14.418,14.418,0,0,1,.321-1.411,101.132,101.132,0,0,0,3.61-13.7C4.429,5.452,4.962,2.734,5.481,0Z" transform="translate(97.13 42.125)" fill="#3e5869"/>
            <path id="Path_154566" data-name="Path 154566" d="M.1,0C.693,1.911,1.275,3.475,1.657,5.087c.875,3.7,1.723,7.405,2.432,11.138a17.262,17.262,0,0,1,.076,4.166A8.447,8.447,0,0,1,3.4,22.466c-.185-.454-.3-.6-.268-.681,1.048-2.322.51-4.692.046-6.985C2.22,10.07,1.07,5.38,0,.673A3.4,3.4,0,0,1,.1,0Z" transform="translate(52.928 140.963)" fill="#3e5869"/>
            <path id="Path_154567" data-name="Path 154567" d="M7.708,25.654C4.215,20.354.23,7.061,0,0,.4,1.836.852,3.663,1.2,5.509a75.408,75.408,0,0,0,6.4,19.735A1.935,1.935,0,0,1,7.708,25.654Z" transform="translate(66.077 53.823)" fill="#3e5869"/>
            <path id="Path_154568" data-name="Path 154568" d="M4.856,0a54.367,54.367,0,0,1-.481,9.914A36.631,36.631,0,0,1,2.4,18.285,7.068,7.068,0,0,1,0,21.566,6.937,6.937,0,0,1,.4,20.6,23.7,23.7,0,0,0,3.731,10.438C4.182,6.784,4.524,3.117,4.856,0Z" transform="translate(86.638 63.776)" fill="#3e5869"/>
            <path id="Path_154569" data-name="Path 154569" d="M0,22.888A147.727,147.727,0,0,1,2.007,0l.324.032Q1.165,11.461,0,22.888Z" transform="translate(99.202 7.612)" fill="#3e5869"/>
            <path id="Path_154570" data-name="Path 154570" d="M0,0C2.267,8.893,4.259,17.918,4.169,26.5c-.475-3.853-.925-8.462-1.638-13.032C1.826,8.955.855,4.487,0,0Z" transform="translate(77.975 54.736)" fill="#3e5869"/>
            <path id="Path_154571" data-name="Path 154571" d="M7.136,17.526A44.8,44.8,0,0,1,0,.176L.389,0a5.769,5.769,0,0,1,.4.925A68.807,68.807,0,0,0,5.371,13.991C5.928,15.184,6.546,16.349,7.136,17.526Z" transform="translate(26.629 21.343)" fill="#3e5869"/>
            <path id="Path_154572" data-name="Path 154572" d="M.4,0C1.75,2.292,1.848,4.949,2.483,7.443c.7,2.726,1.233,5.492,1.707,8.287-.406-1.248-.86-2.482-1.21-3.745C2.488,10.207,2.1,8.4,1.616,6.618,1.189,5.055.664,3.519.242,1.956A13.383,13.383,0,0,1,0,.068Z" transform="translate(57.077 7.509)" fill="#3e5869"/>
            <path id="Path_154573" data-name="Path 154573" d="M9.863,16.652,0,0C1.525,1.03,8.539,12.783,9.863,16.652Z" transform="translate(36.785 21.86)" fill="#3e5869"/>
            <path id="Path_154574" data-name="Path 154574" d="M0,0C3.1,1.71,6.3,3.266,9.272,5.174A42.347,42.347,0,0,0,19.1,9.449c.292.1.583.2.871.3a.89.89,0,0,1,.191.127C12.529,8.466,6.453,3.853,0,0Z" transform="translate(41.129 76.343)" fill="#3e5869"/>
            <path id="Path_154575" data-name="Path 154575" d="M1.375,15.74C.95,10.871.487,5.578,0,0,1.144,1.826,1.7,9.307,1.375,15.74Z" transform="translate(110.227 0)" fill="#3e5869"/>
            <path id="Path_154576" data-name="Path 154576" d="M13.346,7.745C8.918,5.175,4.49,2.608,0,0,1.28-.1,10.784,5.261,13.346,7.745Z" transform="translate(47.729 69.844)" fill="#3e5869"/>
            <path id="Path_154577" data-name="Path 154577" d="M11.638.1C6.285,1.888,2.911,5.51,0,9.78a2.938,2.938,0,0,1,.13-.4C.2,9.244.293,9.12.373,8.988A21.579,21.579,0,0,1,8.509.731,4.046,4.046,0,0,1,11.638.1Z" transform="translate(40.086 97.877)" fill="#3e5869"/>
            <path id="Path_154578" data-name="Path 154578" d="M1.608.015Q.808,6.3.006,12.589A63.8,63.8,0,0,1,1.258,0Z" transform="translate(97.885 13.976)" fill="#3e5869"/>
            <path id="Path_154579" data-name="Path 154579" d="M1.06,9.932Q.529,4.967,0,0A35.28,35.28,0,0,1,1.447,9.892Z" transform="translate(54.119 153.317)" fill="#3e5869"/>
            <path id="Path_154580" data-name="Path 154580" d="M2.985,9A28.926,28.926,0,0,1,0,.113L.37,0Z" transform="translate(27.453 19.541)" fill="#3e5869"/>
            <path id="Path_154581" data-name="Path 154581" d="M0,0C1.714,2.9,2.317,6.165,2.916,9.424Q1.457,4.712,0,0Z" transform="translate(83.474 19.693)" fill="#3e5869"/>
            <path id="Path_154582" data-name="Path 154582" d="M6.316,4.837A53.608,53.608,0,0,1,0,0C1.4.271,4.588,2.768,6.316,4.837Z" transform="translate(2.151 59.331)" fill="#3e5869"/>
            <path id="Path_154583" data-name="Path 154583" d="M2.372,7.148,0,.139.437,0A17.577,17.577,0,0,1,2.372,7.148Z" transform="translate(69.106 7.147)" fill="#3e5869"/>
            <path id="Path_154584" data-name="Path 154584" d="M0,3.93C1.872,2.237,3.586.306,6.375,0,5.884.689,4.991.716,4.338,1.138c-.73.471-1.457.948-2.157,1.462S.847,3.66.182,4.192Z" transform="translate(42.138 97.76)" fill="#3e5869"/>
            <path id="Path_154585" data-name="Path 154585" d="M2.135,7.681A28.126,28.126,0,0,1,0,.1L.436,0Q1.286,3.841,2.135,7.681Z" transform="translate(58.457 6.541)" fill="#3e5869"/>
            <path id="Path_154586" data-name="Path 154586" d="M.208,0C.37,3.287.515,6.252.677,9.551.015,8.416-.2,2.313.208,0Z" transform="translate(95.229 33.826)" fill="#3e5869"/>
            <path id="Path_154587" data-name="Path 154587" d="M0,0C1.8,2.424,3.6,4.847,5.373,7.231,4.091,6.467,1.182,2.637,0,0Z" transform="translate(48.825 55.535)" fill="#3e5869"/>
            <path id="Path_154588" data-name="Path 154588" d="M.449,0Q1.9,2.582,3.359,5.167l-.243.145Q1.558,2.783,0,.256Z" transform="translate(30.736 17.173)" fill="#3e5869"/>
          </g>
          <g id="Group_143257" data-name="Group 143257" transform="translate(166.81 137.293)">
            <path id="Path_154589" data-name="Path 154589" d="M16.936,87.277A20.2,20.2,0,0,1,14.6,85.934a29.644,29.644,0,0,1-3.42-2.9A41.174,41.174,0,0,1,.9,64.627,28.617,28.617,0,0,1,.819,50.7C2.349,44.081,4,37.493,5.628,30.9A169.337,169.337,0,0,0,9.351,11.357c.2-1.608.662-3.184.916-4.787.257-1.624.4-3.266.61-4.9.073-.551.219-1.092.331-1.636L11.524,0c.25,1.056.533,2.106.745,3.169,1.014,5.091,2.089,10.172,2.991,15.283A56.661,56.661,0,0,1,15.8,34.463a118.185,118.185,0,0,1-5.641,24.011,48.235,48.235,0,0,0-2.5,13.865,14.019,14.019,0,0,0,5.178,11.232c1.366,1.212,2.807,2.336,4.215,3.5ZM12.3,6.8,12,6.829v1.83c0,3.561.064,7.122-.019,10.682-.048,2.053-.277,4.106-.516,6.149A59.569,59.569,0,0,1,9.4,35.688c-1.28,4.279-2.208,8.665-3.2,13.023A94.12,94.12,0,0,0,3.821,61.439,25.545,25.545,0,0,0,6.7,75.757a4.85,4.85,0,0,0,.5.667c-.767-3.969-.2-7.831.508-11.682a72.365,72.365,0,0,1,2.539-9.315A103.273,103.273,0,0,0,15.3,31.944a50.707,50.707,0,0,0-.23-9.407c-.312-3.063-.924-6.1-1.462-9.135C13.222,11.194,12.738,9,12.3,6.8ZM3.53,69.6a31.873,31.873,0,0,1,0-11.386c.711-4.049,1.631-8.066,2.587-12.067,1.3-5.435,2.894-10.805,4.023-16.273a74.467,74.467,0,0,0,1.264-11.035c.21-3.913.051-7.847.046-11.772,0-.49-.045-.981-.07-1.473a8.585,8.585,0,0,0-.452,1.955c-.438,2.616-.681,5.248-1.336,7.849-1.014,4.034-1.507,8.2-2.449,12.253C5.506,34.717,3.674,41.742,1.957,48.795a33.827,33.827,0,0,0-.8,13.49A23.081,23.081,0,0,0,3.53,69.6Z" transform="translate(0 0)" fill="#3e5869"/>
          </g>
          <g id="Group_143258" data-name="Group 143258" transform="translate(57.107 182.949)">
            <path id="Path_154590" data-name="Path 154590" d="M0,43.279a5.82,5.82,0,0,1,.238-.974q2.922-6.736,5.867-13.46c1.111-2.539,2.126-5.127,3.372-7.6A51.708,51.708,0,0,1,16.815,9.811,30.678,30.678,0,0,1,31.095.662,22.242,22.242,0,0,1,38,.017c2.678.057,5.35.312,8.023.507,2.056.151,4.105.441,6.162.5a42.217,42.217,0,0,1,21.811,6.94c1.994,1.276,3.86,2.756,5.767,4.165a10.54,10.54,0,0,1,1.032,1l-.233.27c-.323-.2-.656-.376-.967-.591-2.463-1.7-4.862-3.5-7.395-5.081A30.006,30.006,0,0,0,58.4,3.142a61.727,61.727,0,0,0-9.878-.225A42.1,42.1,0,0,0,30.559,8.6,53.546,53.546,0,0,0,16.277,21.056c-3.292,4.025-6.3,8.287-9.315,12.533-1.963,2.768-3.7,5.7-5.555,8.542a13.36,13.36,0,0,1-1.126,1.33ZM6.458,32a6.731,6.731,0,0,1,.419-1.62c1.729-3.163,3.374-6.384,5.3-9.429A46.711,46.711,0,0,1,29.805,4.615a27.616,27.616,0,0,1,9.913-3.28A6.851,6.851,0,0,0,40.991.866,24.326,24.326,0,0,0,28.84,2.218a30.575,30.575,0,0,0-13.688,10.99c-1.288,1.93-2.551,3.886-3.666,5.918-2.9,5.284-5.24,10.829-7.6,16.362a4.36,4.36,0,0,0-.173.685,4.263,4.263,0,0,0,1.06-1.325Q5.632,33.4,6.5,31.956l.115.693c.358-.456.62-.769.862-1.1,2.537-3.442,4.924-7.008,7.649-10.294a72.961,72.961,0,0,1,7.622-7.891,42.876,42.876,0,0,1,25.14-11.1c1.4-.126,2.794-.3,4.192-.448C51,1.635,49.918,1.65,48.852,1.523a31.208,31.208,0,0,0-11.79.935C28.9,4.618,22.491,9.528,16.919,15.652c-3.285,3.61-5.59,7.887-7.978,12.1C8.131,29.179,7.286,30.585,6.458,32Z" transform="translate(0 0)" fill="#3e5869"/>
          </g>
          <g id="Group_143259" data-name="Group 143259" transform="translate(85.9 94.318)">
            <path id="Path_154591" data-name="Path 154591" d="M126.734,163.707c-.718-2.2-1.358-4.437-2.169-6.606a40.072,40.072,0,0,0-9.876-14.82A67.145,67.145,0,0,0,97.4,130.156c-7.266-3.578-14.512-7.2-21.7-10.928A143.789,143.789,0,0,1,60.127,109.4,109.5,109.5,0,0,1,33.1,82.207a101.719,101.719,0,0,1-6.647-10.623A197.182,197.182,0,0,1,13.373,41.559c-2.208-6.541-4.435-13.076-6.536-19.65C5.005,16.181,3.348,10.4,1.587,4.644,1.124,3.13.565,1.644,0,0,.773.217.876.8,1.048,1.252c.692,1.829,1.366,3.667,1.986,5.521.864,2.588,1.8,5.163,2.487,7.8,2.563,9.774,5.991,19.266,9.311,28.79a196.8,196.8,0,0,0,11.59,26.474,110.178,110.178,0,0,0,30.633,36.457,150.9,150.9,0,0,0,26.467,16.239c6.635,3.22,13.293,6.436,19.7,10.077a52.027,52.027,0,0,1,18.517,17.256,44.556,44.556,0,0,1,5.615,13.841Z" fill="#3e5869"/>
          </g>
        </g>
        <g id="Group_143264" data-name="Group 143264" transform="translate(49.657 0)">
          <g id="Group_143261" data-name="Group 143261" transform="translate(0)">
            <path id="Path_154592" data-name="Path 154592" d="M40.489,78.83c-.525-.671-.817-1.07-1.133-1.447A63.265,63.265,0,0,1,30.707,64.03a60.573,60.573,0,0,1-5.452-15.876,26.889,26.889,0,0,1-.024-8.779c.693-4.419,1.478-8.835,2.489-13.191a41.233,41.233,0,0,1,2.522-6.793,9.909,9.909,0,0,1,1.83-2.662,4.237,4.237,0,0,1,5.594-.962,18.006,18.006,0,0,1,2.924,2.012A45.627,45.627,0,0,0,48.31,22.92c.357.189.733.344,1.192.558.262-1.293.46-2.5.756-3.687A31.54,31.54,0,0,1,57.436,5.923,15.647,15.647,0,0,1,67.764.972C69.554.781,71.332.484,73.119.254a25.625,25.625,0,0,1,10.861.761A11.511,11.511,0,0,1,85.41,1.6a25.049,25.049,0,0,1,11.837,11.54,31.094,31.094,0,0,1,1.929,4.546c.5,1.491.783,3.055,1.218,4.816.389-.525.717-.957,1.033-1.4a29.526,29.526,0,0,1,5.653-6.128,9.034,9.034,0,0,1,5.643-2.219,1.967,1.967,0,0,1,2.2,1.4c.452-.523.8-.951,1.179-1.358a3.328,3.328,0,0,1,3.476-1.08,8.964,8.964,0,0,1,6.192,5.156,17.015,17.015,0,0,1,1.549,6.109,113.261,113.261,0,0,1-.039,17.636,61.73,61.73,0,0,1-4.854,19.239,64.224,64.224,0,0,1-11.2,18.775c-1.9,2.156-4.128,4.032-6.212,6.03-.327.314-.687.6-1.316,1.139a11.491,11.491,0,0,0,1.313-.233,94.575,94.575,0,0,0,15.11-6.3,5.683,5.683,0,0,0,2.376-2.348,43.777,43.777,0,0,1,5.921-9.046,51.749,51.749,0,0,1,5.363-5.318,12.975,12.975,0,0,1,9.764-2.62,3.678,3.678,0,0,1,3.08,2.711,8.99,8.99,0,0,1,.142,5.628,17.113,17.113,0,0,1-1.76,4.587,213.826,213.826,0,0,1-14.05,20.2,40.059,40.059,0,0,1-7.371,6.824,30.356,30.356,0,0,1-17.375,5.875,35.5,35.5,0,0,1-17.365-3.6c-.324-.16-.657-.3-.994-.429a1.01,1.01,0,0,0-.352.023,3.57,3.57,0,0,0,.006.731,15.122,15.122,0,0,1-2.136,11.542,24.856,24.856,0,0,1-8.118,7.951c-2.613,1.645-5.319,3.145-8.008,4.668a11.837,11.837,0,0,1-8.718.876,38.031,38.031,0,0,1-5.28-1.686c-1.923-.739-3.811-1.583-5.665-2.485a41.1,41.1,0,0,1-4.314-2.412c-2.884-1.86-3.672-4.454-2.819-8.284a9.082,9.082,0,0,1,3.429-5.207c1.742-1.358,3.649-2.5,5.493-3.731a4.445,4.445,0,0,0,1.267-1.027c-.525-.024-1.051-.076-1.575-.065a34.443,34.443,0,0,1-10.4-1.258c-4.222-1.235-8.434-2.532-12.573-4.012A179.183,179.183,0,0,0,8.681,91.7a37.747,37.747,0,0,1-5.41-1.816,8.054,8.054,0,0,1-2.429-1.6,2.045,2.045,0,0,1,.064-3.354,12.393,12.393,0,0,1,3.2-1.8c3.064-1.214,6.228-2.191,9.255-3.487a35.11,35.11,0,0,1,15.855-2.678,42.783,42.783,0,0,1,9.445,1.457C39.142,78.549,39.634,78.637,40.489,78.83ZM78.826,92.55a31.924,31.924,0,0,0,2.081-10.074,55.208,55.208,0,0,0-.55-11.414A65.766,65.766,0,0,0,77.72,59.334a66.2,66.2,0,0,0-6.877-13.41c-5.537-8.7-12.382-15.986-21.273-21.237a91.2,91.2,0,0,1-10.807-7.2c-2.918-2.338-4.857-2.235-7.236,1.361a6.824,6.824,0,0,0-.672,1.218,37.453,37.453,0,0,0-2.017,5.337c-.985,4.31-1.747,8.67-2.579,13.014a26.848,26.848,0,0,0,.28,11.646A67.941,67.941,0,0,0,37.18,73.085,45.111,45.111,0,0,0,55.916,88.81,47.782,47.782,0,0,0,73.1,92.947,13.982,13.982,0,0,0,78.826,92.55ZM113.8,13.943a4.312,4.312,0,0,0-5.046,1.4,32.863,32.863,0,0,0-4,7.82,48.277,48.277,0,0,1-8.358,14.022c-2.3,2.639-4.861,5.059-7.326,7.555a19.755,19.755,0,0,0-3.822,5.035,40.064,40.064,0,0,0-3.988,16.848c-.089,3.285.364,6.583.514,9.877a42.189,42.189,0,0,1-1.775,15.268,4.767,4.767,0,0,0-.106,1.018,11.158,11.158,0,0,0,5.875.1c9.643-1.883,17.488-6.887,24.043-14.007A63.488,63.488,0,0,0,120.678,61.7a66.667,66.667,0,0,0,6.075-28.011c-.011-3.557-.057-7.124-.331-10.667a19.292,19.292,0,0,0-1.3-5.372,7.891,7.891,0,0,0-5.2-4.948c-1.7-.517-2.392-.357-3.489,1.089-.808,1.066-1.478,2.236-2.223,3.349-.26.388-.565.746-.849,1.118l-.417-.185C112.816,16.632,114.284,15.433,113.8,13.943ZM80.109,65l.316-.02c.3-2.018.529-4.048.9-6.053A59.3,59.3,0,0,1,92.612,33.77c2.169-2.885,4.224-5.856,6.262-8.836a3.88,3.88,0,0,0,.579-2,10.285,10.285,0,0,0-.381-2.433A28.224,28.224,0,0,0,89.831,5.288a17.888,17.888,0,0,0-6.759-3.611,23.122,23.122,0,0,0-10.11-.523c-1.731.251-3.464.5-5.2.7C64.02,2.3,60.7,3.563,58.128,6.48a32.3,32.3,0,0,0-7.287,14.652c-.219.986-.269,2.008-.393,2.992.626.421,1.092.741,1.562,1.051a58.68,58.68,0,0,1,14.683,13.4c1.983,2.625,3.982,5.253,5.755,8.02a55.931,55.931,0,0,1,7.035,15.589C79.734,63.114,79.9,64.064,80.109,65Zm-9.426,56.218c.521-.055.985-.089,1.443-.152a20.359,20.359,0,0,0,9.457-4.316,13.421,13.421,0,0,0,5.429-11.12c.023-4.662-2.351-8.347-5.91-11.245-1.3-1.056-3.821-1.129-4.916-.088-1.951,1.855-4.369,2.869-6.689,4.093a45.819,45.819,0,0,1-9.37,3.287,41.942,41.942,0,0,0-4.36.939,32.616,32.616,0,0,0-9.064,5.254,9.608,9.608,0,0,0-3.424,5.035c-.607,2.5-.382,4.74,1.8,6.566a11.4,11.4,0,0,0,9.084,2.533,49.417,49.417,0,0,0,5.867-1.3,12.99,12.99,0,0,1,5.509-.223C67.263,120.8,69,120.987,70.684,121.222ZM97.2,104.115c.491.125.974.288,1.472.37a39.143,39.143,0,0,0,8.308.361,28.514,28.514,0,0,0,15-4.949A43.7,43.7,0,0,0,133.05,88.979q4.382-6.184,8.622-12.471a37.017,37.017,0,0,0,3.191-5.288c1.152-2.532,2.013-5.187.956-8.052-.642-1.741-1.419-2.425-3.282-2.432a12.285,12.285,0,0,0-8.137,2.647,37.212,37.212,0,0,0-9.42,10.951q-2.595,4.656-4.946,9.445a47.1,47.1,0,0,1-6.8,10.109,36.66,36.66,0,0,1-9.285,7.753A24.973,24.973,0,0,1,97.2,104.115ZM74.959,94.1c-3.124-.389-6.065-.583-8.932-1.148A44.5,44.5,0,0,1,44.191,82.328a14.342,14.342,0,0,0-6.352-3.276c-.8-.2-1.608-.35-2.413-.523A19.415,19.415,0,0,0,22.2,80.158c-1.057.535-2.058,1.2-3.145,1.656a42.18,42.18,0,0,1-6.179,2.356,38.558,38.558,0,0,1-5.536.445c-1.481.142-2.956.366-4.424.612A2.552,2.552,0,0,0,.905,86.886a5.01,5.01,0,0,0,4.137,2.468c5.044.212,9.933-.863,14.839-1.769a24.525,24.525,0,0,1,14.7,1.286c3.061,1.351,6.043,2.88,9.064,4.324,3.253,1.556,6.45,3.244,9.778,4.621a18.691,18.691,0,0,0,11.8,1.089,32.482,32.482,0,0,0,8.941-4.091A6.44,6.44,0,0,0,74.959,94.1Zm7.8.28c.942,1.23,1.939,2.407,2.789,3.682s1.362,2.829,3.267,2.878c.107,0,.189.246.317.317a12.789,12.789,0,0,0,6.446,1.9,16.865,16.865,0,0,0,9.065-3.012,40.807,40.807,0,0,0,5.327-4.219,45.6,45.6,0,0,0,9.982-14.05c.249-.532.486-1.07.855-1.887-.59.275-.861.4-1.133.526-2.729,1.219-5.418,2.536-8.2,3.628a83.153,83.153,0,0,1-8.2,2.743,13.3,13.3,0,0,0-3.647,1.556,34.484,34.484,0,0,1-10.754,4.6C86.843,93.5,84.8,93.932,82.762,94.38Zm-75.193-4.2L7.5,90.4a3.64,3.64,0,0,0,.4.181c.343.106.688.213,1.038.294a166.774,166.774,0,0,1,20.138,5.9c3.525,1.294,7.118,2.41,10.715,3.491,1.263.38,2.714.2,3.923.673a11.928,11.928,0,0,0,3.735.718,50.719,50.719,0,0,0,6.644.026c2.172-.157,4.322-.611,6.478-.961a3.861,3.861,0,0,0,.887-.382c-1.772-.257-3.513-.424-5.216-.774-3.62-.745-6.875-2.442-10.157-4.066-4.155-2.056-8.273-4.2-12.521-6.052A20.2,20.2,0,0,0,21.3,88.235c-2.823.567-5.679.979-8.529,1.392C11.049,89.877,9.3,90,7.569,90.177Zm44.026,32.914a36.678,36.678,0,0,0,9.255,3.678,12.069,12.069,0,0,0,9.58-1.8c.548-.37,1.2-.583,1.769-.929,1.831-1.108,3.644-2.244,5.465-3.369-.261-.22-.411-.235-.529-.179a15.516,15.516,0,0,1-10.228,1.08,12.648,12.648,0,0,0-6.422-.051A34.368,34.368,0,0,1,51.594,123.091Zm35.093-77.23c1.725-1.688,3.441-3.386,5.174-5.063a51.4,51.4,0,0,0,11.751-17.065c.962-2.27,2.091-4.468,3.137-6.7a4.37,4.37,0,0,0,.135-.713,13.319,13.319,0,0,0-1.394,1.273c-1.546,1.926-3.123,3.832-4.566,5.835-2.618,3.634-5.148,7.333-7.72,11-.681.97-1.408,1.908-2.063,2.9A36.547,36.547,0,0,0,86.687,45.861ZM5.105,83.723l.014.144c1.636-.058,3.278-.045,4.9-.2a14.981,14.981,0,0,0,4.384-.752c3.567-1.512,7.027-3.279,10.529-4.943a9.255,9.255,0,0,0-2.916.144,69.907,69.907,0,0,0-6.862,1.718c-2.923.975-5.762,2.2-8.637,3.32C6.048,83.34,5.578,83.532,5.105,83.723Z" fill="#3e5869"/>
          </g>
          <g id="Group_143262" data-name="Group 143262" transform="translate(25.785 0.873)">
            <path id="Path_154593" data-name="Path 154593" d="M23.917,37.277c-5.229,1.533-10.446.361-15.667-.225,4.819-.146,9.655,1.1,14.769-.135a8.7,8.7,0,0,0-1-.724A27.78,27.78,0,0,1,10.8,25.828,90.945,90.945,0,0,1,.913,3.591C.589,2.563.3,1.524.006.486-.018.4.039.29.1,0,.673,1.7,1.185,3.243,1.721,4.778a98.433,98.433,0,0,0,9.288,20.33,29.621,29.621,0,0,0,11.666,11.02c.454.231.873.53,1.307.8Z" transform="translate(8.713 52.457)" fill="#3e5869"/>
            <path id="Path_154594" data-name="Path 154594" d="M0,0A154.414,154.414,0,0,0,8.908,31.521c1.448,3.684,3.074,7.309,4.848,10.847A34.759,34.759,0,0,0,21.78,52.887a1,1,0,0,1,.326.523,28.032,28.032,0,0,1-4.9-4.731A51.975,51.975,0,0,1,9.87,35.65,155.066,155.066,0,0,1,.858,6.378C.458,4.273.28,2.128,0,0Z" transform="translate(10.382 32.254)" fill="#3e5869"/>
            <path id="Path_154595" data-name="Path 154595" d="M0,39.249C13.657,29.328,23.062,16.521,27.123,0A59.512,59.512,0,0,1,16.088,24.678C11.08,31.176,3,38.492,0,39.249Z" transform="translate(63.517 52.066)" fill="#3e5869"/>
            <path id="Path_154596" data-name="Path 154596" d="M0,0C2.375,7.027,3.684,14.24,2.753,22.01c6.173-4.4,9.967-10.419,14.034-16.54C15.156,9.872,7.153,20.838,2,22.906A41.847,41.847,0,0,0,2.08,11.34C1.437,7.552.7,3.779,0,0Z" transform="translate(51.474 69.078)" fill="#3e5869"/>
            <path id="Path_154597" data-name="Path 154597" d="M0,28.341a6.41,6.41,0,0,1,.726-.525c5.1-2.682,8.995-6.7,12.363-11.258a84.522,84.522,0,0,0,8.668-15.3A4.476,4.476,0,0,1,22.559,0c-3.68,9.122-8.105,17.79-15.737,24.348A51.155,51.155,0,0,1,.906,28.236a2.767,2.767,0,0,1-.714.244C.162,28.49.111,28.424,0,28.341Z" transform="translate(55.06 63.861)" fill="#3e5869"/>
            <path id="Path_154598" data-name="Path 154598" d="M0,0C5.677,11.46,9.773,23.531,13.76,35.645,9.259,23.73,4.942,11.745,0,0Z" transform="translate(31.749 48.894)" fill="#3e5869"/>
            <path id="Path_154599" data-name="Path 154599" d="M6.29,33.822c-.608-1.789-1.11-3.624-1.845-5.36a48.656,48.656,0,0,1-3.156-12.3C.807,12.759.524,9.323.2,5.9A41.812,41.812,0,0,1,.041,0,3.353,3.353,0,0,1,.353.821C.5,2.254.633,3.69.718,5.127A95.258,95.258,0,0,0,3.19,22.651c.892,3.561,2.167,7.027,3.267,10.536.056.177.079.365.117.549Z" transform="translate(41.949 13.393)" fill="#3e5869"/>
            <path id="Path_154600" data-name="Path 154600" d="M0,0C3.056,2.107,12.661,22.959,13.645,29.215,11.6,24.316,9.532,19.3,7.4,14.3A117.259,117.259,0,0,0,0,0Z" transform="translate(28.928 26.639)" fill="#3e5869"/>
            <path id="Path_154601" data-name="Path 154601" d="M1.7,0c1.03,15.058.124,28.484-1.541,32.753-.432-1.419.148-2.62.254-3.836.218-2.506.7-5,.791-7.506C1.446,14.2,1.546,6.986,1.7,0Z" transform="translate(55.48 26.365)" fill="#3e5869"/>
            <path id="Path_154602" data-name="Path 154602" d="M0,28.6A126.62,126.62,0,0,1,8.745,0C7.22,4.743,5.6,9.458,4.2,14.238S1.611,23.887.332,28.716Z" transform="translate(55.21 53.518)" fill="#3e5869"/>
            <path id="Path_154603" data-name="Path 154603" d="M0,27.809C1.586,17.85,5.812,8.865,10.353,0,8.418,4.569,6.324,9.079,4.594,13.725,2.873,18.349,1.517,23.109,0,27.809Z" transform="translate(55.785 45.268)" fill="#3e5869"/>
            <path id="Path_154604" data-name="Path 154604" d="M0,31.658Q5.718,15.83,11.439,0C8.517,10.86,4.349,21.274,0,31.658Z" transform="translate(67.106 32.716)" fill="#3e5869"/>
            <path id="Path_154605" data-name="Path 154605" d="M.165,1.8l.642.085c.017-.358.02-.713.056-1.066C.892.544.962.273,1.013,0l.312.013q.482,4.532.962,9.066l-.17.033Q1.547,6.123.975,3.135C.692,8.2,1.524,13.168,2.284,18.189.892,15.1-.482,4.421.165,1.8Z" transform="translate(2.861 21.628)" fill="#3e5869"/>
            <path id="Path_154606" data-name="Path 154606" d="M.366,0A14.786,14.786,0,0,1,1.473,1.891a39.978,39.978,0,0,1,2.594,9.174c.435,2.894.888,5.791,1.162,8.7.174,1.838.033,3.706.033,5.316C4.385,16.762,3.731,8.154,0,.167.122.111.243.055.366,0Z" transform="translate(60.912 1.905)" fill="#3e5869"/>
            <path id="Path_154607" data-name="Path 154607" d="M2.053,22.005C.041,17.849-.947,1.842,1.231,0,1.062,1.945.839,3.736.769,5.531S.74,9.146.809,10.951c.073,1.852.174,3.709.38,5.549C1.388,18.276,1.738,20.036,2.053,22.005Z" transform="translate(32.893 3.817)" fill="#3e5869"/>
            <path id="Path_154608" data-name="Path 154608" d="M4.388,21.866C2.11,17.073-.661,3.067.142,0,.765,3.774,1.28,7.378,1.974,10.947,2.677,14.563,3.557,18.144,4.388,21.866Z" transform="translate(1 32.637)" fill="#3e5869"/>
            <path id="Path_154609" data-name="Path 154609" d="M.093,0C1,3.328,1.3,6.78,2.059,10.14,2.829,13.534,3.5,16.952,4.2,20.289,2.542,17.132-.578,2.264.093,0Z" transform="translate(14.509 17.052)" fill="#3e5869"/>
            <path id="Path_154610" data-name="Path 154610" d="M22.44,2.651C15.032,1.06,7.458,1.011,0,0,7.574.151,15.126.5,22.44,2.651Z" transform="translate(0 81.646)" fill="#3e5869"/>
            <path id="Path_154611" data-name="Path 154611" d="M0,17.8C1.279,11.791,3.148,5.94,4.693,0,5.142,1.5,1.475,15.016,0,17.8Z" transform="translate(83.07 15.325)" fill="#3e5869"/>
            <path id="Path_154612" data-name="Path 154612" d="M19.813,2.149A43.816,43.816,0,0,1,.011.385L0,.035A3.589,3.589,0,0,1,1.037.048c5.409,1.722,11.008,2,16.617,2.21C18.37,2.283,19.093,2.189,19.813,2.149Z" transform="translate(62.384 91.945)" fill="#3e5869"/>
            <path id="Path_154613" data-name="Path 154613" d="M0,25.281Q2.723,12.641,5.448,0A202.1,202.1,0,0,1,0,25.281Z" transform="translate(85.629 21.929)" fill="#3e5869"/>
            <path id="Path_154614" data-name="Path 154614" d="M0,15.715A83.3,83.3,0,0,0,5.243,0,1.605,1.605,0,0,1,5.59,1.666,64.362,64.362,0,0,1,1.353,13.7,14.25,14.25,0,0,1,0,15.715Z" transform="translate(44.486 93.147)" fill="#3e5869"/>
            <path id="Path_154615" data-name="Path 154615" d="M0,24.759A70.019,70.019,0,0,0,3.986,12.706,49.963,49.963,0,0,0,5.274,0C6.408,5.61,3.663,18.732,0,24.759Z" transform="translate(89.324 38.809)" fill="#3e5869"/>
            <path id="Path_154616" data-name="Path 154616" d="M3.831,0C4.16,5.252,2.185,12.956,0,14.144c.175-.406.286-.643.38-.886A35.927,35.927,0,0,0,2.057,8.809C2.764,5.869,3.263,2.88,3.831,0Z" transform="translate(50.84 104.954)" fill="#3e5869"/>
            <path id="Path_154617" data-name="Path 154617" d="M0,15.491C.582,10.035,1.147,4.742,1.651,0,2,5.311,1.227,13.335,0,15.491Z" transform="translate(57.993 35.45)" fill="#3e5869"/>
            <path id="Path_154618" data-name="Path 154618" d="M9.043,0C7.464,1.713,5.822,3.373,4.322,5.152,2.8,6.953,1.424,8.872,0,10.719.685,8.183,6.056,1.549,9.043,0Z" transform="translate(29.364 99.353)" fill="#3e5869"/>
            <path id="Path_154619" data-name="Path 154619" d="M.935,10.309C.631,7.939.259,5.573.048,3.193-.084,1.686.025,1.676.787,0A.648.648,0,0,1,.935.044c.039.023.1.067.1.1q.005,5.077,0,10.155Z" transform="translate(45.279 0)" fill="#3e5869"/>
            <path id="Path_154620" data-name="Path 154620" d="M13.988,0C9.543,2.03,4.811,2.5,0,2.53,4.681,1.8,9.441,1.492,13.988,0Z" transform="translate(20.541 90.731)" fill="#3e5869"/>
            <path id="Path_154621" data-name="Path 154621" d="M5.369,14.578C5.2,11.89,5.3,9.174,4.287,6.559,3.319,4.067,2.187,1.717,0,0A2.684,2.684,0,0,1,2.022,1.206,14.961,14.961,0,0,1,5.339,9.347C5.506,11.076,5.369,12.834,5.369,14.578Z" transform="translate(53.096 92.624)" fill="#3e5869"/>
            <path id="Path_154622" data-name="Path 154622" d="M0,0A40.94,40.94,0,0,0,12.513.808C10.686,2.275,3.041,1.688,0,0Z" transform="translate(68.676 97.18)" fill="#3e5869"/>
            <path id="Path_154623" data-name="Path 154623" d="M.58,11.075C-.8,9.6.394,3.6,2.9,0c-.58,1.83-1.139,3.368-1.548,4.944C.848,6.873.241,8.81.751,10.852.766,10.908.639,11,.58,11.075Z" transform="translate(23.853 109.596)" fill="#3e5869"/>
            <path id="Path_154624" data-name="Path 154624" d="M11.082,0A26,26,0,0,1,0,3.474Z" transform="translate(81.386 84.85)" fill="#3e5869"/>
            <path id="Path_154625" data-name="Path 154625" d="M1.05.019C.791,4.13.531,8.242.28,12.228A43.681,43.681,0,0,1,.622,0Z" transform="translate(34.529 3.178)" fill="#3e5869"/>
            <path id="Path_154626" data-name="Path 154626" d="M.3,0A44.047,44.047,0,0,1,5.253,10.67Q2.626,5.409,0,.149Z" transform="translate(33.831 30.595)" fill="#3e5869"/>
            <path id="Path_154627" data-name="Path 154627" d="M0,6.315A14.974,14.974,0,0,0,11.225,0C9.823,3.678,4.743,6.454,0,6.315Z" transform="translate(30.377 91.798)" fill="#3e5869"/>
            <path id="Path_154628" data-name="Path 154628" d="M2.266,10.61A55.211,55.211,0,0,1,0,0C.77.874,1.938,6.705,2.266,10.61Z" transform="translate(16.157 18.723)" fill="#3e5869"/>
            <path id="Path_154629" data-name="Path 154629" d="M0,0C2.2,3.829,3.385,8.056,5.08,12.083l-.3.118Q2.391,6.1,0,0Z" transform="translate(33.899 60.656)" fill="#3e5869"/>
            <path id="Path_154630" data-name="Path 154630" d="M10.232,1.238A35.643,35.643,0,0,1,0,.331C.012.22.023.111.033,0Q5.137.621,10.232,1.238Z" transform="translate(65.498 91.438)" fill="#3e5869"/>
            <path id="Path_154631" data-name="Path 154631" d="M0,9.046A30.167,30.167,0,0,0,2.08,0C2.319,3.4,1.924,6.406,0,9.046Z" transform="translate(53.524 108.7)" fill="#3e5869"/>
            <path id="Path_154632" data-name="Path 154632" d="M0,7.337,2.474,0l.342.114A20.773,20.773,0,0,1,0,7.337Z" transform="translate(45.383 95.109)" fill="#3e5869"/>
            <path id="Path_154633" data-name="Path 154633" d="M6.338,0A12.856,12.856,0,0,1,.069,1.43C.045,1.312.023,1.194,0,1.076Z" transform="translate(23.361 94.368)" fill="#3e5869"/>
            <path id="Path_154634" data-name="Path 154634" d="M.617,4.717C-.327,3.209-.074,1.737.617,0Z" transform="translate(21.835 116)" fill="#3e5869"/>
            <path id="Path_154635" data-name="Path 154635" d="M4.5.346A11.113,11.113,0,0,1,0,1.277L4.4,0Z" transform="translate(86.309 87.212)" fill="#3e5869"/>
          </g>
          <g id="Group_143263" data-name="Group 143263" transform="translate(77.173 111.145)">
            <path id="Path_154636" data-name="Path 154636" d="M13.03,284.926c-.058-4.181-.135-8.361-.17-12.542-.048-5.68.033-11.363-.121-17.04-.157-5.777-.518-11.548-.817-17.32q-.318-6.107-.711-12.209c-.239-3.654-.536-7.3-.813-10.955-.235-3.086-.437-6.175-.729-9.255-.446-4.722-.944-9.436-1.445-14.152-.146-1.382-.307-2.77-.582-4.131-.874-4.323-1.883-8.62-2.7-12.953-1.256-6.679-2.566-13.356-3.538-20.079a142.086,142.086,0,0,1-1.287-25.94,148.342,148.342,0,0,1,3.13-23.569c1.194-5.9,2.064-11.864,3.039-17.806.275-1.675.268-3.406.639-5.055,1.243-5.51,1.2-11.126,1.549-16.711.841-13.618.576-27.251.512-40.88-.024-4.955-.168-9.91-.282-14.865-.057-2.478-.2-4.953-.238-7.43A10.589,10.589,0,0,1,8.831,0l.3.008a1.152,1.152,0,0,1,.106.323c.209,14.818.512,29.634.576,44.451.032,7.327-.252,14.66-.629,21.979C8.9,72.315,8.249,77.85,7.754,83.394a16.078,16.078,0,0,1-.418,3.675c-.787,2.316-.849,4.734-1.308,7.091-1.291,6.619-2.612,13.235-3.77,19.879-.539,3.09-.756,6.237-1.07,9.364a130.43,130.43,0,0,0-.242,18.567c.163,3.856.669,7.7,1.082,11.542a234.865,234.865,0,0,0,4.788,26.446c.78,3.459,1.47,6.916,1.953,10.417.443,3.216.783,6.447,1.092,9.679.422,4.413.792,8.833,1.143,13.253.274,3.445.49,6.9.721,10.345.289,4.324.594,8.647.845,12.972.258,4.484.588,8.967.663,13.454.185,10.945.239,21.892.35,32.839.007.669.044,1.339.068,2.008Z" transform="translate(0 0)" fill="#3e5869"/>
          </g>
        </g>
      </g>
    </g>
  </g>
</svg>
