<svg xmlns="http://www.w3.org/2000/svg" width="265.367" height="271.357" viewBox="0 0 265.367 271.357">
  <g id="Group_143254" data-name="Group 143254" transform="translate(138.413 316.452) rotate(-150)" opacity="0.5">
    <g id="Group_75" data-name="Group 75" transform="translate(0 130.461)">
      <path id="Path_154056" data-name="Path 154056" d="M59.061,33.832C53.587,42.5,50.466,51.878,47.277,61.218c-3.822,11.2-7.594,22.407-11.43,33.6a55.291,55.291,0,0,0-2.932,12.463,14.275,14.275,0,0,0,.394,4.755c.484,1.952,2.047,2.593,3.89,1.716a11.448,11.448,0,0,0,3.107-2.057c2.076-2.043,4.008-4.231,5.988-6.37.392-.422.742-.883,1.3-1.55.486,1.426-.234,2.94,1.145,3.91a13.908,13.908,0,0,0,5.64-.929c8.963-2.873,15.152-8.927,19.428-17.131.265-.511.493-1.04.923-1.952.334,1.342.508,2.3.808,3.211,1.125,3.446,2.141,6.939,3.472,10.3A42.164,42.164,0,0,0,95.073,121a12.666,12.666,0,0,0,6.591,2.437,8.034,8.034,0,0,0,4.122-.948,14.149,14.149,0,0,0,1.706-.969c3.578-2.557,7.214-5.038,10.684-7.733a15.952,15.952,0,0,0,6.5-13.642c-.065-2.3-.255-4.6-.4-7.064.529.238,1.006.425,1.456.661A50.047,50.047,0,0,0,143.1,98.82c1.3.161,2.593.506,3.86-.065a16.677,16.677,0,0,0,1.63-.96l-.33-1.962c.8.436,1.366.721,1.911,1.04a22.2,22.2,0,0,0,11.246,2.98,10.275,10.275,0,0,0,9.785-8.31,18.79,18.79,0,0,0-.152-6.561,141.48,141.48,0,0,0-5.133-22.746c-3.306-10.084-7.877-19.54-14.864-27.671-.194-.225-.369-.464-.545-.7a1.434,1.434,0,0,1-.076-.345c.518.067,1,.1,1.465.2a20.9,20.9,0,0,0,11.568-1,50.6,50.6,0,0,0,13.231-7.692,66.618,66.618,0,0,1,9.858-6.433,43.788,43.788,0,0,0,4.706-2.9c1.259-.882,2.234-2.043,1.731-3.765-.383-1.311-1.844-2.231-3.773-2.09a30.641,30.641,0,0,0-5.589.967c-5.912,1.575-11.759,3.41-17.7,4.85A105.412,105.412,0,0,1,148.83,18.1c-9.908.73-19.57-.765-29.2-2.721A69.842,69.842,0,0,0,107.1,13.693,20.423,20.423,0,0,1,95.612,9.817a9.776,9.776,0,0,1-4.251-7.34A23.957,23.957,0,0,0,90.822,0c-.841,2.372-1.474,4.316-2.215,6.219a17.851,17.851,0,0,1-8.994,9.512,7.975,7.975,0,0,1-3.623.6,45.773,45.773,0,0,1-15.936-3.542c-5.374-2.1-10.681-4.368-16-6.6a45.073,45.073,0,0,0-11.787-3.4,22.285,22.285,0,0,0-9.364.657c-5,1.511-10.074,2.8-15.107,4.22A18,18,0,0,0,4.277,8.9c-3.766,1.983-6.1,6.833-2.45,11.289A19.01,19.01,0,0,0,7.742,25.02c4.8,2.512,9.691,4.836,14.493,7.338a41.308,41.308,0,0,0,13.579,4.127c7.711,1.066,15.316.673,22.582-2.509A5.779,5.779,0,0,1,59.061,33.832Zm88.429,63.445a3.447,3.447,0,0,1-3.079.808c-2.348-.349-4.691-.745-7.018-1.209-7.391-1.473-13.854-5-19.9-9.3-10.677-7.6-17.617-18.05-22.213-30.119a75.607,75.607,0,0,1-4.581-29.6,55.661,55.661,0,0,1,.819-7.429,6.047,6.047,0,0,1,4.3-4.841,22.583,22.583,0,0,1,7.91-1.114,88.625,88.625,0,0,1,13.1,1.36,54.952,54.952,0,0,1,22.257,9.156c13.218,9.437,20.992,22.643,25.926,37.753a140.338,140.338,0,0,1,4.956,21.688c.389,2.451.838,4.913.169,7.428a9.349,9.349,0,0,1-9.006,7,20.282,20.282,0,0,1-9.907-2.556c-1.351-.756-2.649-1.6-3.991-2.369a6.183,6.183,0,0,0-1.182-.394l-.279.338C146.339,95.006,146.909,96.133,147.489,97.277ZM48.871,101.5l-.6-.229c-.4.462-.813.919-1.212,1.386-2,2.355-3.921,4.794-6.046,7.038a18.9,18.9,0,0,1-3.954,3.019c-1.428.867-2.481.473-2.836-1.14a14.784,14.784,0,0,1-.287-4.758,53.377,53.377,0,0,1,2.883-11.742c3.042-8.634,6.2-17.23,9.049-25.926,2.612-7.965,5.176-15.931,8.291-23.726a47.408,47.408,0,0,1,20.79-24.377c2.889-1.661,5.808-3.325,9.142-3.906a12.908,12.908,0,0,1,4.062-.038c1.568.236,2.006.9,1.913,2.487a13.612,13.612,0,0,1-.557,3.141,116.7,116.7,0,0,1-6.764,16.294A84.944,84.944,0,0,0,74.72,68.441a136.883,136.883,0,0,0-.394,14.266,14.061,14.061,0,0,1-1.679,7,32.8,32.8,0,0,1-2.207,3.667c-4.376,6.142-9.905,10.753-17.341,12.715-1.286.339-2.591.9-4.228.449Zm73.841-9.387a27.84,27.84,0,0,1,.956,8.93,14.047,14.047,0,0,1-4.137,9.968,54.577,54.577,0,0,1-5.719,4.523c-1.275.967-2.586,1.888-3.906,2.792-1.712,1.173-3.4,2.4-5.19,3.436a5.549,5.549,0,0,1-5.005.289,25.972,25.972,0,0,1-4.614-2.284,41.944,41.944,0,0,1-10.047-9.817c-3.733-4.92-5.772-10.617-7.7-16.39a43.463,43.463,0,0,1-2.267-14.913c.13-5.038.668-10.08,1.286-15.088a70.217,70.217,0,0,1,4.909-18.546c2.527-6.03,5.22-11.992,7.847-17.98a2.546,2.546,0,0,1,.4-.482c.166,3.469.221,6.8.514,10.111A91.4,91.4,0,0,0,91.359,46.9a71.358,71.358,0,0,0,5.087,15.848c5.313,11.474,12.836,20.959,23.605,27.733C120.955,91.046,121.868,91.6,122.712,92.118ZM78.466,17.63c-.016.188,0,.283-.03.3-.306.184-.613.365-.93.528A52.4,52.4,0,0,0,61.832,30.423a8.459,8.459,0,0,1-2.222,1.764,28.889,28.889,0,0,1-12.752,3.659,73.983,73.983,0,0,1-10.866-.356,39.493,39.493,0,0,1-12.474-3.541c-3.131-1.444-6.215-3-9.268-4.6a87.716,87.716,0,0,1-7.909-4.49,17.858,17.858,0,0,1-4.1-3.923C.33,16.458.6,13.814,2.658,11.45A9.522,9.522,0,0,1,7.752,8.682c2.53-.657,5.107-1.168,7.586-1.979A16.838,16.838,0,0,1,29.143,7.887c3.241,1.759,6.366,3.729,9.56,5.574,3.039,1.755,6.037,3.6,9.17,5.17a17.79,17.79,0,0,0,11.639,1.553c3.263-.64,6.522-1.305,9.769-2.021A35.014,35.014,0,0,1,78.466,17.63Zm113.755-5A5.189,5.189,0,0,1,189.79,15.5c-3.179,2.341-6.873,3.153-10.69,3.571a18.275,18.275,0,0,0-10.339,4.394c-1.97,1.726-3.908,3.49-5.842,5.256a17.551,17.551,0,0,1-6.623,3.745,8.943,8.943,0,0,1-9.34-2.317,59.319,59.319,0,0,0-15.775-10.947c-.386-.18-.742-.425-1.111-.639a45.624,45.624,0,0,1,5.386.231c3.262.207,6.527.478,9.791.482,2.547,0,5.095-.364,7.643-.551a85.8,85.8,0,0,0,15.093-2.5c5.346-1.373,10.62-3.026,15.952-4.46a34.885,34.885,0,0,1,5.411-.933A2.666,2.666,0,0,1,192.221,12.627ZM23.325,4.742a16.315,16.315,0,0,1,9.211-.9A52.617,52.617,0,0,1,45.089,7.726c5.589,2.33,11.187,4.645,16.838,6.818,2.439.937,5.021,1.5,7.685,2.275a3.979,3.979,0,0,1-.746.383c-2.546.574-5.09,1.151-7.643,1.693-3.111.658-6.285,1.022-9.343.043a38.875,38.875,0,0,1-7.154-3.13c-4.038-2.274-7.877-4.9-11.918-7.171A76.068,76.068,0,0,0,25.347,5.3,14.782,14.782,0,0,0,23.325,4.742ZM181.533,20.091c-1.749,1.327-3.462,2.7-5.256,3.968-2.333,1.647-4.667,3.31-7.113,4.779a26.531,26.531,0,0,1-10.426,3.975.615.615,0,0,1,.364-.331c2.679-1.161,4.722-3.155,6.836-5.091a66,66,0,0,1,5.651-4.645C174.527,20.6,178.022,20.2,181.533,20.091Z" transform="translate(0 0)" fill="#3e5869"/>
    </g>
    <g id="Group_76" data-name="Group 76" transform="translate(4.285 137.431)">
      <path id="Path_154057" data-name="Path 154057" d="M0,2.063A6.236,6.236,0,0,1,1.049,7.092a48.451,48.451,0,0,0-.941,8.836A104.338,104.338,0,0,0,1.826,37.572c.6,3.265,1.217,6.524,1.843,9.783a3.205,3.205,0,0,0,.6,1.378c-.38-2.273-.794-4.54-1.133-6.818-.618-4.165-1.334-8.321-1.745-12.507C.995,25.33.841,21.22.742,17.122c-.056-2.314.2-4.637.357-6.952a9.33,9.33,0,0,1,.416-1.646c1.466,3.129,2.751,6.264,4.369,9.215a26.671,26.671,0,0,0,6.256,8.15,8.968,8.968,0,0,1,.849.916A134.116,134.116,0,0,0,32,43.821c.334.246.678.484,1.029.7.078.048.214.007.354.007-3.091-2.641-6.25-5.168-9.21-7.91-3.8-3.519-7.389-7.26-11.162-10.806A32.731,32.731,0,0,1,7.35,18.979,45.883,45.883,0,0,1,.708,1.642,10.268,10.268,0,0,1,.7.216L.735.274C.5.132.271-.009.289,0,.228.484.128,1.287.029,2.088Z" transform="translate(86.402 33.939)" fill="#3e5869"/>
      <path id="Path_154058" data-name="Path 154058" d="M15.874,0a92.4,92.4,0,0,0-7.5,15.536A112.311,112.311,0,0,0,3.006,36.354C1.968,42.43,1.1,48.535.15,54.626a5.254,5.254,0,0,0-.059,2.137c.451-2.285.94-4.562,1.344-6.855,1.04-5.894,2.024-11.8,3.06-17.694A110.212,110.212,0,0,1,14.883,2.19C15.24,1.474,15.544.731,15.874,0Z" transform="translate(53.812 20.531)" fill="#3e5869"/>
      <path id="Path_154059" data-name="Path 154059" d="M41.838,42.037A293.663,293.663,0,0,0,0,0,456.583,456.583,0,0,1,41.838,42.037Z" transform="translate(107.531 23.151)" fill="#3e5869"/>
      <path id="Path_154060" data-name="Path 154060" d="M21.509,0c-3.3,2.083-5.639,5.1-7.745,8.273A89.615,89.615,0,0,0,2.1,34.157,84.237,84.237,0,0,0,0,44.777c.25-1.021.523-2.038.749-3.065A99.343,99.343,0,0,1,13.322,10.1a48.064,48.064,0,0,1,8.3-9.977Z" transform="translate(45.552 16.689)" fill="#3e5869"/>
      <path id="Path_154061" data-name="Path 154061" d="M32.815,3.8l3.2-1.39-.1.669.118.125c1.176-.881,2.6-1.514,3.035-3.208a6.154,6.154,0,0,0-.885.37A32.064,32.064,0,0,1,25.727,4.312c-5.335.749-10.533-.2-15.746-.98C6.658,2.832,3.365,2.126,0,1.742c2.671.653,5.316,1.447,8.017,1.928,5.02.894,10.066,1.847,15.195,1.535,2.708-.164,5.392-.73,8.084-1.124.526-.077,1.044-.2,1.566-.308Z" transform="translate(31.147 13.606)" fill="#3e5869"/>
      <path id="Path_154062" data-name="Path 154062" d="M4.847,38.006a5.331,5.331,0,0,0-.118-1.128,84.855,84.855,0,0,1-3.3-16.017c-.224-1.827-.344-3.673-.413-5.512C.813,10.114.664,4.878.508,0-1,9.174.963,31.6,4.847,38.006Z" transform="translate(76.448 66.531)" fill="#3e5869"/>
      <path id="Path_154063" data-name="Path 154063" d="M34.858,23.969C28.2,16.56,21.117,9.7,12.446,4.712A47.917,47.917,0,0,0,1.1.048,1.506,1.506,0,0,0,0,.2,4.42,4.42,0,0,0,.94.742C10.422,3.476,18.372,8.8,25.581,15.35,28.705,18.189,31.768,21.095,34.858,23.969Z" transform="translate(105.524 7.612)" fill="#3e5869"/>
      <path id="Path_154064" data-name="Path 154064" d="M0,.524a42.061,42.061,0,0,1,13.249,7.06A228.317,228.317,0,0,1,30.6,22.774c-.419-.492-.833-.991-1.26-1.476s-.87-.982-1.329-1.45C21.992,13.715,15.779,7.792,8.355,3.351A57.794,57.794,0,0,0,1.412.16C.727-.134.68-.027,0,.524Z" transform="translate(91.943 7.654)" fill="#3e5869"/>
      <path id="Path_154065" data-name="Path 154065" d="M.753,8.38c.324.885.665,1.764.971,2.655A62.4,62.4,0,0,0,8.41,24a23.234,23.234,0,0,0,1.984,3.151c2.877,3.234,5.834,6.4,8.811,9.545a27.329,27.329,0,0,0,3.876,3.359c-.9-.921-1.821-1.815-2.685-2.764-2.644-2.9-5.338-5.761-7.876-8.752A61.377,61.377,0,0,1,2.19,10.611C.878,7.2.581,3.579,0,0Q.348,3.512.692,7.027c.045.469.065.941.095,1.411Z" transform="translate(86.35 25.776)" fill="#3e5869"/>
      <path id="Path_154066" data-name="Path 154066" d="M38.373,5.28c-6.467-.35-12.948-.537-19.4-1.1A68.966,68.966,0,0,1,.172,0L0,.323A4.568,4.568,0,0,0,1.039.945C4.454,1.91,7.846,3,11.312,3.74A74.511,74.511,0,0,0,25.455,5.234c2.674.052,5.345.271,8.017.269,1.638,0,3.274-.275,4.911-.426Z" transform="translate(123.707 10.059)" fill="#3e5869"/>
      <path id="Path_154067" data-name="Path 154067" d="M28.756,28.8c-.643-.578-1.276-1.168-1.929-1.733a244.458,244.458,0,0,1-18.3-17.8c-2.392-2.556-4.665-5.224-7-7.832A12.145,12.145,0,0,0,0,0C8.649,10.529,17.748,20.611,28.5,29.061Z" transform="translate(105.777 43.365)" fill="#3e5869"/>
      <path id="Path_154068" data-name="Path 154068" d="M.449,32.679c.371-.783.784-1.547,1.106-2.35A83.424,83.424,0,0,0,5.47,15.923c.846-4.122,1.609-8.26,2.377-12.4C8.062,2.363,8.168,1.182,8.27,0,5.54,10.837,4.267,22.035,0,32.484Z" transform="translate(56.204 63.655)" fill="#3e5869"/>
      <path id="Path_154069" data-name="Path 154069" d="M0,0C5.23,8.086,11.488,15.444,15.481,24.306l.475-.216a11.774,11.774,0,0,0-.627-1.643c-1.613-2.909-3.09-5.912-4.934-8.668C7.786,9.879,4.915,6.157,2.119,2.385,1.488,1.535.71.791,0,0Z" transform="translate(149.043 45.2)" fill="#3e5869"/>
      <path id="Path_154070" data-name="Path 154070" d="M5.826.045c0,.864.022,1.728,0,2.591A44.217,44.217,0,0,1,3.78,13.079c-1.133,4.1-2.429,8.164-3.78,12.66A8.794,8.794,0,0,0,.727,24.55C3.156,17.8,5.466,11.018,6.579,3.9A6.768,6.768,0,0,0,6.386,0Z" transform="translate(70.045 10.952)" fill="#3e5869"/>
      <path id="Path_154071" data-name="Path 154071" d="M26.52,5.3C17.62,4.107,8.57,3.751.175,0,.116.122.058.243,0,.366a10.614,10.614,0,0,0,1.124.721,33.384,33.384,0,0,0,9.522,2.784c3.923.6,7.878,1,11.829,1.407A40.09,40.09,0,0,0,26.52,5.3Z" transform="translate(10.461 20.614)" fill="#3e5869"/>
      <path id="Path_154072" data-name="Path 154072" d="M0,.275c.122.1.234.256.371.284a24.509,24.509,0,0,1,8.788,4.18c3.7,2.564,7.334,5.214,11.14,7.7a17.955,17.955,0,0,0-1.6-1.477c-3.985-2.9-7.936-5.852-12.018-8.611A24.259,24.259,0,0,0,1.829.22,7.091,7.091,0,0,0,.051,0Z" transform="translate(94.877 7.144)" fill="#3e5869"/>
      <path id="Path_154073" data-name="Path 154073" d="M0,0C8.229,5.378,17.583,7.529,27.063,9.276c-3-.768-6.03-1.462-9.007-2.328-3.131-.911-6.264-1.858-9.3-3.03C5.775,2.77,2.913,1.318,0,0Z" transform="translate(0 8.97)" fill="#3e5869"/>
      <path id="Path_154074" data-name="Path 154074" d="M0,28.988A113.258,113.258,0,0,1,6.7,0C2.464,9.21.621,18.979,0,28.988Z" transform="translate(73.475 37.912)" fill="#3e5869"/>
      <path id="Path_154075" data-name="Path 154075" d="M4.011,20.317C4.819,13.1,2.381,6.557,0,0,1.489,6.739,3.991,13.275,4.011,20.317Z" transform="translate(112.483 83.358)" fill="#3e5869"/>
      <path id="Path_154076" data-name="Path 154076" d="M0,0C4.383,4.942,8.631,9.549,14.138,12.753c.218-.267.273-.305.282-.352a.213.213,0,0,0-.044-.168C9.669,8.225,4.959,4.218,0,0Z" transform="translate(131.404 77.098)" fill="#3e5869"/>
      <path id="Path_154077" data-name="Path 154077" d="M0,.28A74.935,74.935,0,0,1,20.614,4.232a7.374,7.374,0,0,0-1.058-.611,46.475,46.475,0,0,0-13.2-3.3C4.641.2,2.931.074,1.217,0A4.68,4.68,0,0,0,0,.28Z" transform="translate(6.039 0)" fill="#3e5869"/>
      <path id="Path_154078" data-name="Path 154078" d="M0,0C7.676,3.67,15.944,4.351,24.239,4.887,16.061,3.759,7.808,3,0,0Z" transform="translate(128.241 13.193)" fill="#3e5869"/>
      <path id="Path_154079" data-name="Path 154079" d="M3.974,0C2.029,4.011-.594,17.076.12,19.494,1.419,12.925,2.691,6.495,3.974,0Z" transform="translate(44.056 77.993)" fill="#3e5869"/>
      <path id="Path_154080" data-name="Path 154080" d="M0,24A117.5,117.5,0,0,1,7.185,0,67.9,67.9,0,0,0,0,24Z" transform="translate(55.043 31.84)" fill="#3e5869"/>
      <path id="Path_154081" data-name="Path 154081" d="M.427,21.79C3.377,14.828,5.735,7.767,3.8,0,5.03,6.313,3.091,12.193,1.241,18.08.859,19.3.415,20.492,0,21.7Z" transform="translate(78.272 10.643)" fill="#3e5869"/>
      <path id="Path_154082" data-name="Path 154082" d="M0,0C.442,3.519,8.655,13.682,12.242,15.527,8.179,10.438,2.925,6.146,0,0Z" transform="translate(86.706 19.792)" fill="#3e5869"/>
      <path id="Path_154083" data-name="Path 154083" d="M3.607,20.044C1.795,13.468,1.294,6.662,0,0,.485,6.811,1.162,13.587,3.607,20.044Z" transform="translate(80.043 86.829)" fill="#3e5869"/>
      <path id="Path_154084" data-name="Path 154084" d="M18.664,19.744C12.571,13.619,6.592,7.347,1.065.658A4.222,4.222,0,0,0,0,0,179.776,179.776,0,0,0,18.664,19.744Z" transform="translate(97.344 29.529)" fill="#3e5869"/>
      <path id="Path_154085" data-name="Path 154085" d="M3.328.025C2.648,2.16,1.641,4.251,1.353,6.437.712,11.308.429,16.227,0,21.125l.46.074c.077-.5.187-1,.224-1.507.147-2.013.272-4.027.4-6.041A60.765,60.765,0,0,1,3.07,1.4,13.055,13.055,0,0,0,3.3,0Z" transform="translate(83.103 36.002)" fill="#3e5869"/>
      <path id="Path_154086" data-name="Path 154086" d="M2.424,16.61C2.649,10.941,1.407,5.46,0,0Q1.006,8.316,2.01,16.636Z" transform="translate(105.099 93.557)" fill="#3e5869"/>
      <path id="Path_154087" data-name="Path 154087" d="M0,0,11.631,12.279l.2-.092a8.556,8.556,0,0,0-.787-1.436A70.529,70.529,0,0,0,0,0Z" transform="translate(153.326 75.722)" fill="#3e5869"/>
      <path id="Path_154088" data-name="Path 154088" d="M19.617,6.961A137.036,137.036,0,0,0,0,0L19.5,7.288Z" transform="translate(17.932 3.734)" fill="#3e5869"/>
      <path id="Path_154089" data-name="Path 154089" d="M.578,16.339,4.21,0A81.422,81.422,0,0,0,0,16.231C.192,16.268.386,16.3.578,16.339Z" transform="translate(32.396 89.592)" fill="#3e5869"/>
      <path id="Path_154090" data-name="Path 154090" d="M0,17.958C1.357,12.047,3.164,6.193,2.289,0,2.137,6.063.927,11.992,0,17.958Z" transform="translate(75.509 10.387)" fill="#3e5869"/>
      <path id="Path_154091" data-name="Path 154091" d="M14.589.3C12.976-.6,4.466.637,0,2.368Z" transform="translate(173.507 6.373)" fill="#3e5869"/>
      <path id="Path_154092" data-name="Path 154092" d="M0,0C3.09,4.527,3.968,9.912,5.905,14.939,4.878,7.889,2.444,1.609,0,0Z" transform="translate(103.2 72.403)" fill="#3e5869"/>
      <path id="Path_154093" data-name="Path 154093" d="M16.678,0c-2.1,1.484-4.573,1.877-7.024,2.256-1.58.243-3.186.315-4.78.46L0,3.16A41.775,41.775,0,0,0,13.35,2.154,23.435,23.435,0,0,0,16.327,1c.414-.177.7-.491.3-.967Z" transform="translate(47.332 17.379)" fill="#3e5869"/>
      <path id="Path_154094" data-name="Path 154094" d="M0,0Q3.53,4.033,7.34,7.8C6.82,6.066,2.073,1.087,0,0Z" transform="translate(156.706 81.469)" fill="#3e5869"/>
      <path id="Path_154095" data-name="Path 154095" d="M2.418,0C1.1,3.027-.332,9.968.068,11.591,1.092,7.791,1.647,3.888,2.418,0Z" transform="translate(42.42 84.635)" fill="#3e5869"/>
      <path id="Path_154096" data-name="Path 154096" d="M3.41,0C2.249,4.073,1.12,8.021,0,11.972c-.022.074.067.18.107.276C1.27,10.666,3.352,3,3.41,0Z" transform="translate(59.615 81.215)" fill="#3e5869"/>
      <path id="Path_154097" data-name="Path 154097" d="M.027,0c-.179,2.975.563,8.1,1.4,9.07A39.012,39.012,0,0,0,.027,0Z" transform="translate(99.457 105.705)" fill="#3e5869"/>
      <path id="Path_154098" data-name="Path 154098" d="M.951,6.815A14.664,14.664,0,0,0,0,0Q.284,3.425.568,6.849Z" transform="translate(107.935 101.84)" fill="#3e5869"/>
    </g>
    <g id="Group_77" data-name="Group 77" transform="translate(90.19 58.582)">
      <path id="Path_154099" data-name="Path 154099" d="M0,.07A18.449,18.449,0,0,0,.418,2.547,60.457,60.457,0,0,0,2.527,8.788c2.547,5.888,5.319,11.669,8.221,17.4A55.633,55.633,0,0,0,26.874,45.026a42.067,42.067,0,0,0,21.933,8.732c7.572.745,14.945-.342,22.282-2.043,6.771-1.57,13.538-3.166,20.345-4.569,3.485-.719,7.05-1.041,10.578-1.547a2.683,2.683,0,0,0,1.447-.583,4.509,4.509,0,0,0-1.069-.556c-2.786-.6-5.577-1.183-8.373-1.728A80.294,80.294,0,0,0,79.485,41.26c-7.321-.084-14.641-.267-21.962-.415-4.288-.087-8.587-.021-12.861-.32C34.084,39.785,24.741,36,17.158,28.458a90.888,90.888,0,0,1-8.226-9.367C4.927,13.825,2.708,7.663.866,1.369.767,1.031.7.68.585.349.539.214.392.115.29,0ZM12.351,27.244l.245-.028c1.043,1.36,2.064,2.737,3.131,4.077a41.81,41.81,0,0,0,23.289,14.97c6.9,1.691,13.909,1.6,20.923.864,3.66-.383,7.311-.868,10.971-1.252,5.137-.537,10.3-.915,15.418-1.565a55,55,0,0,1,10.679.155,6.817,6.817,0,0,1,1.417.409c-8.344,1.419-16.5,3.289-24.612,5.356-7.285,1.856-14.625,3.2-22.2,2.916a39.675,39.675,0,0,1-10.521-1.724C28.723,47.526,19.9,39.234,12.95,28.638A8.46,8.46,0,0,1,12.351,27.244Zm78.691,15.68,0,.327c-2.487.169-4.979.275-7.459.519-5.971.589-11.95,1.136-17.9,1.9a102.247,102.247,0,0,1-17.977.969,44.624,44.624,0,0,1-7.421-.892C29.447,43.354,20.955,37.381,14.5,28.428c-.8-1.11-1.5-2.3-2.24-3.449a45.611,45.611,0,0,1,3.447,3.357A48.968,48.968,0,0,0,26.86,36.617a46.811,46.811,0,0,0,20.657,4.894c11.793.235,23.6-.26,35.376.732Q86.967,42.586,91.042,42.924Z" transform="translate(0 0)" fill="#3e5869"/>
    </g>
    <g id="Group_78" data-name="Group 78" transform="translate(90.19 0)">
      <path id="Path_154100" data-name="Path 154100" d="M3.438,0c0,2.737.1,5.479-.033,8.212-.273,5.824-.583,11.651-1.03,17.465C1.918,31.6,1.224,37.514.737,43.44.4,47.471.085,51.516.041,55.557c-.091,8.455-.01,16.914.03,25.371.01,2.2.113,4.405.2,6.606q.361,9.549.739,19.093c.018.456-.063,1.014.874.966,0-.5.017-1.011,0-1.517C1.547,97.452,1.083,88.83.917,80.2S.778,62.932.929,54.3c.078-4.512.583-9.019.933-13.524.367-4.743.8-9.482,1.165-14.225.339-4.39.68-8.78.922-13.175.209-3.8.276-7.616.416-11.425.023-.651.1-1.3.146-1.95Z" transform="translate(0)" fill="#3e5869"/>
      <path id="Path_154101" data-name="Path 154101" d="M.488,32.176A9.885,9.885,0,0,0,.661,30.9Q.694,27.693.68,24.48a166.174,166.174,0,0,1,1-18.854c.124-1.118.271-2.237.357-3.359.052-.673.01-1.356.01-2.267C-.019,2.285-.486,28.451.488,32.176Z" transform="translate(0.534 103.474)" fill="#3e5869"/>
    </g>
  </g>
</svg>
