<svg xmlns="http://www.w3.org/2000/svg" xmlns:xlink="http://www.w3.org/1999/xlink" width="123" height="234" viewBox="0 0 123 234">
  <defs>
    <clipPath id="clip-path">
      <rect id="Rectangle_6851" data-name="Rectangle 6851" width="123" height="234" fill="#606060" stroke="#707070" stroke-width="1"/>
    </clipPath>
  </defs>
  <g id="Mask_Group_161" data-name="Mask Group 161" clip-path="url(#clip-path)">
    <g id="Group_143252" data-name="Group 143252" transform="translate(58.364 -0.239) rotate(47)">
      <g id="Group_143232" data-name="Group 143232" transform="translate(0 75.78)">
        <g id="Group_143227" data-name="Group 143227">
          <path id="Path_154457" data-name="Path 154457" d="M26.077,53.877a2.875,2.875,0,0,0-.429-.2,34.655,34.655,0,0,1-10.706-4.84,42.2,42.2,0,0,1-4.869-3.412c-2.394-2.094-5.038-3.832-7.55-5.757A11.237,11.237,0,0,1,.936,38.145a3.66,3.66,0,0,1-.927-2.236,1.643,1.643,0,0,1,1.22-1.978,25.544,25.544,0,0,1,2.8-.614,14.073,14.073,0,0,0,2.624-.61,21.2,21.2,0,0,1,8.721-1.478,27.236,27.236,0,0,1,7.664,1.335c.29.087.584.158,1.052.284a6.65,6.65,0,0,0-.4-.586,19.924,19.924,0,0,1-4.94-11.239,28.846,28.846,0,0,1,.185-8.037,4,4,0,0,1,1.349-2.662,2.348,2.348,0,0,1,2.609-.466,16.4,16.4,0,0,1,2.595,1.589c1.9,1.425,3.746,2.936,5.641,4.373a16.249,16.249,0,0,1,4.4,4.667c.037-.405.063-.614.074-.823.054-1.1.163-2.208.141-3.311-.044-2.178-.165-4.355-.248-6.532a15.728,15.728,0,0,1,.091-4.482,5.57,5.57,0,0,1,2.176-2.929,1.986,1.986,0,0,1,2.029-.137,5.4,5.4,0,0,1,1.135.57c4.683,3.209,8.973,6.83,12.038,11.7.768,1.22,1.427,2.509,2.137,3.766.08.143.168.282.339.568.131-.609.23-1.065.325-1.521a31.164,31.164,0,0,1,2.129-6.347,50.908,50.908,0,0,0,2.413-7.149,9.765,9.765,0,0,1,1.035-2.495C62.37-.3,64.021-.447,65.4.952a13.731,13.731,0,0,1,2.97,4.8,35.587,35.587,0,0,1-.8,27.58A32.717,32.717,0,0,1,59.01,44.621a24.933,24.933,0,0,1-6.7,4.084,5.717,5.717,0,0,0-3.523,6.519,1.6,1.6,0,0,1,0,.341c-.508.02-.611-.37-.782-.675a5.38,5.38,0,0,0-2.493-2.351,1.836,1.836,0,0,0-2.361.437,23.125,23.125,0,0,0-5.835,11.145,18.925,18.925,0,0,0-.113,6.677c.421,2.908.94,5.8,1.363,8.708a14.553,14.553,0,0,1-.768,8.007,6.769,6.769,0,0,1-2.229,2.817,1.815,1.815,0,0,1-2.6-.135,6.625,6.625,0,0,1-.956-1.188,17.4,17.4,0,0,0-4.03-4.448A16.516,16.516,0,0,1,22.835,77.1a34.2,34.2,0,0,1-1.974-7.535,22.354,22.354,0,0,1,.717-9.5,11.121,11.121,0,0,1,4.063-5.825C25.769,54.15,25.886,54.039,26.077,53.877ZM35.862,22.7c.084,1.26.174,3.155.355,5.041.093.971.352,1.925.527,2.888a31.569,31.569,0,0,0,2.238,7.895,52.335,52.335,0,0,0,6.828,10.3,2.32,2.32,0,0,0,2.62.7,8.127,8.127,0,0,0,3.2-1.686,17.129,17.129,0,0,0,4.532-6.581,24.8,24.8,0,0,0,1.493-13.079,32.187,32.187,0,0,0-2.827-9.468c-3.12-6.723-8.238-11.625-14.31-15.649a5.249,5.249,0,0,0-1.24-.539,1.31,1.31,0,0,0-1.294.207,5.223,5.223,0,0,0-2.036,2.8A10.934,10.934,0,0,0,35.8,8.487a64.539,64.539,0,0,1,.295,7.463C36.021,17.987,35.952,20.025,35.862,22.7Zm-2.57,31.413a20.094,20.094,0,0,0,8.04-1.584,24.228,24.228,0,0,0,3.361-1.8c.911-.567.984-1.171.431-2.095a6.468,6.468,0,0,0-.534-.766c-.735-.9-1.5-1.772-2.216-2.689a13.2,13.2,0,0,0-5.3-4.387,22.264,22.264,0,0,0-3.606-1.225c-1.759-.394-3.557-.621-5.342-.9a42.222,42.222,0,0,1-13.037-4.143A21.538,21.538,0,0,0,11.884,33.2a7.69,7.69,0,0,0-4.919-.138,16.192,16.192,0,0,1-3.472.731,9.1,9.1,0,0,0-2.285.586A1.274,1.274,0,0,0,.4,36.048a6.249,6.249,0,0,0,.905,1.889,7.662,7.662,0,0,0,1.6,1.513C5.535,41.4,8.2,43.309,10.732,45.4a46.668,46.668,0,0,0,7.53,4.926A30.162,30.162,0,0,0,33.292,54.113Zm7.241-.627-.083-.131c-.129.037-.261.067-.388.11A21.69,21.69,0,0,1,34.409,54.5a24.2,24.2,0,0,1-6.509-.361,2.5,2.5,0,0,0-2.263.6,10.7,10.7,0,0,0-3.193,4.125,20.168,20.168,0,0,0-1.305,9.584,30.183,30.183,0,0,0,2.039,8.467A17.251,17.251,0,0,0,28.87,84.8a14.534,14.534,0,0,1,2.112,2.079c.554.638.978,1.388,1.485,2.07a6.783,6.783,0,0,0,.944,1.085,1.174,1.174,0,0,0,1.757.077,6.542,6.542,0,0,0,1.481-1.372,7.629,7.629,0,0,0,1.411-5.619A10.424,10.424,0,0,0,36.213,78.9a27.086,27.086,0,0,1-2.925-5.645,14.93,14.93,0,0,1,.8-12.861,19.4,19.4,0,0,1,4.047-4.753C38.919,54.9,39.734,54.2,40.533,53.486ZM52.941,47.3l.134.127c.259-.165.524-.321.774-.5a18.12,18.12,0,0,0,2.591-2.417,45.191,45.191,0,0,0,10.4-17.135,40.56,40.56,0,0,0,2.074-10.19A35.3,35.3,0,0,0,68.4,8.649a14.945,14.945,0,0,0-2.009-5.634,10.133,10.133,0,0,0-1.593-1.967,1.812,1.812,0,0,0-3.022.4,8.2,8.2,0,0,0-1.02,2.312,66.444,66.444,0,0,1-2.965,8.569,41.076,41.076,0,0,0-1.558,4.749,7.058,7.058,0,0,0,.193,4.543,28.747,28.747,0,0,1,1.624,14.256A21.6,21.6,0,0,1,53.219,46.91C53.116,47.032,53.033,47.171,52.941,47.3ZM40.609,42.582l.143-.1c-.195-.327-.406-.644-.58-.982A32.354,32.354,0,0,1,38.2,37.557a64.909,64.909,0,0,1-1.9-6.569,35.194,35.194,0,0,1-.72-8.529,3.49,3.49,0,0,0-1.739-3.185,11.4,11.4,0,0,0-2.441-1.159,11.884,11.884,0,0,1-6.454-4.993c-.487-.763-1-1.516-1.546-2.236a1.768,1.768,0,0,0-2.672-.363,3.528,3.528,0,0,0-1.321,2.2,10.744,10.744,0,0,0,.08,4.952,20.513,20.513,0,0,0,3.81,8.169c1.8,2.367,3.749,4.623,5.563,6.98a23.52,23.52,0,0,0,6.061,5.521c1.546.988,2.993,2.131,4.474,3.219C39.814,41.879,40.2,42.242,40.609,42.582ZM43.06,52.46l-.155-.15a11.055,11.055,0,0,0-1.108.745c-1.354,1.16-2.725,2.306-4.019,3.53a16.358,16.358,0,0,0-3.368,4.108,14.324,14.324,0,0,0-1.6,9.1,18.938,18.938,0,0,0,2.327,6.424c.673,1.2,1.451,2.348,2.139,3.543.359.625.628,1.3.938,1.955a11.484,11.484,0,0,0-.1-2.623c-.437-2.9-.927-5.8-1.35-8.7a18,18,0,0,1,.093-6,22.935,22.935,0,0,1,5.721-11.373C42.742,52.836,42.9,52.646,43.06,52.46ZM9.112,32.205l.025.148a15.676,15.676,0,0,1,2.493.405,26.9,26.9,0,0,1,3.847,1.534,41.316,41.316,0,0,0,13.391,4.081,28.417,28.417,0,0,1,7.406,1.688c.1.041.237-.009.5-.025-.382-.244-.646-.4-.893-.574a47,47,0,0,0-10.667-5.726,27.062,27.062,0,0,0-13.111-2C11.1,31.86,10.108,32.048,9.112,32.205Zm60-23.031-.177.027c0,.136-.01.272,0,.406.146,1.634.369,3.265.427,4.9a31.483,31.483,0,0,1-.605,7.091A44.75,44.75,0,0,1,62.8,37.037a48.927,48.927,0,0,1-8.218,9.9,2.459,2.459,0,0,0-.216.324c.3-.146.476-.216.636-.308a24.139,24.139,0,0,0,3.312-2.334,32.064,32.064,0,0,0,6.82-7.642,33.8,33.8,0,0,0,5.132-15.567,32.66,32.66,0,0,0-.332-8.471C69.708,11.677,69.39,10.43,69.112,9.175ZM19.129,18.392l-.163-.009c.082,1.034.112,2.075.255,3.1a19.435,19.435,0,0,0,4.155,9.8,9.1,9.1,0,0,0,2.37,2.151c1.489.86,3.114,1.483,4.685,2.2.038.018.1-.02.176-.038a.84.84,0,0,0-.091-.21q-2.906-3.5-5.815-6.995a27.38,27.38,0,0,1-4.142-6.3C20.024,20.882,19.6,19.626,19.129,18.392Zm5.1-7.313c1.3,2.232,2.676,4.377,5.013,5.645a13.036,13.036,0,0,0,4.1,1.445C30.346,15.607,27.109,13.57,24.226,11.079Z" fill="#606060"/>
        </g>
        <g id="Group_143228" data-name="Group 143228" transform="translate(4.537 0.668)">
          <path id="Path_154458" data-name="Path 154458" d="M8.746.019c-.2,1.737-.3,3.494-.631,5.206C7.52,8.3,6.907,11.376,6.077,14.391A33.574,33.574,0,0,1,.6,25.989c-.142.187-.293.367-.439.551L0,26.442a8.675,8.675,0,0,1,.437-.773C4.029,20.539,5.922,14.732,7.172,8.68c.525-2.54.92-5.107,1.363-7.664A8.89,8.89,0,0,0,8.6,0Z" transform="translate(49.91 17.373)" fill="#606060"/>
          <path id="Path_154459" data-name="Path 154459" d="M.158,0c.3,1.769.566,3.546.918,5.306a55.466,55.466,0,0,0,5.489,15.87c.566,1.035,1.267,2,1.909,2.991a3.307,3.307,0,0,1,.367.643,10.232,10.232,0,0,1-2.251-2.8,50.162,50.162,0,0,1-3.259-7.17A58.476,58.476,0,0,1,.416,3.115C.284,2.086.139,1.057,0,.027Z" transform="translate(33.351 23.283)" fill="#606060"/>
          <path id="Path_154460" data-name="Path 154460" d="M24.755,11.793c-3.456.389-6.941-.676-10.348-2.109A42.753,42.753,0,0,1,6.2,4.9C4.157,3.436,2.176,1.885.168.371A.421.421,0,0,1,0,0Q1.265.9,2.531,1.81a100.455,100.455,0,0,0,8.692,5.908,32.7,32.7,0,0,0,10.13,3.766A31.848,31.848,0,0,0,24.755,11.793Z" transform="translate(5.585 41.173)" fill="#606060"/>
          <path id="Path_154461" data-name="Path 154461" d="M0,23.547c.259-1.119.506-2.241.781-3.356a63.271,63.271,0,0,0,1.587-9,32.777,32.777,0,0,0,.073-6.952C2.28,2.839,2.224,1.425,2.2,0a25.042,25.042,0,0,1,.446,2.805c.114,2.317.273,4.645.162,6.958a50.185,50.185,0,0,1-1.537,9.689c-.3,1.2-.637,2.4-.963,3.6a5.546,5.546,0,0,1-.2.529Z" transform="translate(60.139 4.21)" fill="#606060"/>
          <path id="Path_154462" data-name="Path 154462" d="M9.453.44A4.7,4.7,0,0,0,8.5.682,13.211,13.211,0,0,0,2.982,5.94,18.262,18.262,0,0,0,.429,12.9a23.433,23.433,0,0,0-.182,4.062c.067,1.805.289,3.6.441,5.406.014.168,0,.339,0,.529a30.236,30.236,0,0,1-.547-9.382A16.429,16.429,0,0,1,6.932,1.2,5.427,5.427,0,0,1,9.739,0V.316Z" transform="translate(22.645 53.429)" fill="#606060"/>
          <path id="Path_154463" data-name="Path 154463" d="M0,0C2.928,7.245,3.992,14.919,5.116,22.58c-.714-3.8-1.387-7.6-2.156-11.388A94.35,94.35,0,0,0,0,0Z" transform="translate(36.558 2.582)" fill="#606060"/>
          <path id="Path_154464" data-name="Path 154464" d="M21.127,7.64a7.774,7.774,0,0,1-3.967.537A27.21,27.21,0,0,1,4.226,3.262C2.776,2.245,1.384,1.145,0,0,.143.076.293.141.427.229c.78.514,1.565,1.022,2.333,1.553,1.018.7,1.993,1.477,3.041,2.133A27.31,27.31,0,0,0,15.887,7.724,12.6,12.6,0,0,0,21.127,7.64Z" transform="translate(18.478 42.401)" fill="#606060"/>
          <path id="Path_154465" data-name="Path 154465" d="M8.025,1.231l.286-.124L10.98,0c-.142.533-.5.54-.741.667C9.167,1.235,8.024,1.69,7.015,2.351A14.725,14.725,0,0,0,2.7,6.858,17.425,17.425,0,0,0,.5,12.694c-.218,1.018-.333,2.057-.5,3.12C.054,9.972,2.182,5.228,7.043,1.848,7.36,1.628,7.7,1.436,8.025,1.231Z" transform="translate(24.073 52.639)" fill="#606060"/>
          <path id="Path_154466" data-name="Path 154466" d="M0,19.119c.246-.336.5-.669.737-1.008a15.009,15.009,0,0,0,1.8-4.466,18.248,18.248,0,0,0,.722-4.934A44.6,44.6,0,0,0,2.625.686,1.473,1.473,0,0,1,2.673,0c.12.835.242,1.671.358,2.507S3.3,4.184,3.36,5.028c.1,1.325.143,2.655.186,3.983a15.676,15.676,0,0,1-.985,5.819c-.369,1.033-.787,2.054-1.252,3.048a3.165,3.165,0,0,1-1.18,1.369Z" transform="translate(45.51 29.036)" fill="#606060"/>
          <path id="Path_154467" data-name="Path 154467" d="M16,11.6c-.65-.424-1.286-.874-1.953-1.269A85.543,85.543,0,0,1,1.071,1.056C.774.793.481.525.191.255A2.169,2.169,0,0,1,0,0C2.672,2.04,5.234,4.106,7.912,6.009s5.447,3.627,8.179,5.43Z" transform="translate(10.373 33.888)" fill="#606060"/>
          <path id="Path_154468" data-name="Path 154468" d="M9.553,15.084A48.464,48.464,0,0,1,0,0C.078.109.162.215.23.329A3.954,3.954,0,0,1,.423.707,59.726,59.726,0,0,0,7.345,12.068c.751.983,1.565,1.918,2.35,2.874Z" transform="translate(24.025 22.827)" fill="#606060"/>
          <path id="Path_154469" data-name="Path 154469" d="M0,0A112.861,112.861,0,0,0,4.756,20.778C3.254,18.284.278,5.369,0,0Z" transform="translate(37.328 17.723)" fill="#606060"/>
          <path id="Path_154470" data-name="Path 154470" d="M0,0C.6,4.957,1,9.949,3.571,14.557a.977.977,0,0,1-.737-.658A17.564,17.564,0,0,1,1.12,9.308,39.668,39.668,0,0,1,0,.931C0,.62,0,.31,0,0Z" transform="translate(19.346 68.401)" fill="#606060"/>
          <path id="Path_154471" data-name="Path 154471" d="M1.792,13.077A76.152,76.152,0,0,0,0,.22C-.007.192.059.146.182,0A41.9,41.9,0,0,1,1.792,13.077Z" transform="translate(50.593 18.128)" fill="#606060"/>
          <path id="Path_154472" data-name="Path 154472" d="M4.934,11.9A93.487,93.487,0,0,0,0,0,5.871,5.871,0,0,1,.351.476a45.194,45.194,0,0,1,3.239,6.8A13.946,13.946,0,0,1,4.85,11Q4.891,11.45,4.934,11.9Z" transform="translate(27.79 21.225)" fill="#606060"/>
          <path id="Path_154473" data-name="Path 154473" d="M0,0A4.044,4.044,0,0,1,.793.4C2.285,1.6,3.739,2.855,5.247,4.042,6.468,5,7.745,5.89,9,6.807c.248.181.51.344.839.565C8.434,6.986,5.6,4.909,0,0Z" transform="translate(0 32.756)" fill="#606060"/>
          <path id="Path_154474" data-name="Path 154474" d="M.277,0A34.305,34.305,0,0,1,3.366,11.987c-.28-1.352-.526-2.711-.85-4.052s-.683-2.682-1.106-4S.474,1.366,0,.082Z" transform="translate(44.325 9.014)" fill="#606060"/>
          <path id="Path_154475" data-name="Path 154475" d="M3.009,0C3.034,2.624,1.476,10.066,0,12.784a7.915,7.915,0,0,1,.176-.774,55.516,55.516,0,0,0,1.982-7.52C2.431,2.993,2.724,1.5,3.009,0Z" transform="translate(53.32 23.125)" fill="#606060"/>
          <path id="Path_154476" data-name="Path 154476" d="M.056,0C.38,1.049.7,1.908.91,2.793c.48,2.03.946,4.065,1.335,6.114a9.476,9.476,0,0,1,.042,2.287,4.637,4.637,0,0,1-.421,1.139c-.1-.249-.167-.331-.147-.374a6.066,6.066,0,0,0,.026-3.834C1.219,5.528.588,2.953,0,.369A1.868,1.868,0,0,1,.056,0Z" transform="translate(29.055 77.382)" fill="#606060"/>
          <path id="Path_154477" data-name="Path 154477" d="M4.231,14.083C2.314,11.173.126,3.876,0,0,.222,1.008.468,2.011.661,3.024A41.4,41.4,0,0,0,4.176,13.857,1.062,1.062,0,0,1,4.231,14.083Z" transform="translate(36.273 29.546)" fill="#606060"/>
          <path id="Path_154478" data-name="Path 154478" d="M2.666,0A29.845,29.845,0,0,1,2.4,5.442a20.108,20.108,0,0,1-1.086,4.6A3.88,3.88,0,0,1,0,11.838a3.808,3.808,0,0,1,.221-.529A13.012,13.012,0,0,0,2.048,5.73C2.3,3.724,2.483,1.711,2.666,0Z" transform="translate(47.56 35.01)" fill="#606060"/>
          <path id="Path_154479" data-name="Path 154479" d="M0,12.565A81.1,81.1,0,0,1,1.1,0L1.28.018Q.639,6.292,0,12.565Z" transform="translate(54.457 4.179)" fill="#606060"/>
          <path id="Path_154480" data-name="Path 154480" d="M0,0C1.244,4.882,2.338,9.836,2.289,14.546c-.261-2.115-.508-4.645-.9-7.154C1,4.916.469,2.463,0,0Z" transform="translate(42.805 30.047)" fill="#606060"/>
          <path id="Path_154481" data-name="Path 154481" d="M3.917,9.621A24.593,24.593,0,0,1,0,.1L.214,0A3.167,3.167,0,0,1,.433.508,37.772,37.772,0,0,0,2.948,7.681C3.254,8.335,3.593,8.975,3.917,9.621Z" transform="translate(14.618 11.716)" fill="#606060"/>
          <path id="Path_154482" data-name="Path 154482" d="M.221,0A14.844,14.844,0,0,1,1.363,4.086c.382,1.5.677,3.015.937,4.549-.223-.685-.472-1.363-.664-2.056C1.366,5.6,1.153,4.611.887,3.633.653,2.775.365,1.932.133,1.074A7.346,7.346,0,0,1,0,.037Z" transform="translate(31.333 4.122)" fill="#606060"/>
          <path id="Path_154483" data-name="Path 154483" d="M5.414,9.141,0,0C.837.565,4.687,7.017,5.414,9.141Z" transform="translate(20.193 12)" fill="#606060"/>
          <path id="Path_154484" data-name="Path 154484" d="M0,0C1.7.939,3.458,1.793,5.09,2.84a23.246,23.246,0,0,0,5.394,2.347c.16.053.32.108.478.167a.488.488,0,0,1,.1.07C6.878,4.647,3.542,2.115,0,0Z" transform="translate(22.578 41.909)" fill="#606060"/>
          <path id="Path_154485" data-name="Path 154485" d="M.755,8.641C.522,5.968.267,3.062,0,0,.628,1,.933,5.109.755,8.641Z" transform="translate(60.509)" fill="#606060"/>
          <path id="Path_154486" data-name="Path 154486" d="M7.326,4.251,0,0C.7-.054,5.92,2.888,7.326,4.251Z" transform="translate(26.201 38.341)" fill="#606060"/>
          <path id="Path_154487" data-name="Path 154487" d="M6.389.055A12.439,12.439,0,0,0,0,5.369,1.613,1.613,0,0,1,.071,5.15c.037-.076.09-.144.133-.216A11.846,11.846,0,0,1,4.671.4,2.221,2.221,0,0,1,6.389.055Z" transform="translate(22.005 53.73)" fill="#606060"/>
          <path id="Path_154488" data-name="Path 154488" d="M.883.008Q.443,3.459,0,6.911A35.021,35.021,0,0,1,.69,0Z" transform="translate(53.734 7.672)" fill="#606060"/>
          <path id="Path_154489" data-name="Path 154489" d="M.582,5.452Q.291,2.727,0,0A19.367,19.367,0,0,1,.794,5.43Z" transform="translate(29.709 84.163)" fill="#606060"/>
          <path id="Path_154490" data-name="Path 154490" d="M1.638,4.94A15.879,15.879,0,0,1,0,.062L.2,0Z" transform="translate(15.07 10.727)" fill="#606060"/>
          <path id="Path_154491" data-name="Path 154491" d="M0,0A15.334,15.334,0,0,1,1.6,5.174Q.8,2.586,0,0Z" transform="translate(45.823 10.81)" fill="#606060"/>
          <path id="Path_154492" data-name="Path 154492" d="M3.467,2.655A29.428,29.428,0,0,1,0,0,9.391,9.391,0,0,1,3.467,2.655Z" transform="translate(1.181 32.57)" fill="#606060"/>
          <path id="Path_154493" data-name="Path 154493" d="M1.3,3.924,0,.076.24,0A9.649,9.649,0,0,1,1.3,3.924Z" transform="translate(37.936 3.923)" fill="#606060"/>
          <path id="Path_154494" data-name="Path 154494" d="M0,2.157C1.027,1.228,1.969.168,3.5,0c-.27.378-.76.393-1.118.625-.4.259-.8.52-1.184.8S.465,2.009.1,2.3Z" transform="translate(23.132 53.665)" fill="#606060"/>
          <path id="Path_154495" data-name="Path 154495" d="M1.172,4.217A15.44,15.44,0,0,1,0,.055L.239,0Z" transform="translate(32.09 3.591)" fill="#606060"/>
          <path id="Path_154496" data-name="Path 154496" d="M.114,0C.2,1.8.283,3.432.372,5.243A14.819,14.819,0,0,1,.114,0Z" transform="translate(52.276 18.569)" fill="#606060"/>
          <path id="Path_154497" data-name="Path 154497" d="M0,0,2.949,3.97A12.353,12.353,0,0,1,0,0Z" transform="translate(26.802 30.486)" fill="#606060"/>
          <path id="Path_154498" data-name="Path 154498" d="M.246,0l1.6,2.836-.133.08L0,.141Z" transform="translate(16.873 9.427)" fill="#606060"/>
        </g>
        <g id="Group_143229" data-name="Group 143229" transform="translate(91.57 75.367)">
          <path id="Path_154499" data-name="Path 154499" d="M9.3,47.911a11.09,11.09,0,0,1-1.281-.737,16.273,16.273,0,0,1-1.878-1.591A22.6,22.6,0,0,1,.495,35.477,15.709,15.709,0,0,1,.45,27.831C1.29,24.2,2.2,20.582,3.089,16.962A92.957,92.957,0,0,0,5.133,6.234c.11-.883.363-1.748.5-2.628S5.853,1.814,5.97.918c.04-.3.12-.6.182-.9L6.326,0c.137.58.293,1.156.409,1.74.557,2.795,1.147,5.584,1.642,8.39a31.1,31.1,0,0,1,.295,8.789A64.877,64.877,0,0,1,5.575,32.1a26.479,26.479,0,0,0-1.37,7.611,7.7,7.7,0,0,0,2.842,6.166c.75.665,1.541,1.282,2.314,1.921ZM6.75,3.734l-.16.014v1c0,1.955.035,3.91-.01,5.864-.026,1.127-.152,2.254-.283,3.376a32.7,32.7,0,0,1-1.138,5.6c-.7,2.349-1.212,4.757-1.759,7.149a51.667,51.667,0,0,0-1.3,6.986,14.023,14.023,0,0,0,1.582,7.86,2.662,2.662,0,0,0,.274.366,17.055,17.055,0,0,1,.279-6.413,39.725,39.725,0,0,1,1.394-5.113A56.692,56.692,0,0,0,8.4,17.536a27.835,27.835,0,0,0-.126-5.164c-.171-1.682-.507-3.348-.8-5.015C7.258,6.145,6.992,4.942,6.75,3.734ZM1.938,38.2a17.5,17.5,0,0,1,0-6.251c.39-2.223.9-4.428,1.42-6.624C4.074,22.346,4.949,19.4,5.569,16.4a40.878,40.878,0,0,0,.694-6.058c.115-2.148.028-4.308.025-6.462,0-.269-.025-.539-.039-.808A4.713,4.713,0,0,0,6,4.142c-.241,1.436-.374,2.881-.733,4.309-.557,2.214-.827,4.5-1.344,6.726-.9,3.881-1.907,7.737-2.849,11.609a18.569,18.569,0,0,0-.437,7.405A12.67,12.67,0,0,0,1.938,38.2Z" fill="#606060"/>
        </g>
        <g id="Group_143230" data-name="Group 143230" transform="translate(31.349 100.43)">
          <path id="Path_154500" data-name="Path 154500" d="M0,23.758a3.2,3.2,0,0,1,.131-.535q1.6-3.7,3.221-7.389c.61-1.394,1.167-2.814,1.851-4.171A28.385,28.385,0,0,1,9.231,5.386,16.841,16.841,0,0,1,17.07.363,12.21,12.21,0,0,1,20.858.009c1.47.031,2.937.171,4.4.278,1.129.083,2.253.242,3.383.276a23.175,23.175,0,0,1,11.973,3.81c1.095.7,2.119,1.513,3.166,2.286a5.787,5.787,0,0,1,.567.546l-.128.148c-.177-.108-.36-.207-.531-.324C42.34,6.1,41.023,5.111,39.633,4.24A16.472,16.472,0,0,0,32.06,1.725,33.885,33.885,0,0,0,26.638,1.6a23.109,23.109,0,0,0-9.862,3.122,29.394,29.394,0,0,0-7.84,6.836c-1.807,2.21-3.461,4.549-5.113,6.88-1.078,1.52-2.029,3.129-3.049,4.689a7.334,7.334,0,0,1-.618.73Zm3.545-6.19a3.7,3.7,0,0,1,.23-.889c.949-1.736,1.852-3.5,2.908-5.176a25.642,25.642,0,0,1,9.679-8.969A15.16,15.16,0,0,1,21.8.733a3.761,3.761,0,0,0,.7-.258,13.354,13.354,0,0,0-6.67.742A16.784,16.784,0,0,0,8.318,7.251C7.611,8.31,6.917,9.384,6.305,10.5c-1.589,2.9-2.876,5.945-4.174,8.982a2.393,2.393,0,0,0-.095.376,2.34,2.34,0,0,0,.582-.727l.948-1.587.063.38c.2-.25.341-.422.473-.6,1.393-1.889,2.7-3.847,4.2-5.651a40.052,40.052,0,0,1,4.184-4.332,23.537,23.537,0,0,1,13.8-6.1c.768-.069,1.534-.163,2.3-.246C28,.9,27.4.906,26.817.836a17.132,17.132,0,0,0-6.472.513c-4.48,1.186-8,3.881-11.057,7.243a35.682,35.682,0,0,0-4.379,6.643C4.464,16.018,4,16.79,3.545,17.568Z" fill="#606060"/>
        </g>
        <g id="Group_143231" data-name="Group 143231" transform="translate(47.155 51.776)">
          <path id="Path_154501" data-name="Path 154501" d="M69.571,89.867c-.394-1.21-.746-2.436-1.191-3.627A22,22,0,0,0,62.959,78.1a36.859,36.859,0,0,0-9.493-6.656c-3.989-1.964-7.966-3.952-11.913-6a78.933,78.933,0,0,1-8.547-5.394A60.11,60.11,0,0,1,18.168,45.127,55.838,55.838,0,0,1,14.519,39.3,108.243,108.243,0,0,1,7.341,22.814c-1.212-3.591-2.434-7.178-3.588-10.787C2.748,8.882,1.838,5.707.871,2.55.617,1.718.31.9,0,0,.424.119.481.438.575.688c.38,1,.75,2.013,1.09,3.031C2.14,5.139,2.651,6.553,3.031,8c1.407,5.366,3.289,10.576,5.111,15.8A108.031,108.031,0,0,0,14.5,38.337,60.482,60.482,0,0,0,31.32,58.35a82.839,82.839,0,0,0,14.529,8.914c3.642,1.768,7.3,3.533,10.814,5.532a28.56,28.56,0,0,1,10.165,9.473,24.459,24.459,0,0,1,3.082,7.6Z" fill="#606060"/>
        </g>
      </g>
      <g id="Group_143236" data-name="Group 143236" transform="translate(27.259 0)">
        <g id="Group_143233" data-name="Group 143233">
          <path id="Path_154502" data-name="Path 154502" d="M22.226,43.274c-.288-.369-.448-.588-.622-.794a34.729,34.729,0,0,1-4.747-7.33,33.252,33.252,0,0,1-2.993-8.715,14.761,14.761,0,0,1-.013-4.819c.38-2.426.811-4.85,1.367-7.241A22.635,22.635,0,0,1,16.6,10.644a5.44,5.44,0,0,1,1-1.461,2.326,2.326,0,0,1,3.071-.528,9.884,9.884,0,0,1,1.605,1.1,25.047,25.047,0,0,0,4.237,2.823c.2.1.4.189.654.307.144-.71.252-1.374.415-2.024A17.314,17.314,0,0,1,31.53,3.251,8.59,8.59,0,0,1,37.2.534c.982-.105,1.959-.268,2.94-.394A14.067,14.067,0,0,1,46.1.557a6.319,6.319,0,0,1,.784.322,13.75,13.75,0,0,1,6.5,6.335,17.069,17.069,0,0,1,1.059,2.5c.276.818.43,1.677.669,2.644.214-.288.393-.525.567-.768a16.208,16.208,0,0,1,3.1-3.364A4.96,4.96,0,0,1,61.879,7a1.08,1.08,0,0,1,1.21.77c.248-.287.442-.522.647-.746a1.827,1.827,0,0,1,1.908-.593,4.921,4.921,0,0,1,3.4,2.831,9.34,9.34,0,0,1,.85,3.353,62.175,62.175,0,0,1-.022,9.681,33.887,33.887,0,0,1-2.665,10.561A35.256,35.256,0,0,1,61.06,43.168c-1.046,1.184-2.266,2.214-3.41,3.31-.18.173-.377.327-.722.625a6.309,6.309,0,0,0,.721-.128,51.916,51.916,0,0,0,8.295-3.457,3.12,3.12,0,0,0,1.3-1.289,24.031,24.031,0,0,1,3.25-4.966,28.408,28.408,0,0,1,2.944-2.919,7.123,7.123,0,0,1,5.36-1.438,2.019,2.019,0,0,1,1.691,1.488,4.935,4.935,0,0,1,.078,3.089A9.394,9.394,0,0,1,79.6,40a117.378,117.378,0,0,1-7.713,11.086,21.99,21.99,0,0,1-4.046,3.746,16.664,16.664,0,0,1-9.538,3.225,19.488,19.488,0,0,1-9.533-1.974c-.178-.088-.361-.164-.546-.235a.554.554,0,0,0-.193.012,1.96,1.96,0,0,0,0,.4A8.3,8.3,0,0,1,46.867,62.6a13.645,13.645,0,0,1-4.457,4.364c-1.435.9-2.92,1.727-4.4,2.563a6.5,6.5,0,0,1-4.786.481,20.876,20.876,0,0,1-2.9-.925c-1.055-.406-2.092-.869-3.11-1.364A22.563,22.563,0,0,1,24.852,66.4c-1.583-1.021-2.016-2.445-1.548-4.547a4.985,4.985,0,0,1,1.882-2.859c.956-.746,2-1.375,3.016-2.048a2.44,2.44,0,0,0,.7-.564c-.288-.013-.577-.042-.865-.036a18.907,18.907,0,0,1-5.707-.691c-2.318-.678-4.63-1.39-6.9-2.2a98.364,98.364,0,0,0-10.658-3.11,20.721,20.721,0,0,1-2.97-1A4.421,4.421,0,0,1,.462,48.46,1.123,1.123,0,0,1,.5,46.618a6.8,6.8,0,0,1,1.758-.989c1.682-.667,3.419-1.2,5.081-1.914a19.273,19.273,0,0,1,8.7-1.47,23.486,23.486,0,0,1,5.185.8C21.487,43.119,21.757,43.168,22.226,43.274Zm21.045,7.532a17.524,17.524,0,0,0,1.142-5.53,30.306,30.306,0,0,0-.3-6.266,36.1,36.1,0,0,0-1.448-6.438,36.338,36.338,0,0,0-3.775-7.362A34.865,34.865,0,0,0,27.212,13.552,50.067,50.067,0,0,1,21.279,9.6c-1.6-1.284-2.667-1.227-3.972.747a3.746,3.746,0,0,0-.369.669,20.559,20.559,0,0,0-1.107,2.93c-.54,2.366-.959,4.759-1.416,7.144a14.738,14.738,0,0,0,.154,6.393A37.3,37.3,0,0,0,20.41,40.12,24.764,24.764,0,0,0,30.7,48.752a26.23,26.23,0,0,0,9.431,2.271A7.675,7.675,0,0,0,43.271,50.805ZM62.47,7.654a2.367,2.367,0,0,0-2.77.767,18.04,18.04,0,0,0-2.2,4.293,26.5,26.5,0,0,1-4.588,7.7c-1.264,1.449-2.668,2.777-4.021,4.147a10.844,10.844,0,0,0-2.1,2.764,21.993,21.993,0,0,0-2.189,9.248c-.049,1.8.2,3.614.282,5.422a23.16,23.16,0,0,1-.974,8.381,2.617,2.617,0,0,0-.058.559,6.125,6.125,0,0,0,3.225.053,23.932,23.932,0,0,0,13.2-7.689,34.852,34.852,0,0,0,5.968-9.429,36.6,36.6,0,0,0,3.335-15.377c-.006-1.953-.031-3.911-.182-5.856a10.591,10.591,0,0,0-.711-2.949A4.332,4.332,0,0,0,65.836,6.97a1.4,1.4,0,0,0-1.916.6c-.444.585-.811,1.227-1.22,1.838-.142.213-.31.41-.466.614l-.229-.1C61.93,9.13,62.736,8.472,62.47,7.654ZM43.976,35.684l.173-.011c.162-1.108.29-2.222.493-3.323a32.556,32.556,0,0,1,6.2-13.812c1.191-1.584,2.319-3.215,3.438-4.851a2.13,2.13,0,0,0,.318-1.1,5.646,5.646,0,0,0-.209-1.336A15.494,15.494,0,0,0,49.313,2.9,9.82,9.82,0,0,0,45.6.921a12.693,12.693,0,0,0-5.55-.287c-.95.138-1.9.274-2.855.387a7.917,7.917,0,0,0-5.288,2.536,17.733,17.733,0,0,0-4,8.043c-.12.541-.148,1.1-.216,1.642.344.231.6.407.857.577a32.212,32.212,0,0,1,8.06,7.358c1.089,1.441,2.186,2.883,3.159,4.4a30.7,30.7,0,0,1,3.862,8.558C43.77,34.647,43.863,35.168,43.976,35.684ZM38.8,66.545c.286-.03.541-.049.792-.084a11.176,11.176,0,0,0,5.191-2.369,7.367,7.367,0,0,0,2.98-6.1,7.81,7.81,0,0,0-3.244-6.173,2.327,2.327,0,0,0-2.7-.048,15.483,15.483,0,0,1-3.672,2.247,25.152,25.152,0,0,1-5.143,1.8,23.023,23.023,0,0,0-2.393.516,17.9,17.9,0,0,0-4.975,2.884,5.274,5.274,0,0,0-1.88,2.764,3.251,3.251,0,0,0,.99,3.6,6.256,6.256,0,0,0,4.987,1.391,27.129,27.129,0,0,0,3.221-.711,7.131,7.131,0,0,1,3.024-.122C36.924,66.312,37.88,66.416,38.8,66.545Zm14.557-9.391c.269.069.535.158.808.2a21.488,21.488,0,0,0,4.56.2,15.653,15.653,0,0,0,8.232-2.717,23.988,23.988,0,0,0,6.079-5.993Q75.443,45.45,77.771,42a20.32,20.32,0,0,0,1.752-2.9,5.616,5.616,0,0,0,.525-4.42,1.659,1.659,0,0,0-1.8-1.335,6.744,6.744,0,0,0-4.467,1.453,20.428,20.428,0,0,0-5.171,6.011q-1.424,2.556-2.715,5.185a25.856,25.856,0,0,1-3.732,5.549,20.124,20.124,0,0,1-5.1,4.256A13.709,13.709,0,0,1,53.358,57.154Zm-12.21-5.5c-1.715-.214-3.329-.32-4.9-.63a24.43,24.43,0,0,1-11.987-5.832,7.873,7.873,0,0,0-3.487-1.8c-.437-.112-.883-.192-1.325-.287a10.658,10.658,0,0,0-7.26.895c-.58.293-1.13.656-1.727.909a23.155,23.155,0,0,1-3.392,1.293,21.166,21.166,0,0,1-3.039.244c-.813.078-1.623.2-2.429.336a1.4,1.4,0,0,0-1.1.91,2.75,2.75,0,0,0,2.271,1.355,36.4,36.4,0,0,0,8.146-.971,13.463,13.463,0,0,1,8.071.706c1.68.742,3.317,1.581,4.975,2.374,1.786.854,3.541,1.781,5.368,2.536a10.261,10.261,0,0,0,6.477.6,17.832,17.832,0,0,0,4.908-2.246A3.535,3.535,0,0,0,41.149,51.656Zm4.283.154c.517.675,1.065,1.321,1.531,2.021s.748,1.553,1.793,1.58c.059,0,.1.135.174.174a7.021,7.021,0,0,0,3.538,1.042,9.258,9.258,0,0,0,4.976-1.653,22.4,22.4,0,0,0,2.924-2.316,25.032,25.032,0,0,0,5.479-7.713c.137-.292.267-.588.469-1.036-.324.151-.473.222-.622.289-1.5.669-2.974,1.392-4.5,1.991a45.647,45.647,0,0,1-4.5,1.506,7.3,7.3,0,0,0-2,.854,18.93,18.93,0,0,1-5.9,2.523C47.672,51.327,46.551,51.564,45.432,51.81ZM4.155,49.5l-.04.124a2,2,0,0,0,.22.1c.188.058.378.117.57.161a91.55,91.55,0,0,1,11.055,3.236c1.935.71,3.908,1.323,5.882,1.916.693.208,1.49.108,2.153.369a6.548,6.548,0,0,0,2.05.394,27.842,27.842,0,0,0,3.647.014c1.192-.086,2.372-.335,3.556-.527a2.12,2.12,0,0,0,.487-.21c-.972-.141-1.929-.233-2.863-.425A23.351,23.351,0,0,1,25.3,52.423c-2.281-1.129-4.542-2.308-6.873-3.322a11.092,11.092,0,0,0-6.729-.665c-1.55.311-3.117.537-4.682.764C6.065,49.338,5.108,49.4,4.155,49.5ZM28.323,67.571A20.134,20.134,0,0,0,33.4,69.59a6.625,6.625,0,0,0,5.259-.988c.3-.2.659-.32.971-.51,1.005-.608,2-1.232,3-1.85-.143-.121-.225-.129-.29-.1a8.518,8.518,0,0,1-5.615.593,6.943,6.943,0,0,0-3.525-.028A18.866,18.866,0,0,1,28.323,67.571Zm19.264-42.4c.947-.927,1.889-1.859,2.84-2.78a28.219,28.219,0,0,0,6.451-9.368c.528-1.246,1.148-2.453,1.722-3.68a2.4,2.4,0,0,0,.074-.391,7.311,7.311,0,0,0-.765.7c-.849,1.057-1.714,2.1-2.506,3.2-1.437,1.995-2.826,4.025-4.238,6.039-.374.533-.773,1.048-1.133,1.589A20.063,20.063,0,0,0,47.587,25.175ZM2.8,45.96l.008.079c.9-.032,1.8-.025,2.692-.109a8.224,8.224,0,0,0,2.406-.413c1.958-.83,3.857-1.8,5.78-2.714a5.081,5.081,0,0,0-1.6.079,38.376,38.376,0,0,0-3.767.943c-1.6.535-3.163,1.208-4.742,1.823C3.32,45.749,3.062,45.855,2.8,45.96Z" fill="#606060"/>
        </g>
        <g id="Group_143234" data-name="Group 143234" transform="translate(14.155 0.479)">
          <path id="Path_154503" data-name="Path 154503" d="M13.129,20.463c-2.87.842-5.734.2-8.6-.124,2.646-.08,5.3.607,8.107-.074a4.774,4.774,0,0,0-.549-.4,15.25,15.25,0,0,1-6.161-5.69A49.924,49.924,0,0,1,.5,1.971C.323,1.407.165.837,0,.267-.01.22.021.159.053,0c.317.933.6,1.78.892,2.623a54.035,54.035,0,0,0,5.1,11.16,16.26,16.26,0,0,0,6.4,6.049c.249.127.479.291.718.437Z" transform="translate(4.783 28.796)" fill="#606060"/>
          <path id="Path_154504" data-name="Path 154504" d="M0,0A84.766,84.766,0,0,0,4.89,17.3c.795,2.022,1.688,4.012,2.661,5.955a19.081,19.081,0,0,0,4.4,5.774.547.547,0,0,1,.179.287,15.388,15.388,0,0,1-2.691-2.6A28.532,28.532,0,0,1,5.418,19.57,85.123,85.123,0,0,1,.471,3.5C.252,2.346.154,1.168,0,0Z" transform="translate(5.699 17.706)" fill="#606060"/>
          <path id="Path_154505" data-name="Path 154505" d="M0,21.546C7.5,16.1,12.66,9.069,14.889,0A32.669,32.669,0,0,1,8.831,13.547C6.083,17.114,1.65,21.13,0,21.546Z" transform="translate(34.868 28.582)" fill="#606060"/>
          <path id="Path_154506" data-name="Path 154506" d="M0,0A27.037,27.037,0,0,1,1.511,12.082C4.9,9.667,6.983,6.363,9.215,3c-.9,2.417-5.289,8.437-8.12,9.572a22.972,22.972,0,0,0,.046-6.349C.789,4.145.383,2.074,0,0Z" transform="translate(28.256 37.921)" fill="#606060"/>
          <path id="Path_154507" data-name="Path 154507" d="M0,15.558a3.519,3.519,0,0,1,.4-.288A20.308,20.308,0,0,0,7.185,9.09a46.4,46.4,0,0,0,4.759-8.4A2.457,2.457,0,0,1,12.384,0c-2.02,5.008-4.449,9.766-8.639,13.366A28.082,28.082,0,0,1,.5,15.5a1.519,1.519,0,0,1-.392.134C.089,15.64.061,15.6,0,15.558Z" transform="translate(30.225 35.057)" fill="#606060"/>
          <path id="Path_154508" data-name="Path 154508" d="M0,0A147.662,147.662,0,0,1,7.554,19.567C5.083,13.027,2.713,6.447,0,0Z" transform="translate(17.428 26.84)" fill="#606060"/>
          <path id="Path_154509" data-name="Path 154509" d="M3.453,18.567c-.334-.982-.609-1.989-1.013-2.942A26.71,26.71,0,0,1,.707,8.874C.443,7,.288,5.118.112,3.236A22.953,22.953,0,0,1,.022,0,1.841,1.841,0,0,1,.194.451c.079.786.154,1.574.2,2.363a52.292,52.292,0,0,0,1.357,9.62c.49,1.955,1.189,3.857,1.793,5.784.031.1.043.2.064.3Z" transform="translate(23.028 7.352)" fill="#606060"/>
          <path id="Path_154510" data-name="Path 154510" d="M0,0C1.678,1.157,6.951,12.6,7.49,16.038c-1.124-2.689-2.258-5.445-3.426-8.185A64.369,64.369,0,0,0,0,0Z" transform="translate(15.88 14.623)" fill="#606060"/>
          <path id="Path_154511" data-name="Path 154511" d="M.932,0C1.5,8.266,1,15.636.087,17.98a4.965,4.965,0,0,1,.139-2.106c.12-1.376.387-2.744.434-4.121C.794,7.8.849,3.835.932,0Z" transform="translate(30.456 14.473)" fill="#606060"/>
          <path id="Path_154512" data-name="Path 154512" d="M0,15.7A69.508,69.508,0,0,1,4.8,0C3.963,2.6,3.072,5.192,2.3,7.816S.884,13.113.182,15.764Z" transform="translate(30.307 29.379)" fill="#606060"/>
          <path id="Path_154513" data-name="Path 154513" d="M0,15.266C.871,9.8,3.191,4.866,5.683,0,4.621,2.508,3.472,4.984,2.522,7.534S.833,12.685,0,15.266Z" transform="translate(30.623 24.85)" fill="#606060"/>
          <path id="Path_154514" data-name="Path 154514" d="M0,17.379,6.279,0A137.969,137.969,0,0,1,0,17.379Z" transform="translate(36.838 17.96)" fill="#606060"/>
          <path id="Path_154515" data-name="Path 154515" d="M.09.988l.352.046C.452.838.454.643.473.45.49.3.528.15.556,0L.728.007Q.992,2.5,1.256,4.984L1.162,5Q.849,3.361.535,1.721a40.182,40.182,0,0,0,.718,8.264C.49,8.288-.265,2.427.09.988Z" transform="translate(1.57 11.872)" fill="#606060"/>
          <path id="Path_154516" data-name="Path 154516" d="M.2,0A8.117,8.117,0,0,1,.808,1.038,21.946,21.946,0,0,1,2.233,6.074c.239,1.589.488,3.179.638,4.777.1,1.009.018,2.035.018,2.918C2.407,9.2,2.048,4.476,0,.091Z" transform="translate(33.438 1.046)" fill="#606060"/>
          <path id="Path_154517" data-name="Path 154517" d="M1.127,12.08C.023,9.8-.52,1.011.676,0,.583,1.068.461,2.051.422,3.036S.406,5.021.444,6.011c.04,1.017.1,2.036.208,3.046C.762,10.033.954,11,1.127,12.08Z" transform="translate(18.057 2.095)" fill="#606060"/>
          <path id="Path_154518" data-name="Path 154518" d="M2.409,12C1.158,9.372-.363,1.684.078,0,.42,2.072.7,4.05,1.084,6.009,1.47,7.994,1.953,9.96,2.409,12Z" transform="translate(0.549 17.916)" fill="#606060"/>
          <path id="Path_154519" data-name="Path 154519" d="M.051,0c.5,1.827.661,3.722,1.079,5.566.423,1.863.791,3.74,1.174,5.572C1.4,9.4-.317,1.243.051,0Z" transform="translate(7.965 9.361)" fill="#606060"/>
          <path id="Path_154520" data-name="Path 154520" d="M12.318,1.455C8.252.582,4.094.555,0,0A46.447,46.447,0,0,1,12.318,1.455Z" transform="translate(0 44.819)" fill="#606060"/>
          <path id="Path_154521" data-name="Path 154521" d="M0,9.773C.7,6.473,1.728,3.261,2.576,0,2.823.823.81,8.243,0,9.773Z" transform="translate(45.601 8.413)" fill="#606060"/>
          <path id="Path_154522" data-name="Path 154522" d="M10.876,1.18A24.053,24.053,0,0,1,.006.211L0,.019A1.97,1.97,0,0,1,.569.026,33.765,33.765,0,0,0,9.691,1.239C10.084,1.253,10.481,1.2,10.876,1.18Z" transform="translate(34.246 50.473)" fill="#606060"/>
          <path id="Path_154523" data-name="Path 154523" d="M0,13.878Q1.495,6.939,2.991,0A110.941,110.941,0,0,1,0,13.878Z" transform="translate(47.006 12.038)" fill="#606060"/>
          <path id="Path_154524" data-name="Path 154524" d="M0,8.627A45.727,45.727,0,0,0,2.878,0a.881.881,0,0,1,.19.914A35.332,35.332,0,0,1,.742,7.523,7.822,7.822,0,0,1,0,8.627Z" transform="translate(24.421 51.133)" fill="#606060"/>
          <path id="Path_154525" data-name="Path 154525" d="M0,13.591A38.437,38.437,0,0,0,2.188,6.975,27.427,27.427,0,0,0,2.9,0C3.517,3.08,2.011,10.283,0,13.591Z" transform="translate(49.034 21.304)" fill="#606060"/>
          <path id="Path_154526" data-name="Path 154526" d="M2.1,0c.18,2.883-.9,7.112-2.1,7.764.1-.223.157-.353.208-.486a19.722,19.722,0,0,0,.921-2.442C1.518,3.222,1.791,1.581,2.1,0Z" transform="translate(27.909 57.615)" fill="#606060"/>
          <path id="Path_154527" data-name="Path 154527" d="M0,8.5c.32-3,.629-5.9.906-8.5C1.1,2.916.674,7.32,0,8.5Z" transform="translate(31.835 19.46)" fill="#606060"/>
          <path id="Path_154528" data-name="Path 154528" d="M4.964,0C4.1.94,3.2,1.852,2.372,2.828S.782,4.87,0,5.884C.376,4.492,3.325.85,4.964,0Z" transform="translate(16.119 54.54)" fill="#606060"/>
          <path id="Path_154529" data-name="Path 154529" d="M.513,5.659c-.167-1.3-.371-2.6-.487-3.906C-.046.925.014.92.432,0A.356.356,0,0,1,.513.024C.535.037.565.061.565.08q0,2.787,0,5.575Z" transform="translate(24.856)" fill="#606060"/>
          <path id="Path_154530" data-name="Path 154530" d="M7.679,0A18.371,18.371,0,0,1,0,1.389,47.939,47.939,0,0,0,7.679,0Z" transform="translate(11.276 49.807)" fill="#606060"/>
          <path id="Path_154531" data-name="Path 154531" d="M2.948,8a14.148,14.148,0,0,0-.594-4.4A7.926,7.926,0,0,0,0,0,1.474,1.474,0,0,1,1.11.662,8.213,8.213,0,0,1,2.931,5.131C3.023,6.08,2.948,7.045,2.948,8Z" transform="translate(29.147 50.846)" fill="#606060"/>
          <path id="Path_154532" data-name="Path 154532" d="M0,0A22.474,22.474,0,0,0,6.869.444C5.866,1.249,1.669.927,0,0Z" transform="translate(37.7 53.347)" fill="#606060"/>
          <path id="Path_154533" data-name="Path 154533" d="M.318,6.079C-.437,5.27.216,1.974,1.59,0,1.272,1,.965,1.849.74,2.714A6.441,6.441,0,0,0,.412,5.957C.42,5.988.351,6.038.318,6.079Z" transform="translate(13.094 60.163)" fill="#606060"/>
          <path id="Path_154534" data-name="Path 154534" d="M6.083,0A14.271,14.271,0,0,1,0,1.907Z" transform="translate(44.677 46.578)" fill="#606060"/>
          <path id="Path_154535" data-name="Path 154535" d="M.577.01C.434,2.267.292,4.525.154,6.713A23.978,23.978,0,0,1,.341,0Z" transform="translate(18.955 1.744)" fill="#606060"/>
          <path id="Path_154536" data-name="Path 154536" d="M.163,0a24.18,24.18,0,0,1,2.72,5.857Q1.441,2.969,0,.082Z" transform="translate(18.571 16.795)" fill="#606060"/>
          <path id="Path_154537" data-name="Path 154537" d="M0,3.466A8.22,8.22,0,0,0,6.162,0C5.392,2.019,2.6,3.543,0,3.466Z" transform="translate(16.675 50.392)" fill="#606060"/>
          <path id="Path_154538" data-name="Path 154538" d="M1.244,5.824A30.308,30.308,0,0,1,0,0C.423.48,1.064,3.681,1.244,5.824Z" transform="translate(8.869 10.278)" fill="#606060"/>
          <path id="Path_154539" data-name="Path 154539" d="M0,0A58.3,58.3,0,0,1,2.789,6.633L2.624,6.7Z" transform="translate(18.609 33.297)" fill="#606060"/>
          <path id="Path_154540" data-name="Path 154540" d="M5.617.68A19.566,19.566,0,0,1,0,.182C.007.121.012.061.018,0Z" transform="translate(35.955 50.195)" fill="#606060"/>
          <path id="Path_154541" data-name="Path 154541" d="M0,4.966A16.56,16.56,0,0,0,1.142,0,7.147,7.147,0,0,1,0,4.966Z" transform="translate(29.382 59.671)" fill="#606060"/>
          <path id="Path_154542" data-name="Path 154542" d="M0,4.028,1.358,0l.188.063A11.4,11.4,0,0,1,0,4.028Z" transform="translate(24.913 52.21)" fill="#606060"/>
          <path id="Path_154543" data-name="Path 154543" d="M3.479,0A7.058,7.058,0,0,1,.038.785C.025.72.012.656,0,.591Z" transform="translate(12.824 51.803)" fill="#606060"/>
          <path id="Path_154544" data-name="Path 154544" d="M.338,2.589A2.656,2.656,0,0,1,.338,0Z" transform="translate(11.986 63.678)" fill="#606060"/>
          <path id="Path_154545" data-name="Path 154545" d="M2.468.19A6.1,6.1,0,0,1,0,.7L2.415,0Z" transform="translate(47.379 47.875)" fill="#606060"/>
        </g>
        <g id="Group_143235" data-name="Group 143235" transform="translate(42.364 61.013)">
          <path id="Path_154546" data-name="Path 154546" d="M7.153,156.41c-.032-2.3-.074-4.59-.093-6.885-.026-3.118.018-6.238-.067-9.354-.086-3.171-.284-6.339-.448-9.508q-.174-3.353-.39-6.7c-.131-2.006-.294-4.01-.446-6.014-.129-1.694-.24-3.39-.4-5.081-.245-2.592-.518-5.18-.793-7.769-.08-.759-.169-1.521-.32-2.268-.48-2.373-1.034-4.732-1.481-7.111C2.024,92.052,1.306,88.387.772,84.7a78,78,0,0,1-.706-14.24A81.432,81.432,0,0,1,1.783,57.518c.655-3.238,1.133-6.513,1.668-9.775.151-.92.147-1.87.351-2.775a57.3,57.3,0,0,0,.85-9.173c.461-7.475.316-14.959.281-22.441-.013-2.72-.092-5.44-.155-8.16-.031-1.36-.111-2.719-.131-4.079A5.813,5.813,0,0,1,4.848,0l.167,0a.632.632,0,0,1,.058.177c.115,8.134.281,16.268.316,24.4.018,4.022-.139,8.048-.345,12.065-.157,3.049-.516,6.088-.788,9.131A8.826,8.826,0,0,1,4.027,47.8a28.907,28.907,0,0,0-.718,3.893C2.6,55.323,1.875,58.955,1.239,62.6c-.3,1.7-.415,3.424-.588,5.14A71.6,71.6,0,0,0,.519,77.934c.09,2.117.367,4.227.594,6.336A128.928,128.928,0,0,0,3.741,98.787c.428,1.9.807,3.8,1.072,5.719.243,1.765.43,3.539.6,5.313.231,2.423.435,4.849.627,7.275.15,1.891.269,3.785.4,5.679.159,2.374.326,4.747.464,7.121.142,2.461.323,4.923.364,7.386.1,6.008.131,12.018.192,18.027,0,.367.024.735.037,1.1Z" fill="#606060"/>
        </g>
      </g>
    </g>
  </g>
</svg>
