<svg xmlns="http://www.w3.org/2000/svg" xmlns:xlink="http://www.w3.org/1999/xlink" width="186" height="263" viewBox="0 0 186 263">
  <defs>
    <clipPath id="clip-path">
      <rect id="Rectangle_6852" data-name="Rectangle 6852" width="186" height="263" transform="translate(1180 3898)" fill="#606060" stroke="#707070" stroke-width="1"/>
    </clipPath>
  </defs>
  <g id="Mask_Group_162" data-name="Mask Group 162" transform="translate(-1180 -3898)" clip-path="url(#clip-path)">
    <g id="Group_143249" data-name="Group 143249" transform="translate(-65.258 2859.82) rotate(-5)">
      <g id="Group_110" data-name="Group 110" transform="translate(1140.443 1271.773)">
        <path id="Path_154294" data-name="Path 154294" d="M1297.192,1454.757c-.361-.116-.454-.415-.578-.681-1.023-2.175-2.02-4.363-3.066-6.527a130.387,130.387,0,0,0-8.828-15.618,76.447,76.447,0,0,0-5.453-7.162,161.26,161.26,0,0,1-11.863-16.229c-2.41-3.667-4.821-7.334-7.3-10.955a100.485,100.485,0,0,0-11.929-14.226,268.316,268.316,0,0,0-26.318-23.381,14.865,14.865,0,0,0-4.573-2.547,5.005,5.005,0,0,0-3.7.113,6.874,6.874,0,0,0-1.279.81,12.9,12.9,0,0,0-1,.931,13.86,13.86,0,0,1-8.413,3.827,72.4,72.4,0,0,1-7.359.321c-3.194-.005-6.384.074-9.575.263a124.481,124.481,0,0,0-18.139,2.786c-3.711.777-7.442,1.436-11.211,1.863a16.622,16.622,0,0,1-4.045.07,4.878,4.878,0,0,1-4.264-3.206,4.209,4.209,0,0,1,1.454-5.069,15.106,15.106,0,0,1,4.675-2.368c1.226-.366,2.47-.683,3.723-.945a3.831,3.831,0,0,0,2.508-1.762,2.336,2.336,0,0,0,.117-.252c-.259-.029-.475-.061-.693-.075a43.494,43.494,0,0,1-7.651-1.083,16.5,16.5,0,0,1-11.167-9.18,8.087,8.087,0,0,1-.253-6.547,4.114,4.114,0,0,1,1.449-1.961,13.356,13.356,0,0,1,1.261-.859,4.121,4.121,0,0,0,1.885-2.312,22.473,22.473,0,0,1,1.928-4.376c.428-.7.891-1.388,1.365-2.061a6.773,6.773,0,0,1,5.061-2.76,23.7,23.7,0,0,1,2.439-.03c.028-.075.1-.231.144-.394a23.972,23.972,0,0,1,1.683-4.139,12.594,12.594,0,0,1,2.771-3.618c.713-.649,1.478-1.242,2.219-1.86l.329-.273a2.322,2.322,0,0,0-.1-.254,9.792,9.792,0,0,1-.588-8.147,9.02,9.02,0,0,1,4.63-5.346,13.971,13.971,0,0,1,5.282-1.5c.681-.06,1.361-.138,2.044-.187a3.857,3.857,0,0,0,1.718-.606c.918-.548,1.832-1.114,2.792-1.579a16.148,16.148,0,0,1,9.018-1.5c.174.019.347.052.52.08.155.025.309.054.485.085.12-.1.24-.2.356-.306.639-.575,1.286-1.141,1.907-1.734a1.3,1.3,0,0,0,.314-.579c.089-.319.111-.656.175-.983a3.612,3.612,0,0,1,2.269-2.768,2.761,2.761,0,0,1,3.045.5,6.241,6.241,0,0,1,1.735,2.6,22.015,22.015,0,0,1,1.157,4.639c.457,3.231.889,6.466,1.272,9.706.436,3.694.794,7.4,1.535,11.048a42.763,42.763,0,0,0,1.82,6.535,21,21,0,0,0,1.579,3.322c1.23,2.085,2.413,4.2,3.648,6.281.626,1.055,1.309,2.078,1.987,3.1a36.412,36.412,0,0,1,3.8,7.027,17.815,17.815,0,0,1,1.249,5.147,6.348,6.348,0,0,1-.275,2.286,3.114,3.114,0,0,0,.052,2.117,10.153,10.153,0,0,0,1.039,2.056,29.71,29.71,0,0,0,2.288,2.816,35.484,35.484,0,0,0,4.234,3.866,266.678,266.678,0,0,1,25.782,23.35,109.609,109.609,0,0,1,13.107,16.583q3.875,5.929,7.815,11.814a108.44,108.44,0,0,0,7.924,10.571,104.23,104.23,0,0,1,13.81,21.22c1.229,2.427,2.4,4.883,3.571,7.338.339.71.6,1.46.875,2.2C1297.505,1454.338,1297.566,1454.612,1297.192,1454.757Zm-124.215-129.185.047-.018c1.6,1.425,3.162,2.887,4.795,4.269,4.41,3.732,9.037,7.184,13.769,10.5a68.547,68.547,0,0,0,11.34,6.517,52,52,0,0,0,10.368,3.708,3.343,3.343,0,0,0,1.561.154,10.516,10.516,0,0,0-.6-1.153,15.045,15.045,0,0,0-3.582-3.824,58.573,58.573,0,0,0-7.332-4.537c-1.045-.536-2.084-1.085-3.124-1.63a69.648,69.648,0,0,1-14.128-9.566c-1.3-1.153-2.494-2.416-3.733-3.632a3.873,3.873,0,0,1-.309-.392.471.471,0,0,1,.3.166,68.383,68.383,0,0,0,5.224,4.737,73.656,73.656,0,0,0,12.708,8.305,84.524,84.524,0,0,1,8.385,4.718.413.413,0,0,0,.132.032l.048-.06-.227-.2a51.279,51.279,0,0,0-4.417-3.492c-1.556-1.081-3.091-2.2-4.638-3.291a42.963,42.963,0,0,1-8.864-8.425,26.549,26.549,0,0,0-2.007-2.228q-1.729-1.734-3.528-3.4a156.478,156.478,0,0,0-12.268-10.019c-.574-.43-1.171-.832-1.676-1.19-.656.187-1.222.367-1.8.506-.545.131-1.1.223-1.652.326a7.887,7.887,0,0,0-3.089,1.144c-.951.656-1.845,1.4-2.761,2.1a.993.993,0,0,0-.14.207c.474.631.917,1.286,1.425,1.885,1.068,1.257,2.172,2.483,3.26,3.723.115.131.223.267.333.4l-.116.09a38.729,38.729,0,0,1-5.188-5.915,13.341,13.341,0,0,0-1.991,2.373,84.419,84.419,0,0,0,18.291,16.031,1.73,1.73,0,0,1-.523-.218c-1.156-.729-2.345-1.414-3.458-2.2a79.319,79.319,0,0,1-14.123-12.886c-.107-.125-.224-.24-.394-.422a19.954,19.954,0,0,0-2.475,7.166c.129.111.281.23.418.365.641.626,1.272,1.259,1.914,1.883a118.592,118.592,0,0,0,19.33,15.289,90.228,90.228,0,0,0,13.948,7.337,48.282,48.282,0,0,0,13.07,3.605,20.483,20.483,0,0,0,5.81-.132,14.63,14.63,0,0,0,2.464-.72,1.965,1.965,0,0,0,1.227-1.488c-.472.122-.851.244-1.238.314a17.033,17.033,0,0,1-5.394-.041,26.373,26.373,0,0,1-5.517-1.474,65.435,65.435,0,0,1-12.507-6.541c-.164-.1-.308-.238-.461-.358,1,.534,1.963,1.1,2.927,1.665a64.04,64.04,0,0,0,10,4.885,24.173,24.173,0,0,0,6.037,1.542,33.841,33.841,0,0,0,4.15.081,3.86,3.86,0,0,0,1.976-.56l-.082-.429a10.125,10.125,0,0,1-1.161-.157c-1.34-.338-2.7-.628-4-1.072a70.049,70.049,0,0,1-16.176-7.865c-3.911-2.585-7.648-5.41-11.344-8.289a85.288,85.288,0,0,1-8.178-7.112C1173.673,1326.3,1173.327,1325.934,1172.977,1325.572Zm42.862,24.648a.628.628,0,0,0,.469-.584,7.619,7.619,0,0,0,.14-1.408,14.962,14.962,0,0,0-1.025-4.605,34.246,34.246,0,0,0-3.926-7.429c-.952-1.433-1.912-2.86-2.852-4.3a43.531,43.531,0,0,1-4.313-8.183,10.619,10.619,0,0,0-.772-1.551c-1.523-2.6-3.1-5.178-4.586-7.8a50.965,50.965,0,0,1-5.633-14.336,36.285,36.285,0,0,1-.945-6.432,5.986,5.986,0,0,0-.106-.709,17.456,17.456,0,0,0-3.957,3.957,75.529,75.529,0,0,0,5.357,13.6,56.357,56.357,0,0,1-5.613-13.268,4.41,4.41,0,0,0-1.2,2.122,18.381,18.381,0,0,0-.443,4.912,23.486,23.486,0,0,0,2.52,9.864,36.3,36.3,0,0,0,3.229,5.052,46.167,46.167,0,0,1,4.786,8.22c.776,1.706,1.626,3.389,2.567,5.01a32.039,32.039,0,0,0,7.115,8.6q1.614,1.353,3.189,2.753a37.886,37.886,0,0,1,5,5.262,2.722,2.722,0,0,0,.28.259,3.347,3.347,0,0,0-.063-.442c-.306-.968-.572-1.953-.936-2.9a34.537,34.537,0,0,0-4.178-7.529q-4.7-6.641-9.487-13.217a119.8,119.8,0,0,1-7.792-11.941,41.755,41.755,0,0,1-2.672-5.6c-.082-.218-.129-.45-.192-.677l.1-.034c.243.538.482,1.079.729,1.615a75.863,75.863,0,0,0,6.507,11.237c2.328,3.382,4.766,6.689,7.152,10.032,2.192,3.072,4.425,6.115,6.553,9.23a28.556,28.556,0,0,1,4.858,10.93A1.352,1.352,0,0,0,1215.839,1350.219Zm-39.634-3.433.036-.123c-.182-.129-.365-.257-.547-.387a25.26,25.26,0,0,1-4.568-3.789,1.837,1.837,0,0,0-.7-.449c-.718-.281-1.449-.532-2.178-.784a23.4,23.4,0,0,1-7.1-3.712,12.865,12.865,0,0,1-3.593-4.007,1.733,1.733,0,0,0-.977-.892c-1.365-.491-2.734-.97-4.1-1.455-.115-.041-.227-.088-.341-.131a1.387,1.387,0,0,1,.645.009,24.413,24.413,0,0,1,3.832,1.266,3.414,3.414,0,0,0,.33.1,15.076,15.076,0,0,1-.755-7.935,3.925,3.925,0,0,0-.466-.112,7.535,7.535,0,0,0-2.56.171,3.934,3.934,0,0,0-2.589,1.989,10.127,10.127,0,0,0-1.366,6.466,27.472,27.472,0,0,1,.167,2.781,4.69,4.69,0,0,1-1.853,3.994,23.1,23.1,0,0,0-2.071,1.944,6.727,6.727,0,0,0-1,1.285,4.435,4.435,0,0,0-.578,3.133,19.912,19.912,0,0,0,2.92,1.486,56.981,56.981,0,0,0,10.039,3.193,37.971,37.971,0,0,0,6.443.894.991.991,0,0,0,.767-.246,15.943,15.943,0,0,1,3.385-2.3,2.316,2.316,0,0,0,.285-.2c-2.422-.735-4.819-1.425-7.19-2.194a41.008,41.008,0,0,1-6.955-2.889.28.28,0,0,1,.181.032,89.3,89.3,0,0,0,14.127,4.689,1.347,1.347,0,0,0,.918-.078c.641-.285,1.3-.535,1.947-.8.092-.038.18-.085.383-.181a51.606,51.606,0,0,1-11.026-4.427c.064-.044.083-.065.092-.061.145.058.291.115.432.18a58.215,58.215,0,0,0,10.7,4.015,2.788,2.788,0,0,0,.981.02c.8-.1,1.593-.255,2.391-.362C1175.194,1346.848,1175.7,1346.828,1176.2,1346.787Zm35.349,10.955a16.315,16.315,0,0,1-3.14,1.068,30.743,30.743,0,0,1-8.156.557c-1.172-.046-2.344-.172-3.508-.327-1.684-.224-3.368-.458-5.035-.776a59.538,59.538,0,0,1-7.159-1.864,47.041,47.041,0,0,1-9.616-4.182c-.154-.091-.3-.191-.456-.287a.378.378,0,0,1,.259.054,56.816,56.816,0,0,0,9.179,3.887,62.376,62.376,0,0,0,11.024,2.591c1.457.2,2.92.379,4.387.487a35.9,35.9,0,0,0,5.31.043,22.24,22.24,0,0,0,4.7-.773,8.7,8.7,0,0,0,2.345-1.048c.181-.12.356-.241.315-.5a.473.473,0,0,0-.429-.407,6.058,6.058,0,0,0-1.248-.082c-1.223.1-2.439.268-3.661.361a31.15,31.15,0,0,1-7.09-.259,51.666,51.666,0,0,1-10.43-2.692,49.745,49.745,0,0,1-10.83-5.583,2.008,2.008,0,0,0-1.28-.4c-.875.043-1.751.081-2.626.13a3.112,3.112,0,0,0-.442.087l-.019.109a102.242,102.242,0,0,0,13.378,6.721,61.44,61.44,0,0,1-7.155-2.973,66,66,0,0,1-6.826-3.763c-3.12.672-6.382,3.948-7.309,6.315.2.087.4.188.613.259,2.534.867,5.061,1.754,7.606,2.585,2.828.923,5.674,1.8,8.581,2.439q2.69.594,5.406,1.067a39.852,39.852,0,0,0,4.215.567c1.942.126,3.893.121,5.84.16.684.013,1.37.018,2.052-.023,1.433-.089,2.868-.166,4.293-.331a30.97,30.97,0,0,0,3.356-.594A6.341,6.341,0,0,0,1211.554,1357.741Zm-41.506-51.4-.081.084a4.54,4.54,0,0,1-.481-.462c-1.045-1.343-2.08-2.693-3.117-4.042-.1-.133-.2-.27-.329-.445a8.881,8.881,0,0,0-2.909,5.672,9.236,9.236,0,0,0,.99,5.733c.611-.274,1.142-.546,1.7-.754s1.119-.345,1.727-.528a7.544,7.544,0,0,1-1.584-2.058l2.037,2.039c.683-.15,1.33-.3,1.98-.433a1.426,1.426,0,0,0,.94-.7c.479-.755.968-1.507,1.5-2.229a8.9,8.9,0,0,1,5.292-3.4,4.626,4.626,0,0,1,1.147-.114,7.1,7.1,0,0,1,3.835,1.3c.166.109.332.216.506.329.2-.879.394-1.678.553-2.484a.972.972,0,0,0-.1-.549c-.613-1.319-1.243-2.631-1.864-3.946-.046-.1-.074-.2-.111-.3a20.15,20.15,0,0,1,2.283,4.133,27.524,27.524,0,0,1,4.74-8.159,6.614,6.614,0,0,0-.673-.13,16.273,16.273,0,0,0-4.249.167,17.262,17.262,0,0,0-6.613,2.748,5.038,5.038,0,0,1-2.6.887c-.368.021-.735.054-1.1.086a14.028,14.028,0,0,0-4.942,1.163c-.17.082-.336.171-.572.292l2.087,3.24a15.352,15.352,0,0,1-2.4-3.112l-1.36.9C1167.552,1303.01,1168.8,1304.678,1170.047,1306.344Zm11.646,56.851a1.4,1.4,0,0,0-.229-.064c-1.93-.042-3.859-.118-5.788-.111-1.611.006-3.222.1-4.831.177-1.013.049-2.026.131-3.037.224-1.358.125-2.715.273-4.072.413-1.5.155-3,.256-4.485.48-2.038.309-4.065.7-6.093,1.078-.609.112-1.208.276-1.811.416l-.036-.1a1.621,1.621,0,0,1,.285-.165q.447-.151.9-.275a51.089,51.089,0,0,1,7.747-1.342c2.658-.3,5.322-.554,7.981-.848,2.317-.256,4.645-.357,6.972-.4,2.139-.034,4.28.023,6.42.049,1.6.02,3.194.053,4.79.079.14,0,.28-.008.421-.011,2.982-.065,5.964-.171,8.947-.181a66.509,66.509,0,0,0,7.252-.349,12.819,12.819,0,0,0,3.959-1.02c.178-.082.348-.182.521-.273-.775.045-1.511.2-2.255.266-1.638.149-3.279.277-4.921.368-1.084.061-2.173.052-3.26.054-1.121,0-2.242,0-3.362-.039-.964-.035-1.925-.138-2.889-.193-3-.172-5.994-.329-8.99-.5-4.538-.26-9.074-.553-13.614-.786-4.1-.21-8.207-.371-12.311-.525a16.267,16.267,0,0,0-2.521.115,7.012,7.012,0,0,0-3.595,1.748,2.676,2.676,0,0,0-.96,2.778,4.1,4.1,0,0,0,3.455,3.316,13.514,13.514,0,0,0,3.831.005,97,97,0,0,0,10.388-1.674c3.914-.829,7.835-1.611,11.79-2.226C1179.4,1363.517,1180.506,1363.367,1181.693,1363.2Zm30.65-8.651-.031-.089c-.1.013-.2.02-.292.042a15.65,15.65,0,0,1-3.385.4,29.324,29.324,0,0,1-5.445-.446,47.748,47.748,0,0,1-5.8-1.45,74.773,74.773,0,0,1-13.553-5.945,112.468,112.468,0,0,1-26.552-20.355c-.127-.131-.262-.254-.447-.434a2.164,2.164,0,0,0-.067.339,13.3,13.3,0,0,0,1.072,5.8,12.527,12.527,0,0,0,3.7,4.449,23.077,23.077,0,0,0,7.11,3.695c.714.243,1.435.474,2.126.771a2.871,2.871,0,0,1,.981.676,17.165,17.165,0,0,0,2.291,2.091,72.332,72.332,0,0,0,8.009,5.341,49.735,49.735,0,0,0,13.938,5.392,38.34,38.34,0,0,0,7.547,1.039c1.034.023,2.069-.05,3.1-.065a16.579,16.579,0,0,0,5-.934A7.086,7.086,0,0,0,1212.343,1354.544Zm-10.91-43.044a3.558,3.558,0,0,0,0-.4c-.3-2.613-.579-5.23-.912-7.84q-.513-4.02-1.12-8.026a18.323,18.323,0,0,0-1.1-4.164,5.359,5.359,0,0,0-1.389-2.022,2,2,0,0,0-2.25-.392,2.85,2.85,0,0,0-1.759,2.029,7.8,7.8,0,0,0-.245,1.873,22.928,22.928,0,0,0,.213,2.981,49.3,49.3,0,0,0,3.27,12.142,93.465,93.465,0,0,0,6.973,12.962,2.277,2.277,0,0,0,.26.272c-.078-.3-.127-.463-.166-.633-.412-1.831-.819-3.662-1.235-5.492a11.86,11.86,0,0,0-.449-1.777,80.49,80.49,0,0,1-4.887-18.539,1.354,1.354,0,0,1,.025-.776A85.053,85.053,0,0,0,1201.433,1311.5Zm-15.486-10.332-.1-.023c-.076.169-.157.336-.227.508a18.862,18.862,0,0,0-1.42,7.652,27.238,27.238,0,0,0,2.282,10.527,38.551,38.551,0,0,0,11.612,14.941c1.379,1.084,2.818,2.093,4.231,3.133.119.088.253.157.381.234a1.414,1.414,0,0,0-.319-.542,33.968,33.968,0,0,1-3.987-5.808c-.758-1.424-1.49-2.865-2.162-4.332a43.192,43.192,0,0,0-4.328-7.454c-.671-.923-1.337-1.851-1.964-2.8a23.643,23.643,0,0,1-4.022-15.486C1185.939,1301.534,1185.939,1301.351,1185.947,1301.168Zm-14.605,10.16a135.906,135.906,0,0,1,17.27,14.253c-.22-.473-.483-.906-.736-1.344a30.665,30.665,0,0,1-3.384-7.742,4.251,4.251,0,0,0-1.046-1.9,80.821,80.821,0,0,0-6.137-5.843c-.186-.163-.365-.336-.548-.5l.084-.086a63.522,63.522,0,0,1,7.105,6.388,31.865,31.865,0,0,1-.5-6.937,8.1,8.1,0,0,0-2.81-1.755,4.544,4.544,0,0,0-2.529-.294,8.805,8.805,0,0,0-3.225,1.368A13.828,13.828,0,0,0,1171.342,1311.328Zm-11.4,48.13c.122.01.243.025.365.031q6.625.34,13.251.677c1.122.057,2.244.1,3.366.159q4.811.259,9.623.527c.19.01.38.005.571.008a137.582,137.582,0,0,1-21.29-6.364,10.868,10.868,0,0,1-2.364,3.13A10.568,10.568,0,0,1,1159.941,1359.458Zm-16.675-13.146c.032-.114.053-.148.049-.18a5.4,5.4,0,0,1,1.071-4.1,14.383,14.383,0,0,1,1.227-1.37c.585-.579,1.2-1.127,1.815-1.677a3.368,3.368,0,0,0,1.181-2.111,12.463,12.463,0,0,0,.1-1.936c-.033-1.032-.178-2.063-.189-3.1a21.09,21.09,0,0,1,.17-2.615,12.934,12.934,0,0,1,.351-1.515,1,1,0,0,0-.323.344c-.508.94-1.042,1.868-1.5,2.832-.359.758-.626,1.561-.924,2.347a4.771,4.771,0,0,1-2.076,2.5c-.436.259-.856.549-1.267.847a3.428,3.428,0,0,0-1.214,1.615,7.209,7.209,0,0,0,.025,5.488,25.458,25.458,0,0,0,1.27,2.357A2.088,2.088,0,0,0,1143.267,1346.313Zm20.009,5.754a50.249,50.249,0,0,1-19.345-5.531,2.35,2.35,0,0,0,.616,1.5,15.526,15.526,0,0,0,8.113,4.906,62.239,62.239,0,0,0,8.64,1.243c.643-.655,1.282-1.3,1.917-1.957C1163.249,1352.2,1163.251,1352.139,1163.276,1352.067Zm-8.758,6.531.031.089c.784-.068,1.566-.139,2.349-.2a19.835,19.835,0,0,0,3.542-.461,6.528,6.528,0,0,0,3.906-2.672c.264-.393.552-.773.783-1.185a16.163,16.163,0,0,1,3.5-4.441,1.754,1.754,0,0,0,.175-.24c-.224.08-.353.115-.472.17a15.639,15.639,0,0,0-4.234,2.9,23.306,23.306,0,0,0-3,3.308,4.3,4.3,0,0,1-2.77,1.755c-1.082.226-2.148.518-3.22.786C1154.906,1358.458,1154.713,1358.534,1154.517,1358.6Z" transform="translate(-1140.443 -1287.713)" fill="#606060"/>
        <path id="Path_154295" data-name="Path 154295" d="M1206.318,1355.08a4.953,4.953,0,0,1-.7-.221c-1.215-.585-2.434-1.16-3.629-1.783a75.2,75.2,0,0,1-8-4.727c-.677-.467-1.321-.983-1.975-1.482-.136-.1-.253-.229-.383-.348a.429.429,0,0,1,.07-.054c.015-.005.039-.01.049,0a92.639,92.639,0,0,0,14.626,8.494Z" transform="translate(-1146.771 -1294.976)" fill="#606060"/>
      </g>
      <g id="Group_111" data-name="Group 111" transform="translate(1239.548 1186.699)">
        <path id="Path_154296" data-name="Path 154296" d="M1263.665,1236.779c-.118-.271-.188-.447-.269-.619q-3.158-6.631-6.315-13.26a49.1,49.1,0,0,1-2.939-7.319,13.183,13.183,0,0,1-.59-4.572,8.237,8.237,0,0,1,1.78-4.754,6.757,6.757,0,0,1,.878-.905,3.987,3.987,0,0,1,5.1-.372,9.146,9.146,0,0,1,2.292,2c.242.276.481.555.756.871l.63-.331c0-.3.011-.564,0-.825a12.531,12.531,0,0,1,1.615-6.878,7.087,7.087,0,0,1,7.36-3.516c.589.1,1.18.169,1.768.269a2.639,2.639,0,0,0,1.811-.387c.791-.455,1.578-.922,2.4-1.316a9.087,9.087,0,0,1,5.441-.74,5.214,5.214,0,0,1,2.237,1.007l.5.361c.181-.133.35-.252.513-.378a22.546,22.546,0,0,1,9-4.172,17.258,17.258,0,0,1,4.928-.239,12.375,12.375,0,0,1,3.464.6,12.146,12.146,0,0,1,2.285,1.054,6.34,6.34,0,0,1,3.106,4.258c.223-.044.423-.075.618-.125,2.573-.656,7.021.217,9.209,3.412a10.252,10.252,0,0,1,1.6,4.251c.113.708.177,1.423.271,2.193.16-.067.3-.116.437-.183a8.89,8.89,0,0,1,6.093-.735,7.366,7.366,0,0,1,1.56.61,3.615,3.615,0,0,0,1.032.355,11.38,11.38,0,0,1,1.9.408,4.754,4.754,0,0,1,3.376,4.541,15.039,15.039,0,0,1-1.013,5.771,27.929,27.929,0,0,1-2.043,4.269c-2.006,3.483-3.982,6.983-6.305,10.272a35.385,35.385,0,0,0-3.318,6.213c-1.193,2.7-2.37,5.4-3.593,8.08a31.652,31.652,0,0,1-3.175,5.512,15.631,15.631,0,0,1-10.95,6.4,13.282,13.282,0,0,1-3.361.018,7.694,7.694,0,0,0-8.075,4.884,12.087,12.087,0,0,0-.737,3.96c-.146,2.681-.319,5.361-.484,8.041-.265,4.308-.641,8.612-.667,12.933a64.638,64.638,0,0,0,.576,8.187c.474,3.9.978,7.8,1.372,11.708.38,3.773.464,7.566.567,11.356.209,7.778-.073,15.55-.157,23.325q-.105,9.926-.029,19.852c.031,3.93.232,7.858.583,11.777q.568,6.344,1.1,12.691c.309,3.672.621,7.343.9,11.018.283,3.78.487,7.566.8,11.343.187,2.29.5,4.568.765,6.851.183,1.585.379,3.17.566,4.755a3.368,3.368,0,0,1,.021.472.381.381,0,0,1-.318.422c-.258.042-.388-.122-.454-.342a2.27,2.27,0,0,1-.065-.362c-.339-2.7-.7-5.392-1.007-8.094-.2-1.777-.323-3.564-.459-5.348-.173-2.257-.325-4.516-.484-6.773-.123-1.751-.232-3.5-.365-5.252-.15-1.959-.317-3.917-.48-5.876q-.229-2.754-.465-5.507c-.195-2.255-.414-4.508-.589-6.765-.245-3.131-.519-6.262-.672-9.4-.462-9.457-.22-18.918-.124-28.378.051-5.089.153-10.179.169-15.269.01-3-.072-6-.171-9-.121-3.667-.359-7.327-.8-10.97-.369-3.048-.781-6.091-1.142-9.14a56.578,56.578,0,0,1-.4-9.826q.284-5.045.587-10.091c.13-2.155.332-4.306.4-6.462.048-1.54-.044-3.087-.134-4.627a5.182,5.182,0,0,0-1.027-2.671,3.553,3.553,0,0,0-.614-.646,1.815,1.815,0,0,0-1.7-.417,24.57,24.57,0,0,1-7.688.541,33.06,33.06,0,0,1-7.336-1.614,29.816,29.816,0,0,1-12.961-8.614,16.206,16.206,0,0,1-3.972-8.012,8.542,8.542,0,0,1-.078-3.088,3.381,3.381,0,0,1,3.292-2.861,9.274,9.274,0,0,1,1.152.076C1263.136,1236.683,1263.34,1236.727,1263.665,1236.779Zm30.156,19.094a4.261,4.261,0,0,1-.435.513,13.089,13.089,0,0,1-2.857,1.864,19.4,19.4,0,0,1-5.582,1.8c1.071-.027,2.136-.1,3.2-.167a14.019,14.019,0,0,0,4.469-1.109,2.877,2.877,0,0,0,1.266-1,1.617,1.617,0,0,0,.176-1.892h-.246l.14-.261a5.24,5.24,0,0,0-3.543-2.943,15.283,15.283,0,0,1-4.269,2.733,21.714,21.714,0,0,0,4-2.875,4.318,4.318,0,0,0-2.287-.36,13.363,13.363,0,0,0-2.764.6,1.688,1.688,0,0,0-.894.663,12.583,12.583,0,0,1-6.563,4.937,2.234,2.234,0,0,0-.272.124,20.3,20.3,0,0,0,9.535-1.211,11.606,11.606,0,0,1-2.91,1.034,25.821,25.821,0,0,1-3.1.531c-1,.1-2.019.058-3.03.079a14.848,14.848,0,0,0,4.069.806,18.435,18.435,0,0,0,4.5-.247A18.13,18.13,0,0,0,1293.822,1255.873Zm4.185-64.158c-.08.191-.16.364-.225.542a79.349,79.349,0,0,0-2.638,9.068,127.08,127.08,0,0,0-2.438,14.215c-.217,1.913-.43,3.828-.606,5.745-.136,1.483-.246,2.969-.31,4.457-.1,2.279-.2,4.559-.2,6.838-.005,2.227.082,4.455.177,6.68.071,1.645.172,3.293.35,4.929.18,1.651.436,3.3.721,4.933a24.193,24.193,0,0,0,2.272,7.075,1.52,1.52,0,0,0,2.09.828c.088-.3.192-.629.284-.964a40.55,40.55,0,0,0,1.136-8.942c.109-2.418.095-4.842.137-7.263,0-.118.017-.234.026-.351.072.808.052,1.615.075,2.42a78.492,78.492,0,0,1-.222,9.093,30.029,30.029,0,0,1-.942,5.526,2.111,2.111,0,0,0-.038.39,1.06,1.06,0,0,0,1.075-.668c.17-.365.381-.711.549-1.076a31.117,31.117,0,0,0,2.1-7.031,66.261,66.261,0,0,0,.833-7.092c.147-1.64.254-3.284.431-4.921.185-1.7.387-3.41.663-5.1.541-3.318,1.28-6.594,2.135-9.847,1.215-4.619,2.629-9.188,3.579-13.875.379-1.869.766-3.735,1.109-5.61.2-1.083.312-2.18.469-3.271a4.761,4.761,0,0,0-.993-3.853,7.937,7.937,0,0,0-4.422-2.676,1.145,1.145,0,0,0-.294.014,129.06,129.06,0,0,0-3.362,14.14,90.124,90.124,0,0,1,3.061-14.207,6.29,6.29,0,0,0-2.485-.274c-.477,2.029-.96,4.088-1.445,6.148a4.53,4.53,0,0,1,.064-.882c.343-1.66.7-3.316,1.047-4.974a2.167,2.167,0,0,0,0-.39A15.274,15.274,0,0,0,1298.006,1191.715ZM1258,1212.961l.1-.032a.762.762,0,0,1,.08.121c.174.421.358.837.518,1.264,2.185,5.847,4.637,11.582,7.278,17.235a61.29,61.29,0,0,0,5.429,9.609,12.367,12.367,0,0,0,1.393,1.639c.635.628,1.336,1.19,2.01,1.78a23.335,23.335,0,0,0,3.721,2.661c.161.093.33.173.495.258l.068-.081c-.123-.134-.242-.271-.368-.4a46.934,46.934,0,0,1-6.817-9,88.881,88.881,0,0,1-6.55-14.5c-.237-.652-.434-1.317-.671-2.043.1.063.144.074.153.1.081.194.162.387.233.584a115.453,115.453,0,0,0,5,11.746,49.884,49.884,0,0,0,9.565,13.516,4.042,4.042,0,0,0,2.172,1.181c.275.051.548.121.825.169a3.419,3.419,0,0,0,.476,0,64.071,64.071,0,0,1-11.328-17.921c.049-.013.068-.006.074.007.177.342.357.683.529,1.028a85.051,85.051,0,0,0,5.9,10.251,59.335,59.335,0,0,0,5.111,6.421,1.246,1.246,0,0,0,.678.46c.807.166,1.606.368,2.409.551.106.025.218.026.392.046-.084-.155-.125-.25-.183-.334a54.39,54.39,0,0,1-4.31-7.948c-.351-.764-.742-1.51-1.139-2.251-1.218-2.271-2.49-4.517-3.664-6.81-1.879-3.67-3.423-7.49-4.954-11.316-1.087-2.714-2.2-5.417-3.085-8.208-.067-.211-.113-.428-.169-.641a3,3,0,0,1,.347.715q1.759,4.417,3.523,8.832a124.287,124.287,0,0,0,7.168,15.214c.107.188.22.373.33.56a.921.921,0,0,0-.045-.48c-.461-1.62-.972-3.227-1.371-4.861a32.216,32.216,0,0,1-1.038-6.592,3.162,3.162,0,0,0-.233-.909c-.833-2.361-1.677-4.718-2.512-7.078a3.85,3.85,0,0,1-.1-.44,16.408,16.408,0,0,1,.954,2.124c.54,1.443,1.06,2.895,1.592,4.341.061.166.147.322.266.583a2.855,2.855,0,0,0,.059-.284,25.549,25.549,0,0,1,.515-4.016,1.82,1.82,0,0,0-.047-.875c-.358-1.156-.724-2.311-1.141-3.447a17.162,17.162,0,0,0-2.9-5.222,7.106,7.106,0,0,0-3.33-2.3,9.579,9.579,0,0,0-5.945.232,1.559,1.559,0,0,0-.286.173c.957,2.983,2.208,5.824,3.442,8.675a47.277,47.277,0,0,1-3.738-8.535l-.933.14c.041.124.068.223.107.318,1.115,2.725,2.2,5.463,3.359,8.167.8,1.867,1.721,3.683,2.583,5.525.084.18.137.374.2.563l-.109.046c-.08-.146-.162-.292-.241-.44a116.046,116.046,0,0,1-6.208-14.03,5.151,5.151,0,0,0-1.464-2.138c-.342-.3-.7-.586-1.064-.858a3.9,3.9,0,0,0-1.691-.693,5.58,5.58,0,0,0-.629-.036l2.475,7.3-.117.042c-1.039-2.379-1.759-4.881-2.723-7.305a2.665,2.665,0,0,0-1.243.514,6.323,6.323,0,0,0-2.372,3.2,9.511,9.511,0,0,0-.155,5.5,28.43,28.43,0,0,0,2.018,5.7c2.634,5.625,5.308,11.232,7.963,16.848a1.147,1.147,0,0,0,.538.548,13.3,13.3,0,0,1,1.327.754c1.279.866,2.541,1.755,3.81,2.634.142.1.285.194.428.29a1.357,1.357,0,0,0-.244-.573,52.287,52.287,0,0,1-3.257-5.589,185.433,185.433,0,0,1-8.517-19.9C1258.468,1214.34,1258.236,1213.649,1258,1212.961Zm61.562-1.471c.169-.961.361-1.918.5-2.883.25-1.712.475-3.428.7-5.144.073-.573.074-1.156.165-1.725a1.654,1.654,0,0,0-.294-1.287,7.077,7.077,0,0,0-2.436-2.209,9.092,9.092,0,0,0-7.269-.651c-.035.478-.038.971-.111,1.453-.267,1.763-.515,3.532-.849,5.283-.848,4.437-1.94,8.817-3.162,13.166a110.629,110.629,0,0,0-3.257,14.379c-.315,2.218-.571,4.446-.8,6.674-.181,1.725-.295,3.456-.423,5.187a39.635,39.635,0,0,1-.857,5.761,25.436,25.436,0,0,1-2.325,6.787,1.128,1.128,0,0,0-.063.252,1.982,1.982,0,0,0,1.641-1.067,3.736,3.736,0,0,1,.279-.446,31.094,31.094,0,0,0,3.87-8.192,1.852,1.852,0,0,1,.125-.273l.1.034c-.28.9-.534,1.806-.844,2.694a30.673,30.673,0,0,1-3.029,6c-.095.151-.181.308-.322.546a2.18,2.18,0,0,0,1.29-.77,28.492,28.492,0,0,0,3.415-5.3,53.906,53.906,0,0,0,3.893-10.643c.79-2.98,1.418-5.993,1.916-9.035.367-2.244.753-4.486,1.127-6.729.33-1.984.633-3.972.989-5.951.538-3,1.329-5.934,2.092-8.878.047-.184.12-.361.181-.541-.42,2.116-.959,4.2-1.365,6.3-.611,3.175-1.139,6.367-1.682,9.555-.472,2.777-.9,5.561-1.379,8.337a78.162,78.162,0,0,1-2.656,10.856,38.305,38.305,0,0,1-5.646,11.518,1.517,1.517,0,0,0-.116.289c.2-.1.31-.141.412-.2a14.3,14.3,0,0,0,6-6.52,46.124,46.124,0,0,0,2-5.2,117.226,117.226,0,0,1,5.2-14.06,64.392,64.392,0,0,0,3.093-8.558,54.229,54.229,0,0,0,2.547-12.555,14.965,14.965,0,0,0-.641-5.353c-.056-.173-.137-.337-.206-.506-.294,1.627-.494,3.235-.724,4.838A25.771,25.771,0,0,1,1319.558,1211.49Zm-27.655,40.662.093-.063c-.053-.16-.108-.32-.16-.48-.3-.9-.619-1.789-.884-2.695a56.486,56.486,0,0,1-1.7-7.953c-.255-1.8-.512-3.6-.7-5.414-.166-1.549-.267-3.108-.35-4.664-.124-2.312-.264-4.624-.289-6.937-.031-2.789.031-5.579.091-8.369.038-1.769.143-3.539.225-5.307.025-.543.067-1.085.115-1.626q.188-2.093.39-4.184c.109-1.115.205-2.231.351-3.341.215-1.647.469-3.288.7-4.932.041-.287.074-.576.114-.891-.11.023-.17.019-.208.046-.3.215-.6.43-.888.659a12.2,12.2,0,0,0-4.154,5.58,15.018,15.018,0,0,0-.771,4.6c-.054,2-.044,4-.064,6a18.482,18.482,0,0,0-.023,1.892c.13,1.41.31,2.817.491,4.222a57.159,57.159,0,0,0,1.3,7.009c.028.105.035.216.052.324l-.129.027a30.318,30.318,0,0,1-1.3-5.838c-.3-1.995-.547-4-.829-6.084-.4.358-.765.652-1.089.989a10.537,10.537,0,0,0-2.59,4.921,20.223,20.223,0,0,0-.585,6.469,37.45,37.45,0,0,0,.552,3.9,53.236,53.236,0,0,0,5.973,15.948c.74,1.333,1.612,2.591,2.415,3.89a1.584,1.584,0,0,0,.675.557c.962.506,1.91,1.036,2.862,1.558C1291.7,1252.03,1291.8,1252.093,1291.9,1252.152Zm-7.744-57.349a8.943,8.943,0,0,0-3.83.778c-.714.375-1.441.736-2.117,1.172a4.1,4.1,0,0,1-3.125.557c-.688-.131-1.386-.219-2.084-.284a2.929,2.929,0,0,0-1.457.177,3.886,3.886,0,0,0,.034.542c.286,1.369.581,2.735.869,4.1a3.917,3.917,0,0,1,.043.4,21.371,21.371,0,0,1-1.3-5,4.165,4.165,0,0,0-1.6.646,61.651,61.651,0,0,0,1.648,7.056,3.16,3.16,0,0,1-.474-.917c-.45-1.67-.878-3.349-1.309-5.024-.072-.277-.125-.559-.2-.878-.151.09-.246.135-.328.2a5.805,5.805,0,0,0-1.614,1.852,12.139,12.139,0,0,0-1.537,6.419c.006.171.038.342.06.543.206-.024.376-.039.545-.063.573-.084,1.142-.2,1.717-.253a7.873,7.873,0,0,1,7.078,2.7,13.994,13.994,0,0,1,2.459,3.9c.527,1.28.974,2.593,1.457,3.891.063.169.129.338.232.61.251-.528.42-.951.646-1.339a1.789,1.789,0,0,0,.211-1.217c-.226-1.469-.468-2.934-.7-4.4-.035-.224-.056-.449-.083-.673l.1-.012a45.881,45.881,0,0,1,1.027,5.279l.875-1.113c-.169-3.9-.833-7.73-1.33-11.586a70.822,70.822,0,0,1,1.635,11.214,9.631,9.631,0,0,1,.763-.642,1.22,1.22,0,0,0,.549-1.123c-.012-.649-.009-1.3,0-1.948a57.428,57.428,0,0,1,.212-6.152,12.552,12.552,0,0,1,3.826-7.771c.124-.119.24-.245.392-.4a4.8,4.8,0,0,0-2.924-1.226c-.076.784.254,1.479.151,2.186l-.136.012Zm9.339,58.638c-.055-.245-.083-.376-.115-.506-.216-.866-.453-1.727-.65-2.6a61.042,61.042,0,0,1-1.235-9.31c-.146-2.134-.2-4.276-.225-6.415-.022-2,.023-4,.092-6q.1-2.916.315-5.828c.139-1.921.323-3.839.527-5.754.188-1.774.377-3.552.663-5.312q.652-4.013,1.447-8a71.954,71.954,0,0,1,3.268-11.553,3.579,3.579,0,0,0,.095-.424,23.2,23.2,0,0,0-7.471,3.221c-.182,1.27-.382,2.512-.535,3.76-.2,1.667-.383,3.337-.549,5.008-.183,1.847-.369,3.694-.5,5.546-.141,2.011-.238,4.026-.316,6.041-.063,1.648-.106,3.3-.091,4.948q.034,3.71.168,7.418c.066,1.8.18,3.607.323,5.406.137,1.71.29,3.421.526,5.12.305,2.2.653,4.4,1.066,6.581a39.99,39.99,0,0,0,2.1,7.312A2.886,2.886,0,0,0,1293.5,1253.442Zm9.752,3.561a4.092,4.092,0,0,0,2.781-.2,21.16,21.16,0,0,0,5.329-4.409,36.4,36.4,0,0,0,4.987-7.4,75.361,75.361,0,0,0,6.5-18.706c.513-2.3.929-4.63,1.346-6.954.234-1.307.386-2.631.563-3.948.127-.954.238-1.91.347-2.867.1-.869.194-1.739.278-2.61.105-1.08.2-2.16.293-3.241a3.8,3.8,0,0,0-.018-.411,7.076,7.076,0,0,0-2.584,1.159c-.015.2-.021.354-.04.51-.182,1.532-.262,3.086-.569,4.592a80.287,80.287,0,0,1-4.966,16.28,107.819,107.819,0,0,0-4.969,13.248,49.1,49.1,0,0,1-2.036,5.641,15.686,15.686,0,0,1-3.563,5.29,17.981,17.981,0,0,1-3.78,2.748,2.151,2.151,0,0,0-.478.319c-.251.249-.22.476.117.782.567-.368,1.169-.724,1.734-1.131a26.27,26.27,0,0,0,7.779-9.005,71.8,71.8,0,0,0,5.507-13.331c.071-.235.157-.464.237-.7a.171.171,0,0,1,.056.173c-.021.1-.044.205-.07.307a63.042,63.042,0,0,1-5.258,13.308,26.1,26.1,0,0,1-9.332,10.353A1.723,1.723,0,0,0,1303.25,1257Zm27.581-50.048c.027-.029-.027,0-.039.047-.058.2-.109.406-.153.611-.482,2.275-.871,4.576-1.461,6.823-1.1,4.182-2.293,8.339-3.486,12.494-1.135,3.958-2.333,7.9-3.807,11.743a43.309,43.309,0,0,1-5.066,9.785,23.888,23.888,0,0,1-5.329,5.638,30.139,30.139,0,0,1-4.581,2.682c-.155.074-.3.164-.452.247l.047.106c.448-.071.9-.127,1.344-.214a14.769,14.769,0,0,0,9.508-5.909,23.761,23.761,0,0,0,2.35-3.864q1.982-4.245,3.872-8.532a43.662,43.662,0,0,1,4.065-7.719,122.326,122.326,0,0,0,6.514-10.7,20.815,20.815,0,0,0,2.02-4.791,12.522,12.522,0,0,0,.481-4.53,3.549,3.549,0,0,0-1.565-2.625,69.26,69.26,0,0,1-2.608,7.935,11.077,11.077,0,0,1,.336-1.366q.937-3.145,1.875-6.287a4.344,4.344,0,0,0,.09-.5,5.13,5.13,0,0,0-2.105-.752C1332.082,1207.176,1331.485,1207.068,1330.831,1206.954Zm-4.958-.768c0,.486.03.908-.005,1.324q-.176,2.119-.39,4.235c-.138,1.357-.257,2.719-.452,4.069-.309,2.13-.653,4.254-1.02,6.373a94.062,94.062,0,0,1-2.539,10.776,64.813,64.813,0,0,1-5.39,13.214,31.532,31.532,0,0,1-7.03,8.928.657.657,0,0,0-.092.135,2.067,2.067,0,0,0,.552-.244,22.5,22.5,0,0,0,6.95-6.642,42.657,42.657,0,0,0,4.734-8.9c1.413-3.515,2.539-7.128,3.615-10.756a205.362,205.362,0,0,0,5.376-20.3c.109-.581.247-1.156.383-1.787A7.792,7.792,0,0,0,1325.874,1206.186Zm-59.623,34.543a16.711,16.711,0,0,0-.133,8.418,12.019,12.019,0,0,1-.5-1.979,15.636,15.636,0,0,1,.442-6.748c-.5-.476-.967-.954-1.473-1.382a7.372,7.372,0,0,0-2.542-1.452,1.656,1.656,0,0,0-1.133,0,2.319,2.319,0,0,0-1.566,1.709,6.839,6.839,0,0,0-.148,1.72,13.908,13.908,0,0,0,1.868,6.082,21.109,21.109,0,0,0,4.892,5.666,1.565,1.565,0,0,0,.241.125,21.312,21.312,0,0,1-4.451-13.785,5.148,5.148,0,0,1,.1.914,22.013,22.013,0,0,0,.5,3.954,22.514,22.514,0,0,0,3.011,7.19,12.427,12.427,0,0,0,4.332,4.364c.124.07.256.127.439.216-2.059-3.555-1.992-7.257-1.216-11.036A30.541,30.541,0,0,0,1266.25,1240.729Zm22.244,10.572.01-.1c-.173-.078-.343-.162-.518-.233a18.7,18.7,0,0,0-4.556-1.239,13.45,13.45,0,0,1-4.235-1.194,24.387,24.387,0,0,1-4.925-3.3c-1.391-1.18-2.738-2.417-4.182-3.528-1.429-1.1-2.951-2.083-4.444-3.1a5.169,5.169,0,0,0-1.544-.729.322.322,0,0,0,.126.163,13.041,13.041,0,0,1,4,4.121c.68,1.043,1.328,2.108,1.981,3.168a14.512,14.512,0,0,0,5.14,5.029,11.132,11.132,0,0,0,7.085,1.693,15.761,15.761,0,0,0,2.054-.442,9.707,9.707,0,0,1,3.386-.315C1288.078,1251.317,1288.286,1251.3,1288.494,1251.3Zm-12.167,7.035a12.247,12.247,0,0,0,7.836-5.194,5.57,5.57,0,0,0-1.031.118,7.7,7.7,0,0,1-2.717.083,15.485,15.485,0,0,1-4.257-1.468c-.168-.084-.339-.165-.557-.27a21.79,21.79,0,0,1-2.031,5.94l.531.2.851-.932.056.05-.637.979c1.347.76,2.392.118,3.426-.625A3.326,3.326,0,0,1,1276.327,1258.337Zm-5.071-5.451c.059.393.111.789.177,1.181a6.538,6.538,0,0,0,1,2.684,1.279,1.279,0,0,0,.861.632,21.262,21.262,0,0,0,2.1-5.93,22.127,22.127,0,0,1-4.646-3.87,16.618,16.618,0,0,0-.347,2.353,17.647,17.647,0,0,0,.2,4.032,5.686,5.686,0,0,0,.889,2.282,1.147,1.147,0,0,0,.672.562A7.309,7.309,0,0,1,1271.255,1252.886Zm-.364,3.186a15.653,15.653,0,0,1-.334-8.821c-.25-.358-.485-.706-.732-1.046a7.16,7.16,0,0,0-.753-1.1,17.305,17.305,0,0,0-.044,7.127,8.171,8.171,0,0,0,1.249,3.1C1270.461,1255.593,1270.686,1255.826,1270.891,1256.071Z" transform="translate(-1253.53 -1190.637)" fill="#606060"/>
        <path id="Path_154297" data-name="Path 154297" d="M1302.638,1253.846a1.642,1.642,0,0,1-.06-.286c-.042-1.068-.091-2.136-.116-3.206-.041-1.824-.107-3.647-.087-5.471.022-1.945.112-3.89.209-5.833.074-1.469.176-2.937.317-4.4.172-1.775.4-3.544.6-5.316a56.222,56.222,0,0,1,1.069-6.248c.172-.748.36-1.493.545-2.239a.473.473,0,0,1,.22-.31c-.035.188-.063.376-.106.562a61.608,61.608,0,0,0-1.22,6.432c-.219,1.769-.45,3.538-.622,5.313-.18,1.863-.3,3.733-.434,5.6q-.329,4.619-.289,9.25c.018,1.842.065,3.683.1,5.525,0,.208,0,.417,0,.626Z" transform="translate(-1259.568 -1194.334)" fill="#606060"/>
        <path id="Path_154298" data-name="Path 154298" d="M1286.806,1224.353a73.4,73.4,0,0,0,3.575,14.9c-.365-.047-.371-.242-.417-.393-.627-2.037-1.307-4.061-1.855-6.12-.463-1.736-.8-3.506-1.137-5.273-.179-.941-.234-1.906-.34-2.86a.937.937,0,0,1,.034-.236Z" transform="translate(-1257.622 -1194.806)" fill="#606060"/>
      </g>
      <g id="Group_112" data-name="Group 112" transform="translate(1163.866 1158.784)">
        <path id="Path_154299" data-name="Path 154299" d="M1168.752,1198.5c-.218-.313-.433-.611-.638-.916a5.491,5.491,0,0,1-.932-2.811,8.41,8.41,0,0,1,1.135-4.588,4.254,4.254,0,0,1,2.077-1.793c.156-.071.315-.136.527-.227-.108-.2-.194-.365-.285-.527a10.207,10.207,0,0,1-1.216-3.069,5.519,5.519,0,0,1,1.5-5.093,7.748,7.748,0,0,1,5.373-2.455,13.482,13.482,0,0,1,3.968.38c.234.058.472.1.772.161.014-.271.036-.492.037-.713a15.034,15.034,0,0,1,.884-5.162,11.715,11.715,0,0,1,4.283-5.6,8.81,8.81,0,0,1,4.865-1.661,6.84,6.84,0,0,1,5.042,1.754c.634.577,1.2,1.225,1.805,1.84a1.54,1.54,0,0,0,.522.393c-.038-.214-.075-.429-.113-.643a3.691,3.691,0,0,1,1.09-3.365,3.337,3.337,0,0,1,2-.858,10.16,10.16,0,0,1,3.457.082c.154.029.31.043.533.073a3.805,3.805,0,0,0,.1-.6,3.3,3.3,0,0,1,1.693-2.959,7.133,7.133,0,0,1,2.859-1.273,6.87,6.87,0,0,1,3.865.467c.127.06.26.107.385.172a3.793,3.793,0,0,0,2.7.319,6.865,6.865,0,0,1,3.885.321,4.33,4.33,0,0,1,2.538,2.165c.046.092.105.178.176.3.143-.032.277-.054.406-.091a5.563,5.563,0,0,1,4.193.383,10.69,10.69,0,0,1,2.813,2.017,61.382,61.382,0,0,0,4.824,4.318c.136.11.264.232.4.343a7.288,7.288,0,0,1,2.653,4.705c.243,1.542.435,3.092.639,4.64.626,4.731,1.258,9.461,1.864,14.194.372,2.906.812,5.809,1.015,8.729a56.2,56.2,0,0,1,.023,7.471,17.636,17.636,0,0,1-2.518,7.8,28.982,28.982,0,0,1-4.086,5.475,29.29,29.29,0,0,1-2.346,2.109,8.9,8.9,0,0,0-2,2.353,4.019,4.019,0,0,0-.2,3.655,12.9,12.9,0,0,0,2.392,3.7c1.638,1.855,3.334,3.66,4.971,5.516a268.715,268.715,0,0,1,24.52,32.641,283.012,283.012,0,0,1,21.381,39.74,209.765,209.765,0,0,1,10.328,28.871,135.115,135.115,0,0,1,3.2,14.754c.287,1.855.466,3.727.767,5.579a64.005,64.005,0,0,1,.52,7.558c.151,3.489.272,6.979.442,10.468a33.715,33.715,0,0,0,.877,5.451c1.014,4.717,2.039,9.431,3.032,14.153a76.369,76.369,0,0,1,1.507,19.107q-.134,3.1-.28,6.206a4.895,4.895,0,0,1-.1.623c-.471.106-.623.043-.68-.3a3.8,3.8,0,0,1-.015-.734c.1-3.315.23-6.63.294-9.947a59.818,59.818,0,0,0-1.116-12.406c-.7-3.687-1.527-7.351-2.293-11.026-.563-2.7-1.169-5.384-1.663-8.094a32.8,32.8,0,0,1-.481-4.442c-.188-4.366-.286-8.736-.469-13.1-.057-1.364-.245-2.725-.426-4.079-.268-2.016-.615-4.022-.871-6.04a80.068,80.068,0,0,0-1.682-8.459,195.368,195.368,0,0,0-10.331-30.863,284.016,284.016,0,0,0-27.826-50.442,255.307,255.307,0,0,0-22.367-28.2c-.321-.349-.662-.68-.965-1.043a18.209,18.209,0,0,0-3.6-3.065.946.946,0,0,0-.088-.058,10.164,10.164,0,0,0-5.954-1.345,3.831,3.831,0,0,0-2.277,1.1,19.25,19.25,0,0,1-4.25,3.171,11.479,11.479,0,0,1-4.761,1.385,20.318,20.318,0,0,1-11.741-2.636c-2.243-1.309-4.492-2.612-6.682-4.006-4.682-2.977-9.388-5.908-14.259-8.567a58.184,58.184,0,0,1-6.746-4.581c-.789-.587-1.568-1.187-2.33-1.808a12.8,12.8,0,0,1-3.1-3.818,6.389,6.389,0,0,1-.306-5.4,2.77,2.77,0,0,1,.89-1.281.771.771,0,0,0,.264-.974,10.513,10.513,0,0,1-.393-4.474C1168.66,1199.2,1168.713,1198.85,1168.752,1198.5Zm2.884-3.632a6.819,6.819,0,0,0-1.919,3.193,11.783,11.783,0,0,0-.181,4.754,3.08,3.08,0,0,0,.992,1.92c2.308,2.052,4.528,4.207,6.906,6.176,4.365,3.614,8.815,7.128,13.237,10.674a78.207,78.207,0,0,0,10.488,7.206,43.079,43.079,0,0,0,11.182,4.64,14.773,14.773,0,0,0,4.937.5,6.72,6.72,0,0,0,5.173-3.5,2.667,2.667,0,0,0-.321.04,16.563,16.563,0,0,1-5.436.332,20.735,20.735,0,0,1-5.559-1.3,47.811,47.811,0,0,1-9.568-5.042,99.162,99.162,0,0,1-9.877-7.525c-3.158-2.706-6.339-5.39-9.417-8.185-2.286-2.075-4.422-4.313-6.624-6.48-.028-.027-.032-.079-.046-.118a15.084,15.084,0,0,1,1.528,1.286c2.842,2.717,5.63,5.49,8.655,8.01,3.411,2.843,6.775,5.743,10.232,8.527a65.416,65.416,0,0,0,11,7.279,25.969,25.969,0,0,0,10.147,3.217,15.58,15.58,0,0,0,5.209-.458,1.87,1.87,0,0,0,1.386-1.748c-.024-.026-.042-.061-.07-.074a3.091,3.091,0,0,0-.288-.125,47.447,47.447,0,0,1-9.228-4.67,104.9,104.9,0,0,1-10.061-7.544c-2.4-1.974-4.734-4.023-7.139-5.99a117.026,117.026,0,0,1-8.847-7.792c-.815-.815-1.669-1.591-2.506-2.384a.591.591,0,0,1,.311.145c.713.625,1.429,1.245,2.13,1.882,1.4,1.274,2.753,2.61,4.2,3.83q6.223,5.238,12.512,10.4a103.041,103.041,0,0,0,8.828,6.649,47.641,47.641,0,0,0,9.636,5.021c.188.069.38.126.608.2a1.567,1.567,0,0,0-.549-1.52c-.338-.279-.72-.509-1.035-.811-1.232-1.173-2.467-2.346-3.66-3.56-.959-.976-1.86-2.01-2.782-3.021a37.888,37.888,0,0,0-5.851-5.129,24.528,24.528,0,0,0-6.655-3.226,8.673,8.673,0,0,1-3.029-1.749,46.239,46.239,0,0,1-4.051-3.986q-1.344-1.518-2.7-3.027a37.065,37.065,0,0,0-7.739-6.538,18.973,18.973,0,0,0-4.115-1.985,11.156,11.156,0,0,0-6.582-.248c-.193.051-.379.131-.493.172.738.789,1.449,1.562,2.176,2.321a18.1,18.1,0,0,1,2.148,2.348c-1.652-1.449-3.249-2.953-4.794-4.478a4.294,4.294,0,0,0-2.158,1.3c.067.075.132.157.2.231a83.842,83.842,0,0,0,7.426,6.85c.546.441,1.078.9,1.61,1.357a1.108,1.108,0,0,1,.168.257A67.157,67.157,0,0,1,1171.636,1194.87Zm60,29.583c.073-.038.15-.071.218-.116a11.551,11.551,0,0,0,4.679-5.981,30.252,30.252,0,0,0,1.445-8.465,41.4,41.4,0,0,0-.426-7.867q-.357-2.679-.809-5.346c-.459-2.709-.954-5.411-1.442-8.114-.355-1.963-.727-3.922-1.088-5.885q-.672-3.665-1.337-7.332-.761-4.155-1.532-8.31a2.064,2.064,0,0,0-.3-.975,10.388,10.388,0,0,0-3.57-2.642,4.879,4.879,0,0,0-6.679,4.361,17.739,17.739,0,0,0,.6,4.41c.52,1.89,1.1,3.763,1.634,5.65,1.739,6.15,3.085,12.4,4.519,18.622.746,3.24,1.389,6.5,2.035,9.764.384,1.939.732,3.889,1,5.846.228,1.647.336,3.31.469,4.968a21.367,21.367,0,0,1-.765,7.8c-.042.143-.07.291-.105.437l.112.072a5.8,5.8,0,0,0,.528-.538,10.294,10.294,0,0,0,1.6-3.35,31.387,31.387,0,0,0,1.138-8.145,64.523,64.523,0,0,0-.287-8.513c-.152-1.515-.261-3.037-.457-4.547q-.348-2.705-.816-5.4c-.41-2.342-.812-4.689-1.339-7.006-.829-3.648-1.759-7.273-2.646-10.908-.077-.317-.152-.635-.229-.952a.48.48,0,0,1,.206.287c.37,1.258.755,2.512,1.1,3.775,1.041,3.8,1.906,7.637,2.655,11.5.35,1.8.651,3.615.942,5.428.209,1.3.383,2.6.536,3.9.142,1.2.247,2.4.348,3.607.11,1.327.259,2.655.283,3.983a56.337,56.337,0,0,1-.191,8.095c-.138,1.093-.28,2.188-.485,3.269A17.5,17.5,0,0,1,1231.635,1224.453Zm-48.3-53.85c.167.18.32.347.476.512,2.852,3,5.747,5.964,8.454,9.1,3.76,4.365,7.376,8.837,10.692,13.552,2.625,3.732,5.286,7.438,7.939,11.15A144.546,144.546,0,0,0,1222,1218.476c.091.1.2.186.3.279a3.85,3.85,0,0,0-.426-.876c-2.292-3.781-4.558-7.576-6.6-11.5-2.1-4.052-3.829-8.271-5.515-12.507-1.88-4.721-3.7-9.465-5.574-14.191a34.374,34.374,0,0,0-7.8-12.246,6.948,6.948,0,0,0-4.763-2.264,6.2,6.2,0,0,0-2.329.34,40.583,40.583,0,0,1,3.338,4.287,1.511,1.511,0,0,1-.5-.406c-.96-1.119-1.914-2.243-2.874-3.362-.123-.143-.27-.266-.387-.38a2.65,2.65,0,0,0-1.324.64,78.071,78.071,0,0,1,6.35,8.246,2.433,2.433,0,0,1-.895-.911c-1.732-2.322-3.528-4.593-5.447-6.766-.124-.14-.258-.273-.375-.4A10.176,10.176,0,0,0,1183.337,1170.6Zm34.264-.231c.906,3.655,1.926,7.228,2.532,10.9a2.222,2.222,0,0,1-.247-.6q-1.215-4.806-2.426-9.614c-.035-.14-.1-.272-.164-.454a3.017,3.017,0,0,0-1.189,1.249,9.421,9.421,0,0,0-.619,3.715,22.064,22.064,0,0,0,1.812,7.96c.351.823.7,1.646,1.044,2.474a21.27,21.27,0,0,1,1.69,9.35c-.083,1.542-.259,3.078-.313,4.621a44.863,44.863,0,0,0-.017,5.418,25.724,25.724,0,0,0,2.847,10.272,56.256,56.256,0,0,1,3.543,7.516,7.835,7.835,0,0,0,.571,1.028,2.328,2.328,0,0,0,.147-.439c.08-.977.185-1.955.216-2.935a30.9,30.9,0,0,0-.286-4.771,55.078,55.078,0,0,0-1.125-6.029c-.57-2.379-1.178-4.75-1.766-7.125-.05-.2-.082-.4-.122-.6.478,1.389.853,2.787,1.231,4.185a56.609,56.609,0,0,1,2.283,11.772c.074,1.4.033,2.8,0,4.2-.016.732-.123,1.463-.189,2.2a2.068,2.068,0,0,0,2.562.9c.048-.123.112-.266.162-.413a18.086,18.086,0,0,0,.929-4.943,35.171,35.171,0,0,0-.217-5.936q-.292-2.424-.71-4.831c-.445-2.534-.9-5.067-1.434-7.583-.71-3.355-1.476-6.7-2.258-10.04-.923-3.937-1.86-7.87-2.848-11.79-.535-2.122-1.184-4.214-1.789-6.317a30.541,30.541,0,0,1-.981-4.9Zm-34.43.522a10.5,10.5,0,0,0-.912,2.554,17.25,17.25,0,0,0,.067,7.825,6.87,6.87,0,0,0,.655,1.928,31.1,31.1,0,0,0,2.182,3.283,63.191,63.191,0,0,0,8.451,8.936q6.316,5.572,12.677,11.094a124.528,124.528,0,0,1,12.734,12.628c1.716,1.991,3.614,3.824,5.432,5.726.141.148.312.268.532.455a2.8,2.8,0,0,0,.254-.616,2.379,2.379,0,0,0-.242-1.633,22.961,22.961,0,0,0-1.418-2.145c-.864-1.082-1.8-2.1-2.71-3.154-1.9-2.2-3.875-4.353-5.7-6.622-3.65-4.541-7.079-9.253-10.356-14.07a186.758,186.758,0,0,0-16.033-20.244c-1.777-1.964-3.612-3.876-5.422-5.811A1.572,1.572,0,0,0,1183.171,1170.895Zm40.946,49.789.083-.04c-.086-.2-.16-.412-.26-.607-1.068-2.095-2.149-4.183-3.21-6.281a77.646,77.646,0,0,1-4.393-10.761,56.783,56.783,0,0,1-1.939-8.242c-.389-2.283-.72-4.58-1.225-6.837a85.285,85.285,0,0,0-3.548-11.813,62.11,62.11,0,0,0-3.144-7.393c-.015-.027,0-.068,0-.1a14.758,14.758,0,0,1,1.255,2.191,82.431,82.431,0,0,1,4.54,12.423c.068.25.161.492.243.739-.005-1.051-.112-2.08-.173-3.112-.082-1.382-.162-2.767-.174-4.15a18.65,18.65,0,0,0-1.654-7.761,7.494,7.494,0,0,0-5.226-4.5,9.459,9.459,0,0,0-4.175-.075,2.4,2.4,0,0,0-1.551,1.084,3.166,3.166,0,0,0-.344,2.677,19.594,19.594,0,0,0,2.113,4.968,43.754,43.754,0,0,1,3.178,6.4c1.648,4.173,3.267,8.358,4.922,12.528s3.3,8.313,5.264,12.331c2.722,5.553,5.958,10.814,9.206,16.066A2.646,2.646,0,0,0,1224.117,1220.684Zm-9.8,13.674.014-.113-.706-.152c-.239-.05-.48-.1-.719-.15a38.426,38.426,0,0,1-8.828-3.186,73.31,73.31,0,0,1-13.727-8.954c-3.212-2.588-6.354-5.263-9.614-7.789a113.212,113.212,0,0,1-10.539-9.209.6.6,0,0,0-.141-.095c-.284.334-.551.629-.795.942a3.549,3.549,0,0,0-.589.856,5.425,5.425,0,0,0,.159,4.634,11.538,11.538,0,0,0,3.1,3.81c1.595,1.236,3.212,2.445,4.833,3.647a39.523,39.523,0,0,0,4.577,2.9c4.42,2.422,8.72,5.044,12.954,7.775,2.3,1.485,4.656,2.879,7.027,4.25a20.366,20.366,0,0,0,10.66,2.782,11.768,11.768,0,0,0,6.453-1.95c.126-.082.241-.18.459-.345-.687.13-1.252.223-1.811.345a14.1,14.1,0,0,1-3.549.286,22.847,22.847,0,0,1-3.682-.546,37.427,37.427,0,0,1-9.667-3.3,99.691,99.691,0,0,1-10.239-5.935c-5.557-3.72-10.941-7.683-16.26-11.734-.329-.25-.644-.514-.966-.772a.756.756,0,0,1,.431.169c3.349,2.406,6.709,4.795,10.041,7.224a127.6,127.6,0,0,0,13.445,8.751,59.838,59.838,0,0,0,6.879,3.4,43.429,43.429,0,0,0,8.666,2.291C1212.885,1234.313,1213.607,1234.306,1214.317,1234.358Zm17.3-67.681c.021.227.023.385.052.537q.593,3.119,1.192,6.238c.472,2.476.952,4.95,1.412,7.427.492,2.649.964,5.3,1.447,7.953.4,2.17.832,4.332,1.18,6.509.4,2.523.733,5.057,1.095,7.588a35.471,35.471,0,0,1,.367,5.452c-.017,1.435-.165,2.868-.278,4.3a24.965,24.965,0,0,1-.751,4.342,13.337,13.337,0,0,1-3.078,5.851c-.081.087-.156.18-.234.269a8.1,8.1,0,0,0,1.188-1.043,29.317,29.317,0,0,0,4.175-5.668,16.72,16.72,0,0,0,2.253-7.179,56.967,56.967,0,0,0-.016-7.26c-.182-2.726-.6-5.439-.944-8.153-.417-3.254-.878-6.5-1.3-9.756-.4-3.061-.778-6.126-1.178-9.188a6.948,6.948,0,0,0-2.65-4.857c-.167-.127-.323-.271-.481-.409l-3.255-2.835A1.947,1.947,0,0,0,1231.621,1166.677Zm-62.678,30.691c.085-.056.125-.069.138-.095.061-.126.111-.258.169-.385a7.642,7.642,0,0,1,3.272-3.665,11.311,11.311,0,0,1,6.665-1.293,13.845,13.845,0,0,1,4.243,1.172c.166.072.337.131.506.2a.786.786,0,0,0-.243-.371,7.082,7.082,0,0,1-2.47-5.117.865.865,0,0,0-.273-.527c-.6-.56-1.235-1.092-1.854-1.636-.151-.132-.3-.27-.443-.406l.089-.106a18.161,18.161,0,0,1,2.457,1.894c.093-.592.173-1.106.266-1.692l-5.491-4.5.081-.1a55.276,55.276,0,0,1,5.534,4.294c.1-.2.151-.33.223-.449a1.913,1.913,0,0,0,.118-1.707,22.2,22.2,0,0,1-.6-2.5c-.118-.58-.174-1.172-.263-1.806-.344-.14-.674-.3-1.022-.408a10.46,10.46,0,0,0-3.436-.383,7.218,7.218,0,0,0-4.9,2.03,4.828,4.828,0,0,0-1.4,5.049,12,12,0,0,0,1.334,2.909c.377.64.252.958-.436,1.188-.133.045-.269.082-.4.134a3.367,3.367,0,0,0-1.739,1.388,7.423,7.423,0,0,0-1.118,4.315A4.445,4.445,0,0,0,1168.943,1197.369Zm14.046-13.539c-.142.35-.248.663-.394.955a6.515,6.515,0,0,0-.491,3.856,5.5,5.5,0,0,0,1.44,3.044,11.088,11.088,0,0,0,.921.938c1.677,1.44,3.371,2.86,5.048,4.3,1.01.868,2.044,1.717,2.989,2.653,1.122,1.109,2.179,2.286,3.229,3.464a60.529,60.529,0,0,0,4.62,4.753,9.8,9.8,0,0,0,3.583,2.126,25.47,25.47,0,0,1,8.427,4.651,55.555,55.555,0,0,1,5.621,5.532,40.5,40.5,0,0,0,3.963,4.069,13.085,13.085,0,0,0,1.7,1.123,2.9,2.9,0,0,0,.725.207.391.391,0,0,0-.121-.287c-2.17-2.028-4.139-4.245-6.111-6.461a84.063,84.063,0,0,0-6.479-6.836q-7.462-6.7-14.993-13.319a100.134,100.134,0,0,1-8.7-8.251,37.4,37.4,0,0,1-4.779-6.263A2.379,2.379,0,0,0,1182.988,1183.83Zm29.848-24.061-.076.111c.223.7.461,1.393.664,2.1q.3,1.033.536,2.083c.163.715.294,1.438.435,2.158a8.637,8.637,0,0,1,.268,2.112,60.189,60.189,0,0,0-2.367-8.652,5.939,5.939,0,0,0-2.3.014,6.607,6.607,0,0,0-2.4,1.154c-1.127.734-1.4,1.406-1.236,3.09a.522.522,0,0,0,.074.073.766.766,0,0,0,.14.071,8.22,8.22,0,0,1,4.348,4.025,19.132,19.132,0,0,1,2.094,6.24c.052.334.116.664.173,1l.106.007q.183-.509.367-1.017a9.044,9.044,0,0,1,2.136-3.525,9.849,9.849,0,0,1,2.28-1.59c.649-.342,1.3-.69,1.991-1.06a5.41,5.41,0,0,1,2.806-5.162c-.047-.137-.072-.237-.116-.329a3.534,3.534,0,0,0-2.019-1.747,7.809,7.809,0,0,0-4.978-.034c.167.709.361,1.4.484,2.1a4.954,4.954,0,0,1,.131,2.14,32.533,32.533,0,0,0-.974-4.328Zm6.531,49.056.067-.022-.045-.3c-.153-1.058-.368-2.111-.449-3.174a53.358,53.358,0,0,1,.236-8.62,21.916,21.916,0,0,0-.308-6.441,28.563,28.563,0,0,0-1.862-5.469,24.547,24.547,0,0,1-1.712-5.24,16.343,16.343,0,0,1-.265-5.284c.061-.442.155-.878.234-1.317a5.565,5.565,0,0,0-.669,1.246,17.542,17.542,0,0,0-1.348,6.871c.017.806.053,1.613.1,2.419a16.191,16.191,0,0,0,.161,1.727c.2,1.193.456,2.377.664,3.568.443,2.522.852,5.05,1.307,7.569a58.64,58.64,0,0,0,3.68,12.054C1219.22,1208.557,1219.3,1208.688,1219.368,1208.825Z" transform="translate(-1167.17 -1158.784)" fill="#606060"/>
        <path id="Path_154300" data-name="Path 154300" d="M1214.7,1232.4c-.305.189-.453.017-.6-.076-.768-.492-1.545-.97-2.286-1.5a117.967,117.967,0,0,1-11.095-8.858c-.258-.237-.5-.491-.747-.74-.016-.016,0-.06,0-.182A142.626,142.626,0,0,0,1214.7,1232.4Z" transform="translate(-1171.225 -1166.482)" fill="#606060"/>
        <path id="Path_154301" data-name="Path 154301" d="M1231.44,1196.709c.869,1.535,4.051,13.665,3.905,14.744C1234.057,1206.589,1232.762,1201.7,1231.44,1196.709Z" transform="translate(-1175.116 -1163.473)" fill="#606060"/>
        <path id="Path_154302" data-name="Path 154302" d="M1208.88,1204.788c.031,0,.076-.009.09.008q6.8,8.2,13.6,16.4a4.8,4.8,0,0,1,.266.414C1221.379,1220.523,1209.412,1206.061,1208.88,1204.788Z" transform="translate(-1172.327 -1164.471)" fill="#606060"/>
        <path id="Path_154303" data-name="Path 154303" d="M1187.027,1194.67a1.951,1.951,0,0,1,.277.194c3.776,3.754,7.9,7.109,11.962,10.54a6.942,6.942,0,0,1,.52.544l-.081.1a.718.718,0,0,1-.158-.073,144.442,144.442,0,0,1-11.58-10.091c-.357-.353-.69-.734-1.033-1.1Z" transform="translate(-1169.614 -1163.221)" fill="#606060"/>
      </g>
    </g>
  </g>
</svg>
