<svg id="Group_148628" data-name="Group 148628" xmlns="http://www.w3.org/2000/svg" xmlns:xlink="http://www.w3.org/1999/xlink" width="24.349" height="24.36" viewBox="0 0 24.349 24.36">
  <defs>
    <clipPath id="clip-path">
      <rect id="Rectangle_8612" data-name="Rectangle 8612" width="24.349" height="24.36" fill="none"/>
    </clipPath>
  </defs>
  <g id="Group_148627" data-name="Group 148627" clip-path="url(#clip-path)">
    <path id="Path_163938" data-name="Path 163938" d="M272.976,210.78a3.4,3.4,0,0,0-.136.828,12.187,12.187,0,0,1-4.236,7.515c-.06.05-.126.093-.19.139-.019-.014-.039-.027-.058-.041l-3.9-3.181a7.336,7.336,0,0,0,3.022-3.467c.111-.256.107-.258-.166-.258H261.4c-.32,0-.32,0-.32-.318,0-1.41,0-2.82,0-4.23,0-.2.038-.27.257-.269q5.6.011,11.192,0c.188,0,.265.048.281.243.027.33.082.658.126.987.007.052-.014.114.047.149Z" transform="translate(-248.627 -197.606)" fill="#487fc1"/>
    <path id="Path_163939" data-name="Path 163939" d="M28.68,6.6a10.452,10.452,0,0,1,1.657-2.45A12.075,12.075,0,0,1,37.261.2c.372-.072.752-.1,1.128-.156.051-.007.114.018.146-.048h1.9a4.465,4.465,0,0,0,.9.139,12.149,12.149,0,0,1,5.8,2.561c.1.081.112.119,0,.207q-1.853,1.508-3.7,3.027c-.113.093-.188.062-.291,0a7.16,7.16,0,0,0-3.786-.994,7.245,7.245,0,0,0-6.629,4.621c-.031.081-.067.16-.1.24q-.654-.528-1.308-1.055Q30,7.674,28.68,6.6" transform="translate(-27.313 -0.001)" fill="#d73d38"/>
    <path id="Path_163940" data-name="Path 163940" d="M44.918,312.558l3.9,3.181c.018.015.038.028.058.042a10.31,10.31,0,0,1-2.247,1.447,11.66,11.66,0,0,1-6.521,1.185,12,12,0,0,1-9.555-6.328.117.117,0,0,1-.007-.022l3.935-3.215a7.27,7.27,0,0,0,10.27,3.795c.056-.029.113-.056.17-.084" transform="translate(-29.087 -294.124)" fill="#569e3a"/>
    <path id="Path_163941" data-name="Path 163941" d="M5.391,146.505,1.456,149.72a11.708,11.708,0,0,1-1.37-4.335,12.035,12.035,0,0,1,1.143-6.759c.041-.085.092-.165.138-.247q1.323,1.075,2.646,2.15.653.529,1.308,1.055a8.308,8.308,0,0,0-.382,2.182,7.665,7.665,0,0,0,.451,2.739" transform="translate(0 -131.782)" fill="#f5a92f"/>
  </g>
</svg>
