<svg xmlns="http://www.w3.org/2000/svg" width="144.769" height="35" viewBox="0 0 144.769 35">
  <g id="Group_155277" data-name="Group 155277" transform="translate(-150.231 -693)">
    <g id="Group_155276" data-name="Group 155276" transform="translate(-4 -2)">
      <text id="Download_from" data-name="Download from" transform="translate(189 705)" font-size="10" font-family="Sora-Regular, Sora"><tspan x="0" y="0">Download from</tspan></text>
      <text id="Google_Play" data-name="Google Play" transform="translate(189 725)" font-size="18" font-family="Sora-Medium, Sora" font-weight="500"><tspan x="0" y="0">Google Play</tspan></text>
    </g>
    <g id="Group_155320" data-name="Group 155320" transform="translate(4069.18 12229.086)">
      <g id="Polygon_1" data-name="Polygon 1" transform="translate(-3888.898 -11536.085) rotate(90)" fill="none">
        <path d="M8.706,14.688a9.921,9.921,0,0,1,17.139,0h0a9.921,9.921,0,0,1-8.569,14.921h0A9.921,9.921,0,0,1,8.706,14.688Z" stroke="none"/>
        <path d="M 17.27490234375 10.7659969329834 C 14.0666618347168 10.7659969329834 11.18606185913086 12.42037773132324 9.569292068481445 15.19144630432129 C 7.939702987670898 17.9844970703125 7.928272247314453 21.32610702514648 9.538732528686523 24.1302375793457 C 11.14919281005859 26.93436813354492 14.04121208190918 28.60847854614258 17.27490234375 28.60847854614258 C 20.50859260559082 28.60847854614258 23.40061187744141 26.93436813354492 25.01107215881348 24.1302375793457 C 26.62152290344238 21.32609748840332 26.6101016998291 17.9844970703125 24.98050308227539 15.19143676757812 C 23.36374282836914 12.42036628723145 20.4831428527832 10.7659969329834 17.27490234375 10.7659969329834 M 17.27490234375 9.765996932983398 C 20.60243225097656 9.765996932983398 23.92996215820312 11.40649795532227 25.84424209594727 14.68749809265137 L 25.84425354003906 14.68750762939453 C 29.70318222045898 21.30155754089355 24.93239212036133 29.60847854614258 17.27490234375 29.60847854614258 C 9.617412567138672 29.60847854614258 4.846622467041016 21.30155754089355 8.70555305480957 14.68750762939453 L 8.705562591552734 14.68749809265137 C 10.61984252929688 11.40649795532227 13.94737243652344 9.765996932983398 17.27490234375 9.765996932983398 Z" stroke="none" fill="#fff"/>
      </g>
      <path id="Path_167291" data-name="Path 167291" d="M-4218.107-10915.334l-14.151-14.416a2.667,2.667,0,0,0-.892,2.326c0,1.762-.014,24.723.082,25.434a2.047,2.047,0,0,0,.682,1.182Z" transform="translate(314.701 -603.51)" stroke="#fff" stroke-width="1"/>
      <path id="Path_167292" data-name="Path 167292" d="M-4208.508-10924.777s-16.8-9.857-17.292-9.961a2.43,2.43,0,0,0-2.322.844c.009,0,14.221,14.344,14.221,14.344Z" transform="translate(310.492 -599.302)" stroke="#fff" stroke-width="1"/>
      <path id="Path_167293" data-name="Path 167293" d="M19.768,5.363S3.19,14.9,2.508,15.014A2.484,2.484,0,0,1,0,14.291C.009,14.292,14.521,0,14.521,0Z" transform="matrix(1, -0.017, 0.017, 1, -3917.934, -11518.616)" stroke="#fff" stroke-width="1"/>
      <path id="Path_167294" data-name="Path 167294" d="M-4140.851-10868.219l5.283,5.283,5.272-2.951a2.661,2.661,0,0,0,.568-4.107c-3.15-1.916-5.764-3.41-5.764-3.41Z" transform="translate(237.444 -650.673)" stroke="#fff" stroke-width="1"/>
    </g>
  </g>
</svg>
