<svg xmlns="http://www.w3.org/2000/svg" xmlns:xlink="http://www.w3.org/1999/xlink" width="24.359" height="27.834" viewBox="0 0 24.359 27.834">
  <defs>
    <clipPath id="clip-path">
      <rect id="Rectangle_17872" data-name="Rectangle 17872" width="24.359" height="27.834" transform="translate(0 0)" fill="none"/>
    </clipPath>
  </defs>
  <g id="Group_155426" data-name="Group 155426" transform="translate(0 0)">
    <g id="Group_155425" data-name="Group 155425" transform="translate(0 0)" clip-path="url(#clip-path)">
      <path id="Path_167387" data-name="Path 167387" d="M10.049,10.046v4.845c-.532,0-1.007-.036-1.476.006a4.119,4.119,0,0,0-3.644,3.974,4.119,4.119,0,0,0,3.621,3.993,3.823,3.823,0,0,0,4.223-3.219,10.627,10.627,0,0,0,.165-1.9q.029-8.023.029-16.045c0-.533,0-1.065,0-1.7h4.716c.372,4.012,2.756,6.156,6.676,6.718v4.9L17.847,9.878c0,3.059.039,6.136-.01,9.212a8.77,8.77,0,0,1-6.263,8.342,9.2,9.2,0,0,1-9.62-2.69,9.263,9.263,0,0,1-.789-10.215,8.878,8.878,0,0,1,8.883-4.481" transform="translate(0.001 0)" fill="#1a1818"/>
    </g>
  </g>
</svg>
