<svg xmlns="http://www.w3.org/2000/svg" width="48" height="48" fill="none" viewBox="0 0 48 48">
    <path fill="#000" d="M7.5 7.5h3v3h-3v-3zm4.5 0h3v3h-3v-3zm4.5 0h18v3h-18v-3z"/>
    <path fill="#000" stroke="#000" d="M31.635 38.072l3.44 1.146-4.575 4.575V41.5h-2.293l3.428-3.428zM43.793 41.5H41.5v2.293l-4.574-4.575 3.439-1.146 3.428 3.428z"/>
    <path stroke="#000" stroke-miterlimit="10" d="M36.824 27.265l1.195.863 1.455.235c.599.096 1.067.566 1.164 1.165l.236 1.455.862 1.195c.354.492.354 1.155 0 1.646l-.862 1.195-.236 1.455c-.096.599-.566 1.067-1.164 1.164l-1.455.236-1.195.862c-.492.354-1.155.354-1.646 0l-1.195-.862-1.455-.236c-.599-.096-1.067-.566-1.165-1.164l-.235-1.455-.863-1.195c-.354-.492-.354-1.155 0-1.646l.863-1.195.235-1.456c.096-.598.566-1.066 1.165-1.164l1.455-.235 1.195-.863c.49-.354 1.154-.354 1.646 0z"/>
    <path fill="#000" stroke="#fff" stroke-width=".7" d="M25.611 38.65H3.35V3.35h35.3v19.406c-.73-.346-1.51-.55-2.3-.597V14.65H5.65V36.348h20.489c.057.1.122.211.194.311v.002l.192.265.053.328c.02.12.042.242.069.36l-1.035 1.036zM6 5.65h-.35V12.35H36.35V5.65H6z"/>
</svg>
