<svg xmlns="http://www.w3.org/2000/svg" width="13.996" height="17.143" viewBox="0 0 13.996 17.143">
  <g id="_0y5OyZ.tif" data-name="0y5OyZ.tif" transform="translate(-1322.79 -3147.935)">
    <g id="Group_148148" data-name="Group 148148" transform="translate(1322.79 3147.935)">
      <path id="Path_163600" data-name="Path 163600" d="M1333,3283.969h-.1a2.545,2.545,0,0,1-.375-.058c-.409-.124-.818-.248-1.22-.394a2.807,2.807,0,0,0-1.666-.188c-.707.181-1.4.424-2.1.64h-.569a2.9,2.9,0,0,1-1.216-.726,10.212,10.212,0,0,1-1.826-2.585,10.56,10.56,0,0,1-1.054-3.4,6.992,6.992,0,0,1,.084-2.691,4.624,4.624,0,0,1,2.224-3.078,3.315,3.315,0,0,1,2.363-.441,12.4,12.4,0,0,1,1.662.538,1.641,1.641,0,0,0,1.278,0,12.593,12.593,0,0,1,1.193-.428,4.209,4.209,0,0,1,3.771.581,2.976,2.976,0,0,1,.864.924c-.114.08-.22.151-.322.228a3.844,3.844,0,0,0-1.1,1.221,3.706,3.706,0,0,0-.394,2.154,3.542,3.542,0,0,0,.962,2.207,4.823,4.823,0,0,0,1.318.931v.067c-.041.1-.085.189-.121.286a11.392,11.392,0,0,1-1.871,3.162,2.622,2.622,0,0,1-.979.816A6.049,6.049,0,0,1,1333,3283.969Z" transform="translate(-1322.79 -3266.826)"/>
      <path id="Path_163601" data-name="Path 163601" d="M1530.432,3151.861a3.761,3.761,0,0,1,3.424-3.926,2.815,2.815,0,0,1-.041.991,4.008,4.008,0,0,1-1.818,2.6A2.393,2.393,0,0,1,1530.432,3151.861Z" transform="translate(-1523.448 -3147.935)"/>
    </g>
  </g>
</svg>
