<svg xmlns="http://www.w3.org/2000/svg" width="94" height="94" viewBox="0 0 94 94">
  <g id="Group_145930" data-name="Group 145930" transform="translate(-637 -205)">
    <circle id="Ellipse_1008" data-name="Ellipse 1008" cx="47" cy="47" r="47" transform="translate(637 205)"/>
    <g id="NJ2UH2.tif" transform="translate(-26.306 -19.433)">
      <g id="Group_145929" data-name="Group 145929" transform="translate(691.357 251.483)">
        <path id="Path_159396" data-name="Path 159396" d="M721.034,251.483a1.627,1.627,0,0,1,1.135,1.49c.006.379,0,.759,0,1.138,0,.123,0,.247,0,.409.65,0,1.266,0,1.882,0a6.038,6.038,0,0,1,6.02,4.782,5.4,5.4,0,0,1,.137,1.2q.014,8.063.005,16.126a1.516,1.516,0,0,1-2.99.408,2.412,2.412,0,0,1-.041-.564q0-7.816,0-15.633a3.029,3.029,0,0,0-1.731-2.958,3.068,3.068,0,0,0-1.123-.293c-.7-.046-1.409-.013-2.157-.013,0,.485,0,.962,0,1.438a1.517,1.517,0,1,1-3.032.009c0-.477,0-.954,0-1.45h-6.913c0,.535.017,1.074,0,1.611a1.514,1.514,0,0,1-3.019.009c-.02-.4-.006-.809-.007-1.214,0-.125,0-.249,0-.4h-6.834c0,.481,0,.957,0,1.434a1.517,1.517,0,1,1-3.032.009c0-.477,0-.954,0-1.517a17.8,17.8,0,0,0-2.629.18,2.958,2.958,0,0,0-2.306,3.108q-.006,5.028,0,10.055,0,6.583,0,13.167a3.286,3.286,0,0,0,.62,2.063,3.148,3.148,0,0,0,2.679,1.231h17.872q4.174,0,8.348,0a3.266,3.266,0,0,0,2.059-.632,3.136,3.136,0,0,0,1.214-2.422,1.517,1.517,0,1,1,3.032.109,6.051,6.051,0,0,1-5.185,5.906,7.32,7.32,0,0,1-1.018.071q-13.223.006-26.447,0a6.046,6.046,0,0,1-6.14-5.184.454.454,0,0,0-.068-.127v-25.2a.457.457,0,0,0,.068-.127,6.049,6.049,0,0,1,6.136-5.185h1.766c0-.164,0-.287,0-.411,0-.379,0-.759,0-1.138a1.627,1.627,0,0,1,1.135-1.489h.759a1.751,1.751,0,0,1,1.142,1.983c-.031.345-.005.7-.005,1.034h6.834c0-.143,0-.266,0-.39,0-.379,0-.759,0-1.138a1.627,1.627,0,0,1,1.135-1.489h.759a1.751,1.751,0,0,1,1.142,1.983c-.031.345-.005.7-.005,1.034h6.91c0-.143,0-.266,0-.39,0-.379,0-.759,0-1.138a1.627,1.627,0,0,1,1.135-1.489Z" transform="translate(-691.357 -251.483)" fill="#e3e3e3"/>
        <path id="Path_159397" data-name="Path 159397" d="M979.418,532.723c0,.582,0,1.164,0,1.745a3.028,3.028,0,0,1-3.074,3.079q-1.745.013-3.491,0a3.025,3.025,0,0,1-3.07-3.082q-.012-1.726,0-3.453a3.027,3.027,0,0,1,3.092-3.1q1.726-.011,3.453,0a3.03,3.03,0,0,1,3.089,3.1C979.422,531.584,979.418,532.154,979.418,532.723Zm-6.576-1.76v3.523h3.523v-3.523Z" transform="translate(-948.605 -506.887)" fill="#e3e3e3"/>
        <path id="Path_159398" data-name="Path 159398" d="M797.686,444.172a1.516,1.516,0,1,1,1.527-1.495A1.5,1.5,0,0,1,797.686,444.172Z" transform="translate(-788.209 -426.717)" fill="#e3e3e3"/>
        <path id="Path_159399" data-name="Path 159399" d="M884.527,444.173a1.516,1.516,0,1,1,1.516-1.506A1.5,1.5,0,0,1,884.527,444.173Z" transform="translate(-868.437 -426.718)" fill="#e3e3e3"/>
        <path id="Path_159400" data-name="Path 159400" d="M972.873,442.663a1.516,1.516,0,1,1-1.5-1.521A1.5,1.5,0,0,1,972.873,442.663Z" transform="translate(-948.663 -426.719)" fill="#e3e3e3"/>
        <path id="Path_159401" data-name="Path 159401" d="M1059.7,442.67a1.516,1.516,0,1,1-1.493-1.529A1.5,1.5,0,0,1,1059.7,442.67Z" transform="translate(-1028.889 -426.718)" fill="#e3e3e3"/>
        <path id="Path_159402" data-name="Path 159402" d="M797.748,527.974a1.516,1.516,0,1,1-1.564,1.457A1.5,1.5,0,0,1,797.748,527.974Z" transform="translate(-788.211 -506.947)" fill="#e3e3e3"/>
        <path id="Path_159403" data-name="Path 159403" d="M884.505,531a1.516,1.516,0,1,1,1.538-1.484A1.5,1.5,0,0,1,884.505,531Z" transform="translate(-868.437 -506.945)" fill="#e3e3e3"/>
        <path id="Path_159404" data-name="Path 159404" d="M799.213,616.31A1.516,1.516,0,1,1,797.7,614.8,1.5,1.5,0,0,1,799.213,616.31Z" transform="translate(-788.209 -587.173)" fill="#e3e3e3"/>
        <path id="Path_159405" data-name="Path 159405" d="M886.044,616.3a1.516,1.516,0,1,1-1.524-1.5A1.5,1.5,0,0,1,886.044,616.3Z" transform="translate(-868.437 -587.173)" fill="#e3e3e3"/>
      </g>
    </g>
  </g>
</svg>
