<svg xmlns="http://www.w3.org/2000/svg" width="47.718" height="103.312" viewBox="0 0 47.718 103.312">
  <g id="Group_148652" data-name="Group 148652" transform="translate(0.354)">
    <g id="Group_148237" data-name="Group 148237" transform="translate(0 15.173)">
      <line id="Line_104" data-name="Line 104" y2="71.842" transform="translate(1.651 0.253)" fill="none" stroke="#c1c7c7" stroke-width="1"/>
      <path id="Path_159739" data-name="Path 159739" d="M-500.949-8292.026l1.651-1.651,1.651,1.651" transform="translate(500.949 8293.678)" fill="none" stroke="#c1c7c7" stroke-width="1"/>
      <path id="Path_159740" data-name="Path 159740" d="M-500.949-8293.678l1.651,1.651,1.651-1.651" transform="translate(500.949 8364.294)" fill="none" stroke="#c1c7c7" stroke-width="1"/>
    </g>
    <g id="Group_148238" data-name="Group 148238" transform="translate(39.995 99.026) rotate(90)">
      <line id="Line_104-2" data-name="Line 104" y2="28.816" transform="translate(1.966 0.302)" fill="none" stroke="#c1c7c7" stroke-width="1"/>
      <path id="Path_159739-2" data-name="Path 159739" d="M0,1.966,1.966,0,3.933,1.966" transform="translate(0 0)" fill="none" stroke="#c1c7c7" stroke-width="1"/>
      <path id="Path_159740-2" data-name="Path 159740" d="M0,0,1.966,1.966,3.933,0" transform="translate(0 27.356)" fill="none" stroke="#c1c7c7" stroke-width="1"/>
    </g>
    <g id="Group_148085" data-name="Group 148085" transform="translate(3.302 0)">
      <path id="Path_159683" data-name="Path 159683" d="M235.623,137.818c-3.741-3.325-10.392-1.247-13.3,2.078,4.988,2.494,8.729,3.325,10.392,2.078,1.247-.832,1.663-1.663.832-2.494a11.162,11.162,0,0,1-6.236-.416,41.173,41.173,0,0,0,7.482-.832c1.247,2.078.416,3.741-1.247,4.988-3.325,2.078-10.808-.832-13.717-3.325,3.325-2.494,6.236-4.988,9.977-4.988a5.847,5.847,0,0,1,5.82,2.909Z" transform="translate(-219.827 -112.047)"/>
      <path id="Path_159684" data-name="Path 159684" d="M323.965,157.608c0,2.494.832,5.4-.416,7.482-.832,2.494-3.741,4.157-6.235,2.909-2.494-.832-3.741-3.325-4.157-6.236,3.325,3.741,8.729-1.663,10.392-4.572l.416.416Z" transform="translate(-297.36 -130.589)"/>
      <path id="Path_159685" data-name="Path 159685" d="M294.907,88.159c-3.741,2.909-7.9,0-11.223-2.078v-.416c3.325-.416,10.392-2.078,8.729-7.067C295.323,80.261,297.817,85.249,294.907,88.159Z" transform="translate(-272.877 -65.296)"/>
      <path id="Path_159686" data-name="Path 159686" d="M373.443,93.86v.832c-3.325,1.247-9.145,3.741-11.639-.416-1.663-2.909.416-6.651,2.909-7.9a1.288,1.288,0,0,1,.832-.416c-2.078,4.157,4.572,7.482,7.9,7.9Z" transform="translate(-337.279 -71.414)"/>
      <path id="Path_159687" data-name="Path 159687" d="M292.829,99.594a.941.941,0,0,1-.943.958.977.977,0,0,1-.974-.958.941.941,0,0,1,.944-.959.977.977,0,0,1,.973.959" transform="translate(-278.881 -81.942)" fill-rule="evenodd"/>
      <path id="Path_159688" data-name="Path 159688" d="M307.386,93.539a1.167,1.167,0,0,1-1.17,1.188,1.211,1.211,0,0,1-1.206-1.188,1.166,1.166,0,0,1,1.169-1.188,1.211,1.211,0,0,1,1.207,1.188" transform="translate(-290.594 -76.722)" fill-rule="evenodd"/>
      <path id="Path_159689" data-name="Path 159689" d="M318.926,76.219a1.167,1.167,0,0,1-1.169,1.188,1.21,1.21,0,0,1-1.207-1.188,1.165,1.165,0,0,1,1.17-1.188,1.211,1.211,0,0,1,1.206,1.188" transform="translate(-300.181 -62.334)" fill-rule="evenodd"/>
      <path id="Path_159690" data-name="Path 159690" d="M292.443,84.43a.994.994,0,0,1-1,1.012,1.032,1.032,0,0,1-1.028-1.012.994.994,0,0,1,1-1.012,1.032,1.032,0,0,1,1.028,1.012" transform="translate(-278.471 -69.3)" fill-rule="evenodd"/>
      <path id="Path_159691" data-name="Path 159691" d="M304.24,75.772a.877.877,0,0,1-1.754,0,.877.877,0,1,1,1.754,0" transform="translate(-288.496 -62.22)" fill-rule="evenodd"/>
      <path id="Path_159692" data-name="Path 159692" d="M280.492,104.114a.941.941,0,0,1-.943.959.977.977,0,0,1-.973-.959.94.94,0,0,1,.943-.959.976.976,0,0,1,.973.959" transform="translate(-268.631 -85.697)" fill-rule="evenodd"/>
      <path id="Path_159693" data-name="Path 159693" d="M283.176,92.4a.725.725,0,0,1-1.449,0,.725.725,0,1,1,1.449,0" transform="translate(-271.25 -76.162)" fill-rule="evenodd"/>
      <path id="Path_159694" data-name="Path 159694" d="M394.481,95.478a1.086,1.086,0,0,1-1.24-.879,1.049,1.049,0,0,1,.86-1.226,1.086,1.086,0,0,1,1.239.879,1.047,1.047,0,0,1-.859,1.226" transform="translate(-363.879 -77.558)" fill-rule="evenodd"/>
      <path id="Path_159695" data-name="Path 159695" d="M406.6,106.644a1.21,1.21,0,0,1-1.38-.979,1.167,1.167,0,0,1,.958-1.365,1.209,1.209,0,0,1,1.38.978,1.168,1.168,0,0,1-.958,1.366" transform="translate(-373.827 -86.634)" fill-rule="evenodd"/>
      <path id="Path_159696" data-name="Path 159696" d="M425.747,115.484a1.21,1.21,0,0,1-1.381-.979,1.167,1.167,0,0,1,.958-1.365,1.209,1.209,0,0,1,1.38.978,1.168,1.168,0,0,1-.957,1.366" transform="translate(-389.734 -93.979)" fill-rule="evenodd"/>
      <path id="Path_159697" data-name="Path 159697" d="M416.806,92.8a1.031,1.031,0,0,1-1.176-.834.994.994,0,0,1,.816-1.163,1.03,1.03,0,0,1,1.175.834.994.994,0,0,1-.815,1.164" transform="translate(-382.479 -75.424)" fill-rule="evenodd"/>
      <path id="Path_159698" data-name="Path 159698" d="M429.779,100.932a.879.879,0,0,1-.313-1.731.879.879,0,0,1,.313,1.731" transform="translate(-393.387 -82.4)" fill-rule="evenodd"/>
      <path id="Path_159699" data-name="Path 159699" d="M393.409,81.511a.975.975,0,0,1-1.113-.789.942.942,0,0,1,.772-1.1.976.976,0,0,1,1.114.79.942.942,0,0,1-.773,1.1" transform="translate(-363.093 -66.134)" fill-rule="evenodd"/>
      <path id="Path_159700" data-name="Path 159700" d="M406.294,87.391a.727.727,0,0,1-.258-1.43.727.727,0,0,1,.258,1.43" transform="translate(-374.026 -71.403)" fill-rule="evenodd"/>
      <path id="Path_159701" data-name="Path 159701" d="M414.964,80.28A.751.751,0,0,1,414.7,78.8a.751.751,0,0,1,.266,1.478" transform="translate(-381.204 -65.456)" fill-rule="evenodd"/>
      <path id="Path_159702" data-name="Path 159702" d="M329.152,170.645a.941.941,0,0,1-.943.958.976.976,0,0,1-.973-.958.94.94,0,0,1,.943-.959.977.977,0,0,1,.973.959" transform="translate(-309.058 -140.968)" fill-rule="evenodd"/>
      <path id="Path_159703" data-name="Path 159703" d="M343.706,164.6a1.166,1.166,0,0,1-1.17,1.188,1.211,1.211,0,0,1-1.206-1.188,1.167,1.167,0,0,1,1.169-1.188,1.21,1.21,0,0,1,1.207,1.188" transform="translate(-320.768 -135.755)" fill-rule="evenodd"/>
      <path id="Path_159704" data-name="Path 159704" d="M357.506,150.922a1.166,1.166,0,0,1-1.169,1.188,1.21,1.21,0,0,1-1.207-1.188,1.166,1.166,0,0,1,1.169-1.187,1.211,1.211,0,0,1,1.207,1.187" transform="translate(-332.231 -124.393)" fill-rule="evenodd"/>
      <path id="Path_159705" data-name="Path 159705" d="M328.756,155.482a.994.994,0,0,1-1,1.012,1.031,1.031,0,0,1-1.027-1.012.993.993,0,0,1,1-1.012,1.032,1.032,0,0,1,1.028,1.012" transform="translate(-308.639 -128.327)" fill-rule="evenodd"/>
      <path id="Path_159706" data-name="Path 159706" d="M342.89,151.547a.877.877,0,1,1-1.754,0,.877.877,0,0,1,1.754,0" transform="translate(-320.605 -125.171)" fill-rule="evenodd"/>
      <path id="Path_159707" data-name="Path 159707" d="M316.809,175.175a.941.941,0,0,1-.944.959.977.977,0,0,1-.973-.959.941.941,0,0,1,.943-.959.977.977,0,0,1,.974.959" transform="translate(-298.803 -144.731)" fill-rule="evenodd"/>
      <path id="Path_159708" data-name="Path 159708" d="M319.5,163.462a.725.725,0,0,1-1.449,0,.725.725,0,1,1,1.449,0" transform="translate(-301.424 -135.195)" fill-rule="evenodd"/>
      <path id="Path_159709" data-name="Path 159709" d="M386.84,156.146c2.909,3.741,9.977,2.909,13.3.416-4.572-3.325-7.9-4.988-9.977-3.741-1.247.416-1.663.832-1.247,1.663.416.416,3.325,0,6.236,1.663-3.325-.416-4.572,0-7.482-.416-.832-2.078,0-3.741,2.078-4.572,3.741-1.247,10.392,2.909,12.886,5.4-3.741,2.078-6.651,3.741-10.808,3.741a5.633,5.633,0,0,1-4.988-4.157Z" transform="translate(-358.574 -125.386)"/>
      <path id="Path_159710" data-name="Path 159710" d="M382.072,211.745c-.416,4.572,5.82,8.729,9.977,8.729-1.247-5.82-2.909-8.729-5.4-9.561a1.518,1.518,0,0,0-2.079.832c.416.416,2.91,2.078,3.741,4.988-2.078-2.494-3.325-2.909-5.4-4.988.832-2.078,2.494-2.909,4.572-2.078,3.741,1.247,6.235,8.729,6.235,12.47-4.157-.832-7.482-1.663-10.392-4.157-2.909-3.325-1.247-6.236-1.247-6.236Z" transform="translate(-354.22 -173.917)"/>
      <path id="Path_159711" data-name="Path 159711" d="M343.885,15.381c4.572-2.078,4.988-9.145,2.494-12.886-4.157,3.741-5.82,6.651-5.4,9.145.416,1.247.832,1.663,2.079,1.247.416-.416.416-3.325,2.494-5.82-1.247,3.325-.832,4.988-1.663,7.482a3.426,3.426,0,0,1-4.157-2.909C338.9,7.483,343.886,2.079,347.211,0c1.247,4.157,2.494,7.482,1.663,11.223-1.247,4.157-4.572,4.572-4.988,4.157Z" transform="translate(-319.358 0)"/>
      <path id="Path_159712" data-name="Path 159712" d="M334.89,210.478a46.975,46.975,0,0,1,1.663,6.236,69.353,69.353,0,0,1,2.078-7.482,15.543,15.543,0,0,0,2.494-2.909c-4.157,9.145-3.741,14.965-4.572,19.537h-1.663c.416-5.4,0-12.055-2.078-16.211.832.416,1.247.416,2.078.832Z" transform="translate(-313.689 -171.404)"/>
      <path id="Path_159713" data-name="Path 159713" d="M287.084,361.211c3.741-8.729.832-12.886,0-15.38-2.909-7.9-3.325-12.886.416-17.874a5.556,5.556,0,0,0-.416-3.741H274.2c-.832,1.247-.832,2.078-.416,3.741,3.741,4.988,3.325,9.977.416,17.874-.832,2.494-3.741,6.651,0,15.38-5.4,1.247-8.313,2.078-7.9,2.909h28.681c.416-.832-2.494-1.663-7.9-2.909Zm-9.977-29.929a9.812,9.812,0,0,0-2.494-3.741h4.157c-2.909.416-1.663,2.078-1.663,3.741Zm-1.157,11.223c-.832,2.494-2.494,6.236-2.91,8.729-.832,3.325.416,6.235,1.663,9.561h1.247c-3.741-7.9-1.247-11.639,0-18.29Zm-.09,19.537a32.879,32.879,0,0,0-5.4,1.247h4.572a5.526,5.526,0,0,1,2.079-1.247Z" transform="translate(-258.403 -269.345)" fill-rule="evenodd"/>
      <path id="Path_159714" data-name="Path 159714" d="M261.321,202.735c-4.572.416-8.313,6.236-7.9,10.808,5.4-1.663,8.313-3.741,9.145-5.82,0-1.247,0-2.078-1.247-2.078-.416,0-2.078,2.494-4.988,3.741,2.909-2.078,2.909-3.325,4.988-5.4,2.079.416,2.909,2.078,2.494,4.157-1.247,3.741-8.313,6.651-12.055,7.067.416-4.157.832-7.9,3.325-10.392a5.823,5.823,0,0,1,6.236-2.078Z" transform="translate(-246.356 -168.234)"/>
    </g>
  </g>
</svg>
