<svg xmlns="http://www.w3.org/2000/svg" width="31.719" height="29" viewBox="0 0 31.719 29">
  <g id="Path_167295" data-name="Path 167295" fill="none">
    <path d="M15.86,29c-8.528-5.79-13-11.058-14.834-15.467C-3.888,1.719,10.147-3.932,15.86,3.043c5.713-6.975,19.748-1.324,14.834,10.49C28.859,17.942,24.387,23.21,15.86,29Z" stroke="none"/>
    <path d="M 15.85950946807861 27.42292213439941 C 19.49963188171387 24.8936767578125 22.51635932922363 22.35293769836426 24.83516120910645 19.86263465881348 C 27.01486968994141 17.52171516418457 28.58211135864258 15.22420406341553 29.4932804107666 13.0340747833252 C 30.81571006774902 9.854334831237793 30.72546005249023 6.990584373474121 29.23227119445801 4.75240421295166 C 27.81158065795898 2.622884511947632 25.22803115844727 1.300004482269287 22.4898509979248 1.300004482269287 C 20.21842956542969 1.300004482269287 18.22089004516602 2.211504459381104 16.86520004272461 3.866604328155518 L 15.85951042175293 5.094404220581055 L 14.85382080078125 3.866604328155518 C 13.49812030792236 2.211504459381104 11.50059032440186 1.300004482269287 9.229170799255371 1.300004482269287 C 6.491280555725098 1.300004482269287 3.907860517501831 2.622984409332275 2.487070322036743 4.752654552459717 C 0.9938004016876221 6.990954399108887 0.9034304022789001 9.85462474822998 2.225680351257324 13.03393459320068 C 3.136910438537598 15.22420406341553 4.704150199890137 17.52171516418457 6.88386058807373 19.86263465881348 C 9.202661514282227 22.35293769836426 12.21938705444336 24.89368438720703 15.85950946807861 27.42292213439941 M 15.85951042175293 29.00000381469727 C 7.331950187683105 23.20965385437012 2.859590530395508 17.94199371337891 1.025410413742065 13.53328418731689 C -3.888260364532471 1.718512892723083 10.14666271209717 -3.931673049926758 15.85951042175293 3.042844533920288 C 21.57235908508301 -3.931675672531128 35.60728073120117 1.718514561653137 30.69361114501953 13.53328418731689 C 28.85943031311035 17.94199371337891 24.38706016540527 23.20965385437012 15.85951042175293 29.00000381469727 Z" stroke="none" fill="#000"/>
  </g>
</svg>
