<svg xmlns="http://www.w3.org/2000/svg" width="31.652" height="31.688" viewBox="0 0 31.652 31.688">
  <path id="Path_154639" data-name="Path 154639" d="M1788.229,860.7c-.569-1.008-1.158-2.051-1.73-3.081a1.474,1.474,0,0,0-.716-.738h-20.614a1.49,1.49,0,0,0-.718.74l-.7,1.251c-1.171,2.1-2.382,4.274-3.623,6.385a2.508,2.508,0,0,0-.236,2.134,4.456,4.456,0,0,0,3.02,3.138l.156.056.4.145v16.6c0,.766.269,1.037,1.029,1.037h21.949c.763,0,1.033-.27,1.033-1.033V870.79l.283-.126c.134-.06.268-.114.4-.168a6.187,6.187,0,0,0,.741-.343,4.4,4.4,0,0,0,2.268-3.312,1,1,0,0,1,.05-.188V866.1l-.485-.89c-.4-.727-.805-1.478-1.215-2.211C1789.092,862.231,1788.653,861.454,1788.229,860.7Zm-9.819,26.07h-5.855V877.18h5.855Zm7.481-.006h-5.885v-3.66q0-3.248,0-6.5c0-.764-.27-1.035-1.031-1.035h-7.031c-.717,0-1,.282-1,1.006q0,3.326,0,6.651v3.535h-5.876v-16.08l.346-.1a4.7,4.7,0,0,0,2.224-1.372l.346-.374.35.371a4.541,4.541,0,0,0,3.39,1.525h.007a4.468,4.468,0,0,0,3.4-1.52l.347-.369.347.369a4.462,4.462,0,0,0,3.386,1.519h.017a4.448,4.448,0,0,0,3.347-1.49l.3-.319.344.269c.128.1.251.2.37.3a4.92,4.92,0,0,0,1.6.978c.141.061.286.124.432.192l.275.128Zm3.645-19.842a2.933,2.933,0,0,1-2.794,2.236l-.106,0a2.962,2.962,0,0,1-2.839-2.46c-.024-.157-.037-.31-.05-.458l0-.046a.782.782,0,0,0-.791-.765h0a.757.757,0,0,0-.782.758,3.077,3.077,0,0,1-1.161,2.353,2.944,2.944,0,0,1-4.682-1.8c-.027-.165-.041-.325-.054-.48l-.005-.06a.783.783,0,0,0-.79-.767h0a.757.757,0,0,0-.783.757,2.978,2.978,0,0,1-1.637,2.651,2.94,2.94,0,0,1-4.205-2.1c-.028-.166-.041-.328-.054-.484l0-.056a.783.783,0,0,0-.79-.768h0a.764.764,0,0,0-.784.755,2.98,2.98,0,0,1-1.667,2.669,2.932,2.932,0,0,1-4.155-2.047,1.19,1.19,0,0,1,.136-.757c.685-1.223,1.384-2.464,2.061-3.664.632-1.122,1.286-2.282,1.926-3.424a.9.9,0,0,1,.854-.5h0c2.438.006,4.917.006,7.315.005h3.732c2.328,0,4.735,0,7.1-.008h.006a.988.988,0,0,1,.945.564c.623,1.114,1.26,2.245,1.876,3.339.677,1.2,1.376,2.444,2.06,3.669A1.339,1.339,0,0,1,1789.535,866.925Z" transform="translate(-1759.668 -856.784)" fill="#fff" stroke="#fff" stroke-width="0.2"/>
</svg>
