<svg xmlns="http://www.w3.org/2000/svg" width="16.487" height="16.486" viewBox="0 0 16.487 16.486">
  <g id="instagram" transform="translate(0.65 0.65)">
    <path id="Path_154020" data-name="Path 154020" d="M4.089,0H11.1a4.089,4.089,0,0,1,4.089,4.089V11.1A4.089,4.089,0,0,1,11.1,15.187H4.089A4.089,4.089,0,0,1,0,11.1V4.089A4.089,4.089,0,0,1,4.089,0Z" transform="translate(0 0)" fill="none" stroke="#a5bdcc" stroke-linecap="round" stroke-width="1.3"/>
    <path id="Path_20995" data-name="Path 20995" d="M13.9,10.471a2.946,2.946,0,1,1-2.482-2.482A2.946,2.946,0,0,1,13.9,10.471Z" transform="translate(-3.467 -3.491)" fill="none" stroke="#a5bdcc" stroke-linecap="round" stroke-linejoin="round" stroke-width="1.3"/>
    <line id="Line_53" data-name="Line 53" x2="0.007" transform="translate(11.541 3.393)" fill="none" stroke="#a5bdcc" stroke-linecap="round" stroke-linejoin="round" stroke-width="1.3"/>
  </g>
</svg>
