<svg id="Group_143200" data-name="Group 143200" xmlns="http://www.w3.org/2000/svg" width="26" height="26" viewBox="0 0 26 26">
  <path id="Path_19090" data-name="Path 19090" d="M24.985,11.984h-.859a11.167,11.167,0,0,0-10.11-10.11V1.016a1.016,1.016,0,0,0-2.031,0v.859a11.167,11.167,0,0,0-10.11,10.11H1.016a1.016,1.016,0,0,0,0,2.031h.859a11.167,11.167,0,0,0,10.11,10.11v.859a1.016,1.016,0,1,0,2.031,0v-.859a11.167,11.167,0,0,0,10.11-10.11h.859a1.016,1.016,0,1,0,0-2.031Zm-3.352,2.031h.451a9.158,9.158,0,0,1-8.068,8.068v-.451a1.016,1.016,0,1,0-2.031,0v.451a9.158,9.158,0,0,1-8.068-8.068h.451a1.016,1.016,0,0,0,0-2.031H3.916a9.158,9.158,0,0,1,8.068-8.068v.451a1.016,1.016,0,0,0,2.031,0V3.916a9.158,9.158,0,0,1,8.068,8.068h-.451a1.016,1.016,0,1,0,0,2.031Z"/>
  <circle id="Ellipse_997" data-name="Ellipse 997" cx="5" cy="5" r="5" transform="translate(8 8.248)"/>
</svg>
