<svg xmlns="http://www.w3.org/2000/svg" width="587.204" height="189.643" viewBox="0 0 587.204 189.643">
  <g id="Group_154495" data-name="Group 154495" transform="translate(0 0)">
    <g id="Group_2302" data-name="Group 2302" transform="translate(0 0)">
      <path id="Path_155259" data-name="Path 155259" d="M94.309,72.06a47.206,47.206,0,0,1-47.155,47.155H0V72.06A46.293,46.293,0,0,1,3.608,54.046,43.688,43.688,0,0,1,6.6,48.06a46.723,46.723,0,0,1,9.326-11.28,44.444,44.444,0,0,1,4.754-3.7,46.966,46.966,0,0,1,57.708,3.7,33.726,33.726,0,0,1-7.558,11.28,32.986,32.986,0,0,0-4.45-3.7,33.606,33.606,0,0,0-38.426.019A31.5,31.5,0,0,0,23.5,48.06a33.735,33.735,0,0,0-7.576,11.28A32.992,32.992,0,0,0,14.1,65.326a33.826,33.826,0,0,0-.671,6.734v33.726H47.155A33.755,33.755,0,0,0,80.208,65.326a52.071,52.071,0,0,0,10.515-11.3A46.727,46.727,0,0,1,94.309,72.06" transform="translate(0 23.092)" fill="#2a353c"/>
      <path id="Path_155260" data-name="Path 155260" d="M94.309,47.155a46.727,46.727,0,0,1-3.587,18.033,44.368,44.368,0,0,1-2.995,5.967A47.07,47.07,0,0,1,20.679,86.136a44.441,44.441,0,0,1-4.754-3.7A33.715,33.715,0,0,1,23.5,71.154a31.494,31.494,0,0,0,4.452,3.683,33.606,33.606,0,0,0,38.426.019,32.984,32.984,0,0,0,4.45-3.7,33.746,33.746,0,0,0,7.558-11.28,33.139,33.139,0,0,0,1.821-5.986A33.755,33.755,0,0,0,47.155,13.429H13.431V47.155a33.826,33.826,0,0,0,.671,6.734A51.88,51.88,0,0,0,3.608,65.168,46.293,46.293,0,0,1,0,47.155V0H47.155A47.206,47.206,0,0,1,94.309,47.155" transform="translate(0 0)" fill="#96918e"/>
      <path id="Path_155261" data-name="Path 155261" d="M158.821,73.235a50.378,50.378,0,0,1-3.65,19.33,46.507,46.507,0,0,1-10.158,15.385,46.043,46.043,0,0,1-15.579,10.158,53,53,0,0,1-19.921,3.648,52.432,52.432,0,0,1-19.725-3.648A45.514,45.514,0,0,1,64.049,92.565a50.306,50.306,0,0,1-3.65-19.33,50.334,50.334,0,0,1,3.65-19.33A45.518,45.518,0,0,1,89.787,28.364a52.432,52.432,0,0,1,19.725-3.648,53,53,0,0,1,19.921,3.648,45.549,45.549,0,0,1,25.738,25.541,50.406,50.406,0,0,1,3.65,19.33m-14.2,0a42.275,42.275,0,0,0-2.467-14.5,35.534,35.534,0,0,0-7.005-11.833,33.115,33.115,0,0,0-11.041-7.99,34.945,34.945,0,0,0-14.6-2.958,34.265,34.265,0,0,0-14.5,2.958,33.434,33.434,0,0,0-10.945,7.99,35.426,35.426,0,0,0-7,11.833,43.8,43.8,0,0,0,0,28.995,35.426,35.426,0,0,0,7,11.833,32.185,32.185,0,0,0,10.945,7.89,35.183,35.183,0,0,0,14.5,2.86,35.884,35.884,0,0,0,14.6-2.86,31.9,31.9,0,0,0,11.041-7.89,35.534,35.534,0,0,0,7.005-11.833,42.278,42.278,0,0,0,2.467-14.5" transform="translate(56.002 22.916)" fill="#2a353c"/>
      <path id="Path_155262" data-name="Path 155262" d="M130.637,27.083q.387,3.749.592,8.283t.195,7.5h.4a30.34,30.34,0,0,1,12.822-13.116,37.43,37.43,0,0,1,18.736-5.03q17.553,0,26.329,10.455t8.78,27.613v56.605H185.074V68.305a67.677,67.677,0,0,0-1.183-13.215,27.749,27.749,0,0,0-4.045-10.158,19.36,19.36,0,0,0-7.693-6.608,27.518,27.518,0,0,0-12.128-2.367,25.891,25.891,0,0,0-10.355,2.172,25.454,25.454,0,0,0-8.975,6.6,33.048,33.048,0,0,0-6.313,11.245,49.141,49.141,0,0,0-2.367,16.073v47.338H118.6V47.4q0-3.744-.2-9.665t-.592-10.65Z" transform="translate(109.237 22.916)" fill="#2a353c"/>
      <path id="Path_155263" data-name="Path 155263" d="M214.39,118.251H199.6L161.922,25.944h14.992l29.979,78.107h.4l30.174-78.107h14.4Z" transform="translate(150.133 24.055)" fill="#2a353c"/>
      <path id="Path_155264" data-name="Path 155264" d="M306.2,73.235a50.379,50.379,0,0,1-3.65,19.33,46.507,46.507,0,0,1-10.158,15.385,46.042,46.042,0,0,1-15.579,10.158,53,53,0,0,1-19.919,3.648,52.436,52.436,0,0,1-19.727-3.648,45.515,45.515,0,0,1-25.738-25.543,50.308,50.308,0,0,1-3.65-19.33,50.336,50.336,0,0,1,3.65-19.33,45.519,45.519,0,0,1,25.738-25.541,52.436,52.436,0,0,1,19.727-3.648,53,53,0,0,1,19.919,3.648,45.548,45.548,0,0,1,25.738,25.541,50.407,50.407,0,0,1,3.65,19.33m-14.2,0a42.275,42.275,0,0,0-2.467-14.5,35.536,35.536,0,0,0-7.005-11.833,33.115,33.115,0,0,0-11.041-7.99,34.943,34.943,0,0,0-14.595-2.958,34.268,34.268,0,0,0-14.5,2.958,33.434,33.434,0,0,0-10.944,7.99,35.424,35.424,0,0,0-7,11.833,43.8,43.8,0,0,0,0,28.995,35.424,35.424,0,0,0,7,11.833,32.184,32.184,0,0,0,10.944,7.89,35.186,35.186,0,0,0,14.5,2.86,35.881,35.881,0,0,0,14.595-2.86,31.9,31.9,0,0,0,11.041-7.89,35.536,35.536,0,0,0,7.005-11.833A42.278,42.278,0,0,0,292,73.235" transform="translate(192.648 22.916)" fill="#2a353c"/>
      <path id="Path_155265" data-name="Path 155265" d="M304.374,103.853h.4l28.6-77.909h14.6l-45.96,116.171q-4.137,10.653-10.549,17.063t-18.441,6.41a61.293,61.293,0,0,1-12.035-1.183l1.386-12.23a30.935,30.935,0,0,0,9.861,1.578q6.9,0,10.846-4.24t6.9-12.132l7.5-19.33L258.023,25.944h14.994Z" transform="translate(239.237 24.055)" fill="#2a353c"/>
    </g>
  </g>
</svg>
