<svg xmlns="http://www.w3.org/2000/svg" width="31.539" height="60.119" viewBox="0 0 31.539 60.119">
  <g id="Group_143296" data-name="Group 143296" transform="translate(-313.962 -89.76)">
    <g id="Group_713" data-name="Group 713" transform="translate(314.462 89.76)">
      <g id="Group_712" data-name="Group 712" transform="translate(0)">
        <path id="Path_900" data-name="Path 900" d="M342.863,97.251a15.264,15.264,0,1,0-17.117,22.5v12.1h5.777a6.482,6.482,0,0,0,5.049-2.22,6.627,6.627,0,0,0,1.678-4.5,6.4,6.4,0,0,0-1.942-4.621,6.309,6.309,0,0,0-2.058-1.425,3.725,3.725,0,0,0,.518-.461,4.009,4.009,0,0,0,1.223-2.95,4.152,4.152,0,0,0-4.173-4.173h-6.073v7.065A14.082,14.082,0,1,1,341.2,113.32l.91.656a15.3,15.3,0,0,0,.754-16.726Zm-5.693,27.955a5.485,5.485,0,0,1-3.115,4.944l.059-.055a5.884,5.884,0,0,0-.008-8.3,9.66,9.66,0,0,0-3.078-2.041c-.031-.013-.059-.029-.09-.042h.665l.041,0,.037,0A5.49,5.49,0,0,1,337.171,125.206Zm-10.273-9.7a2.881,2.881,0,0,1,2.873-2.873h2.183a2.881,2.881,0,0,1,2.873,2.873v.182a2.881,2.881,0,0,1-2.873,2.873H329.77a2.881,2.881,0,0,1-2.873-2.873Zm0,12.384v-8.178a11.164,11.164,0,0,1,2.452.525,9.067,9.067,0,0,1,1.391.551,8.732,8.732,0,0,1,2.593,1.781,4.8,4.8,0,0,1-2,7.968,3.478,3.478,0,0,1-.436.094,5.381,5.381,0,0,1-.842.062h-.52a2.641,2.641,0,0,1-2.641-2.641Z" transform="translate(-314.462 -89.76)" fill="#3e5869"/>
      </g>
    </g>
    <g id="Group_714" data-name="Group 714" transform="translate(314.462 140.613)">
      <path id="Path_901" data-name="Path 901" d="M318.118,447.77a2.712,2.712,0,0,1,.885.613,2.86,2.86,0,0,1,0,4.04,2.908,2.908,0,0,1-1.7.835h-2.84V444.51h2.611a1.794,1.794,0,0,1,1.268,3.062A1.6,1.6,0,0,1,318.118,447.77ZM314.957,445v2.549h2.227a1.283,1.283,0,0,0,.8-.322,1.246,1.246,0,0,0,.377-.922,1.3,1.3,0,0,0-1.3-1.305Zm2.023,7.764a2.238,2.238,0,0,0,1.658-.693,2.269,2.269,0,0,0,.687-1.664,2.293,2.293,0,0,0-.687-1.67,2.237,2.237,0,0,0-1.658-.693h-2.023v4.72Z" transform="translate(-314.462 -444.492)" fill="#3e5869" stroke="#3e5869" stroke-width="1"/>
      <path id="Path_902" data-name="Path 902" d="M359.03,453.258V444.51h.495v8.253h3.335v.495Z" transform="translate(-352.639 -444.492)" fill="#3e5869" stroke="#3e5869" stroke-width="1"/>
      <path id="Path_903" data-name="Path 903" d="M394.106,445.665a4.391,4.391,0,1,1-3.1-1.281A4.225,4.225,0,0,1,394.106,445.665Zm-3.1-.791a3.9,3.9,0,1,0,2.755,1.142A3.75,3.75,0,0,0,391.007,444.873Z" transform="translate(-376.279 -444.384)" fill="#3e5869" stroke="#3e5869" stroke-width="1"/>
      <path id="Path_904" data-name="Path 904" d="M455.346,448.425a3.626,3.626,0,0,1-1.444-.828,1.77,1.77,0,0,1-.526-1.287,1.811,1.811,0,0,1,3.093-1.269,1.559,1.559,0,0,1,.4.634l-.435.169a1.341,1.341,0,0,0-.314-.477,1.329,1.329,0,0,0-2.266.943,1.281,1.281,0,0,0,.387.942,3.6,3.6,0,0,0,1,.652,4.292,4.292,0,0,1,1.728,1.033,2.534,2.534,0,0,1-1.788,4.32,2.559,2.559,0,0,1-2.5-2.127l.453-.163a1.952,1.952,0,0,0,.592,1.208,2.057,2.057,0,1,0,2.912-2.906A3.9,3.9,0,0,0,455.346,448.425Z" transform="translate(-432.867 -444.492)" fill="#3e5869" stroke="#3e5869" stroke-width="1"/>
      <path id="Path_905" data-name="Path 905" d="M495.033,448.425a3.626,3.626,0,0,1-1.444-.828,1.769,1.769,0,0,1-.526-1.287,1.811,1.811,0,0,1,3.093-1.269,1.559,1.559,0,0,1,.4.634l-.435.169a1.34,1.34,0,0,0-.314-.477,1.329,1.329,0,0,0-2.266.943,1.282,1.282,0,0,0,.387.942,3.6,3.6,0,0,0,1,.652,4.294,4.294,0,0,1,1.728,1.033,2.534,2.534,0,0,1-1.788,4.32,2.559,2.559,0,0,1-2.5-2.127l.453-.163a1.952,1.952,0,0,0,.592,1.208,2.057,2.057,0,1,0,2.912-2.906A3.9,3.9,0,0,0,495.033,448.425Z" transform="translate(-466.863 -444.492)" fill="#3e5869" stroke="#3e5869" stroke-width="1"/>
    </g>
  </g>
</svg>
