<?xml version="1.0" encoding="UTF-8"?><svg id="Layer_2" xmlns="http://www.w3.org/2000/svg" xmlns:xlink="http://www.w3.org/1999/xlink" viewBox="0 0 1348.83 369.39"><defs><style>.cls-1{fill:url(#linear-gradient-2);}.cls-2{fill:url(#linear-gradient-6);}.cls-3{fill:url(#linear-gradient-5);}.cls-4{fill:url(#linear-gradient-3);}.cls-5{fill:url(#linear-gradient);}.cls-6{fill:url(#linear-gradient-4);}</style><linearGradient id="linear-gradient" x1="0" y1="183.85" x2="244.53" y2="183.85" gradientUnits="userSpaceOnUse"><stop offset="0" stop-color="#d6bb67"/><stop offset="1" stop-color="#f4dc90"/></linearGradient><linearGradient id="linear-gradient-2" x1="1138.22" y1="227.58" x2="1348.83" y2="227.58" xlink:href="#linear-gradient"/><linearGradient id="linear-gradient-3" x1="269.78" y1="186.79" x2="484.42" y2="186.79" xlink:href="#linear-gradient"/><linearGradient id="linear-gradient-4" x1="925.59" y1="186.79" x2="1140.22" y2="186.79" xlink:href="#linear-gradient"/><linearGradient id="linear-gradient-5" x1="515.28" y1="184.15" x2="704.44" y2="184.15" xlink:href="#linear-gradient"/><linearGradient id="linear-gradient-6" x1="713.45" y1="187.06" x2="926.25" y2="187.06" xlink:href="#linear-gradient"/></defs><g id="Layer_1-2"><g><path class="cls-5" d="m132.98,0c4.39.76,8.78,1.46,13.16,2.28,50.13,9.37,89.87,52.46,97.11,103.22,8.9,62.44-32.94,124.39-98.64,136.5-31.23,5.76-60.55-.01-87.63-16.71-1.41-.87-2.8-1.79-4.22-2.65-.26-.16-.64-.13-2.18-.39-1,7.31-2.74,14.57-2.85,21.86-.37,24.45-.16,48.9-.15,73.35,0,.81.17,1.62.3,2.76,1.54.09,3,.24,4.45.24,22.82.01,45.65.12,68.47-.02,36.76-.22,66.57-23.96,74.49-59.49,1.32-5.93,1.09-12.2,1.79-18.29.18-1.6.7-3.79,1.85-4.56,14.2-9.64,26.36-21.32,36.5-35.14.16-.22.59-.24,1.13-.45,5.85,14.53,8.41,29.69,7.94,45.2-1.67,55.37-37.16,100.91-90.53,115.56-10.29,2.83-21.31,4.01-32.02,4.14-39.81.48-79.63.2-119.44.2-.83,0-1.65-.14-2.48-.22,0-44.59,0-89.19,0-133.78.32-1.1.81-2.18.95-3.31,8.76-70.47,77.25-119.17,146.61-104.16,16.26,3.52,31.31,9.95,45.03,19.68.47-.79.93-1.3,1.11-1.9,13.93-45.23-18.14-93.4-65.73-95.84-25.75-1.32-51.62-.42-77.43-.48-.92,0-1.85.4-2.95.66,0,25.32-.08,50.42.09,75.53.02,3.16-.68,5.01-3.33,6.94-6.43,4.7-12.85,9.55-18.58,15.05-6.29,6.04-11.81,12.89-17.89,19.65-.64-1.82-1.48-3.62-1.92-5.52-2.05-8.7-3.98-17.42-5.96-26.13C0,89.27,0,44.76,0,0c44.33,0,88.66,0,132.98,0Zm-52.06,184.04c24.22,17.63,62.64,15.72,82.45-.16-21.05-16.81-60.46-17.13-82.45.16Z"/><path class="cls-1" d="m1168.85,369.39c-.28-.77-.8-1.53-.81-2.3-.05-15.28-.04-30.56-.04-45.98,6.27-.9,12.41-1.29,18.3-2.71,18.96-4.58,28.03-18.95,34.27-35.76.51-1.39-.49-3.52-1.18-5.14-26.22-61.9-52.48-123.78-78.73-185.66-.76-1.79-1.48-3.6-2.46-5.98,16.78,0,32.9,0,49.02,0q8.05,0,11.05,7.64c15.83,40.68,31.65,81.36,47.48,122.04.59,1.5,1.25,2.98,2.35,5.6,4.1-12.3,7.86-23.49,11.56-34.7,10.5-31.84,21.06-63.65,31.33-95.56,1.33-4.13,3.26-5.17,7.35-5.12,16.82.23,33.64.09,50.46.09v1c-.68,1.49-1.46,2.95-2.02,4.48-19.36,53.02-38.5,106.13-58.13,159.05-8.13,21.92-16.01,44.09-26.31,65.01-13.39,27.2-34.94,45.8-65.81,51.61-5.2.98-10.47,1.6-15.71,2.38h-12Z"/><path class="cls-4" d="m376.64,293.7c-56.72,1.48-108.64-46.38-106.82-110.61,1.53-54.08,46.64-104.83,110.45-103.2,55.27,1.41,104.89,46.49,104.13,108.11-.74,59.63-47.72,106.08-107.77,105.7Zm-54.18-106.95c.09,32.64,23.05,56.03,54.83,55.85,31.61-.17,54.82-23.76,54.72-55.61-.1-32.36-23.3-55.96-54.99-55.95-31.49.02-54.65,23.67-54.56,55.71Z"/><path class="cls-6" d="m1032.52,293.7c-57.11,1.5-108.64-46.82-106.89-110.53,1.47-53.46,46.19-104.89,110.38-103.28,55.71,1.4,104.95,46.98,104.2,108.03-.74,59.59-47.6,106.07-107.69,105.78Zm55.35-106.73c-.09-32.28-23.39-55.94-55.06-55.93-31.4.01-54.73,23.81-54.64,55.73.09,32.54,23.17,56,54.94,55.83,31.57-.16,54.85-23.81,54.76-55.63Z"/><path class="cls-3" d="m652,288.12c0-2.71,0-4.69,0-6.67,0-36.43.18-72.86-.15-109.29-.07-7.19-.97-14.78-3.46-21.45-5.82-15.6-22.93-23.89-41.97-21.59-23.04,2.78-37.41,17.59-38.38,41.07-.81,19.6-.4,39.25-.45,58.88-.05,18.13-.11,36.27.07,54.4.04,3.75-1.09,4.84-4.81,4.79-14.33-.19-28.66-.06-42.98-.08-1.45,0-2.91-.2-4.56-.32V86.21h52.2v20.96c1.28-1.18,1.89-1.59,2.31-2.14,11.65-14.96,27.37-22.05,45.87-24.24,17.52-2.07,34.29,0,49.82,8.55,22.02,12.13,33.72,31.46,37.33,55.88,1.07,7.21,1.44,14.58,1.47,21.87.14,38.43-.01,76.86.16,115.28.02,4.54-1.15,5.94-5.8,5.85-15.29-.29-30.6-.11-46.64-.11Z"/><path class="cls-2" d="m713.45,85.86h47.32q10,0,13.2,9.28c14.59,42.04,29.19,84.07,43.79,126.1.49,1.4.99,2.8,2.56,4.48,16.24-46.53,32.48-93.06,48.76-139.69h57.19c-.56,1.85-.95,3.52-1.56,5.11-24.32,63.95-48.69,127.88-72.92,191.86-1.43,3.78-3.16,5.34-7.45,5.27-16.49-.29-32.99-.18-49.49-.04-3.22.03-4.98-.66-6.25-4.01-24.51-64.75-49.18-129.44-73.8-194.15-.46-1.21-.79-2.47-1.34-4.2Z"/></g></g></svg>