<svg xmlns="http://www.w3.org/2000/svg" width="50.687" height="97.5" viewBox="0 0 50.687 97.5">
  <g id="Group_143029" data-name="Group 143029" transform="translate(-313.962 -89.76)">
    <g id="Group_713" data-name="Group 713" transform="translate(314.462 89.76)">
      <g id="Group_712" data-name="Group 712" transform="translate(0)">
        <path id="Path_900" data-name="Path 900" d="M360.671,101.947a24.834,24.834,0,1,0-27.85,36.6v19.684h9.4a10.546,10.546,0,0,0,8.215-3.612,10.782,10.782,0,0,0,2.731-7.319,10.414,10.414,0,0,0-3.16-7.518,10.265,10.265,0,0,0-3.348-2.318,6.054,6.054,0,0,0,.843-.749,6.523,6.523,0,0,0,1.99-4.8,6.755,6.755,0,0,0-6.789-6.79h-9.88v11.5a22.912,22.912,0,1,1,25.143-8.534l1.48,1.068a24.894,24.894,0,0,0,1.227-27.213Zm-9.262,45.483a8.924,8.924,0,0,1-5.069,8.044l.1-.089a9.573,9.573,0,0,0-.012-13.5,15.716,15.716,0,0,0-5.008-3.321c-.05-.022-.1-.048-.147-.069h1.081c.023,0,.045,0,.067,0s.04,0,.06,0A8.932,8.932,0,0,1,351.409,147.43Zm-16.715-15.775a4.688,4.688,0,0,1,4.674-4.674h3.552a4.688,4.688,0,0,1,4.674,4.674v.3a4.688,4.688,0,0,1-4.674,4.674h-3.552a4.688,4.688,0,0,1-4.674-4.674Zm0,20.15V138.5a18.165,18.165,0,0,1,3.99.854,14.752,14.752,0,0,1,2.263.9,14.207,14.207,0,0,1,4.219,2.9,7.811,7.811,0,0,1-3.25,12.963,5.662,5.662,0,0,1-.709.152,8.758,8.758,0,0,1-1.369.1h-.847a4.3,4.3,0,0,1-4.3-4.3Z" transform="translate(-314.462 -89.76)" fill="#fff"/>
      </g>
    </g>
    <g id="Group_714" data-name="Group 714" transform="translate(314.462 172.498)">
      <path id="Path_901" data-name="Path 901" d="M320.411,449.815a4.413,4.413,0,0,1,1.439,1,4.654,4.654,0,0,1,0,6.573,4.731,4.731,0,0,1-2.768,1.359h-4.62V444.51h4.248a2.918,2.918,0,0,1,2.064,4.983A2.6,2.6,0,0,1,320.411,449.815Zm-5.144-4.51v4.147h3.624a2.088,2.088,0,0,0,1.308-.523,2.028,2.028,0,0,0,.614-1.5,2.114,2.114,0,0,0-2.114-2.124Zm3.292,12.633a3.641,3.641,0,0,0,2.7-1.127,3.693,3.693,0,0,0,1.117-2.708,3.731,3.731,0,0,0-1.117-2.718,3.64,3.64,0,0,0-2.7-1.127h-3.292v7.68Z" transform="translate(-314.462 -444.481)" fill="#fff" stroke="#fff" stroke-width="1"/>
      <path id="Path_902" data-name="Path 902" d="M359.03,458.743V444.51h.805v13.428h5.426v.805Z" transform="translate(-348.632 -444.481)" fill="#fff" stroke="#fff" stroke-width="1"/>
      <path id="Path_903" data-name="Path 903" d="M398.8,446.468a7.143,7.143,0,1,1-5.043-2.084A6.873,6.873,0,0,1,398.8,446.468Zm-5.043-1.288a6.343,6.343,0,1,0,4.482,1.858A6.1,6.1,0,0,0,393.753,445.18Z" transform="translate(-369.79 -444.384)" fill="#fff" stroke="#fff" stroke-width="1"/>
      <path id="Path_904" data-name="Path 904" d="M457.013,450.88a5.9,5.9,0,0,1-2.349-1.347,2.879,2.879,0,0,1-.855-2.094,2.947,2.947,0,0,1,5.033-2.064,2.537,2.537,0,0,1,.659,1.032l-.708.275a2.181,2.181,0,0,0-.511-.777,2.162,2.162,0,0,0-3.686,1.534,2.085,2.085,0,0,0,.629,1.533,5.857,5.857,0,0,0,1.632,1.062,6.984,6.984,0,0,1,2.811,1.681,4.124,4.124,0,0,1-2.909,7.028,4.163,4.163,0,0,1-4.069-3.46l.737-.265a3.176,3.176,0,0,0,.963,1.966,3.347,3.347,0,1,0,4.738-4.728A6.347,6.347,0,0,0,457.013,450.88Z" transform="translate(-420.438 -444.481)" fill="#fff" stroke="#fff" stroke-width="1"/>
      <path id="Path_905" data-name="Path 905" d="M496.7,450.88a5.9,5.9,0,0,1-2.349-1.347,2.878,2.878,0,0,1-.855-2.094,2.947,2.947,0,0,1,5.033-2.064,2.536,2.536,0,0,1,.659,1.032l-.708.275a2.181,2.181,0,0,0-.511-.777,2.163,2.163,0,0,0-3.686,1.534,2.085,2.085,0,0,0,.629,1.533,5.864,5.864,0,0,0,1.632,1.062,6.985,6.985,0,0,1,2.812,1.681,4.124,4.124,0,0,1-2.91,7.028,4.163,4.163,0,0,1-4.069-3.46l.737-.265a3.177,3.177,0,0,0,.963,1.966,3.347,3.347,0,1,0,4.738-4.728A6.344,6.344,0,0,0,496.7,450.88Z" transform="translate(-450.866 -444.481)" fill="#fff" stroke="#fff" stroke-width="1"/>
    </g>
  </g>
</svg>
