<svg xmlns="http://www.w3.org/2000/svg" width="42.543" height="31.907" viewBox="0 0 42.543 31.907">
  <g id="_1oJWsF.tif" data-name="1oJWsF.tif" transform="translate(-1965 -1079)">
    <g id="Group_70" data-name="Group 70" transform="translate(1965 1079)">
      <path id="Path_154055" data-name="Path 154055" d="M1986.022,1079h.5a2.871,2.871,0,0,1,.474.378,19.5,19.5,0,0,1,4.021,7.5c.217.833.36,1.686.538,2.537a.655.655,0,0,0,.112-.052,19.02,19.02,0,0,1,9.531-3.265.885.885,0,0,1,1.022.965c-.008.234-.047.468-.074.7a19.518,19.518,0,0,1-1.881,6.708c-.443.869-.983,1.689-1.483,2.536a1.64,1.64,0,0,0,.194.063,17.25,17.25,0,0,1,6.272,2.821c.806.565,1.533,1.244,2.3,1.871v.5a3.205,3.205,0,0,1-.426.547,22.027,22.027,0,0,1-4.566,2.991,14.1,14.1,0,0,1-9.308,1.264c-1.125-.243-2.216-.645-3.359-.985-.011.02-.063.1-.1.183a20.6,20.6,0,0,1-2.629,4.063,5.971,5.971,0,0,1-.629.579h-.5a2.891,2.891,0,0,1-.5-.417c-.53-.691-1.069-1.379-1.545-2.107-.5-.759-.925-1.564-1.385-2.352-.007,0-.022-.008-.033,0-.2.083-.409.169-.614.252a14.017,14.017,0,0,1-7.931.86,16.992,16.992,0,0,1-6.784-2.967c-.782-.554-1.489-1.212-2.23-1.823v-.582a3.412,3.412,0,0,1,.373-.428,20.53,20.53,0,0,1,5.945-3.578c.809-.3,1.645-.528,2.489-.8-.036-.053-.071-.111-.111-.164a15.61,15.61,0,0,1-2.26-4.32,22.994,22.994,0,0,1-1.106-5.308.886.886,0,0,1,.953-1.074,20.3,20.3,0,0,1,7.34,1.926c.822.412,1.6.911,2.406,1.374.073-.453.135-.919.225-1.38a18.954,18.954,0,0,1,4.008-8.282A8.078,8.078,0,0,1,1986.022,1079Zm.246,2.356c-5.167,6.6-4.253,13.985.026,19.19C1991.03,1094.467,1990.952,1087.33,1986.268,1081.356Zm-14.057,6.626a15.781,15.781,0,0,0,3.182,8.106c2.27,2.786,5.334,4.114,8.857,4.774-.113-.177-.183-.288-.255-.4a17.624,17.624,0,0,1-2.992-8.388.973.973,0,0,0-.325-.58A15.673,15.673,0,0,0,1972.211,1087.983Zm16.182,12.841a13.743,13.743,0,0,0,9.047-5.105,16.186,16.186,0,0,0,2.89-7.752c-.67.124-1.271.217-1.863.349a14.376,14.376,0,0,0-6.613,3.192,1.034,1.034,0,0,0-.321.624,15.87,15.87,0,0,1-1.513,5.659C1989.526,1098.821,1988.941,1099.808,1988.393,1100.823Zm-21.082,1.235c2.954,2.221,6.127,3.729,9.9,3.519a14.773,14.773,0,0,0,7.538-2.825l-.829-.153a16.049,16.049,0,0,1-7.6-3.2,2.585,2.585,0,0,0-2.578-.559A18.013,18.013,0,0,0,1967.311,1102.058Zm20.584.7c5.058,3.714,11.3,4.082,17.313-.717a16.112,16.112,0,0,0-7.682-3.409.679.679,0,0,0-.477.148,16.028,16.028,0,0,1-6.888,3.488C1989.415,1102.45,1988.658,1102.592,1987.895,1102.756Zm.484,2.494c-.71-.469-1.328-.884-1.956-1.284a.325.325,0,0,0-.287-.011c-.639.407-1.268.83-1.918,1.259a17.614,17.614,0,0,0,2.1,3.42Z" transform="translate(-1965 -1079)" fill="#fff"/>
    </g>
  </g>
</svg>
