<svg id="Group_143301" data-name="Group 143301" xmlns="http://www.w3.org/2000/svg" width="38.883" height="57.648" viewBox="0 0 38.883 57.648">
  <g id="Group_143299" data-name="Group 143299">
    <path id="location-pin" d="M22.441,0A19.534,19.534,0,0,0,3,19.582C3,34.925,20.614,50.768,21.364,51.433a1.624,1.624,0,0,0,2.156,0c.75-.667,18.364-16.51,18.364-31.854A19.534,19.534,0,0,0,22.441,0Zm0,30.242a10.8,10.8,0,1,1,10.8-10.8A10.813,10.813,0,0,1,22.441,30.242Z" transform="translate(-3)" fill="#3e5869"/>
    <ellipse id="Ellipse_1005" data-name="Ellipse 1005" cx="17" cy="16.5" rx="17" ry="16.5" transform="translate(2.802 2.648)" fill="#fff"/>
  </g>
  <ellipse id="Ellipse_261" data-name="Ellipse 261" cx="3" cy="1" rx="3" ry="1" transform="translate(16 55.648)" opacity="0.2"/>
  <g id="Group_143300" data-name="Group 143300" transform="translate(10 5.742)">
    <path id="Path_900" data-name="Path 900" d="M332.677,94.564A9.789,9.789,0,1,0,321.7,108.993v7.759h3.7a4.157,4.157,0,0,0,3.238-1.424,4.25,4.25,0,0,0,1.076-2.885,4.1,4.1,0,0,0-1.246-2.963,4.046,4.046,0,0,0-1.32-.914,2.389,2.389,0,0,0,.332-.3,2.571,2.571,0,0,0,.784-1.892,2.663,2.663,0,0,0-2.676-2.676H321.7v4.531a9.031,9.031,0,1,1,9.911-3.364l.583.421a9.813,9.813,0,0,0,.484-10.727Zm-3.651,17.929a3.518,3.518,0,0,1-2,3.171l.038-.035a3.773,3.773,0,0,0,0-5.32A6.2,6.2,0,0,0,325.087,109c-.02-.008-.038-.019-.058-.027h.476A3.521,3.521,0,0,1,329.026,112.493Zm-6.589-6.218a1.848,1.848,0,0,1,1.843-1.843h1.4a1.848,1.848,0,0,1,1.842,1.843v.116a1.848,1.848,0,0,1-1.842,1.843h-1.4a1.848,1.848,0,0,1-1.843-1.843Zm0,7.943v-5.245a7.159,7.159,0,0,1,1.573.337,5.813,5.813,0,0,1,.892.353,5.6,5.6,0,0,1,1.663,1.142,3.079,3.079,0,0,1-1.281,5.11,2.232,2.232,0,0,1-.28.06,3.451,3.451,0,0,1-.54.04h-.334a1.694,1.694,0,0,1-1.694-1.694Z" transform="translate(-314.462 -89.76)" fill="#3e5869"/>
  </g>
</svg>
