<svg xmlns="http://www.w3.org/2000/svg" width="24" height="24" viewBox="0 0 24 24">
  <g id="Group_145871" data-name="Group 145871" transform="translate(0.303)">
    <circle id="Ellipse_1" data-name="Ellipse 1" cx="12" cy="12" r="12" transform="translate(-0.303)" fill="#fff"/>
    <g id="noun_edit_3846483" transform="translate(7.199 7.043)">
      <g id="Group_12" data-name="Group 12" transform="translate(0 0)">
        <path id="Path_4" data-name="Path 4" d="M11.85,4.643a1.393,1.393,0,0,0-.411-.992l-.719-.719a1.4,1.4,0,0,0-1.983,0l-.686.685h0l-4.5,4.5a.343.343,0,0,0-.078.126s0,0,0,.008l-.91,2.684a.692.692,0,0,0,.654.915.7.7,0,0,0,.224-.037l2.684-.91s.005,0,.008,0a.343.343,0,0,0,.126-.078l4.5-4.5h0l.686-.686A1.393,1.393,0,0,0,11.85,4.643ZM6.01,10.086,5.393,9.47,9.4,5.459l.617.617ZM4.9,8.979l-.616-.616L8.3,4.353l.617.619ZM3.215,11.157,3.946,9l.714.711h0l.712.713ZM10.95,5.145l-.442.443L8.785,3.864l.443-.442a.711.711,0,0,1,1,0l.719.719A.712.712,0,0,1,10.95,5.145Z" transform="translate(-2.523 -2.523)" fill="#3e5869"/>
      </g>
    </g>
  </g>
</svg>
