<svg xmlns="http://www.w3.org/2000/svg" width="37" height="37" viewBox="0 0 37 37">
  <g id="Group_145911" data-name="Group 145911" transform="translate(-441 -206)">
    <path id="Path_167322" data-name="Path 167322" d="M18.5,0A18.5,18.5,0,1,1,0,18.5,18.5,18.5,0,0,1,18.5,0Z" transform="translate(441 206)"/>
    <g id="RgTp0J.tif" transform="translate(450.47 214.286)">
      <g id="Group_145910" data-name="Group 145910" transform="translate(0 0)">
        <path id="Path_159387" data-name="Path 159387" d="M722.726,223.325c-.273-.066-.554-.111-.818-.2a4.054,4.054,0,0,1-2.724-2.884c-.049-.173-.119-.2-.273-.2q-1.973.008-3.945,0a.837.837,0,0,1-.841-.726.826.826,0,0,1,.542-.893,1.406,1.406,0,0,1,.4-.06c.227-.009.455,0,.738,0,0-.334-.01-.649,0-.964a26.676,26.676,0,0,1,.736-5.639,11.442,11.442,0,0,1,1.813-4.089,5.6,5.6,0,0,1,3.63-2.336,5.839,5.839,0,0,1,6.213,2.625,11.9,11.9,0,0,1,1.65,3.968,23.744,23.744,0,0,1,.611,4.07c.052.779.092,1.559.139,2.365h.535c.671,0,.852.117,1.107.715v.243c-.239.6-.424.726-1.094.726-1.246,0-2.492,0-3.738,0-.146,0-.2.04-.241.188a4.037,4.037,0,0,1-2.5,2.813,9.276,9.276,0,0,1-1.043.284Zm-5.257-4.979h11.414c0-.079,0-.145,0-.211-.04-.767-.068-1.535-.124-2.3a20.537,20.537,0,0,0-.653-3.937,9.686,9.686,0,0,0-1.413-3.15,4.257,4.257,0,0,0-5.249-1.493,4.7,4.7,0,0,0-2.181,2.089,12.155,12.155,0,0,0-1.314,3.775,28.746,28.746,0,0,0-.479,4.334C717.458,217.745,717.469,218.04,717.469,218.346Zm3.428,1.7a2.415,2.415,0,0,0,2.354,1.595,2.368,2.368,0,0,0,2.183-1.595Z" transform="translate(-714.115 -202.574)" fill="#d6d6d6"/>
        <path id="Path_159388" data-name="Path 159388" d="M717.923,148.134a.827.827,0,0,1-.9-1.037,10.893,10.893,0,0,1,4.576-6.111,6.352,6.352,0,0,1,.7-.356.828.828,0,0,1,1.092.408.809.809,0,0,1-.366,1.091,8.382,8.382,0,0,0-4.035,4.528c-.14.313-.257.636-.39.952A.788.788,0,0,1,717.923,148.134Z" transform="translate(-716.865 -140.531)" fill="#d6d6d6"/>
        <path id="Path_159389" data-name="Path 159389" d="M998.612,139.908a4,4,0,0,1,.415.14,8.87,8.87,0,0,1,3.767,3.443,14.613,14.613,0,0,1,1.388,2.867.837.837,0,1,1-1.567.588,13.584,13.584,0,0,0-1.272-2.609,7.307,7.307,0,0,0-3.084-2.8.824.824,0,0,1-.471-.971A.892.892,0,0,1,998.612,139.908Z" transform="translate(-986.257 -139.908)" fill="#d6d6d6"/>
      </g>
    </g>
  </g>
</svg>
