<svg xmlns="http://www.w3.org/2000/svg" width="30.533" height="21" viewBox="0 0 30.533 21">
  <g id="Group_143006" data-name="Group 143006" transform="translate(-2637.835 849.191)">
    <path id="Path_20930" data-name="Path 20930" d="M1034.4,481.238c.129,0,.258-.011.387-.011q12.04,0,24.079-.009a3.05,3.05,0,0,1,3.019,2.352c.013.058.009.12.063.161V489.7L1058,488.5a8.171,8.171,0,0,1-.129-1.446c0-.039-.007-.109.007-.114.343-.12.07-.3.036-.444a2.949,2.949,0,0,0-.187-.467c-.049-.113-.058-.3-.192-.3-.155,0-.2.193-.268.324a.444.444,0,0,0,0,.261c.076.669.144,1.338.214,2.007l-1.268-.359,0-.025c0-.11.042-.225-.038-.326,0-.194-.113-.466.022-.561.172-.122.091-.215.068-.318a4.238,4.238,0,0,0-.181-.624c-.057-.147-.054-.415-.238-.393s-.23.289-.3.468a.451.451,0,0,0,.005.175q.038.621.076,1.242c-.013.094-.061.15-.158.108a.914.914,0,0,0-.316-.043c-.011-.138-.027-.277-.031-.415,0-.1-.069-.254.01-.279.244-.078.106-.218.073-.327a4.438,4.438,0,0,0-.222-.582c-.057-.122-.071-.352-.24-.31s-.2.257-.214.427a.963.963,0,0,0,.048.26,1.632,1.632,0,0,1,.021.675c-.1-.19-.322-.342-.251-.426.153-.179.01-.229-.066-.3-.175-.176-.363-.339-.545-.507-.044-.041-.087-.089-.154-.062s-.048.1-.055.155a1.418,1.418,0,0,0,.381,1.2c-.144.057-.27-.022-.4-.055a9.9,9.9,0,0,0-1.221-.344,2.433,2.433,0,0,1-.2-.46c-.073-.154-.05-.431-.241-.431-.158,0-.214.256-.286.418-.091.3-.31.074-.465.114a.473.473,0,0,1-.035-.079c-.041-.165-.035-.4-.211-.44-.14-.033-.2.2-.326.295-.214-.033-.409-.185-.641-.107l.005-.007-.045-.075c-.106-.1-.152-.376-.372-.12-1.314-.409-2.626-.821-3.941-1.225q-3.647-1.12-7.3-2.233-1.859-.568-3.72-1.129Zm22.485,6.454a1.492,1.492,0,0,0-.018-1.19c-.03-.073-.044-.236-.181-.167a.214.214,0,0,0-.1.283A3.938,3.938,0,0,1,1056.883,487.692Z" transform="translate(1606.422 -1330.41)" fill="#1c6943"/>
    <path id="Path_20931" data-name="Path 20931" d="M1232.054,547.536a9.913,9.913,0,0,1,1.221.344c.132.033.258.112.4.055l-.008.007.066.068a2.409,2.409,0,0,1,.8,1.619c.008.861.116,1.723.126,2.587,0,.253-.048.518-.335.606-.262.08-.418-.11-.565-.293-.392-.489-.493-.479-.805.07-.025.043-.046.088-.07.132-.182.341-.363.683-.549,1.022-.057.1-.128.22-.263.211-.12-.008-.174-.12-.22-.221a1.787,1.787,0,0,1-.171-.688,2.387,2.387,0,0,0-.084-.751,6.293,6.293,0,0,0-.215,1.019,1.027,1.027,0,0,0,.51,1.086c.271.178.377.17.558-.1a12,12,0,0,0,.631-1.18c.18-.352.2-.351.472-.066a.953.953,0,0,0,.93.341.849.849,0,0,0,.624-.757,4.929,4.929,0,0,0,.007-1.276q-.049-.855-.1-1.71a2.776,2.776,0,0,1,.918,1.706,10.969,10.969,0,0,0,.1,1.381,3.134,3.134,0,0,0,.185-1.509,13.685,13.685,0,0,1,1.05,1.519,1.418,1.418,0,0,0-.216-1.011c-.287-.428-.566-.863-.849-1.295a.584.584,0,0,1-.118-.268c-.045-.484-.119-.965-.118-1.453l1.268.359c.019.107.044.213.055.32.069.69.12,1.383.207,2.071a2.482,2.482,0,0,1-1.107,2.574,2.189,2.189,0,0,0-.563.471,2,2,0,0,0,1.464-.646,2.821,2.821,0,0,0,.608-1.852,26.289,26.289,0,0,0-.142-2.76l3.948,1.2V560L1235.15,560c-.011-.148-.13-.207-.227-.289-.486-.408-.984-.8-1.438-1.246l.773,0a.329.329,0,0,0,.529.093,1.117,1.117,0,0,0,.111-1.1c-.113-.274-.351-.32-.613-.317-.575.006-1.149,0-1.724.052-.347.03-.348.012-.235-.327.062-.184-.079-.294-.166-.418-.038-.054-.112-.028-.157.018a.341.341,0,0,0-.111.4c.02.044.066.079.079.124.02.069.068.152-.037.2-.757-.654-1.52-1.3-2.269-1.968-.174-.154-.442-.233-.475-.52a2.054,2.054,0,0,0,1.8-1.7,11.242,11.242,0,0,0,.017-2.524c-.047-.812-.189-1.617-.2-2.432,0-.075-.045-.205.024-.218.277-.05.12-.208.1-.333-.015-.107-.087-.2-.063-.318.155-.039.374.187.465-.114a4.836,4.836,0,0,0,.133,1c.144,1.032.288,2.065.4,3.1a6.438,6.438,0,0,1,.1,2.276c0,.014.034.039.066.074a2.048,2.048,0,0,0,.314-1.347c-.076-.66-.178-1.318-.259-1.978-.092-.755-.172-1.511-.258-2.268.131,0,.245.134.325.054.1-.1-.031-.216-.06-.326C1232.077,547.61,1232.065,547.573,1232.054,547.536Zm1.315,1.938-.056.013c-.084-.163-.164-.328-.254-.487-.047-.085-.108-.195-.227-.128s-.085.212-.073.325c.016.146.1.1.192.055.11-.055.13.058.166.116.077.126.139.262.211.391.027.049.053.122.127.1a.143.143,0,0,0,.079-.147c0-.188-.02-.377-.005-.563.009-.12-.06-.345.222-.242.079.029.108-.054.073-.108-.055-.085-.071-.237-.2-.223a.272.272,0,0,0-.217.255C1233.379,549.04,1233.38,549.257,1233.369,549.473Zm-.447,1.691,1.012-.638a1.354,1.354,0,0,0,.15-.1.235.235,0,0,0,.014-.345c-.081-.1-.149.043-.209.089q-.389.3-.763.617A.406.406,0,0,0,1232.922,551.165Zm2.271,3.162a.75.75,0,0,0,.486-.585.256.256,0,0,0-.115-.283.286.286,0,0,0-.308-.011.173.173,0,0,0-.112.159.127.127,0,0,0,.139.124c.245-.015.168.131.119.244A3.33,3.33,0,0,1,1235.193,554.327Z" transform="translate(1426.655 -1391.176)" fill="#227e4a"/>
    <path id="Path_20932" data-name="Path 20932" d="M1019.74,714.737l6.563.006v.477a3.751,3.751,0,0,1-.779,1.538,2.825,2.825,0,0,1-2.093.962q-12.337.011-24.674,0a2.965,2.965,0,0,1-2.977-2.983h14.454Z" transform="translate(1642.064 -1545.917)" fill="#1c6943"/>
    <path id="Path_20933" data-name="Path 20933" d="M1019.659,499.462l-9.507,0H995.7a.191.191,0,0,1,0-.029c0-5.042-.014-10.083.007-15.125a2.95,2.95,0,0,1,2.973-2.842l.114.051c0,.066.049.1.1.139.324.274.644.553.966.831.74.639,1.478,1.28,2.222,1.915s1.514,1.3,2.286,1.929a5.482,5.482,0,0,0,.987.788.388.388,0,0,1,0,.057c-.332.381-.782.631-1.126,1a2.328,2.328,0,0,0,1.325-.8l.1-.039a2.259,2.259,0,0,0,.74.672,3.716,3.716,0,0,0,.427.7c.135.192.268.251.448.068l.364.3a1.133,1.133,0,0,0-.089,1.173c.193.486.312,1,.468,1.5a.367.367,0,0,1-.006.313,3.283,3.283,0,0,1-1.315,1.38,1.058,1.058,0,0,1-.632.125.327.327,0,0,1-.292-.258c-.047-.159.045-.236.163-.308a3.891,3.891,0,0,0,.716-.581,1.929,1.929,0,0,0,.573-1.052c.079-.45-.251-.839-.136-1.308.046-.187-.209-.409-.389-.571a.124.124,0,0,0-.134-.039c-.162.058-.319.566-.193.682a2.284,2.284,0,0,1,.44.761.555.555,0,0,1-.039.6,4.137,4.137,0,0,1-.933.829c-.038-.236.064-.441-.049-.676a2.331,2.331,0,0,0-.351.816.648.648,0,0,1-.323.429c-.522.327-1.051.638-1.6.913-.079.04-.193.054-.23.229a14.339,14.339,0,0,0,2.064-.69c.214.795.709,1.044,1.4.718a2.225,2.225,0,0,0,.691-.511c.28-.3.55-.62.839-.949a2.417,2.417,0,0,0,2.139,1.493c.275.041.37-.093.429-.324s-.09-.289-.264-.336a.9.9,0,0,1-.219-.089c-.163-.1-.344-.192-.337-.415s.19-.293.354-.361c.293-.12.593-.222.891-.332l.122.012a5.117,5.117,0,0,0,.435.429c.252.25.612.394.759.75-.193.074-.385.151-.58.222s-.275.015-.224-.207c.026-.115.139-.277.014-.352-.145-.087-.267.072-.382.159-.043.033-.109.051-.114.149.261-.089.321.019.265.256s.081.309.286.265a1.239,1.239,0,0,0,.781-.481,1.793,1.793,0,0,1,.731.6c-.021.05-.071.111.036.118s.213,0,.319.007c.033.287.3.366.475.52.749.664,1.511,1.313,2.268,1.968-.069,0-.138.012-.207.012l-7.432.009h-7.1c.038.137.159.207.272.284a2.439,2.439,0,0,0,1.059.36,18.111,18.111,0,0,0,2.676.1c3.465-.027,6.931-.036,10.395-.148.417-.013.417-.01.277.376a.275.275,0,0,0-.028.084.467.467,0,0,0,.172.332.094.094,0,0,0,.154-.005.617.617,0,0,1,.756-.114.652.652,0,0,0,.552-.02c.454.444.952.839,1.438,1.246C1019.529,499.254,1019.648,499.314,1019.659,499.462Zm-16.285-8.686c0,.361.011.718,0,1.073a1.172,1.172,0,0,1-.43.854,2.967,2.967,0,0,1-1.63.733,1.015,1.015,0,0,1-1.263-1.034,4.08,4.08,0,0,1,.009-.8.393.393,0,0,0-.056-.332,3.027,3.027,0,0,0-.168,1.876.993.993,0,0,0,1.125.911,3.519,3.519,0,0,0,1.759-.477,1.865,1.865,0,0,0,1.039-1.773c0-.367-.015-.735-.022-1.1,0-.056-.03-.128.029-.164.076-.047.093.041.133.076a.581.581,0,0,0,.828-.018c.134-.134.2-.141.35-.02.33.266.626.144.712-.262a.794.794,0,0,0,.011-.412c-.036-.112.054-.337-.163-.307-.2.027-.165.2-.106.353a.238.238,0,0,1,0,.089c0,.133-.012.277-.176.3-.142.02-.193-.1-.251-.213-.071-.132-.014-.3-.133-.427a3.044,3.044,0,0,1-.3.546c-.1.109-.207.235-.376.178s-.178-.22-.2-.369c-.014-.114.059-.279-.049-.332-.134-.066-.207.112-.309.177a.3.3,0,0,1-.084.014q-.083-1.086-.165-2.167c0-.061-.036-.144.085-.146.2,0,.195-.157.156-.277-.116-.358-.251-.709-.383-1.062-.036-.1-.107-.161-.2-.063-.133.141-.282.269-.252.508.085.689.15,1.381.223,2.072.043.4.077.811.137,1.213.03.2-.094.257-.226.327-.154.082-.148-.08-.208-.136-.131-.121-.249-.257-.387-.37-.236-.193-.371-.166-.587.058a1.134,1.134,0,0,0-.259.913.406.406,0,0,0,.524.424,3.989,3.989,0,0,0,.454-.138c.14-.046.177.011.163.144a.5.5,0,0,1-.139.289,3.29,3.29,0,0,1-.845.7c-.69.382-1.17.127-1.229-.661-.016-.209,0-.419,0-.688a1.8,1.8,0,0,0-.006,1.753.772.772,0,0,0,.711.357,2.11,2.11,0,0,0,1.9-1.914C1003.135,490.884,1003.178,490.783,1003.374,490.775Zm-2.314-2.226c-.044-.47-.084-.885-.12-1.3-.009-.1-.046-.234,0-.29.269-.315.031-.554-.1-.8-.05-.095-.094-.273-.239-.207a.336.336,0,0,0-.168.405,8.084,8.084,0,0,1,.262,1.994c0,.091.068.225-.046.266s-.226-.066-.288-.165a1.3,1.3,0,0,1-.158-1.056,1.7,1.7,0,0,0,.1-.522c-.007-.115-.037-.221-.162-.258a.221.221,0,0,0-.249.122,2.292,2.292,0,0,0-.452,1.117,3.985,3.985,0,0,1-.092.587c-.023.1-.048.237-.178.248s-.17-.113-.215-.214a1.24,1.24,0,0,1-.115-.367c-.039-.372-.083-.744-.131-1.163a2.871,2.871,0,0,0,.216,2.168c.191.251.364.245.526-.025a2.078,2.078,0,0,0,.236-.791,2.319,2.319,0,0,1,.239-.855,1.914,1.914,0,0,1,.014.742.989.989,0,0,0,.771,1.2c.113.034.1.1.11.174.04.375.08.75.118,1.125.03.3.057.594.091.946a.776.776,0,0,0,.188-.579,12.545,12.545,0,0,0-.085-1.307,1.068,1.068,0,0,1,.38-1.068c.052.021.062.07.081.116a.562.562,0,0,0,.979.261.778.778,0,0,0,.3-.791c-.042-.254-.108-.5-.168-.753-.016-.067-.077-.159-.022-.195.3-.2.057-.358-.03-.518-.057-.1-.13-.276-.275-.212a.42.42,0,0,0-.254.4.8.8,0,0,0,.065.257,5.973,5.973,0,0,1,.276.971c.026.12.084.262-.06.351a.383.383,0,0,1-.421-.04.722.722,0,0,1-.261-.454,2.677,2.677,0,0,1-.07-.944.728.728,0,0,0-.347-.662,1.452,1.452,0,0,0-.068.141,2.137,2.137,0,0,0,.137,1.222A.654.654,0,0,1,1001.06,488.549Zm-1.857,3.4a2.882,2.882,0,0,0-.3,1.629.327.327,0,0,0,.637.113.678.678,0,0,0,.08-.373c0-.05-.006-.1-.059-.125s-.088.021-.121.058c-.062.071-.11.192-.232.124a.32.32,0,0,1-.128-.285,1.38,1.38,0,0,1,.084-.583A.963.963,0,0,0,999.2,491.947Zm-.256-1.122a15.968,15.968,0,0,1,1.492-.688c.1-.036.1-.15.068-.236-.047-.142-.152-.054-.222-.031A2.723,2.723,0,0,0,998.946,490.825Zm2.526-4.864a.377.377,0,0,0,.007.485.247.247,0,0,0,.367.039.122.122,0,0,1,.13-.017c.271.1.334.035.284-.282-.092.029-.1.2-.224.148-.107-.045-.064-.185-.114-.265-.146.061-.135.29-.283.254C1001.507,486.291,1001.576,486.1,1001.472,485.961Zm3.995,1.985a1.045,1.045,0,0,0-.314.4.435.435,0,0,0,.012.476.263.263,0,0,0,.349.067.428.428,0,0,0,.3-.444c-.073.066-.122.114-.173.158-.08.069-.159.178-.279.1s-.083-.212-.049-.324C1005.347,488.251,1005.458,488.15,1005.467,487.945Zm-.655,4.28a1.047,1.047,0,0,0,.165-.86c-.02-.1-.067-.193-.188-.2s-.154.077-.181.164c-.034.11.007.219.114.233.188.025.158.141.134.255A1.026,1.026,0,0,0,1004.812,492.225Zm-5.228-5.649a.5.5,0,0,0,.039-.534.12.12,0,0,0-.165-.077.289.289,0,0,0-.2.229c0,.035.019.094.064.076C999.676,486.125,999.529,486.436,999.585,486.576Z" transform="translate(1642.145 -1330.642)" fill="#258a54"/>
    <path id="Path_20934" data-name="Path 20934" d="M1050.433,494.655a1.794,1.794,0,0,0-.731-.6.06.06,0,0,1-.045-.011c-.147-.356-.506-.5-.759-.75a5.144,5.144,0,0,1-.435-.429,3.266,3.266,0,0,1,.83-.208.531.531,0,0,0,.47-.462c.037-.147.033-.246-.172-.237-.773.033-1.548.054-2.322.079l-.432-.035.312-.16c.434-.161.874-.309,1.3-.487.337-.14.661-.335.666-.756s-.342-.577-.649-.736a.608.608,0,0,0-.725-.008.86.86,0,0,0-.282.907c.071.168.008.2-.122.244-.234.08-.465.17-.7.256-.339-.076-.518-.376-.781-.558-.318-.221-.542-.568-.926-.7l0,0-.041-.07c-.075-.072-.061-.213-.189-.243l-.364-.3a12.994,12.994,0,0,1,.567-1.282c.034.281.021.554.038.826a.845.845,0,0,0,.424.772.833.833,0,0,0,.863-.157,2.01,2.01,0,0,0,.488-.511c.048.044.078.069.1.1.223.238.468.477.821.364.377-.12.441-.476.485-.819a1.5,1.5,0,0,0-.009-.206,3.849,3.849,0,0,0-.21-1.066c.14-.019.215.181.314.073s-.009-.219-.052-.327a1.461,1.461,0,0,0-.327-.492c-.061-.062-.146-.112-.2-.019-.114.2-.321.366-.181.665a3.265,3.265,0,0,1,.322,1.29c.005.185-.014.4-.255.448-.218.041-.319-.128-.4-.292a2.309,2.309,0,0,1-.228-.978,4,4,0,0,0-.225-1.193c-.027-.081-.075-.247-.181-.1a.638.638,0,0,0-.168.572,3.922,3.922,0,0,1,.163,1.293.856.856,0,0,1-.476.74c-.409.221-.713.046-.728-.418a6.767,6.767,0,0,1,.076-1.277c.023-.144.032-.306-.124-.359s-.209.115-.287.211a1.319,1.319,0,0,0-.076.128,9,9,0,0,0-.636,1.342c-.037.085-.058.206-.185.207a.3.3,0,0,1-.253-.182,1.278,1.278,0,0,1-.178-.591c-.014-.308.007-.615.014-.924a1.9,1.9,0,0,0-.178,1.4,2.259,2.259,0,0,1-.74-.672c.036-.172.3-.193.3-.273-.01-.267.182-.483.141-.749a.348.348,0,0,0-.237-.311.305.305,0,0,0-.339.134.621.621,0,0,0-.105.74c.076.124.028.173-.05.24a5.475,5.475,0,0,1-.987-.788c-.772-.631-1.528-1.281-2.286-1.929s-1.481-1.276-2.222-1.915c-.322-.277-.642-.557-.966-.831-.047-.04-.093-.073-.1-.139q1.86.565,3.72,1.129,3.649,1.114,7.3,2.233c1.315.4,2.627.816,3.941,1.225-.014.094-.126.209-.035.276.314.231.307.562.284.973a1.088,1.088,0,0,0,.162-1.045c.233-.078.427.074.641.107-.106.207,0,.406.024.609.187,1.563.316,3.131.4,4.7a1.724,1.724,0,0,1-.405,1.325A2.882,2.882,0,0,1,1050.433,494.655Zm-1.267-7.029c.193.005.364-.037.187-.226-.271-.289-.567-.554-.86-.822-.085-.078-.24-.071-.222.052.037.256-.024.594.159.754a10.2,10.2,0,0,1,.838,1.034,2.335,2.335,0,0,1,.668,1.571c0,.128.035.256.046.384a12.948,12.948,0,0,1,.156,3.289c-.009.055-.042.133.06.182.609-1.269.114-2.565.134-3.893a22.488,22.488,0,0,1,1.662,2.936.671.671,0,0,0-.052-.443,11.392,11.392,0,0,0-1.553-2.934,2.319,2.319,0,0,1-.217-1.233c0-.026.012-.077.024-.079.322-.045.141-.247.105-.378a4.714,4.714,0,0,0-.252-.7c-.059-.129-.045-.371-.264-.332-.2.035-.181.261-.226.417a.313.313,0,0,0,.018.172,5.082,5.082,0,0,1,.09.955Zm-3,2.5a.508.508,0,0,0,.043.516c.055.092.171.167.24.07.111-.158.217-.152.381-.11.109.028.2-.07.22-.194a.479.479,0,0,0-.124-.459c-.122.142-.011.328-.12.453-.171-.052-.115-.277-.27-.327-.106.106-.025.334-.158.357S1046.258,490.239,1046.161,490.129Zm5.391-1.8c-.128.083-.079.27-.2.326-.124-.023-.054-.182-.193-.2-.006.3-.108.283-.26.027a.372.372,0,0,0,.067.412c.179-.135.4.054.554-.047C1051.7,488.731,1051.6,488.521,1051.552,488.332Zm-5.684-.357a1.5,1.5,0,0,0-.048-1.133c-.027-.054-.049-.153-.144-.106a.141.141,0,0,0-.07.22A1.947,1.947,0,0,1,1045.868,487.975Z" transform="translate(1605.056 -1331.25)" fill="#227e4a"/>
    <path id="Path_20935" data-name="Path 20935" d="M1262.106,541.736c0,.488.073.969.118,1.453a.584.584,0,0,0,.118.268c.282.432.561.866.848,1.294a1.418,1.418,0,0,1,.216,1.011,13.662,13.662,0,0,0-1.05-1.519,3.134,3.134,0,0,1-.185,1.509,10.969,10.969,0,0,1-.1-1.381,2.775,2.775,0,0,0-.918-1.706q.049.855.1,1.71a4.928,4.928,0,0,1-.007,1.276.849.849,0,0,1-.624.757.952.952,0,0,1-.93-.341c-.268-.285-.292-.286-.472.066a11.97,11.97,0,0,1-.632,1.18c-.181.273-.286.282-.558.1a1.028,1.028,0,0,1-.51-1.086,6.294,6.294,0,0,1,.215-1.019,2.394,2.394,0,0,1,.084.751,1.789,1.789,0,0,0,.171.688c.046.1.1.213.22.221.135.009.206-.106.263-.211.186-.339.366-.681.549-1.022.023-.044.045-.088.07-.131.313-.549.414-.559.805-.07.147.184.3.373.565.293.287-.087.338-.352.335-.606-.01-.864-.118-1.726-.126-2.587a2.409,2.409,0,0,0-.8-1.619l-.066-.068.008-.007a1.419,1.419,0,0,1-.381-1.2c.007-.056-.016-.126.055-.155s.11.022.154.063c.182.169.37.331.545.507.075.076.219.126.066.3-.072.083.152.236.251.426a1.632,1.632,0,0,0-.021-.675.972.972,0,0,1-.048-.26c.013-.17.055-.387.214-.427s.183.188.24.31a4.459,4.459,0,0,1,.222.582c.033.108.171.249-.074.327-.078.025-.013.183-.01.279,0,.139.02.277.031.415-.023.505.4.747.667,1.093l-.193-1.158q-.038-.621-.076-1.242a.452.452,0,0,1-.005-.175c.07-.179.107-.445.3-.468s.181.246.238.393a4.24,4.24,0,0,1,.181.624c.023.1.1.2-.068.318-.135.1-.027.368-.022.561a.512.512,0,0,0,.038.326Z" transform="translate(1400.524 -1384.184)" fill="#bedddc"/>
    <path id="Path_20936" data-name="Path 20936" d="M1317.272,542.46a26.357,26.357,0,0,1,.142,2.76,2.822,2.822,0,0,1-.608,1.852,2,2,0,0,1-1.465.646,2.188,2.188,0,0,1,.563-.471,2.482,2.482,0,0,0,1.107-2.574c-.087-.688-.137-1.381-.207-2.071-.011-.107-.036-.214-.055-.32-.071-.669-.139-1.339-.214-2.007a.443.443,0,0,1,0-.261c.065-.131.113-.32.268-.324.135,0,.144.187.193.3a2.969,2.969,0,0,1,.187.467c.034.142.307.324-.036.444-.014,0-.008.075-.007.114A8.2,8.2,0,0,0,1317.272,542.46Z" transform="translate(1347.147 -1384.371)" fill="#bedddc"/>
    <path id="Path_20937" data-name="Path 20937" d="M1224.219,549.686a2.882,2.882,0,0,0,1.478-.992,1.724,1.724,0,0,0,.405-1.325c-.087-1.572-.216-3.14-.4-4.7-.024-.2-.13-.4-.024-.609.123-.09.186-.328.326-.295.176.041.17.275.211.44a.475.475,0,0,0,.036.079c-.024.115.048.211.063.318.018.125.174.283-.1.333-.069.013-.026.143-.024.218.016.815.158,1.62.205,2.432a11.264,11.264,0,0,1-.017,2.524,2.055,2.055,0,0,1-1.8,1.7c-.106,0-.213,0-.319-.007S1224.2,549.735,1224.219,549.686Z" transform="translate(1431.27 -1386.281)" fill="#bedddc"/>
    <path id="Path_20938" data-name="Path 20938" d="M1257.579,542.534c.011.037.023.075.033.112.029.11.158.228.06.326-.079.079-.194-.055-.325-.054.086.757.166,1.513.258,2.268.08.66.182,1.317.259,1.978a2.047,2.047,0,0,1-.314,1.347c-.033-.035-.07-.06-.066-.074a6.438,6.438,0,0,0-.1-2.276c-.115-1.036-.259-2.068-.4-3.1a4.836,4.836,0,0,1-.133-1c.072-.162.128-.418.286-.418.191,0,.167.277.24.431A2.435,2.435,0,0,0,1257.579,542.534Z" transform="translate(1401.13 -1386.174)" fill="#bedddc"/>
    <path id="Path_20939" data-name="Path 20939" d="M1303.967,563.933l.193,1.158c-.265-.346-.69-.588-.667-1.093a.912.912,0,0,1,.316.043C1303.906,564.083,1303.954,564.027,1303.967,563.933Z" transform="translate(1358.083 -1406.744)" fill="#227e4a"/>
    <path id="Path_20940" data-name="Path 20940" d="M1229.369,540.549a1.088,1.088,0,0,1-.162,1.045c.023-.411.03-.742-.284-.973-.09-.067.021-.182.035-.276.219-.256.266.024.372.12l.045.075Z" transform="translate(1426.933 -1384.88)" fill="#bedddc"/>
    <path id="Path_20941" data-name="Path 20941" d="M1322.083,548.7a3.93,3.93,0,0,0-.3-1.075.214.214,0,0,1,.1-.283c.137-.069.15.094.181.167A1.491,1.491,0,0,1,1322.083,548.7Z" transform="translate(1341.223 -1391.422)" fill="#bedddc"/>
    <path id="Path_20942" data-name="Path 20942" d="M1316.673,564.421a.513.513,0,0,1-.038-.327C1316.716,564.2,1316.672,564.31,1316.673,564.421Z" transform="translate(1345.961 -1406.893)" fill="#227e4a"/>
    <path id="Path_20943" data-name="Path 20943" d="M1234.664,543.234l-.045-.075Z" transform="translate(1421.644 -1387.573)" fill="#227e4a"/>
    <path id="Path_20944" data-name="Path 20944" d="M1089.987,679.915a.652.652,0,0,1-.552.02.617.617,0,0,0-.756.114.094.094,0,0,1-.154.005.467.467,0,0,1-.173-.332.278.278,0,0,1,.028-.084c.14-.385.14-.389-.277-.376-3.464.113-6.93.121-10.395.148a18.094,18.094,0,0,1-2.676-.1,2.437,2.437,0,0,1-1.059-.36c-.114-.077-.234-.148-.272-.284h5.374c.107.081.231.044.346.044,2.912,0,5.823.009,8.735,0a.929.929,0,0,1,.817.429c-.109.073-.32-.1-.355.144-.021.144.072.3.174.3a1.162,1.162,0,0,0,.77-.056.509.509,0,0,0,.495.323c.234.01.482-.084.7.064Z" transform="translate(1570.152 -1512.63)" fill="#f3faf6"/>
    <path id="Path_20945" data-name="Path 20945" d="M1153.273,669.633a.929.929,0,0,0-.817-.429c-2.911.013-5.823.007-8.735,0-.116,0-.24.037-.346-.044h1.723l7.432-.009c.069,0,.138-.008.207-.012.106-.049.058-.132.038-.2-.013-.045-.059-.08-.079-.124a.341.341,0,0,1,.111-.4c.044-.046.119-.073.157-.018.087.124.227.233.166.418-.113.339-.112.357.235.327.574-.05,1.149-.046,1.724-.052.262,0,.5.043.613.317a1.117,1.117,0,0,1-.111,1.1.329.329,0,0,1-.529-.093c-.222-.148-.469-.054-.7-.064a.509.509,0,0,1-.495-.323.091.091,0,0,1,0-.041c.114-.005.249-.071.306.1.156.159.351.058.528.077.234.025.311-.075.191-.293,0-.125-.05-.165-.177-.157-.38.023-.761.033-1.142.048A.569.569,0,0,1,1153.273,669.633Z" transform="translate(1505.851 -1503.126)" fill="#bedddc"/>
    <path id="Path_20946" data-name="Path 20946" d="M1275.89,567.5c.01-.216.01-.433.035-.648a.272.272,0,0,1,.217-.255c.131-.015.147.138.2.223.035.054.007.137-.073.108-.281-.1-.212.122-.221.242-.014.186,0,.375.005.563a.143.143,0,0,1-.079.147c-.074.026-.1-.048-.127-.1-.073-.129-.134-.265-.211-.391-.035-.058-.056-.17-.166-.116-.09.045-.176.091-.192-.055-.013-.112-.053-.253.073-.325s.179.044.227.128c.09.16.17.325.254.487Z" transform="translate(1384.134 -1409.205)" fill="#bedddc"/>
    <path id="Path_20947" data-name="Path 20947" d="M1277.564,586.921a.406.406,0,0,1,.2-.373q.373-.318.763-.617c.06-.046.128-.188.209-.089a.235.235,0,0,1-.014.346,1.374,1.374,0,0,1-.15.1Z" transform="translate(1382.013 -1426.932)" fill="#bedddc"/>
    <path id="Path_20948" data-name="Path 20948" d="M1306.434,630.246a3.287,3.287,0,0,0,.21-.351c.048-.113.126-.259-.119-.244a.126.126,0,0,1-.139-.125.172.172,0,0,1,.112-.159.285.285,0,0,1,.308.011.256.256,0,0,1,.115.283A.75.75,0,0,1,1306.434,630.246Z" transform="translate(1355.413 -1467.094)" fill="#bedddc"/>
    <path id="Path_20949" data-name="Path 20949" d="M1287.271,558.446l.066.068Z" transform="translate(1373.053 -1401.681)" fill="#1c6943"/>
    <path id="Path_20950" data-name="Path 20950" d="M1098.255,580.219c.129.03.115.171.19.243l.041.07,0,0c.085.21.169.421.256.631a10.035,10.035,0,0,1,.469,2.021,1.241,1.241,0,0,0,.842,1.118c.156.047.192.024.173-.134a.694.694,0,0,1,.289-.65,4.525,4.525,0,0,1,.454-.283,1.048,1.048,0,0,0-.418-.214,6.156,6.156,0,0,0-1-.093c-.205-.026-.238-.116-.207-.3a.867.867,0,0,1,.812-.739.806.806,0,0,1,.549.481l-.312.16.432.035a2.633,2.633,0,0,1,1.071.816c-.3.11-.6.211-.891.332-.163.067-.346.147-.354.361s.173.319.337.415a.906.906,0,0,0,.219.089c.174.047.326.094.264.336s-.154.365-.429.324a2.418,2.418,0,0,1-2.139-1.493c-.29.329-.559.644-.839.949a2.228,2.228,0,0,1-.691.511c-.691.325-1.187.076-1.4-.718a14.337,14.337,0,0,1-2.064.69c.037-.175.15-.189.23-.229.551-.275,1.08-.586,1.6-.913a.648.648,0,0,0,.323-.429,2.334,2.334,0,0,1,.351-.816c.113.235.012.441.049.676a4.134,4.134,0,0,0,.933-.829.555.555,0,0,0,.039-.6,2.287,2.287,0,0,0-.44-.761c-.126-.116.031-.624.193-.682a.124.124,0,0,1,.134.039c.179.162.434.384.389.57-.115.469.215.858.136,1.308a1.929,1.929,0,0,1-.573,1.052,3.894,3.894,0,0,1-.715.581c-.118.072-.211.149-.163.308a.327.327,0,0,0,.292.258,1.058,1.058,0,0,0,.632-.125,3.282,3.282,0,0,0,1.315-1.38.366.366,0,0,0,.006-.313c-.156-.5-.275-1.017-.468-1.5A1.134,1.134,0,0,1,1098.255,580.219Z" transform="translate(1551.508 -1421.774)" fill="#f3faf6"/>
    <path id="Path_20951" data-name="Path 20951" d="M1052.06,546.767c-.2.007-.239.109-.246.273a2.11,2.11,0,0,1-1.9,1.914.772.772,0,0,1-.711-.357,1.8,1.8,0,0,1,.006-1.753c0,.269-.013.48,0,.688.059.788.539,1.042,1.229.661a3.291,3.291,0,0,0,.845-.7.5.5,0,0,0,.139-.289c.014-.133-.023-.19-.163-.144a3.98,3.98,0,0,1-.454.138.406.406,0,0,1-.524-.424,1.134,1.134,0,0,1,.259-.913c.216-.223.351-.25.587-.058.138.113.256.249.387.37.061.056.055.218.208.136.132-.071.256-.126.226-.327-.06-.4-.094-.808-.137-1.213-.074-.691-.139-1.382-.223-2.071-.029-.239.119-.366.252-.508.093-.1.163-.034.2.063.132.352.267.7.383,1.062.039.12.045.274-.156.277-.121,0-.09.085-.085.146q.08,1.082.165,2.167a.3.3,0,0,0,.084-.014c.1-.066.176-.243.31-.178.108.053.036.218.049.332.018.149.028.312.2.369s.276-.069.376-.178a3.044,3.044,0,0,0,.3-.546c.119.126.062.295.133.427.058.108.109.233.251.213.163-.023.172-.168.176-.3a.235.235,0,0,0,0-.089c-.059-.15-.094-.326.106-.354.218-.03.127.2.163.307a.793.793,0,0,1-.011.412c-.086.406-.382.528-.712.262-.151-.121-.216-.114-.35.02a.581.581,0,0,1-.828.018c-.04-.035-.057-.123-.133-.076-.059.036-.03.108-.029.164.007.367.021.735.022,1.1a1.865,1.865,0,0,1-1.039,1.773,3.519,3.519,0,0,1-1.759.477.993.993,0,0,1-1.125-.911,3.027,3.027,0,0,1,.168-1.876.393.393,0,0,1,.056.332,4.061,4.061,0,0,0-.009.8,1.015,1.015,0,0,0,1.263,1.034,2.967,2.967,0,0,0,1.63-.733,1.171,1.171,0,0,0,.429-.854C1052.071,547.485,1052.06,547.128,1052.06,546.767Zm-.729-.275c-.164-.2-.258-.387-.482-.319-.1.029-.115.178-.066.26C1050.913,546.651,1051.1,546.473,1051.331,546.492Z" transform="translate(1593.459 -1386.633)" fill="#f3faf6"/>
    <path id="Path_20952" data-name="Path 20952" d="M1035.786,541.949a.654.654,0,0,0,.314-.719,2.139,2.139,0,0,1-.137-1.222,1.488,1.488,0,0,1,.068-.141.728.728,0,0,1,.347.662,2.674,2.674,0,0,0,.07.944.722.722,0,0,0,.261.454.382.382,0,0,0,.421.04c.144-.089.086-.231.06-.351a5.949,5.949,0,0,0-.276-.971.808.808,0,0,1-.065-.257.42.42,0,0,1,.254-.4c.145-.064.218.108.275.212.088.159.332.322.03.518-.055.036.006.128.022.195.06.25.126.5.168.753a.777.777,0,0,1-.3.791.562.562,0,0,1-.979-.261c-.019-.047-.028-.095-.081-.116a1.068,1.068,0,0,0-.381,1.068,12.544,12.544,0,0,1,.085,1.307.777.777,0,0,1-.188.579c-.034-.352-.061-.649-.091-.946-.038-.375-.078-.75-.118-1.125-.008-.075,0-.14-.11-.174a.989.989,0,0,1-.771-1.2,1.914,1.914,0,0,0-.014-.742,2.319,2.319,0,0,0-.239.855,2.079,2.079,0,0,1-.236.791c-.163.27-.336.276-.526.025a2.87,2.87,0,0,1-.216-2.168c.048.419.093.79.131,1.163a1.237,1.237,0,0,0,.115.367c.044.1.085.224.214.214s.155-.148.178-.247a3.984,3.984,0,0,0,.092-.587,2.292,2.292,0,0,1,.452-1.117.221.221,0,0,1,.249-.122c.125.037.155.143.162.258a1.7,1.7,0,0,1-.1.522,1.3,1.3,0,0,0,.158,1.055c.062.1.162.211.288.165s.045-.176.046-.266a8.078,8.078,0,0,0-.262-1.994.336.336,0,0,1,.168-.405c.145-.065.188.113.239.207.133.251.37.49.1.8-.048.057-.01.192,0,.29C1035.7,541.064,1035.742,541.479,1035.786,541.949Z" transform="translate(1607.419 -1384.042)" fill="#f3faf6"/>
    <path id="Path_20953" data-name="Path 20953" d="M1133.541,540.052a1.905,1.905,0,0,1,.178-1.4c-.007.309-.028.616-.014.924a1.275,1.275,0,0,0,.178.591.3.3,0,0,0,.253.182c.126,0,.148-.122.185-.207a9.022,9.022,0,0,1,.636-1.342,1.292,1.292,0,0,1,.076-.128c.079-.1.137-.262.287-.211s.147.216.124.359a6.767,6.767,0,0,0-.076,1.277c.015.464.318.639.728.418a.856.856,0,0,0,.476-.74,3.922,3.922,0,0,0-.163-1.293.638.638,0,0,1,.168-.572c.105-.147.154.018.181.1a4,4,0,0,1,.225,1.193,2.313,2.313,0,0,0,.228.978c.079.164.181.333.4.292.24-.046.26-.263.255-.448a3.268,3.268,0,0,0-.322-1.29c-.14-.3.067-.463.181-.665.052-.093.138-.043.2.019a1.461,1.461,0,0,1,.327.493c.043.108.139.233.052.327s-.174-.092-.314-.074a3.846,3.846,0,0,1,.21,1.066,1.445,1.445,0,0,1,.008.206c-.044.342-.109.7-.485.819-.352.112-.6-.126-.821-.364-.026-.028-.056-.053-.1-.1a2.009,2.009,0,0,1-.488.511.833.833,0,0,1-.863.157.845.845,0,0,1-.424-.772c-.017-.272,0-.545-.037-.826a12.966,12.966,0,0,0-.567,1.282c-.181.183-.313.125-.448-.068A3.714,3.714,0,0,1,1133.541,540.052Z" transform="translate(1514.983 -1382.681)" fill="#bedddc"/>
    <path id="Path_20954" data-name="Path 20954" d="M1184.644,610.481a2.631,2.631,0,0,0-1.071-.816c.774-.025,1.548-.046,2.322-.079.2-.009.209.091.172.237a.531.531,0,0,1-.47.462,3.268,3.268,0,0,0-.83.208Z" transform="translate(1468.753 -1448.875)" fill="#bedddc"/>
    <path id="Path_20955" data-name="Path 20955" d="M1120.507,541.258c.078-.067.127-.116.05-.24a.621.621,0,0,1,.105-.74.306.306,0,0,1,.339-.134.348.348,0,0,1,.237.311c.042.266-.151.482-.141.749,0,.081-.264.1-.3.273l-.1.039a.4.4,0,0,0-.2-.2A.389.389,0,0,0,1120.507,541.258Z" transform="translate(1526.984 -1384.778)" fill="#bedddc"/>
    <path id="Path_20956" data-name="Path 20956" d="M1037.533,617.312a.965.965,0,0,1-.035.558,1.38,1.38,0,0,0-.084.583.32.32,0,0,0,.128.285c.122.068.17-.053.232-.124.033-.037.064-.081.121-.058s.055.075.06.125a.68.68,0,0,1-.08.373.327.327,0,0,1-.637-.113A2.883,2.883,0,0,1,1037.533,617.312Z" transform="translate(1603.815 -1456.006)" fill="#f3faf6"/>
    <path id="Path_20957" data-name="Path 20957" d="M1037.914,590.753a2.723,2.723,0,0,1,1.338-.955c.07-.023.175-.111.222.031.028.086.03.2-.068.236A15.961,15.961,0,0,0,1037.914,590.753Z" transform="translate(1603.177 -1430.57)" fill="#f3faf6"/>
    <path id="Path_20958" data-name="Path 20958" d="M1199.133,632.308a.06.06,0,0,0,.046.011,1.239,1.239,0,0,1-.781.481c-.2.043-.343-.024-.286-.265s0-.346-.265-.256c.005-.1.071-.116.114-.149.115-.087.237-.245.381-.159.126.075.013.237-.013.352-.051.222.019.282.224.207S1198.94,632.382,1199.133,632.308Z" transform="translate(1455.58 -1469.511)" fill="#f3faf6"/>
    <path id="Path_20959" data-name="Path 20959" d="M1107.363,555.493a.4.4,0,0,1,.2.2,2.328,2.328,0,0,1-1.325.8C1106.58,556.124,1107.031,555.874,1107.363,555.493Z" transform="translate(1540.124 -1398.955)" fill="#f3faf6"/>
    <path id="Path_20960" data-name="Path 20960" d="M1069.651,539.692c.1.134.035.331.167.362.148.035.137-.193.283-.254.05.08.006.22.114.265.125.052.132-.119.224-.148.051.318-.013.38-.284.282a.122.122,0,0,0-.13.017.247.247,0,0,1-.367-.039A.377.377,0,0,1,1069.651,539.692Z" transform="translate(1573.967 -1384.373)" fill="#f3faf6"/>
    <path id="Path_20961" data-name="Path 20961" d="M1117.916,565.422c-.009.2-.12.306-.159.435-.034.112-.076.244.049.324s.2-.033.279-.1c.052-.044.1-.091.173-.158a.428.428,0,0,1-.3.444.263.263,0,0,1-.349-.068.435.435,0,0,1-.012-.476A1.046,1.046,0,0,1,1117.916,565.422Z" transform="translate(1529.696 -1408.119)" fill="#f3faf6"/>
    <path id="Path_20962" data-name="Path 20962" d="M1111.384,608.266a1.024,1.024,0,0,1,.043-.4c.025-.114.055-.229-.134-.255-.107-.014-.148-.123-.114-.233.027-.088.073-.168.181-.164s.168.1.188.2A1.047,1.047,0,0,1,1111.384,608.266Z" transform="translate(1535.574 -1446.682)" fill="#f3faf6"/>
    <path id="Path_20963" data-name="Path 20963" d="M1042.244,540.222c-.056-.14.091-.451-.265-.306-.045.018-.069-.041-.064-.076a.289.289,0,0,1,.2-.229.12.12,0,0,1,.164.077A.5.5,0,0,1,1042.244,540.222Z" transform="translate(1599.486 -1384.288)" fill="#f3faf6"/>
    <path id="Path_20964" data-name="Path 20964" d="M1197.43,540.248l.5.708a5.081,5.081,0,0,0-.09-.955.313.313,0,0,1-.019-.172c.045-.156.029-.382.226-.417.219-.039.206.2.264.332a4.717,4.717,0,0,1,.252.7c.036.13.217.333-.105.378-.012,0-.027.052-.024.079a2.32,2.32,0,0,0,.217,1.233,11.394,11.394,0,0,1,1.553,2.934.672.672,0,0,1,.052.443,22.49,22.49,0,0,0-1.662-2.937c-.02,1.329.474,2.625-.134,3.894-.1-.049-.069-.127-.06-.182a12.948,12.948,0,0,0-.156-3.289c-.012-.128-.046-.256-.047-.384a2.334,2.334,0,0,0-.668-1.571,10.191,10.191,0,0,0-.838-1.034c-.183-.159-.122-.5-.159-.754-.018-.123.137-.13.222-.052.292.268.589.533.859.822C1197.794,540.211,1197.623,540.253,1197.43,540.248Z" transform="translate(1456.792 -1383.872)" fill="#bedddc"/>
    <path id="Path_20965" data-name="Path 20965" d="M1154.958,585.606a.867.867,0,0,0-.812.739c-.031.183,0,.273.207.3a6.162,6.162,0,0,1,1,.093,1.047,1.047,0,0,1,.418.214,4.552,4.552,0,0,0-.454.283.7.7,0,0,0-.289.65c.019.159-.016.181-.173.134a1.241,1.241,0,0,1-.842-1.118,10.037,10.037,0,0,0-.469-2.021c-.087-.209-.171-.42-.256-.631.385.133.608.48.926.7.263.182.442.482.781.558Z" transform="translate(1496.698 -1425.494)" fill="#258a54"/>
    <path id="Path_20966" data-name="Path 20966" d="M1174.888,582.426l.041-.1c.232-.086.463-.176.7-.256.13-.044.193-.076.122-.244a.861.861,0,0,1,.282-.907.608.608,0,0,1,.725.008c.307.158.654.318.649.736s-.329.615-.666.756c-.427.178-.867.326-1.3.487A.807.807,0,0,0,1174.888,582.426Zm1.879-.635a2.43,2.43,0,0,0-.289-.176c-.073-.031-.157-.133-.232-.043s0,.189.027.278c.038.115.132.042.2.032A2.346,2.346,0,0,0,1176.767,581.791Z" transform="translate(1476.768 -1422.313)" fill="#bedddc"/>
    <path id="Path_20967" data-name="Path 20967" d="M1168.573,583.726c.1.11.072.329.214.3s.052-.251.158-.357c.155.05.1.275.27.327.108-.125,0-.31.12-.453a.479.479,0,0,1,.124.459c-.02.124-.112.222-.22.194-.164-.042-.27-.048-.381.11-.069.1-.185.022-.24-.07A.508.508,0,0,1,1168.573,583.726Z" transform="translate(1482.645 -1424.847)" fill="#bedddc"/>
    <path id="Path_20968" data-name="Path 20968" d="M1230.854,562.558c.05.188.152.4-.032.522-.149.1-.375-.088-.554.047a.372.372,0,0,1-.067-.412c.151.257.254.271.26-.027.14.013.069.172.193.2C1230.774,562.828,1230.725,562.641,1230.854,562.558Z" transform="translate(1425.755 -1405.475)" fill="#bedddc"/>
    <path id="Path_20969" data-name="Path 20969" d="M1161.917,542.95a1.949,1.949,0,0,0-.262-1.019.141.141,0,0,1,.07-.22c.1-.047.116.053.144.106A1.5,1.5,0,0,1,1161.917,542.95Z" transform="translate(1489.007 -1386.225)" fill="#bedddc"/>
    <path id="Path_20970" data-name="Path 20970" d="M1152.835,583.443l-.041-.07Z" transform="translate(1497.158 -1424.685)" fill="#258a54"/>
    <path id="Path_20971" data-name="Path 20971" d="M1267.42,684.746a.569.569,0,0,0,.3.127.253.253,0,0,0,.294.224.091.091,0,0,0,0,.041,1.161,1.161,0,0,1-.77.056c-.1-.008-.2-.16-.175-.3C1267.1,684.647,1267.311,684.819,1267.42,684.746Z" transform="translate(1391.704 -1518.239)" fill="#258a54"/>
    <path id="Path_20972" data-name="Path 20972" d="M1275.885,686.023a.253.253,0,0,1-.294-.224c.38-.015.762-.025,1.141-.048.128-.008.182.032.177.157-.008.094,0,.192-.146.191a2.772,2.772,0,0,1-.573.025C1276.135,685.952,1276,686.018,1275.885,686.023Z" transform="translate(1383.833 -1519.166)" fill="#227e4a"/>
    <path id="Path_20973" data-name="Path 20973" d="M1283.371,688.012a2.768,2.768,0,0,0,.573-.025c.148,0,.138-.1.146-.191.12.218.042.318-.191.293C1283.722,688.07,1283.527,688.171,1283.371,688.012Z" transform="translate(1376.652 -1521.054)" fill="#f3faf6"/>
    <path id="Path_20974" data-name="Path 20974" d="M1079,594.562c-.235-.019-.418.16-.548-.059-.049-.082-.031-.23.066-.26C1078.739,594.175,1078.833,594.363,1079,594.562Z" transform="translate(1565.794 -1434.704)" fill="#258a54"/>
    <path id="Path_20975" data-name="Path 20975" d="M1192.654,590.556a2.359,2.359,0,0,1-.3.091c-.066.01-.16.083-.2-.032-.029-.089-.095-.2-.027-.278s.16.012.232.043A2.441,2.441,0,0,1,1192.654,590.556Z" transform="translate(1460.881 -1431.078)" fill="#258a54"/>
  </g>
</svg>
