<svg xmlns="http://www.w3.org/2000/svg" width="12.456" height="11.311" viewBox="0 0 12.456 11.311">
  <g id="Path_159371" data-name="Path 159371" fill="none">
    <path d="M6.228,11.311C2.879,9.052,1.123,7,.4,5.278A3.584,3.584,0,0,1,6.228,1.187a3.584,3.584,0,0,1,5.825,4.092C11.333,7,9.577,9.052,6.228,11.311Z" stroke="none"/>
    <path d="M 6.228029251098633 10.09577941894531 C 9.407206535339355 7.849912166595459 10.65059089660645 6.038888454437256 11.13098907470703 4.892046451568604 C 11.5810489654541 3.817256450653076 11.56323909759521 2.864886522293091 11.07949924468994 2.137866497039795 C 10.61248970031738 1.436006546020508 9.751209259033203 1.000006556510925 8.831759452819824 1.000006556510925 C 8.400969505310059 1.000006556510925 7.590099334716797 1.106926560401917 6.999509334564209 1.823036551475525 L 6.228029251098633 2.758476495742798 L 5.456549167633057 1.823046565055847 C 4.865959167480469 1.106936573982239 4.055079460144043 1.000006556510925 3.624289274215698 1.000006556510925 C 2.704969167709351 1.000006556510925 1.84373927116394 1.436046600341797 1.376689195632935 2.137966632843018 C 0.8929092288017273 2.865026473999023 0.8750592470169067 3.817376613616943 1.325029253959656 4.891936779022217 C 1.805465340614319 6.038882732391357 3.048851728439331 7.849912166595459 6.228029251098633 10.09577941894531 M 6.228029251098633 11.31067657470703 C 2.879259347915649 9.052306175231934 1.12295925617218 6.997796535491943 0.4026792645454407 5.27829647064209 C -1.526920557022095 0.6702667474746704 3.984587430953979 -1.533443808555603 6.228029251098633 1.186786532402039 C 8.47145938873291 -1.533443927764893 13.98297882080078 0.6702670454978943 12.05337905883789 5.27829647064209 C 11.33309936523438 6.997796535491943 9.576799392700195 9.052306175231934 6.228029251098633 11.31067657470703 Z" stroke="none" fill="#000"/>
  </g>
</svg>
