<svg id="_5Ot7jO.tif" data-name="5Ot7jO.tif" xmlns="http://www.w3.org/2000/svg" width="10.854" height="13.125" viewBox="0 0 10.854 13.125">
  <g id="Group_38" data-name="Group 38" transform="translate(0)">
    <path id="Path_154021" data-name="Path 154021" d="M700.178,839.321h.512a1.05,1.05,0,0,0,.109.028,2.477,2.477,0,0,1,2.056,1.861,6.573,6.573,0,0,1,.088,1.029c.008.109,0,.219,0,.336h.156c.482,0,.965,0,1.447,0a.466.466,0,0,1,.51.446c.028.216.042.433.061.65q.171,1.926.342,3.852.186,2.066.374,4.132c.006.064.008.128.015.191a.482.482,0,0,1-.53.6q-4.86,0-9.72,0a.55.55,0,0,1-.6-.388v-.231a.865.865,0,0,0,.024-.11c.063-.706.125-1.412.188-2.117q.148-1.639.3-3.277c.1-1.088.192-2.177.291-3.265a.478.478,0,0,1,.53-.483h1.591c0-.256,0-.495,0-.733a2.507,2.507,0,0,1,1.931-2.449C699.963,839.366,700.071,839.345,700.178,839.321Zm-1.31,4.2c0,.282,0,.551,0,.819a.471.471,0,1,1-.942,0c0-.149,0-.3,0-.448,0-.122,0-.244,0-.371-.375,0-.729.005-1.083,0-.114,0-.141.036-.149.143-.049.617-.106,1.233-.162,1.85q-.123,1.371-.247,2.742-.11,1.218-.219,2.436c-.024.266-.046.532-.069.8h8.878c-.01-.113-.02-.214-.029-.316q-.158-1.786-.317-3.571c-.118-1.318-.238-2.636-.353-3.954-.009-.107-.046-.133-.148-.131-.32.006-.64,0-.961,0-.037,0-.074,0-.1.006-.01.013-.015.016-.015.02,0,.269,0,.538-.005.807a.47.47,0,0,1-.94.017c-.009-.179,0-.359,0-.538,0-.1,0-.2,0-.306Zm3.13-.954c0-.27,0-.53,0-.789a1.563,1.563,0,0,0-1.143-1.458,1.582,1.582,0,0,0-1.749.677,2.833,2.833,0,0,0-.236,1.57Z" transform="translate(-695.003 -839.321)"/>
  </g>
</svg>
