<svg xmlns="http://www.w3.org/2000/svg" width="11.11" height="13.125" viewBox="0 0 11.11 13.125">
  <g id="_2JDlv8.tif" data-name="2JDlv8.tif" transform="translate(0)">
    <g id="Group_31" data-name="Group 31" transform="translate(0 0)">
      <path id="Path_71" data-name="Path 71" d="M-440.973-101.377c.024-.245.039-.492.074-.736a5.383,5.383,0,0,1,.984-2.43,5.523,5.523,0,0,1,2.41-1.9c.031-.013.062-.028.106-.048a3.345,3.345,0,0,1-1.358-3.033,3.224,3.224,0,0,1,1.178-2.255,3.343,3.343,0,0,1,4.538.188,3.232,3.232,0,0,1,.978,2.638,3.331,3.331,0,0,1-1.363,2.459c.184.086.355.159.52.245a5.505,5.505,0,0,1,2.77,3.227,4.866,4.866,0,0,1,.265,1.864,1.835,1.835,0,0,1-1.55,1.683.389.389,0,0,0-.069.025h-7.843a.27.27,0,0,0-.056-.023,1.772,1.772,0,0,1-1.388-1.04,4.267,4.267,0,0,1-.2-.731Zm5.567.915c1.2,0,2.4-.006,3.6,0a.865.865,0,0,0,.932-.956c-.019-.182-.023-.367-.051-.548a4.347,4.347,0,0,0-1.963-3.107,4.307,4.307,0,0,0-4.512-.3,4.387,4.387,0,0,0-2.547,4.044.874.874,0,0,0,.088.393.838.838,0,0,0,.827.472Zm-.005-11.108a2.368,2.368,0,0,0-2.356,2.356,2.361,2.361,0,0,0,2.356,2.354,2.362,2.362,0,0,0,2.356-2.353A2.368,2.368,0,0,0-435.411-111.57Z" transform="translate(440.973 112.58)"/>
    </g>
  </g>
</svg>
