<svg xmlns="http://www.w3.org/2000/svg" width="13.243" height="12.47" viewBox="0 0 13.243 12.47">
  <g id="SOyLeA.tif" transform="translate(-692.107 -276.046)">
    <g id="Group_145921" data-name="Group 145921" transform="translate(692.107 276.046)">
      <path id="Path_159391" data-name="Path 159391" d="M692.107,287.212v-8.748c.043-.226.075-.456.133-.679a2.1,2.1,0,0,1,1.48-1.623c.16-.047.324-.078.487-.116h8.59c.012.009.023.024.036.027a1.516,1.516,0,0,1,1.236,1.582c0,.232,0,.465,0,.693A1.6,1.6,0,0,1,705.35,280c-.021,2.327-.007,4.655-.009,6.982a1.513,1.513,0,0,1-1.518,1.531q-5.1,0-10.2,0a1.516,1.516,0,0,1-1.405-.942C692.174,287.456,692.145,287.332,692.107,287.212Zm1.018-7.858v.193q0,3.658,0,7.316c0,.45.187.637.637.637h9.925c.452,0,.638-.185.638-.636q0-3.435,0-6.87c0-.452-.186-.639-.635-.639H693.125Zm9.928-1.024c0-.217,0-.417,0-.618,0-.463-.183-.648-.641-.648q-3.832,0-7.665,0a4.584,4.584,0,0,0-.523.031,1.183,1.183,0,0,0-1.029,1.234Z" transform="translate(-692.107 -276.046)"/>
      <path id="Path_159392" data-name="Path 159392" d="M981.218,484.425a.89.89,0,1,1-.885-.887A.884.884,0,0,1,981.218,484.425Z" transform="translate(-970.274 -476.92)"/>
    </g>
  </g>
</svg>
