<svg xmlns="http://www.w3.org/2000/svg" width="18.184" height="21.482" viewBox="0 0 18.184 21.482">
  <g id="_2JDlv8.tif" data-name="2JDlv8.tif" transform="translate(0 0)">
    <g id="Group_31" data-name="Group 31" transform="translate(0 0)">
      <path id="Path_71" data-name="Path 71" d="M-440.973-94.245c.04-.4.065-.806.121-1.2a8.81,8.81,0,0,1,1.61-3.977,9.041,9.041,0,0,1,3.945-3.113c.051-.021.1-.046.174-.079a5.474,5.474,0,0,1-2.223-4.965,5.277,5.277,0,0,1,1.928-3.69,5.471,5.471,0,0,1,7.426.307,5.29,5.29,0,0,1,1.6,4.317,5.452,5.452,0,0,1-2.231,4.024c.3.141.581.26.851.4a9.01,9.01,0,0,1,4.533,5.282,7.964,7.964,0,0,1,.433,3.051,3,3,0,0,1-2.536,2.754.634.634,0,0,0-.114.04h-12.836a.443.443,0,0,0-.092-.038,2.9,2.9,0,0,1-2.271-1.7,6.987,6.987,0,0,1-.321-1.2Zm9.111,1.5c1.964,0,3.928-.011,5.892,0a1.415,1.415,0,0,0,1.525-1.564c-.031-.3-.038-.6-.083-.9a7.115,7.115,0,0,0-3.212-5.085,7.05,7.05,0,0,0-7.384-.494,7.18,7.18,0,0,0-4.168,6.619,1.431,1.431,0,0,0,.143.644,1.371,1.371,0,0,0,1.353.773Zm-.008-18.181a3.875,3.875,0,0,0-3.856,3.856,3.865,3.865,0,0,0,3.856,3.852,3.865,3.865,0,0,0,3.857-3.851A3.875,3.875,0,0,0-431.87-110.928Z" transform="translate(440.973 112.58)"/>
    </g>
  </g>
</svg>
