<svg xmlns="http://www.w3.org/2000/svg" width="11.533" height="15.298" viewBox="0 0 11.533 15.298">
  <g id="OBoIMa.tif" transform="translate(558.368 -32.009)">
    <g id="Group_33" data-name="Group 33" transform="translate(-558.368 32.009)">
      <path id="Path_73" data-name="Path 73" d="M-546.835,38.2c-.051.294-.093.589-.154.881a5.544,5.544,0,0,1-.692,1.713c-1.458,2.436-2.916,3.754-4.375,6.19-.011.018-.022.037-.033.055a.483.483,0,0,1-.868,0c-.535-.855-1.259-1.66-1.79-2.517a20.483,20.483,0,0,1-2.669-3.547,5.814,5.814,0,0,1-.921-3.783,5.645,5.645,0,0,1,1.379-3.179,5.483,5.483,0,0,1,2.521-1.688,13.274,13.274,0,0,1,1.357-.285c.052-.01.1-.018.156-.027h.641a.705.705,0,0,0,.108.024,5.3,5.3,0,0,1,2.1.569,5.689,5.689,0,0,1,3.18,4.385c.025.157.042.315.063.473Zm-5.693,7.7.063-.1c1.324-2.212,2.65-3.3,3.97-5.518a4.665,4.665,0,0,0,.636-3.229,4.646,4.646,0,0,0-2.492-3.508,4.571,4.571,0,0,0-4.4-.055,4.644,4.644,0,0,0-2.569,3.362,4.68,4.68,0,0,0,.656,3.515c1.347,2.173,2.534,3.346,4.042,5.4C-552.593,45.8-552.565,45.839-552.528,45.894Z" transform="translate(558.368 -32.009)"/>
      <path id="Path_74" data-name="Path 74" d="M-465.764,127.63a2.887,2.887,0,0,1-2.886-2.882,2.894,2.894,0,0,1,2.881-2.889,2.894,2.894,0,0,1,2.885,2.884A2.885,2.885,0,0,1-465.764,127.63Zm-.01-.959a1.921,1.921,0,0,0,1.931-1.915,1.927,1.927,0,0,0-1.909-1.938,1.927,1.927,0,0,0-1.939,1.925A1.922,1.922,0,0,0-465.775,126.672Z" transform="translate(471.532 -118.974)"/>
    </g>
  </g>
</svg>
