<svg xmlns="http://www.w3.org/2000/svg" width="38.297" height="31.488" viewBox="0 0 38.297 31.488">
  <path id="Path_154638" data-name="Path 154638" d="M2271.953,1073.3c-.753-.991-1.514-2-2.25-2.977q-.943-1.25-1.887-2.5a4.064,4.064,0,0,0-3.4-1.706c-.589,0-1.19,0-1.77,0H2260.9v-.5c0-.334,0-.663,0-.99,0-.725,0-1.411,0-2.108a4.047,4.047,0,0,0-2.825-3.861,5.061,5.061,0,0,0-1.472-.211c-4.921-.014-9.925-.012-14.763-.01h-2.652a4.1,4.1,0,0,0-4.245,3.453,1,1,0,0,1-.055.176v21.138c.056.163.107.327.156.487a5.2,5.2,0,0,0,.408,1.06,4,4,0,0,0,3.592,2.069c.136,0,.272,0,.417,0,.233,0,.474-.005.719.013a.961.961,0,0,1,.758.495,4.087,4.087,0,0,0,3.593,2.55.99.99,0,0,1,.215.046h.038c.1-.017.21-.033.316-.048a5.744,5.744,0,0,0,.685-.126,4.02,4.02,0,0,0,2.714-2.32.934.934,0,0,1,.93-.613h0c2.93.009,5.9.009,8.821,0h0a.936.936,0,0,1,.926.606,4.012,4.012,0,0,0,3.43,2.448,2.315,2.315,0,0,1,.257.045l.039.008h.062c.1-.017.21-.033.315-.048a5.753,5.753,0,0,0,.685-.126,3.969,3.969,0,0,0,2.679-2.255,1.058,1.058,0,0,1,1.069-.68h.018c1.35.012,2.724.01,4.052.009h1.391q0-1.4,0-2.8c0-2.292,0-4.662,0-6.993A5.911,5.911,0,0,0,2271.953,1073.3Zm-25.169,12.552a2.042,2.042,0,0,1-2.021,1.967l-.082,0a2.049,2.049,0,0,1-1.962-2.095,2,2,0,0,1,.641-1.413,2.033,2.033,0,0,1,3.424,1.543Zm12.042-1.7c0,.035,0,.075-.007.122l-.023.475h-2.768c-2.136,0-4.345,0-6.517.006h-.006a1.008,1.008,0,0,1-1.017-.635,3.912,3.912,0,0,0-3.732-2.42h-.01a3.928,3.928,0,0,0-3.74,2.43.973.973,0,0,1-.926.628c-.032,0-.064,0-.1,0-.163-.012-.332-.009-.512-.006s-.337.005-.513,0a2.022,2.022,0,0,1-2-2.089c0-6.707,0-13.454,0-20.055a2.031,2.031,0,0,1,2.126-2.1c.919-.007,1.853-.006,2.756,0h14.744a2.053,2.053,0,0,1,2.184,1.563,2.249,2.249,0,0,1,.061.536q0,10.679,0,21.358C2258.833,1084.033,2258.83,1084.093,2258.826,1084.162Zm2.1-15.971h1.821c.549,0,1.1,0,1.646,0h.01a2.074,2.074,0,0,1,1.719.834q1.861,2.459,3.717,4.921a1.179,1.179,0,0,1,.1.153l.041.073.437.751h-9.486Zm2.015,19.634h0a2.029,2.029,0,1,1,0-4.058h0a2.029,2.029,0,1,1,0,4.058Zm8.159-3.065h-1.6l-.5,0h-.5c-.311,0-.626,0-.938-.013a.972.972,0,0,1-.82-.521,4.124,4.124,0,0,0-5.1-2.33.554.554,0,0,1-.26.014l-.009,0-.443-.05v-4.817h10.17Z" transform="translate(-2234.89 -1058.44)" fill="#fff"/>
</svg>
