<svg xmlns="http://www.w3.org/2000/svg" width="16.179" height="14.691" viewBox="0 0 16.179 14.691">
  <g id="Path_159376" data-name="Path 159376" fill="none">
    <path d="M8.09,14.691C3.74,11.758,1.459,9.089.523,6.856-1.983.871,5.176-1.992,8.09,1.542,11-1.992,18.162.871,15.656,6.856,14.721,9.089,12.439,11.758,8.09,14.691Z" stroke="none"/>
    <path d="M 8.089559555053711 13.47859191894531 C 12.40428256988525 10.46440029144287 14.08588600158691 8.016175270080566 14.7336893081665 6.469702243804932 C 15.35872936248779 4.977042198181152 15.32631969451904 3.642822027206421 14.63994979858398 2.611282110214233 C 13.97863960266113 1.617411971092224 12.76457977294922 1.000002026557922 11.47153949737549 1.000002026557922 C 10.41449928283691 1.000002026557922 9.487409591674805 1.418272018432617 8.861039161682129 2.177762031555176 L 8.089559555053711 3.113202095031738 L 7.318079471588135 2.177772045135498 C 6.691709518432617 1.418272018432617 5.764609336853027 1.000002026557922 4.707579612731934 1.000002026557922 C 3.414699554443359 1.000002026557922 2.200689554214478 1.617462038993835 1.539329528808594 2.611412048339844 C 0.8529095649719238 3.643012046813965 0.8204495310783386 4.977181911468506 1.44538950920105 6.469592094421387 C 2.093231201171875 8.016170501708984 3.774836540222168 10.46440029144287 8.089559555053711 13.47859191894531 M 8.089559555053711 14.69138240814209 C 3.739859580993652 11.75799179077148 1.458609580993652 9.089402198791504 0.5230395793914795 6.85595178604126 C -1.983310222625732 0.8706024885177612 5.175567150115967 -1.991778373718262 8.089559555053711 1.541512012481689 C 11.00354957580566 -1.991778135299683 18.16242980957031 0.8706022500991821 15.65607929229736 6.85595178604126 C 14.72050952911377 9.089402198791504 12.43925952911377 11.75799179077148 8.089559555053711 14.69138240814209 Z" stroke="none" fill="#39586b"/>
  </g>
</svg>
